G04 Layer_Physical_Order=1*
G04 Layer_Color=255*
%FSLAX44Y44*%
%MOMM*%
G71*
G01*
G75*
%ADD10R,2.0000X1.9000*%
%ADD11R,1.3000X1.9000*%
%ADD12R,2.5400X2.6700*%
%ADD13R,1.2700X0.7620*%
%ADD14R,0.7000X0.9000*%
%ADD15R,1.3000X2.0000*%
%ADD16R,1.2000X1.3000*%
%ADD17R,1.3000X1.3000*%
%ADD18R,0.9000X0.7000*%
%ADD19R,0.9500X0.3000*%
%ADD20R,0.5000X0.8000*%
%ADD21R,4.5000X1.4000*%
%ADD22C,0.2500*%
%ADD23C,0.5000*%
%ADD24C,3.0000*%
%ADD25C,1.7000*%
%ADD26C,1.3716*%
%ADD27C,1.9500*%
%ADD28C,2.3000*%
%ADD29C,0.7000*%
G36*
X842761Y861811D02*
Y262139D01*
X262139D01*
Y861811D01*
X842761Y861811D01*
D02*
G37*
%LPC*%
G36*
X464200Y399430D02*
X458470D01*
Y394700D01*
X464200D01*
Y399430D01*
D02*
G37*
G36*
X455930D02*
X450200D01*
Y394700D01*
X455930D01*
Y399430D01*
D02*
G37*
G36*
X530920Y433070D02*
X523670D01*
X516420D01*
Y430340D01*
X517396D01*
Y424816D01*
X520842D01*
Y403460D01*
X521057Y402378D01*
X521670Y401460D01*
X522296Y400834D01*
Y396493D01*
X521123Y396007D01*
X518448Y398681D01*
Y411480D01*
X518233Y412562D01*
X517620Y413480D01*
X516702Y414093D01*
X515620Y414308D01*
X494650D01*
X494650Y414308D01*
X493568Y414093D01*
X492650Y413480D01*
X492650Y413480D01*
X473872Y394702D01*
X472698Y395188D01*
Y412780D01*
X472483Y413862D01*
X471870Y414780D01*
X470630Y416020D01*
X469712Y416633D01*
X468630Y416848D01*
X442554D01*
Y420044D01*
X432506D01*
Y407996D01*
X442554D01*
Y411192D01*
X467042D01*
Y389528D01*
X463224D01*
Y391724D01*
X451176D01*
Y381676D01*
X463224D01*
Y383872D01*
X467042D01*
Y368172D01*
X450120Y351250D01*
X449507Y350332D01*
X449292Y349250D01*
Y336831D01*
X447893Y336252D01*
X446142Y334908D01*
X444798Y333157D01*
X443954Y331118D01*
X443666Y328930D01*
X443954Y326742D01*
X444798Y324703D01*
X446142Y322952D01*
X447893Y321608D01*
X449932Y320764D01*
X452120Y320476D01*
X454308Y320764D01*
X456347Y321608D01*
X458098Y322952D01*
X459442Y324703D01*
X460286Y326742D01*
X460574Y328930D01*
X460286Y331118D01*
X459442Y333157D01*
X458098Y334908D01*
X456347Y336252D01*
X454948Y336831D01*
Y348078D01*
X471870Y365000D01*
X472483Y365918D01*
X472698Y367000D01*
Y385528D01*
X495821Y408652D01*
X512792D01*
Y397510D01*
X513007Y396428D01*
X513620Y395510D01*
X522296Y386834D01*
Y379786D01*
X534344D01*
Y389834D01*
X527296D01*
X524517Y392613D01*
X525003Y393786D01*
X534344D01*
Y395952D01*
X536922D01*
Y389890D01*
X537137Y388808D01*
X537750Y387890D01*
X542830Y382810D01*
X543748Y382197D01*
X544830Y381982D01*
X544830Y381982D01*
X547696D01*
Y379786D01*
X559744D01*
Y389834D01*
X547696D01*
Y387638D01*
X546002D01*
X542578Y391062D01*
Y398780D01*
X542363Y399862D01*
X541750Y400780D01*
X540832Y401393D01*
X539750Y401608D01*
X534344D01*
Y403834D01*
X527296D01*
X526498Y404632D01*
Y424816D01*
X529944D01*
Y430340D01*
X530920D01*
Y433070D01*
D02*
G37*
G36*
X455930Y406700D02*
X450200D01*
Y401970D01*
X455930D01*
Y406700D01*
D02*
G37*
G36*
X312990Y420741D02*
X310047Y420354D01*
X307304Y419218D01*
X304949Y417411D01*
X303142Y415056D01*
X302006Y412313D01*
X301619Y409370D01*
X302006Y406427D01*
X303142Y403684D01*
X304949Y401329D01*
X307304Y399522D01*
X310047Y398386D01*
X312990Y397999D01*
X315933Y398386D01*
X318676Y399522D01*
X321031Y401329D01*
X322838Y403684D01*
X323974Y406427D01*
X324361Y409370D01*
X323974Y412313D01*
X322838Y415056D01*
X321031Y417411D01*
X318676Y419218D01*
X315933Y420354D01*
X312990Y420741D01*
D02*
G37*
G36*
X637540Y391730D02*
X629810D01*
Y381000D01*
X637540D01*
Y391730D01*
D02*
G37*
G36*
X584850Y384160D02*
X579120D01*
Y379430D01*
X584850D01*
Y384160D01*
D02*
G37*
G36*
X647810Y391730D02*
X640080D01*
Y381000D01*
X647810D01*
Y391730D01*
D02*
G37*
G36*
X584850Y391430D02*
X579120D01*
Y386700D01*
X584850D01*
Y391430D01*
D02*
G37*
G36*
X576580D02*
X570850D01*
Y386700D01*
X576580D01*
Y391430D01*
D02*
G37*
G36*
X464200Y406700D02*
X458470D01*
Y401970D01*
X464200D01*
Y406700D01*
D02*
G37*
G36*
X749280Y441938D02*
Y432280D01*
X758938D01*
X758727Y433882D01*
X757618Y436557D01*
X755855Y438855D01*
X753558Y440619D01*
X750882Y441727D01*
X749280Y441938D01*
D02*
G37*
G36*
X746740D02*
X745138Y441727D01*
X742462Y440619D01*
X740165Y438855D01*
X738401Y436557D01*
X737293Y433882D01*
X737082Y432280D01*
X746740D01*
Y441938D01*
D02*
G37*
G36*
X411480Y461052D02*
X409520Y460662D01*
X407858Y459552D01*
X406748Y457890D01*
X406358Y455930D01*
X406748Y453970D01*
X407858Y452308D01*
X408652Y451777D01*
Y444402D01*
X408210Y443960D01*
X408210Y443960D01*
X398050Y433800D01*
X397437Y432882D01*
X397222Y431800D01*
Y392332D01*
X373920Y369030D01*
X373307Y368112D01*
X373092Y367030D01*
Y336831D01*
X371693Y336252D01*
X369942Y334908D01*
X368598Y333157D01*
X367754Y331118D01*
X367466Y328930D01*
X367754Y326742D01*
X368598Y324703D01*
X369942Y322952D01*
X371693Y321608D01*
X373732Y320764D01*
X375920Y320476D01*
X378108Y320764D01*
X380147Y321608D01*
X381898Y322952D01*
X383242Y324703D01*
X384086Y326742D01*
X384374Y328930D01*
X384086Y331118D01*
X383242Y333157D01*
X381898Y334908D01*
X380147Y336252D01*
X378748Y336831D01*
Y365858D01*
X402050Y389160D01*
X402302Y389537D01*
X403572Y389151D01*
Y384711D01*
X399320Y380460D01*
X398707Y379542D01*
X398492Y378460D01*
Y336831D01*
X397093Y336252D01*
X395342Y334908D01*
X393998Y333157D01*
X393154Y331118D01*
X392866Y328930D01*
X393154Y326742D01*
X393998Y324703D01*
X395342Y322952D01*
X397093Y321608D01*
X399132Y320764D01*
X401320Y320476D01*
X403508Y320764D01*
X405547Y321608D01*
X407298Y322952D01*
X408642Y324703D01*
X409486Y326742D01*
X409774Y328930D01*
X409486Y331118D01*
X408642Y333157D01*
X407298Y334908D01*
X405547Y336252D01*
X404148Y336831D01*
Y377289D01*
X408400Y381540D01*
X409013Y382458D01*
X409228Y383540D01*
X409228Y383540D01*
Y406498D01*
X413922Y411192D01*
X418506D01*
Y407996D01*
X428554D01*
Y420044D01*
X422892D01*
X422305Y421314D01*
X422599Y421660D01*
X422910Y421598D01*
X424870Y421987D01*
X426532Y423098D01*
X427643Y424760D01*
X428032Y426720D01*
X427643Y428680D01*
X426532Y430342D01*
X424870Y431452D01*
X422910Y431842D01*
X420950Y431452D01*
X419288Y430342D01*
X418177Y428680D01*
X417788Y426720D01*
X417974Y425784D01*
X410750Y418560D01*
X410137Y417642D01*
X409922Y416560D01*
Y415192D01*
X404400Y409670D01*
X404148Y409293D01*
X402878Y409678D01*
Y430629D01*
X411382Y439132D01*
X418506D01*
Y435936D01*
X428554D01*
Y447984D01*
X418506D01*
Y444788D01*
X414308D01*
Y451777D01*
X415102Y452308D01*
X416213Y453970D01*
X416602Y455930D01*
X416213Y457890D01*
X415102Y459552D01*
X413440Y460662D01*
X411480Y461052D01*
D02*
G37*
G36*
X389490Y446100D02*
X365760D01*
Y437870D01*
X389490D01*
Y446100D01*
D02*
G37*
G36*
X363220D02*
X339490D01*
Y437870D01*
X363220D01*
Y446100D01*
D02*
G37*
G36*
X576580Y421260D02*
X570850D01*
Y416530D01*
X576580D01*
Y421260D01*
D02*
G37*
G36*
X584850Y413990D02*
X579120D01*
Y409260D01*
X584850D01*
Y413990D01*
D02*
G37*
G36*
Y421260D02*
X579120D01*
Y416530D01*
X584850D01*
Y421260D01*
D02*
G37*
G36*
X746740Y429740D02*
X737082D01*
X737293Y428138D01*
X738401Y425463D01*
X740165Y423165D01*
X742462Y421401D01*
X745138Y420293D01*
X746740Y420082D01*
Y429740D01*
D02*
G37*
G36*
X758938D02*
X749280D01*
Y420082D01*
X750882Y420293D01*
X753558Y421401D01*
X755855Y423165D01*
X757618Y425463D01*
X758727Y428138D01*
X758938Y429740D01*
D02*
G37*
G36*
X518160Y359452D02*
X516200Y359062D01*
X514538Y357952D01*
X513428Y356290D01*
X513038Y354330D01*
X513428Y352370D01*
X514538Y350708D01*
X515332Y350177D01*
Y336831D01*
X513933Y336252D01*
X512182Y334908D01*
X510838Y333157D01*
X509994Y331118D01*
X509706Y328930D01*
X509994Y326742D01*
X510838Y324703D01*
X512182Y322952D01*
X513933Y321608D01*
X515972Y320764D01*
X518160Y320476D01*
X520348Y320764D01*
X522387Y321608D01*
X524138Y322952D01*
X525482Y324703D01*
X526326Y326742D01*
X526614Y328930D01*
X526326Y331118D01*
X525482Y333157D01*
X524138Y334908D01*
X522387Y336252D01*
X520988Y336831D01*
Y350177D01*
X521782Y350708D01*
X522892Y352370D01*
X523282Y354330D01*
X522892Y356290D01*
X521782Y357952D01*
X520120Y359062D01*
X518160Y359452D01*
D02*
G37*
G36*
X492760Y364532D02*
X490800Y364142D01*
X489138Y363032D01*
X488027Y361370D01*
X487638Y359410D01*
X488027Y357450D01*
X489138Y355788D01*
X489932Y355257D01*
Y336831D01*
X488533Y336252D01*
X486782Y334908D01*
X485438Y333157D01*
X484594Y331118D01*
X484306Y328930D01*
X484594Y326742D01*
X485438Y324703D01*
X486782Y322952D01*
X488533Y321608D01*
X490572Y320764D01*
X492760Y320476D01*
X494948Y320764D01*
X496987Y321608D01*
X498738Y322952D01*
X500082Y324703D01*
X500926Y326742D01*
X501214Y328930D01*
X500926Y331118D01*
X500082Y333157D01*
X498738Y334908D01*
X496987Y336252D01*
X495588Y336831D01*
Y355257D01*
X496382Y355788D01*
X497492Y357450D01*
X497882Y359410D01*
X497492Y361370D01*
X496382Y363032D01*
X494720Y364142D01*
X492760Y364532D01*
D02*
G37*
G36*
X570230Y363262D02*
X568270Y362873D01*
X566608Y361762D01*
X565498Y360100D01*
X565108Y358140D01*
X565498Y356180D01*
X566608Y354518D01*
X567402Y353988D01*
Y337179D01*
X566772Y337096D01*
X564733Y336252D01*
X562982Y334908D01*
X561638Y333157D01*
X560794Y331118D01*
X560506Y328930D01*
X560794Y326742D01*
X561638Y324703D01*
X562982Y322952D01*
X564733Y321608D01*
X566772Y320764D01*
X568960Y320476D01*
X571148Y320764D01*
X573187Y321608D01*
X574938Y322952D01*
X576282Y324703D01*
X577126Y326742D01*
X577414Y328930D01*
X577126Y331118D01*
X576282Y333157D01*
X574938Y334908D01*
X573187Y336252D01*
X573058Y336305D01*
Y353988D01*
X573852Y354518D01*
X574963Y356180D01*
X575352Y358140D01*
X574963Y360100D01*
X573852Y361762D01*
X572190Y362873D01*
X570230Y363262D01*
D02*
G37*
G36*
X660400Y337384D02*
X658212Y337096D01*
X656173Y336252D01*
X654422Y334908D01*
X653078Y333157D01*
X652234Y331118D01*
X651946Y328930D01*
X652234Y326742D01*
X653078Y324703D01*
X654422Y322952D01*
X656173Y321608D01*
X658212Y320764D01*
X660400Y320476D01*
X662588Y320764D01*
X664627Y321608D01*
X666378Y322952D01*
X667722Y324703D01*
X668566Y326742D01*
X668854Y328930D01*
X668566Y331118D01*
X667722Y333157D01*
X666378Y334908D01*
X664627Y336252D01*
X662588Y337096D01*
X660400Y337384D01*
D02*
G37*
G36*
X609600Y355642D02*
X607640Y355252D01*
X605978Y354142D01*
X604868Y352480D01*
X604478Y350520D01*
X604868Y348560D01*
X605978Y346898D01*
X606772Y346367D01*
Y336831D01*
X605373Y336252D01*
X603622Y334908D01*
X602278Y333157D01*
X601434Y331118D01*
X601146Y328930D01*
X601434Y326742D01*
X602278Y324703D01*
X603622Y322952D01*
X605373Y321608D01*
X607412Y320764D01*
X609600Y320476D01*
X611788Y320764D01*
X613827Y321608D01*
X615578Y322952D01*
X616922Y324703D01*
X617766Y326742D01*
X618054Y328930D01*
X617766Y331118D01*
X616922Y333157D01*
X615578Y334908D01*
X613827Y336252D01*
X612428Y336831D01*
Y346367D01*
X613222Y346898D01*
X614333Y348560D01*
X614722Y350520D01*
X614333Y352480D01*
X613222Y354142D01*
X611560Y355252D01*
X609600Y355642D01*
D02*
G37*
G36*
X308610Y346720D02*
X303901Y346256D01*
X299372Y344883D01*
X295198Y342652D01*
X291540Y339650D01*
X288538Y335992D01*
X286307Y331818D01*
X284934Y327290D01*
X284470Y322580D01*
X284934Y317871D01*
X286307Y313342D01*
X288538Y309168D01*
X291540Y305510D01*
X295198Y302508D01*
X299372Y300277D01*
X303901Y298904D01*
X308610Y298440D01*
X313319Y298904D01*
X317848Y300277D01*
X322022Y302508D01*
X325680Y305510D01*
X328682Y309168D01*
X330913Y313342D01*
X332286Y317871D01*
X332750Y322580D01*
X332286Y327290D01*
X330913Y331818D01*
X328682Y335992D01*
X325680Y339650D01*
X322022Y342652D01*
X317848Y344883D01*
X313319Y346256D01*
X308610Y346720D01*
D02*
G37*
G36*
X784860Y345450D02*
X780151Y344986D01*
X775622Y343613D01*
X771448Y341382D01*
X767790Y338380D01*
X764788Y334722D01*
X762557Y330548D01*
X761184Y326020D01*
X760720Y321310D01*
X761184Y316600D01*
X762557Y312072D01*
X764788Y307898D01*
X767790Y304240D01*
X771448Y301238D01*
X775622Y299007D01*
X780151Y297634D01*
X784860Y297170D01*
X789569Y297634D01*
X794098Y299007D01*
X798272Y301238D01*
X801930Y304240D01*
X804932Y307898D01*
X807163Y312072D01*
X808536Y316600D01*
X809000Y321310D01*
X808536Y326020D01*
X807163Y330548D01*
X804932Y334722D01*
X801930Y338380D01*
X798272Y341382D01*
X794098Y343613D01*
X789569Y344986D01*
X784860Y345450D01*
D02*
G37*
G36*
X633730Y327660D02*
X625728D01*
X625883Y326487D01*
X626826Y324211D01*
X628326Y322256D01*
X630281Y320756D01*
X632557Y319813D01*
X633730Y319659D01*
Y327660D01*
D02*
G37*
G36*
X426720Y358182D02*
X424760Y357793D01*
X423098Y356682D01*
X421987Y355020D01*
X421598Y353060D01*
X421987Y351100D01*
X423098Y349438D01*
X423892Y348908D01*
Y336831D01*
X422493Y336252D01*
X420742Y334908D01*
X419398Y333157D01*
X418554Y331118D01*
X418266Y328930D01*
X418554Y326742D01*
X419398Y324703D01*
X420742Y322952D01*
X422493Y321608D01*
X424532Y320764D01*
X426720Y320476D01*
X428908Y320764D01*
X430947Y321608D01*
X432698Y322952D01*
X434042Y324703D01*
X434886Y326742D01*
X435174Y328930D01*
X434886Y331118D01*
X434042Y333157D01*
X432698Y334908D01*
X430947Y336252D01*
X429548Y336831D01*
Y348908D01*
X430342Y349438D01*
X431452Y351100D01*
X431842Y353060D01*
X431452Y355020D01*
X430342Y356682D01*
X428680Y357793D01*
X426720Y358182D01*
D02*
G37*
G36*
X644271Y327660D02*
X636270D01*
Y319659D01*
X637443Y319813D01*
X639719Y320756D01*
X641674Y322256D01*
X643174Y324211D01*
X644117Y326487D01*
X644271Y327660D01*
D02*
G37*
G36*
X685800Y337384D02*
X683612Y337096D01*
X681573Y336252D01*
X679822Y334908D01*
X678478Y333157D01*
X677634Y331118D01*
X677346Y328930D01*
X677634Y326742D01*
X678478Y324703D01*
X679822Y322952D01*
X681573Y321608D01*
X683612Y320764D01*
X685800Y320476D01*
X687988Y320764D01*
X690027Y321608D01*
X691778Y322952D01*
X693122Y324703D01*
X693966Y326742D01*
X694254Y328930D01*
X693966Y331118D01*
X693122Y333157D01*
X691778Y334908D01*
X690027Y336252D01*
X687988Y337096D01*
X685800Y337384D01*
D02*
G37*
G36*
X698180Y365910D02*
X694450D01*
Y360680D01*
X698180D01*
Y365910D01*
D02*
G37*
G36*
X691910D02*
X688180D01*
Y360680D01*
X691910D01*
Y365910D01*
D02*
G37*
G36*
X637540Y378460D02*
X629810D01*
Y367730D01*
X637540D01*
Y378460D01*
D02*
G37*
G36*
X576580Y384160D02*
X570850D01*
Y379430D01*
X576580D01*
Y384160D01*
D02*
G37*
G36*
X647810Y378460D02*
X640080D01*
Y367730D01*
X647810D01*
Y378460D01*
D02*
G37*
G36*
X636270Y338201D02*
Y330200D01*
X644271D01*
X644117Y331373D01*
X643174Y333649D01*
X641674Y335604D01*
X639719Y337104D01*
X637443Y338047D01*
X636270Y338201D01*
D02*
G37*
G36*
X633730D02*
X632557Y338047D01*
X630281Y337104D01*
X628326Y335604D01*
X626826Y333649D01*
X625883Y331373D01*
X625728Y330200D01*
X633730D01*
Y338201D01*
D02*
G37*
G36*
X691910Y358140D02*
X688180D01*
Y352910D01*
X691910D01*
Y358140D01*
D02*
G37*
G36*
X696904Y386644D02*
X684856D01*
Y376596D01*
X685931D01*
X686605Y375326D01*
X686342Y374938D01*
X680720D01*
X679638Y374723D01*
X678720Y374110D01*
X676180Y371570D01*
X675567Y370652D01*
X675352Y369570D01*
Y364934D01*
X674156D01*
Y353886D01*
X682204D01*
Y364934D01*
X681008D01*
Y368399D01*
X681891Y369282D01*
X688340D01*
X689422Y369497D01*
X690340Y370110D01*
X692880Y372650D01*
X693493Y373568D01*
X693708Y374650D01*
Y376596D01*
X696904D01*
Y386644D01*
D02*
G37*
G36*
X698180Y358140D02*
X694450D01*
Y352910D01*
X698180D01*
Y358140D01*
D02*
G37*
G36*
X791210Y477614D02*
X787971Y477295D01*
X784856Y476350D01*
X781985Y474816D01*
X779469Y472751D01*
X777404Y470235D01*
X775870Y467364D01*
X774925Y464249D01*
X774606Y461010D01*
X774925Y457771D01*
X775870Y454656D01*
X777404Y451785D01*
X779469Y449269D01*
X781985Y447204D01*
X784856Y445670D01*
X787971Y444725D01*
X791210Y444406D01*
X794449Y444725D01*
X797564Y445670D01*
X800435Y447204D01*
X802951Y449269D01*
X805016Y451785D01*
X806550Y454656D01*
X807495Y457771D01*
X807814Y461010D01*
X807495Y464249D01*
X806550Y467364D01*
X805016Y470235D01*
X802951Y472751D01*
X800435Y474816D01*
X797564Y476350D01*
X794449Y477295D01*
X791210Y477614D01*
D02*
G37*
G36*
X434354Y520724D02*
X418306D01*
Y512028D01*
X413950D01*
X412868Y511813D01*
X411950Y511200D01*
X400948Y500198D01*
X388514D01*
Y505894D01*
X340466D01*
Y488846D01*
X388514D01*
Y494542D01*
X402120D01*
X403202Y494757D01*
X404120Y495370D01*
X408748Y499998D01*
X409922Y499512D01*
Y493102D01*
X409128Y492572D01*
X408018Y490910D01*
X407628Y488950D01*
X408018Y486990D01*
X409128Y485328D01*
X410790Y484217D01*
X412750Y483828D01*
X414710Y484217D01*
X416372Y485328D01*
X417482Y486990D01*
X417872Y488950D01*
X417482Y490910D01*
X416372Y492572D01*
X415578Y493102D01*
Y506372D01*
X418306D01*
Y497676D01*
X434354D01*
Y520724D01*
D02*
G37*
G36*
X718010Y501120D02*
X715393Y500776D01*
X712955Y499766D01*
X710861Y498159D01*
X709254Y496065D01*
X708244Y493627D01*
X708001Y491778D01*
X702653D01*
X702122Y492572D01*
X700460Y493683D01*
X698500Y494072D01*
X696540Y493683D01*
X694878Y492572D01*
X693767Y490910D01*
X693378Y488950D01*
X693767Y486990D01*
X694878Y485328D01*
X696540Y484217D01*
X698500Y483828D01*
X700460Y484217D01*
X702122Y485328D01*
X702653Y486122D01*
X709185D01*
X709254Y485955D01*
X710861Y483861D01*
X712955Y482254D01*
X715393Y481244D01*
X718010Y480900D01*
X720627Y481244D01*
X723065Y482254D01*
X725159Y483861D01*
X726766Y485955D01*
X727776Y488393D01*
X728120Y491010D01*
X727776Y493627D01*
X726766Y496065D01*
X725159Y498159D01*
X723065Y499766D01*
X720627Y500776D01*
X718010Y501120D01*
D02*
G37*
G36*
X480060Y519430D02*
X472330D01*
Y511700D01*
X480060D01*
Y519430D01*
D02*
G37*
G36*
Y529700D02*
X472330D01*
Y521970D01*
X480060D01*
Y529700D01*
D02*
G37*
G36*
X490330Y519430D02*
X482600D01*
Y511700D01*
X490330D01*
Y519430D01*
D02*
G37*
G36*
X596750Y492508D02*
X579850D01*
X578768Y492293D01*
X577850Y491680D01*
X564420Y478250D01*
X563807Y477332D01*
X563592Y476250D01*
Y444848D01*
X562822Y444495D01*
X562322Y444379D01*
X560760Y445423D01*
X558800Y445812D01*
X556840Y445423D01*
X555897Y444793D01*
X546424D01*
X545670Y444943D01*
X544100Y444631D01*
X542953Y443864D01*
X539396D01*
Y437816D01*
X542892D01*
X542919Y437789D01*
X544250Y436899D01*
X545820Y436587D01*
X555897D01*
X556840Y435957D01*
X558800Y435568D01*
X560760Y435957D01*
X562148Y436885D01*
X563334Y436403D01*
X563444Y435364D01*
X558749Y430668D01*
X551944D01*
Y430864D01*
X539396D01*
Y424816D01*
X542842D01*
Y414020D01*
Y406860D01*
X543057Y405778D01*
X543670Y404860D01*
X547696Y400834D01*
Y393786D01*
X559744D01*
Y403834D01*
X552696D01*
X548498Y408032D01*
Y411192D01*
X550838D01*
X551368Y410398D01*
X553030Y409287D01*
X554990Y408898D01*
X556950Y409287D01*
X558612Y410398D01*
X559723Y412060D01*
X560112Y414020D01*
X559723Y415980D01*
X558612Y417642D01*
X556950Y418753D01*
X554990Y419142D01*
X553030Y418753D01*
X551368Y417642D01*
X550838Y416848D01*
X548498D01*
Y424816D01*
X551944D01*
Y425012D01*
X559920D01*
X561002Y425227D01*
X561920Y425840D01*
X562418Y426338D01*
X563592Y425852D01*
Y410860D01*
X563807Y409778D01*
X564420Y408860D01*
X569848Y403432D01*
X569362Y402258D01*
X568340D01*
X567258Y402043D01*
X566340Y401430D01*
X566340Y401430D01*
X564420Y399510D01*
X563807Y398592D01*
X563592Y397510D01*
Y378362D01*
X541560Y356330D01*
X540947Y355412D01*
X540732Y354330D01*
Y336831D01*
X539333Y336252D01*
X537582Y334908D01*
X536238Y333157D01*
X535394Y331118D01*
X535106Y328930D01*
X535394Y326742D01*
X536238Y324703D01*
X537582Y322952D01*
X539333Y321608D01*
X541372Y320764D01*
X543560Y320476D01*
X545748Y320764D01*
X547787Y321608D01*
X549538Y322952D01*
X550882Y324703D01*
X551726Y326742D01*
X552014Y328930D01*
X551726Y331118D01*
X550882Y333157D01*
X549538Y334908D01*
X547787Y336252D01*
X546388Y336831D01*
Y353158D01*
X568420Y375190D01*
X569033Y376108D01*
X569248Y377190D01*
Y396339D01*
X569511Y396602D01*
X571826D01*
Y394406D01*
X583874D01*
Y404454D01*
X576826D01*
X573193Y408087D01*
X573679Y409260D01*
X576580D01*
Y413990D01*
X570850D01*
Y413227D01*
X569580Y412567D01*
X569248Y412800D01*
Y427478D01*
X570653Y428882D01*
X571826Y428396D01*
Y424236D01*
X583874D01*
Y434284D01*
X583874D01*
X583333Y435554D01*
X583540Y435942D01*
X583620Y435957D01*
X585282Y437068D01*
X586393Y438730D01*
X586782Y440690D01*
X586393Y442650D01*
X585282Y444312D01*
X583620Y445423D01*
X581660Y445812D01*
X579700Y445423D01*
X578038Y444312D01*
X576927Y442650D01*
X576706Y441539D01*
X574949Y439781D01*
X574542Y439173D01*
X573272Y439558D01*
Y462592D01*
X576511Y465832D01*
X580716D01*
Y463636D01*
X592764D01*
Y468192D01*
X596136D01*
Y467996D01*
X608684D01*
Y473520D01*
X609660D01*
Y476250D01*
X602410D01*
X595160D01*
Y473848D01*
X589100D01*
X588274Y473684D01*
X580716D01*
Y471488D01*
X575340D01*
X574258Y471273D01*
X573340Y470660D01*
X570422Y467742D01*
X569248Y468228D01*
Y475079D01*
X581021Y486852D01*
X595579D01*
X596136Y486294D01*
Y481520D01*
X595160D01*
Y478790D01*
X602410D01*
X609660D01*
Y481520D01*
X608684D01*
Y487044D01*
X603386D01*
X598750Y491680D01*
X597833Y492293D01*
X596750Y492508D01*
D02*
G37*
G36*
X535320Y480360D02*
X529590D01*
Y475630D01*
X535320D01*
Y480360D01*
D02*
G37*
G36*
X748010Y501120D02*
X745393Y500776D01*
X742955Y499766D01*
X740861Y498159D01*
X739254Y496065D01*
X738244Y493627D01*
X737899Y491010D01*
X738244Y488393D01*
X739254Y485955D01*
X740861Y483861D01*
X742955Y482254D01*
X745393Y481244D01*
X748010Y480900D01*
X750627Y481244D01*
X753065Y482254D01*
X755159Y483861D01*
X756766Y485955D01*
X757776Y488393D01*
X758120Y491010D01*
X757776Y493627D01*
X756766Y496065D01*
X755159Y498159D01*
X753065Y499766D01*
X750627Y500776D01*
X748010Y501120D01*
D02*
G37*
G36*
X436554Y554284D02*
X424506D01*
Y544236D01*
X427702D01*
Y535940D01*
X427917Y534858D01*
X428530Y533940D01*
X466630Y495840D01*
X467548Y495227D01*
X468630Y495012D01*
X473806D01*
Y489676D01*
X488854D01*
Y505724D01*
X473806D01*
Y500668D01*
X469801D01*
X433358Y537112D01*
Y544236D01*
X436554D01*
Y554284D01*
D02*
G37*
G36*
X388514Y705894D02*
X340466D01*
Y688846D01*
X388514D01*
Y693267D01*
X449011D01*
X654371Y487906D01*
X653885Y486733D01*
X649914D01*
Y487654D01*
X644304D01*
X644070Y487811D01*
X642500Y488123D01*
X624410D01*
X622840Y487811D01*
X621693Y487044D01*
X618136D01*
Y480996D01*
X621693D01*
X622840Y480229D01*
X624410Y479917D01*
X637866D01*
Y477606D01*
X649914D01*
Y478527D01*
X663751D01*
X681072Y461206D01*
X680585Y460033D01*
X676003D01*
X675060Y460662D01*
X673100Y461052D01*
X671140Y460662D01*
X669478Y459552D01*
X668367Y457890D01*
X667978Y455930D01*
X668367Y453970D01*
X669478Y452308D01*
X671140Y451198D01*
X673100Y450808D01*
X675060Y451198D01*
X676003Y451827D01*
X686777D01*
Y432163D01*
X686148Y431220D01*
X685758Y429260D01*
X686148Y427300D01*
X686777Y426357D01*
Y421640D01*
X686777Y421640D01*
Y400644D01*
X684856D01*
Y390596D01*
X696904D01*
Y400644D01*
X694983D01*
Y421640D01*
X694983Y421640D01*
Y425157D01*
X709866D01*
X710861Y423861D01*
X712955Y422254D01*
X715393Y421244D01*
X718010Y420900D01*
X720627Y421244D01*
X723065Y422254D01*
X725159Y423861D01*
X726766Y425955D01*
X727776Y428393D01*
X728120Y431010D01*
X727776Y433627D01*
X726766Y436065D01*
X725159Y438159D01*
X723065Y439766D01*
X720627Y440776D01*
X718010Y441120D01*
X715393Y440776D01*
X712955Y439766D01*
X710861Y438159D01*
X709254Y436065D01*
X708244Y433627D01*
X708209Y433363D01*
X694983D01*
Y457200D01*
X694670Y458770D01*
X693781Y460101D01*
X668351Y485531D01*
X668351Y485531D01*
X453611Y700271D01*
X452280Y701161D01*
X450710Y701473D01*
X388514D01*
Y705894D01*
D02*
G37*
G36*
X490330Y529700D02*
X482600D01*
Y521970D01*
X490330D01*
Y529700D01*
D02*
G37*
G36*
X673100Y701024D02*
Y688340D01*
X685784D01*
X685470Y690725D01*
X684059Y694130D01*
X681815Y697055D01*
X678890Y699299D01*
X675485Y700710D01*
X673100Y701024D01*
D02*
G37*
G36*
X670560D02*
X668175Y700710D01*
X664770Y699299D01*
X661845Y697055D01*
X659601Y694130D01*
X658190Y690725D01*
X657876Y688340D01*
X670560D01*
Y701024D01*
D02*
G37*
G36*
X312990Y746741D02*
X310047Y746354D01*
X307304Y745218D01*
X304949Y743411D01*
X303142Y741056D01*
X302006Y738313D01*
X301619Y735370D01*
X302006Y732427D01*
X303142Y729684D01*
X304949Y727329D01*
X307304Y725522D01*
X310047Y724386D01*
X312990Y723999D01*
X315933Y724386D01*
X318676Y725522D01*
X321031Y727329D01*
X322838Y729684D01*
X323974Y732427D01*
X324361Y735370D01*
X323974Y738313D01*
X322838Y741056D01*
X321031Y743411D01*
X318676Y745218D01*
X315933Y746354D01*
X312990Y746741D01*
D02*
G37*
G36*
X308610Y836940D02*
X303901Y836476D01*
X299372Y835103D01*
X295198Y832872D01*
X291540Y829870D01*
X288538Y826212D01*
X286307Y822038D01*
X284934Y817510D01*
X284470Y812800D01*
X284934Y808091D01*
X286307Y803562D01*
X288538Y799388D01*
X291540Y795730D01*
X295198Y792728D01*
X299372Y790497D01*
X303901Y789124D01*
X308610Y788660D01*
X313319Y789124D01*
X317848Y790497D01*
X322022Y792728D01*
X325680Y795730D01*
X328682Y799388D01*
X330913Y803562D01*
X332286Y808091D01*
X332750Y812800D01*
X332286Y817510D01*
X330913Y822038D01*
X328682Y826212D01*
X325680Y829870D01*
X322022Y832872D01*
X317848Y835103D01*
X313319Y836476D01*
X308610Y836940D01*
D02*
G37*
G36*
X793750Y833130D02*
X789041Y832666D01*
X784512Y831293D01*
X780338Y829062D01*
X776680Y826060D01*
X773678Y822402D01*
X771447Y818228D01*
X770074Y813699D01*
X769610Y808990D01*
X770074Y804280D01*
X771447Y799752D01*
X773678Y795578D01*
X776680Y791920D01*
X780338Y788918D01*
X784512Y786687D01*
X789041Y785314D01*
X793750Y784850D01*
X798459Y785314D01*
X802988Y786687D01*
X807162Y788918D01*
X810820Y791920D01*
X813822Y795578D01*
X816053Y799752D01*
X817426Y804280D01*
X817890Y808990D01*
X817426Y813699D01*
X816053Y818228D01*
X813822Y822402D01*
X810820Y826060D01*
X807162Y829062D01*
X802988Y831293D01*
X798459Y832666D01*
X793750Y833130D01*
D02*
G37*
G36*
X388514Y605894D02*
X340466D01*
Y588846D01*
X388514D01*
Y594072D01*
X393358D01*
X393888Y593278D01*
X395550Y592168D01*
X397510Y591778D01*
X399470Y592168D01*
X401132Y593278D01*
X402243Y594940D01*
X402632Y596900D01*
X402243Y598860D01*
X401132Y600522D01*
X399470Y601632D01*
X397510Y602022D01*
X395550Y601632D01*
X393888Y600522D01*
X393358Y599728D01*
X388514D01*
Y605894D01*
D02*
G37*
G36*
X436554Y568284D02*
X424506D01*
Y566088D01*
X410860D01*
X409778Y565873D01*
X408860Y565260D01*
X393798Y550198D01*
X388514D01*
Y555894D01*
X340466D01*
Y538846D01*
X388514D01*
Y544542D01*
X394970D01*
X396052Y544757D01*
X396970Y545370D01*
X412032Y560432D01*
X424506D01*
Y558236D01*
X436554D01*
Y560432D01*
X444993D01*
X445958Y558988D01*
X447620Y557878D01*
X449580Y557488D01*
X451540Y557878D01*
X453202Y558988D01*
X454313Y560650D01*
X454702Y562610D01*
X454313Y564570D01*
X453202Y566232D01*
X451540Y567342D01*
X449580Y567732D01*
X447620Y567342D01*
X445958Y566232D01*
X445862Y566088D01*
X436554D01*
Y568284D01*
D02*
G37*
G36*
X388514Y655894D02*
X340466D01*
Y638846D01*
X388514D01*
Y643602D01*
X394627D01*
X395158Y642808D01*
X396820Y641697D01*
X398780Y641308D01*
X400740Y641697D01*
X402402Y642808D01*
X403512Y644470D01*
X403902Y646430D01*
X403512Y648390D01*
X402402Y650052D01*
X400740Y651162D01*
X398780Y651552D01*
X396820Y651162D01*
X395158Y650052D01*
X394627Y649258D01*
X388514D01*
Y655894D01*
D02*
G37*
G36*
X685784Y685800D02*
X673100D01*
Y673116D01*
X675485Y673430D01*
X678890Y674841D01*
X681815Y677085D01*
X684059Y680010D01*
X685470Y683415D01*
X685784Y685800D01*
D02*
G37*
G36*
X670560D02*
X657876D01*
X658190Y683415D01*
X659601Y680010D01*
X661845Y677085D01*
X664770Y674841D01*
X668175Y673430D01*
X670560Y673116D01*
Y685800D01*
D02*
G37*
G36*
X527050Y480360D02*
X521320D01*
Y475630D01*
X527050D01*
Y480360D01*
D02*
G37*
G36*
X642620Y467360D02*
X636890D01*
Y462630D01*
X642620D01*
Y467360D01*
D02*
G37*
G36*
X558474Y465384D02*
X546426D01*
Y457066D01*
X543638Y454278D01*
X534857D01*
X534344Y455336D01*
Y465384D01*
X522296D01*
Y455336D01*
X525492D01*
Y452622D01*
X521670Y448800D01*
X521057Y447882D01*
X520842Y446800D01*
Y443864D01*
X517396D01*
Y438340D01*
X516420D01*
Y435610D01*
X523670D01*
X530920D01*
Y438340D01*
X529944D01*
Y443864D01*
X526498D01*
Y445629D01*
X529492Y448622D01*
X544810D01*
X545892Y448837D01*
X546810Y449450D01*
X552696Y455336D01*
X558474D01*
Y465384D01*
D02*
G37*
G36*
X650890Y467360D02*
X645160D01*
Y462630D01*
X650890D01*
Y467360D01*
D02*
G37*
G36*
X465470Y471170D02*
X459740D01*
Y466440D01*
X465470D01*
Y471170D01*
D02*
G37*
G36*
X457200D02*
X451470D01*
Y466440D01*
X457200D01*
Y471170D01*
D02*
G37*
G36*
X363220Y456870D02*
X339490D01*
Y448640D01*
X363220D01*
Y456870D01*
D02*
G37*
G36*
X630684Y474044D02*
X618136D01*
Y467996D01*
X622164D01*
X623482Y466679D01*
Y448598D01*
X615023D01*
X614492Y449392D01*
X612830Y450503D01*
X610870Y450892D01*
X608910Y450503D01*
X607248Y449392D01*
X606138Y447730D01*
X605748Y445770D01*
X606138Y443810D01*
X607248Y442148D01*
X608910Y441037D01*
X610870Y440648D01*
X612830Y441037D01*
X613516Y441496D01*
X614786Y440817D01*
Y432410D01*
X613516Y431884D01*
X592764Y452636D01*
Y459684D01*
X580716D01*
Y449636D01*
X587764D01*
X609312Y428088D01*
Y390754D01*
X605786D01*
Y368706D01*
X621834D01*
Y390754D01*
X614968D01*
Y419706D01*
X637834D01*
Y441754D01*
X637834D01*
X638033Y442942D01*
X661328D01*
X661858Y442148D01*
X663520Y441037D01*
X665480Y440648D01*
X667440Y441037D01*
X669102Y442148D01*
X670212Y443810D01*
X670602Y445770D01*
X670212Y447730D01*
X669102Y449392D01*
X667440Y450503D01*
X665480Y450892D01*
X663520Y450503D01*
X661858Y449392D01*
X661328Y448598D01*
X629138D01*
Y467850D01*
X629138Y467850D01*
X629258Y467996D01*
X630684D01*
Y474044D01*
D02*
G37*
G36*
X389490Y456870D02*
X365760D01*
Y448640D01*
X389490D01*
Y456870D01*
D02*
G37*
G36*
X748010Y471120D02*
X745393Y470776D01*
X742955Y469766D01*
X740861Y468159D01*
X739254Y466065D01*
X738244Y463627D01*
X737899Y461010D01*
X738244Y458393D01*
X739254Y455955D01*
X740861Y453861D01*
X742955Y452254D01*
X745393Y451244D01*
X748010Y450900D01*
X750627Y451244D01*
X753065Y452254D01*
X755159Y453861D01*
X756766Y455955D01*
X757776Y458393D01*
X758120Y461010D01*
X757776Y463627D01*
X756766Y466065D01*
X755159Y468159D01*
X753065Y469766D01*
X750627Y470776D01*
X748010Y471120D01*
D02*
G37*
G36*
X521830Y700206D02*
X518430Y699759D01*
X515262Y698447D01*
X512541Y696359D01*
X510453Y693638D01*
X509141Y690470D01*
X508694Y687070D01*
X509141Y683670D01*
X510453Y680502D01*
X512541Y677781D01*
X515262Y675694D01*
X518430Y674381D01*
X519002Y674306D01*
Y638950D01*
X519217Y637868D01*
X519830Y636950D01*
X697770Y459010D01*
X698688Y458397D01*
X699770Y458182D01*
X708332D01*
X709254Y455955D01*
X710861Y453861D01*
X712955Y452254D01*
X715393Y451244D01*
X718010Y450900D01*
X720627Y451244D01*
X723065Y452254D01*
X725159Y453861D01*
X726766Y455955D01*
X727776Y458393D01*
X728120Y461010D01*
X727776Y463627D01*
X726766Y466065D01*
X725159Y468159D01*
X723065Y469766D01*
X720627Y470776D01*
X718010Y471120D01*
X715393Y470776D01*
X712955Y469766D01*
X710861Y468159D01*
X709254Y466065D01*
X708332Y463838D01*
X700941D01*
X524658Y640122D01*
Y674306D01*
X525230Y674381D01*
X528398Y675694D01*
X531119Y677781D01*
X533206Y680502D01*
X534519Y683670D01*
X534966Y687070D01*
X534519Y690470D01*
X533206Y693638D01*
X531119Y696359D01*
X528398Y698447D01*
X525230Y699759D01*
X521830Y700206D01*
D02*
G37*
G36*
X490220Y471805D02*
X482640D01*
Y466765D01*
X490220D01*
Y471805D01*
D02*
G37*
G36*
X457200Y478440D02*
X451470D01*
Y473710D01*
X457200D01*
Y478440D01*
D02*
G37*
G36*
X650890Y474630D02*
X645160D01*
Y469900D01*
X650890D01*
Y474630D01*
D02*
G37*
G36*
X465470Y478440D02*
X459740D01*
Y473710D01*
X465470D01*
Y478440D01*
D02*
G37*
G36*
X500340Y479385D02*
X492760D01*
Y474345D01*
X500340D01*
Y479385D01*
D02*
G37*
G36*
X490220D02*
X482640D01*
Y474345D01*
X490220D01*
Y479385D01*
D02*
G37*
G36*
X527050Y473090D02*
X521320D01*
Y468360D01*
X527050D01*
Y473090D01*
D02*
G37*
G36*
X500340Y471805D02*
X492760D01*
Y466765D01*
X500340D01*
Y471805D01*
D02*
G37*
G36*
X535320Y473090D02*
X529590D01*
Y468360D01*
X535320D01*
Y473090D01*
D02*
G37*
G36*
X642620Y474630D02*
X636890D01*
Y469900D01*
X642620D01*
Y474630D01*
D02*
G37*
G36*
X541670Y489238D02*
X516890D01*
X515808Y489023D01*
X514890Y488410D01*
X511080Y484600D01*
X510467Y483682D01*
X510252Y482600D01*
Y452408D01*
X505714D01*
Y464454D01*
X477266D01*
Y461268D01*
X464494D01*
Y463464D01*
X452446D01*
Y453416D01*
X455642D01*
Y450751D01*
X449678Y444788D01*
X442554D01*
Y447984D01*
X432506D01*
Y435936D01*
X442554D01*
Y439132D01*
X449292D01*
Y434683D01*
X448498Y434152D01*
X447388Y432490D01*
X446998Y430530D01*
X447388Y428570D01*
X448498Y426908D01*
X450160Y425798D01*
X452120Y425408D01*
X454080Y425798D01*
X455742Y426908D01*
X456852Y428570D01*
X457242Y430530D01*
X456852Y432490D01*
X455742Y434152D01*
X454948Y434683D01*
Y440690D01*
X454733Y441772D01*
X454705Y441815D01*
X460470Y447580D01*
X461083Y448498D01*
X461298Y449580D01*
X461298Y449580D01*
Y453416D01*
X464494D01*
Y455612D01*
X477266D01*
Y434706D01*
X505714D01*
Y446752D01*
X511810D01*
X512892Y446967D01*
X513810Y447580D01*
X515080Y448850D01*
X515693Y449768D01*
X515908Y450850D01*
X515908Y450850D01*
Y481428D01*
X518061Y483582D01*
X540499D01*
X546426Y477654D01*
Y469336D01*
X558474D01*
Y479384D01*
X552696D01*
X543670Y488410D01*
X542752Y489023D01*
X541670Y489238D01*
D02*
G37*
%LPD*%
D10*
X626310Y430730D02*
D03*
D11*
X638810Y379730D02*
D03*
X613810D02*
D03*
D12*
X491490Y449580D02*
D03*
D13*
Y473075D02*
D03*
D14*
X437530Y414020D02*
D03*
X423530D02*
D03*
Y441960D02*
D03*
X437530D02*
D03*
D15*
X426330Y509200D02*
D03*
D16*
X481330Y497700D02*
D03*
D17*
Y520700D02*
D03*
D18*
X643890Y482630D02*
D03*
Y468630D02*
D03*
X690880Y381620D02*
D03*
Y395620D02*
D03*
X586740Y468660D02*
D03*
Y454660D02*
D03*
X577850Y385430D02*
D03*
Y399430D02*
D03*
X577850Y415260D02*
D03*
Y429260D02*
D03*
X552450Y474360D02*
D03*
Y460360D02*
D03*
X528320Y460360D02*
D03*
Y474360D02*
D03*
X528320Y384810D02*
D03*
Y398810D02*
D03*
X553720Y384810D02*
D03*
Y398810D02*
D03*
X458470Y472440D02*
D03*
Y458440D02*
D03*
X457200Y400700D02*
D03*
Y386700D02*
D03*
X430530Y563260D02*
D03*
Y549260D02*
D03*
D19*
X602410Y477520D02*
D03*
Y471020D02*
D03*
Y484020D02*
D03*
X624410D02*
D03*
Y471020D02*
D03*
X523670Y434340D02*
D03*
Y427840D02*
D03*
Y440840D02*
D03*
X545670D02*
D03*
Y427840D02*
D03*
D20*
X678180Y359410D02*
D03*
X693180D02*
D03*
D21*
X364490Y547370D02*
D03*
Y497370D02*
D03*
Y447370D02*
D03*
Y597370D02*
D03*
Y647370D02*
D03*
Y697370D02*
D03*
D22*
X541670Y486410D02*
X553720Y474360D01*
X469870Y367000D02*
Y386700D01*
X452120Y349250D02*
X469870Y367000D01*
X452120Y328930D02*
Y349250D01*
X469870Y386700D02*
Y412780D01*
X468630Y414020D02*
X469870Y412780D01*
X437530Y414020D02*
X468630D01*
X579850Y489680D02*
X596750D01*
X566420Y476250D02*
X579850Y489680D01*
X566420Y434340D02*
Y476250D01*
X596750Y489680D02*
X602410Y484020D01*
X623140Y471020D02*
X626310Y467850D01*
X586740Y454660D02*
X612140Y429260D01*
Y381400D02*
Y429260D01*
Y381400D02*
X613810Y379730D01*
X411480Y443230D02*
Y455930D01*
X410210Y441960D02*
X411480Y443230D01*
X412750Y414020D02*
Y416560D01*
X422910Y426720D01*
X410210Y441960D02*
X410210D01*
X423530D01*
X364490Y597370D02*
X364960Y596900D01*
X397510D01*
X364490Y647370D02*
X365430Y646430D01*
X398780D01*
X394970Y547370D02*
X410860Y563260D01*
X364490Y547370D02*
X394970D01*
X626310Y443230D02*
X628850Y445770D01*
X665480D01*
X626310Y430730D02*
Y443230D01*
X623770Y445770D02*
X626310Y443230D01*
X610870Y445770D02*
X623770D01*
X715950Y488950D02*
X718010Y491010D01*
X698500Y488950D02*
X715950D01*
X575340Y468660D02*
X586740D01*
X570444Y463764D02*
X575340Y468660D01*
X570444Y432673D02*
Y463764D01*
X566420Y428649D02*
X570444Y432673D01*
X566420Y410860D02*
Y428649D01*
X559920Y427840D02*
X566420Y434340D01*
X545670Y427840D02*
X559920D01*
X586740Y468660D02*
X589100Y471020D01*
X602410D01*
X566420Y410860D02*
X577850Y399430D01*
X521830Y638950D02*
Y687070D01*
Y638950D02*
X699770Y461010D01*
X718010D01*
X690880Y374650D02*
Y381620D01*
X688340Y372110D02*
X690880Y374650D01*
X680720Y372110D02*
X688340D01*
X678180Y369570D02*
X680720Y372110D01*
X678180Y359410D02*
Y369570D01*
X545670Y414020D02*
Y427840D01*
Y406860D02*
Y414020D01*
X554990D01*
X545670Y406860D02*
X553720Y398810D01*
X523670Y403460D02*
X528320Y398810D01*
X523670Y403460D02*
Y427840D01*
Y446800D02*
X528320Y451450D01*
X523670Y440840D02*
Y446800D01*
X609600Y328930D02*
Y350520D01*
X568960Y328930D02*
X570230Y330200D01*
Y358140D01*
X626310Y443230D02*
Y467850D01*
X568340Y399430D02*
X577850D01*
X566420Y397510D02*
X568340Y399430D01*
X566420Y377190D02*
Y397510D01*
X543560Y354330D02*
X566420Y377190D01*
X543560Y328930D02*
Y354330D01*
X518160Y328930D02*
Y354330D01*
X402120Y497370D02*
X412750Y508000D01*
X413950Y509200D01*
X412750Y488950D02*
Y508000D01*
X492760Y328930D02*
Y359410D01*
X448930Y563260D02*
X449580Y562610D01*
X430530Y563260D02*
X448930D01*
X410860D02*
X430530D01*
X364490Y497370D02*
X402120D01*
X413950Y509200D02*
X426330D01*
X401320Y328930D02*
Y378460D01*
X406400Y383540D01*
Y407670D01*
X412750Y414020D01*
X400050Y431800D02*
X410210Y441960D01*
X400050Y391160D02*
Y431800D01*
X375920Y367030D02*
X400050Y391160D01*
X528350Y398780D02*
X539750D01*
X515620Y397510D02*
X528320Y384810D01*
X539750Y389890D02*
Y398780D01*
X452120Y430530D02*
Y440690D01*
X450850Y441960D02*
X452120Y440690D01*
X426720Y328930D02*
Y353060D01*
X491490Y449580D02*
X511810D01*
X513080Y450850D01*
Y482600D01*
X516890Y486410D01*
X541670D01*
X528320Y451450D02*
Y460360D01*
Y451450D02*
X544810D01*
X553720Y460360D01*
X528320Y398810D02*
X528350Y398780D01*
X539750Y389890D02*
X544830Y384810D01*
X553720D01*
X469870Y386700D02*
X494650Y411480D01*
X515620D01*
Y397510D02*
Y411480D01*
X458470Y458440D02*
X482630D01*
X491490Y449580D01*
X457200Y386700D02*
X469870D01*
X458470Y449580D02*
Y458440D01*
X450850Y441960D02*
X458470Y449580D01*
X437530Y441960D02*
X450850D01*
X412750Y414020D02*
X423530D01*
X375920Y328930D02*
Y367030D01*
X430530Y535940D02*
X468630Y497840D01*
X481190D02*
X481330Y497700D01*
X468630Y497840D02*
X481190D01*
X430530Y535940D02*
Y549260D01*
X364490Y547370D02*
X365110Y546750D01*
D23*
X689610Y455930D02*
X690880Y457200D01*
X673100Y455930D02*
X689610D01*
X450710Y697370D02*
X665450Y482630D01*
X364490Y697370D02*
X450710D01*
X577850Y429260D02*
Y436880D01*
X581660Y440690D01*
X545670Y440840D02*
X545820Y440690D01*
X558800D01*
X642500Y484020D02*
X643890Y482630D01*
X624410Y484020D02*
X642500D01*
X690880Y429260D02*
Y457200D01*
X665450Y482630D02*
X690880Y457200D01*
X690880Y421640D02*
X690880Y421640D01*
Y429260D01*
X643890Y482630D02*
X665450D01*
X716260Y429260D02*
X718010Y431010D01*
X690880Y429260D02*
X716260D01*
X690880Y395620D02*
Y421640D01*
D24*
X791210Y461010D02*
D03*
D25*
X748010D02*
D03*
Y491010D02*
D03*
Y431010D02*
D03*
X718010D02*
D03*
Y461010D02*
D03*
Y491010D02*
D03*
D26*
X401320Y328930D02*
D03*
X375920D02*
D03*
X426720D02*
D03*
X452120D02*
D03*
X518160D02*
D03*
X492760D02*
D03*
X543560D02*
D03*
X568960D02*
D03*
X635000D02*
D03*
X609600D02*
D03*
X660400D02*
D03*
X685800D02*
D03*
D27*
X312990Y409370D02*
D03*
Y735370D02*
D03*
D28*
X521830Y687070D02*
D03*
X671830D02*
D03*
D29*
X478790Y408940D02*
D03*
X444500Y393700D02*
D03*
X586740Y480060D02*
D03*
X590550Y393700D02*
D03*
X659130Y468630D02*
D03*
X704850Y414020D02*
D03*
X624840Y405130D02*
D03*
X675640Y414020D02*
D03*
X590550Y405130D02*
D03*
X510540Y430530D02*
D03*
Y384810D02*
D03*
X477520Y472440D02*
D03*
X655320Y524510D02*
D03*
X668020Y509270D02*
D03*
X681990Y496570D02*
D03*
X608330Y521970D02*
D03*
X623570Y509270D02*
D03*
X640080Y494030D02*
D03*
X541020Y468630D02*
D03*
X673100Y455930D02*
D03*
X411480D02*
D03*
X422910Y426720D02*
D03*
X397510Y596900D02*
D03*
X398780Y646430D02*
D03*
X665480Y445770D02*
D03*
X698500Y488950D02*
D03*
X558800Y440690D02*
D03*
X581660D02*
D03*
X690880Y429260D02*
D03*
X554990Y414020D02*
D03*
X609600Y350520D02*
D03*
X570230Y358140D02*
D03*
X610870Y445770D02*
D03*
X518160Y354330D02*
D03*
X412750Y488950D02*
D03*
X492760Y359410D02*
D03*
X449580Y562610D02*
D03*
X452120Y430530D02*
D03*
X426720Y353060D02*
D03*
M02*
