G04 Layer_Physical_Order=2*
G04 Layer_Color=16711680*
%FSLAX44Y44*%
%MOMM*%
G71*
G01*
G75*
%ADD22C,0.2500*%
%ADD23C,0.5000*%
%ADD24C,3.0000*%
%ADD25C,1.7000*%
%ADD26C,1.3716*%
%ADD27C,1.9500*%
%ADD28C,2.3000*%
%ADD29C,0.7000*%
G36*
X842761Y861811D02*
Y262139D01*
X262139D01*
Y861811D01*
X842761Y861811D01*
D02*
G37*
%LPC*%
G36*
X609600Y337384D02*
X607412Y337096D01*
X605373Y336252D01*
X603622Y334908D01*
X602278Y333157D01*
X601434Y331118D01*
X601146Y328930D01*
X601434Y326742D01*
X602278Y324703D01*
X603622Y322952D01*
X605373Y321608D01*
X607412Y320764D01*
X609600Y320476D01*
X611788Y320764D01*
X613827Y321608D01*
X615578Y322952D01*
X616922Y324703D01*
X617766Y326742D01*
X618054Y328930D01*
X617766Y331118D01*
X616922Y333157D01*
X615578Y334908D01*
X613827Y336252D01*
X611788Y337096D01*
X609600Y337384D01*
D02*
G37*
G36*
X660400D02*
X658212Y337096D01*
X656173Y336252D01*
X654422Y334908D01*
X653078Y333157D01*
X652234Y331118D01*
X651946Y328930D01*
X652234Y326742D01*
X653078Y324703D01*
X654422Y322952D01*
X656173Y321608D01*
X658212Y320764D01*
X660400Y320476D01*
X662588Y320764D01*
X664627Y321608D01*
X666378Y322952D01*
X667722Y324703D01*
X668566Y326742D01*
X668854Y328930D01*
X668566Y331118D01*
X667722Y333157D01*
X666378Y334908D01*
X664627Y336252D01*
X662588Y337096D01*
X660400Y337384D01*
D02*
G37*
G36*
X543560D02*
X541372Y337096D01*
X539333Y336252D01*
X537582Y334908D01*
X536238Y333157D01*
X535394Y331118D01*
X535106Y328930D01*
X535394Y326742D01*
X536238Y324703D01*
X537582Y322952D01*
X539333Y321608D01*
X541372Y320764D01*
X543560Y320476D01*
X545748Y320764D01*
X547787Y321608D01*
X549538Y322952D01*
X550882Y324703D01*
X551726Y326742D01*
X552014Y328930D01*
X551726Y331118D01*
X550882Y333157D01*
X549538Y334908D01*
X547787Y336252D01*
X545748Y337096D01*
X543560Y337384D01*
D02*
G37*
G36*
X568960D02*
X566772Y337096D01*
X564733Y336252D01*
X562982Y334908D01*
X561638Y333157D01*
X560794Y331118D01*
X560506Y328930D01*
X560794Y326742D01*
X561638Y324703D01*
X562982Y322952D01*
X564733Y321608D01*
X566772Y320764D01*
X568960Y320476D01*
X571148Y320764D01*
X573187Y321608D01*
X574938Y322952D01*
X576282Y324703D01*
X577126Y326742D01*
X577414Y328930D01*
X577126Y331118D01*
X576282Y333157D01*
X574938Y334908D01*
X573187Y336252D01*
X571148Y337096D01*
X568960Y337384D01*
D02*
G37*
G36*
X685800D02*
X683612Y337096D01*
X681573Y336252D01*
X679822Y334908D01*
X678478Y333157D01*
X677634Y331118D01*
X677346Y328930D01*
X677634Y326742D01*
X678478Y324703D01*
X679822Y322952D01*
X681573Y321608D01*
X683612Y320764D01*
X685800Y320476D01*
X687988Y320764D01*
X690027Y321608D01*
X691778Y322952D01*
X693122Y324703D01*
X693966Y326742D01*
X694254Y328930D01*
X693966Y331118D01*
X693122Y333157D01*
X691778Y334908D01*
X690027Y336252D01*
X687988Y337096D01*
X685800Y337384D01*
D02*
G37*
G36*
X312990Y420741D02*
X310047Y420354D01*
X307304Y419218D01*
X304949Y417411D01*
X303142Y415056D01*
X302006Y412313D01*
X301619Y409370D01*
X302006Y406427D01*
X303142Y403684D01*
X304949Y401329D01*
X307304Y399522D01*
X310047Y398386D01*
X312990Y397999D01*
X315933Y398386D01*
X318676Y399522D01*
X321031Y401329D01*
X322838Y403684D01*
X323974Y406427D01*
X324361Y409370D01*
X323974Y412313D01*
X322838Y415056D01*
X321031Y417411D01*
X318676Y419218D01*
X315933Y420354D01*
X312990Y420741D01*
D02*
G37*
G36*
X758938Y429740D02*
X749280D01*
Y420082D01*
X750882Y420293D01*
X753558Y421401D01*
X755855Y423165D01*
X757618Y425463D01*
X758727Y428138D01*
X758938Y429740D01*
D02*
G37*
G36*
X633730Y338201D02*
X632557Y338047D01*
X630281Y337104D01*
X628326Y335604D01*
X626826Y333649D01*
X625883Y331373D01*
X625728Y330200D01*
X633730D01*
Y338201D01*
D02*
G37*
G36*
X636270D02*
Y330200D01*
X644271D01*
X644117Y331373D01*
X643174Y333649D01*
X641674Y335604D01*
X639719Y337104D01*
X637443Y338047D01*
X636270Y338201D01*
D02*
G37*
G36*
X518160Y337384D02*
X515972Y337096D01*
X513933Y336252D01*
X512182Y334908D01*
X510838Y333157D01*
X509994Y331118D01*
X509706Y328930D01*
X509994Y326742D01*
X510838Y324703D01*
X512182Y322952D01*
X513933Y321608D01*
X515972Y320764D01*
X518160Y320476D01*
X520348Y320764D01*
X522387Y321608D01*
X524138Y322952D01*
X525482Y324703D01*
X526326Y326742D01*
X526614Y328930D01*
X526326Y331118D01*
X525482Y333157D01*
X524138Y334908D01*
X522387Y336252D01*
X520348Y337096D01*
X518160Y337384D01*
D02*
G37*
G36*
X633730Y327660D02*
X625728D01*
X625883Y326487D01*
X626826Y324211D01*
X628326Y322256D01*
X630281Y320756D01*
X632557Y319813D01*
X633730Y319659D01*
Y327660D01*
D02*
G37*
G36*
X644271D02*
X636270D01*
Y319659D01*
X637443Y319813D01*
X639719Y320756D01*
X641674Y322256D01*
X643174Y324211D01*
X644117Y326487D01*
X644271Y327660D01*
D02*
G37*
G36*
X784860Y345450D02*
X780151Y344986D01*
X775622Y343613D01*
X771448Y341382D01*
X767790Y338380D01*
X764788Y334722D01*
X762557Y330548D01*
X761184Y326020D01*
X760720Y321310D01*
X761184Y316600D01*
X762557Y312072D01*
X764788Y307898D01*
X767790Y304240D01*
X771448Y301238D01*
X775622Y299007D01*
X780151Y297634D01*
X784860Y297170D01*
X789569Y297634D01*
X794098Y299007D01*
X798272Y301238D01*
X801930Y304240D01*
X804932Y307898D01*
X807163Y312072D01*
X808536Y316600D01*
X809000Y321310D01*
X808536Y326020D01*
X807163Y330548D01*
X804932Y334722D01*
X801930Y338380D01*
X798272Y341382D01*
X794098Y343613D01*
X789569Y344986D01*
X784860Y345450D01*
D02*
G37*
G36*
X308610Y346720D02*
X303901Y346256D01*
X299372Y344883D01*
X295198Y342652D01*
X291540Y339650D01*
X288538Y335992D01*
X286307Y331818D01*
X284934Y327290D01*
X284470Y322580D01*
X284934Y317871D01*
X286307Y313342D01*
X288538Y309168D01*
X291540Y305510D01*
X295198Y302508D01*
X299372Y300277D01*
X303901Y298904D01*
X308610Y298440D01*
X313319Y298904D01*
X317848Y300277D01*
X322022Y302508D01*
X325680Y305510D01*
X328682Y309168D01*
X330913Y313342D01*
X332286Y317871D01*
X332750Y322580D01*
X332286Y327290D01*
X330913Y331818D01*
X328682Y335992D01*
X325680Y339650D01*
X322022Y342652D01*
X317848Y344883D01*
X313319Y346256D01*
X308610Y346720D01*
D02*
G37*
G36*
X375920Y337384D02*
X373732Y337096D01*
X371693Y336252D01*
X369942Y334908D01*
X368598Y333157D01*
X367754Y331118D01*
X367466Y328930D01*
X367754Y326742D01*
X368598Y324703D01*
X369942Y322952D01*
X371693Y321608D01*
X373732Y320764D01*
X375920Y320476D01*
X378108Y320764D01*
X380147Y321608D01*
X381898Y322952D01*
X383242Y324703D01*
X384086Y326742D01*
X384374Y328930D01*
X384086Y331118D01*
X383242Y333157D01*
X381898Y334908D01*
X380147Y336252D01*
X378108Y337096D01*
X375920Y337384D01*
D02*
G37*
G36*
X452120D02*
X449932Y337096D01*
X447893Y336252D01*
X446142Y334908D01*
X444798Y333157D01*
X443954Y331118D01*
X443666Y328930D01*
X443954Y326742D01*
X444798Y324703D01*
X446142Y322952D01*
X447893Y321608D01*
X449932Y320764D01*
X452120Y320476D01*
X454308Y320764D01*
X456347Y321608D01*
X458098Y322952D01*
X459442Y324703D01*
X460286Y326742D01*
X460574Y328930D01*
X460286Y331118D01*
X459442Y333157D01*
X458098Y334908D01*
X456347Y336252D01*
X454308Y337096D01*
X452120Y337384D01*
D02*
G37*
G36*
X492760D02*
X490572Y337096D01*
X488533Y336252D01*
X486782Y334908D01*
X485438Y333157D01*
X484594Y331118D01*
X484306Y328930D01*
X484594Y326742D01*
X485438Y324703D01*
X486782Y322952D01*
X488533Y321608D01*
X490572Y320764D01*
X492760Y320476D01*
X494948Y320764D01*
X496987Y321608D01*
X498738Y322952D01*
X500082Y324703D01*
X500926Y326742D01*
X501214Y328930D01*
X500926Y331118D01*
X500082Y333157D01*
X498738Y334908D01*
X496987Y336252D01*
X494948Y337096D01*
X492760Y337384D01*
D02*
G37*
G36*
X401320D02*
X399132Y337096D01*
X397093Y336252D01*
X395342Y334908D01*
X393998Y333157D01*
X393154Y331118D01*
X392866Y328930D01*
X393154Y326742D01*
X393998Y324703D01*
X395342Y322952D01*
X397093Y321608D01*
X399132Y320764D01*
X401320Y320476D01*
X403508Y320764D01*
X405547Y321608D01*
X407298Y322952D01*
X408642Y324703D01*
X409486Y326742D01*
X409774Y328930D01*
X409486Y331118D01*
X408642Y333157D01*
X407298Y334908D01*
X405547Y336252D01*
X403508Y337096D01*
X401320Y337384D01*
D02*
G37*
G36*
X426720D02*
X424532Y337096D01*
X422493Y336252D01*
X420742Y334908D01*
X419398Y333157D01*
X418554Y331118D01*
X418266Y328930D01*
X418554Y326742D01*
X419398Y324703D01*
X420742Y322952D01*
X422493Y321608D01*
X424532Y320764D01*
X426720Y320476D01*
X428908Y320764D01*
X430947Y321608D01*
X432698Y322952D01*
X434042Y324703D01*
X434886Y326742D01*
X435174Y328930D01*
X434886Y331118D01*
X434042Y333157D01*
X432698Y334908D01*
X430947Y336252D01*
X428908Y337096D01*
X426720Y337384D01*
D02*
G37*
G36*
X685784Y685800D02*
X673100D01*
Y673116D01*
X675485Y673430D01*
X678890Y674841D01*
X681815Y677085D01*
X684059Y680010D01*
X685470Y683415D01*
X685784Y685800D01*
D02*
G37*
G36*
X521830Y700206D02*
X518430Y699759D01*
X515262Y698447D01*
X512541Y696359D01*
X510453Y693638D01*
X509141Y690470D01*
X508694Y687070D01*
X509141Y683670D01*
X510453Y680502D01*
X512541Y677781D01*
X515262Y675694D01*
X518430Y674381D01*
X521830Y673934D01*
X525230Y674381D01*
X528398Y675694D01*
X531119Y677781D01*
X533206Y680502D01*
X534519Y683670D01*
X534966Y687070D01*
X534519Y690470D01*
X533206Y693638D01*
X531119Y696359D01*
X528398Y698447D01*
X525230Y699759D01*
X521830Y700206D01*
D02*
G37*
G36*
X670560Y685800D02*
X657876D01*
X658190Y683415D01*
X659601Y680010D01*
X661845Y677085D01*
X664770Y674841D01*
X668175Y673430D01*
X670560Y673116D01*
Y685800D01*
D02*
G37*
G36*
X698500Y494072D02*
X696540Y493683D01*
X694878Y492572D01*
X694348Y491778D01*
X692150D01*
X691068Y491563D01*
X690150Y490950D01*
X682530Y483330D01*
X681917Y482412D01*
X681702Y481330D01*
Y455831D01*
X678393Y452523D01*
X677407Y453333D01*
X677832Y453970D01*
X678222Y455930D01*
X677832Y457890D01*
X676722Y459552D01*
X675060Y460662D01*
X673100Y461052D01*
X671140Y460662D01*
X669956Y459871D01*
X605790D01*
X604220Y459559D01*
X602889Y458670D01*
X589012Y444793D01*
X584563D01*
X583620Y445423D01*
X581660Y445812D01*
X579700Y445423D01*
X578757Y444793D01*
X561703D01*
X560760Y445423D01*
X558800Y445812D01*
X556840Y445423D01*
X555178Y444312D01*
X554067Y442650D01*
X553678Y440690D01*
X554067Y438730D01*
X555178Y437068D01*
X556840Y435957D01*
X558800Y435568D01*
X560760Y435957D01*
X561703Y436587D01*
X578757D01*
X579700Y435957D01*
X581660Y435568D01*
X583620Y435957D01*
X584563Y436587D01*
X590712D01*
X592282Y436899D01*
X593613Y437789D01*
X599248Y443425D01*
X600422Y442939D01*
Y389791D01*
X583028Y372398D01*
X576580D01*
X575498Y372183D01*
X574580Y371570D01*
X574580Y371570D01*
X568230Y365220D01*
X567978Y364843D01*
X566708Y365229D01*
Y405130D01*
X566708Y405130D01*
X566493Y406212D01*
X565880Y407130D01*
X559926Y413084D01*
X560112Y414020D01*
X559723Y415980D01*
X558612Y417642D01*
X556950Y418753D01*
X554990Y419142D01*
X553030Y418753D01*
X551368Y417642D01*
X550257Y415980D01*
X549868Y414020D01*
X550257Y412060D01*
X551368Y410398D01*
X553030Y409287D01*
X554990Y408898D01*
X555926Y409084D01*
X561052Y403959D01*
Y353060D01*
X561267Y351978D01*
X561880Y351060D01*
X564420Y348520D01*
X565338Y347907D01*
X566420Y347692D01*
X605448D01*
X605978Y346898D01*
X607640Y345788D01*
X609600Y345398D01*
X611560Y345788D01*
X613222Y346898D01*
X614333Y348560D01*
X614722Y350520D01*
X614333Y352480D01*
X613222Y354142D01*
X611560Y355252D01*
X609600Y355642D01*
X607640Y355252D01*
X605978Y354142D01*
X605448Y353348D01*
X574388D01*
X574035Y354118D01*
X573919Y354618D01*
X574963Y356180D01*
X575352Y358140D01*
X574963Y360100D01*
X573852Y361762D01*
X573755Y362745D01*
X577752Y366742D01*
X584200D01*
X585282Y366957D01*
X586200Y367570D01*
X605250Y386620D01*
X605863Y387538D01*
X606078Y388620D01*
Y441612D01*
X606848Y441965D01*
X607348Y442081D01*
X608910Y441037D01*
X610870Y440648D01*
X612830Y441037D01*
X614492Y442148D01*
X615602Y443810D01*
X615992Y445770D01*
X615602Y447730D01*
X614492Y449392D01*
X612990Y450396D01*
X612993Y451014D01*
X613201Y451666D01*
X663149D01*
X663357Y451014D01*
X663360Y450396D01*
X661858Y449392D01*
X660748Y447730D01*
X660358Y445770D01*
X660748Y443810D01*
X661858Y442148D01*
X663520Y441037D01*
X665480Y440648D01*
X667440Y441037D01*
X669102Y442148D01*
X669632Y442942D01*
X675640D01*
X676722Y443157D01*
X677640Y443770D01*
X686530Y452660D01*
X687143Y453578D01*
X687358Y454660D01*
X687358Y454660D01*
Y480159D01*
X693179Y485980D01*
X694498Y485896D01*
X694878Y485328D01*
X696540Y484217D01*
X698500Y483828D01*
X700460Y484217D01*
X702122Y485328D01*
X703232Y486990D01*
X703622Y488950D01*
X703232Y490910D01*
X702122Y492572D01*
X700460Y493683D01*
X698500Y494072D01*
D02*
G37*
G36*
X398780Y651552D02*
X396820Y651162D01*
X395158Y650052D01*
X394048Y648390D01*
X393658Y646430D01*
X394048Y644470D01*
X395158Y642808D01*
X396820Y641697D01*
X398780Y641308D01*
X399716Y641494D01*
X403572Y637639D01*
Y598688D01*
X402302Y598563D01*
X402243Y598860D01*
X401132Y600522D01*
X399470Y601632D01*
X397510Y602022D01*
X395550Y601632D01*
X393888Y600522D01*
X392777Y598860D01*
X392388Y596900D01*
X392777Y594940D01*
X393888Y593278D01*
X394682Y592747D01*
Y452120D01*
X394897Y451038D01*
X395510Y450120D01*
X417974Y427656D01*
X417788Y426720D01*
X418177Y424760D01*
X419288Y423098D01*
X420950Y421987D01*
X422910Y421598D01*
X424870Y421987D01*
X426532Y423098D01*
X427643Y424760D01*
X428032Y426720D01*
X427643Y428680D01*
X426532Y430342D01*
X424870Y431452D01*
X422910Y431842D01*
X421974Y431656D01*
X400338Y453292D01*
Y592747D01*
X401132Y593278D01*
X402243Y594940D01*
X402302Y595237D01*
X403572Y595112D01*
Y461010D01*
X403787Y459928D01*
X404400Y459010D01*
X406544Y456866D01*
X406358Y455930D01*
X406748Y453970D01*
X407858Y452308D01*
X409520Y451198D01*
X411480Y450808D01*
X413440Y451198D01*
X415102Y452308D01*
X416213Y453970D01*
X416602Y455930D01*
X416213Y457890D01*
X415102Y459552D01*
X413440Y460662D01*
X411480Y461052D01*
X410544Y460866D01*
X409228Y462182D01*
Y475512D01*
X410498Y475897D01*
X410750Y475520D01*
X418370Y467900D01*
X419288Y467287D01*
X420370Y467072D01*
X434439D01*
X456912Y444599D01*
Y434688D01*
X456142Y434335D01*
X455642Y434219D01*
X454080Y435262D01*
X452120Y435652D01*
X450160Y435262D01*
X448498Y434152D01*
X447388Y432490D01*
X446998Y430530D01*
X447388Y428570D01*
X448498Y426908D01*
X449292Y426377D01*
Y412651D01*
X432340Y395700D01*
X431727Y394782D01*
X431512Y393700D01*
Y361852D01*
X427656Y357996D01*
X426720Y358182D01*
X424760Y357793D01*
X423098Y356682D01*
X421987Y355020D01*
X421598Y353060D01*
X421987Y351100D01*
X423098Y349438D01*
X424760Y348327D01*
X426720Y347938D01*
X428680Y348327D01*
X430342Y349438D01*
X431452Y351100D01*
X431842Y353060D01*
X431656Y353996D01*
X436340Y358680D01*
X436953Y359598D01*
X437168Y360680D01*
Y392528D01*
X454120Y409480D01*
X454120Y409480D01*
X454733Y410398D01*
X454948Y411480D01*
Y425894D01*
X455670Y426441D01*
X456912Y425862D01*
Y378460D01*
X457127Y377378D01*
X457740Y376460D01*
X485680Y348520D01*
X486598Y347907D01*
X487680Y347692D01*
X501650D01*
X502732Y347907D01*
X503650Y348520D01*
X506632Y351502D01*
X514007D01*
X514538Y350708D01*
X516200Y349598D01*
X518160Y349208D01*
X520120Y349598D01*
X521782Y350708D01*
X522892Y352370D01*
X523282Y354330D01*
X522892Y356290D01*
X521782Y357952D01*
X520120Y359062D01*
X518160Y359452D01*
X516200Y359062D01*
X514538Y357952D01*
X514007Y357158D01*
X505460D01*
X504378Y356943D01*
X503460Y356330D01*
X500479Y353348D01*
X494548D01*
X494423Y354618D01*
X494720Y354678D01*
X496382Y355788D01*
X497492Y357450D01*
X497882Y359410D01*
X497492Y361370D01*
X496382Y363032D01*
X495588Y363563D01*
Y367030D01*
X495373Y368112D01*
X494760Y369030D01*
X471458Y392332D01*
Y543560D01*
X471243Y544642D01*
X470630Y545560D01*
X454516Y561674D01*
X454702Y562610D01*
X454313Y564570D01*
X453202Y566232D01*
X451540Y567342D01*
X449580Y567732D01*
X447620Y567342D01*
X445958Y566232D01*
X444847Y564570D01*
X444458Y562610D01*
X444847Y560650D01*
X445958Y558988D01*
X447620Y557878D01*
X449580Y557488D01*
X450516Y557674D01*
X465802Y542388D01*
Y391160D01*
X466017Y390078D01*
X466630Y389160D01*
X489932Y365858D01*
Y363563D01*
X489138Y363032D01*
X488027Y361370D01*
X487638Y359410D01*
X488027Y357450D01*
X489138Y355788D01*
X490800Y354678D01*
X491097Y354618D01*
X490972Y353348D01*
X488852D01*
X462568Y379632D01*
Y445770D01*
X462353Y446852D01*
X461740Y447770D01*
X437610Y471900D01*
X436692Y472513D01*
X435610Y472728D01*
X421541D01*
X415578Y478691D01*
Y484798D01*
X416372Y485328D01*
X417482Y486990D01*
X417872Y488950D01*
X417482Y490910D01*
X416372Y492572D01*
X414710Y493683D01*
X412750Y494072D01*
X410790Y493683D01*
X410348Y493388D01*
X409228Y493986D01*
Y638810D01*
X409013Y639892D01*
X408400Y640810D01*
X403716Y645494D01*
X403902Y646430D01*
X403512Y648390D01*
X402402Y650052D01*
X400740Y651162D01*
X398780Y651552D01*
D02*
G37*
G36*
X793750Y833130D02*
X789041Y832666D01*
X784512Y831293D01*
X780338Y829062D01*
X776680Y826060D01*
X773678Y822402D01*
X771447Y818228D01*
X770074Y813699D01*
X769610Y808990D01*
X770074Y804280D01*
X771447Y799752D01*
X773678Y795578D01*
X776680Y791920D01*
X780338Y788918D01*
X784512Y786687D01*
X789041Y785314D01*
X793750Y784850D01*
X798459Y785314D01*
X802988Y786687D01*
X807162Y788918D01*
X810820Y791920D01*
X813822Y795578D01*
X816053Y799752D01*
X817426Y804280D01*
X817890Y808990D01*
X817426Y813699D01*
X816053Y818228D01*
X813822Y822402D01*
X810820Y826060D01*
X807162Y829062D01*
X802988Y831293D01*
X798459Y832666D01*
X793750Y833130D01*
D02*
G37*
G36*
X308610Y836940D02*
X303901Y836476D01*
X299372Y835103D01*
X295198Y832872D01*
X291540Y829870D01*
X288538Y826212D01*
X286307Y822038D01*
X284934Y817510D01*
X284470Y812800D01*
X284934Y808091D01*
X286307Y803562D01*
X288538Y799388D01*
X291540Y795730D01*
X295198Y792728D01*
X299372Y790497D01*
X303901Y789124D01*
X308610Y788660D01*
X313319Y789124D01*
X317848Y790497D01*
X322022Y792728D01*
X325680Y795730D01*
X328682Y799388D01*
X330913Y803562D01*
X332286Y808091D01*
X332750Y812800D01*
X332286Y817510D01*
X330913Y822038D01*
X328682Y826212D01*
X325680Y829870D01*
X322022Y832872D01*
X317848Y835103D01*
X313319Y836476D01*
X308610Y836940D01*
D02*
G37*
G36*
X312990Y746741D02*
X310047Y746354D01*
X307304Y745218D01*
X304949Y743411D01*
X303142Y741056D01*
X302006Y738313D01*
X301619Y735370D01*
X302006Y732427D01*
X303142Y729684D01*
X304949Y727329D01*
X307304Y725522D01*
X310047Y724386D01*
X312990Y723999D01*
X315933Y724386D01*
X318676Y725522D01*
X321031Y727329D01*
X322838Y729684D01*
X323974Y732427D01*
X324361Y735370D01*
X323974Y738313D01*
X322838Y741056D01*
X321031Y743411D01*
X318676Y745218D01*
X315933Y746354D01*
X312990Y746741D01*
D02*
G37*
G36*
X670560Y701024D02*
X668175Y700710D01*
X664770Y699299D01*
X661845Y697055D01*
X659601Y694130D01*
X658190Y690725D01*
X657876Y688340D01*
X670560D01*
Y701024D01*
D02*
G37*
G36*
X673100D02*
Y688340D01*
X685784D01*
X685470Y690725D01*
X684059Y694130D01*
X681815Y697055D01*
X678890Y699299D01*
X675485Y700710D01*
X673100Y701024D01*
D02*
G37*
G36*
X746740Y441938D02*
X745138Y441727D01*
X742462Y440619D01*
X740165Y438855D01*
X738401Y436557D01*
X737293Y433882D01*
X737082Y432280D01*
X746740D01*
Y441938D01*
D02*
G37*
G36*
X749280D02*
Y432280D01*
X758938D01*
X758727Y433882D01*
X757618Y436557D01*
X755855Y438855D01*
X753558Y440619D01*
X750882Y441727D01*
X749280Y441938D01*
D02*
G37*
G36*
X690880Y434382D02*
X688920Y433993D01*
X687258Y432882D01*
X686148Y431220D01*
X685758Y429260D01*
X686148Y427300D01*
X687258Y425638D01*
X688920Y424528D01*
X690880Y424138D01*
X692840Y424528D01*
X694502Y425638D01*
X695612Y427300D01*
X696002Y429260D01*
X695612Y431220D01*
X694502Y432882D01*
X692840Y433993D01*
X690880Y434382D01*
D02*
G37*
G36*
X746740Y429740D02*
X737082D01*
X737293Y428138D01*
X738401Y425463D01*
X740165Y423165D01*
X742462Y421401D01*
X745138Y420293D01*
X746740Y420082D01*
Y429740D01*
D02*
G37*
G36*
X718010Y441120D02*
X715393Y440776D01*
X712955Y439766D01*
X710861Y438159D01*
X709254Y436065D01*
X708244Y433627D01*
X707899Y431010D01*
X708244Y428393D01*
X709254Y425955D01*
X710861Y423861D01*
X712955Y422254D01*
X715393Y421244D01*
X718010Y420900D01*
X720627Y421244D01*
X723065Y422254D01*
X725159Y423861D01*
X726766Y425955D01*
X727776Y428393D01*
X728120Y431010D01*
X727776Y433627D01*
X726766Y436065D01*
X725159Y438159D01*
X723065Y439766D01*
X720627Y440776D01*
X718010Y441120D01*
D02*
G37*
G36*
Y501120D02*
X715393Y500776D01*
X712955Y499766D01*
X710861Y498159D01*
X709254Y496065D01*
X708244Y493627D01*
X707899Y491010D01*
X708244Y488393D01*
X709254Y485955D01*
X710861Y483861D01*
X712955Y482254D01*
X715393Y481244D01*
X718010Y480900D01*
X720627Y481244D01*
X723065Y482254D01*
X725159Y483861D01*
X726766Y485955D01*
X727776Y488393D01*
X728120Y491010D01*
X727776Y493627D01*
X726766Y496065D01*
X725159Y498159D01*
X723065Y499766D01*
X720627Y500776D01*
X718010Y501120D01*
D02*
G37*
G36*
X748010D02*
X745393Y500776D01*
X742955Y499766D01*
X740861Y498159D01*
X739254Y496065D01*
X738244Y493627D01*
X737899Y491010D01*
X738244Y488393D01*
X739254Y485955D01*
X740861Y483861D01*
X742955Y482254D01*
X745393Y481244D01*
X748010Y480900D01*
X750627Y481244D01*
X753065Y482254D01*
X755159Y483861D01*
X756766Y485955D01*
X757776Y488393D01*
X758120Y491010D01*
X757776Y493627D01*
X756766Y496065D01*
X755159Y498159D01*
X753065Y499766D01*
X750627Y500776D01*
X748010Y501120D01*
D02*
G37*
G36*
Y471120D02*
X745393Y470776D01*
X742955Y469766D01*
X740861Y468159D01*
X739254Y466065D01*
X738244Y463627D01*
X737899Y461010D01*
X738244Y458393D01*
X739254Y455955D01*
X740861Y453861D01*
X742955Y452254D01*
X745393Y451244D01*
X748010Y450900D01*
X750627Y451244D01*
X753065Y452254D01*
X755159Y453861D01*
X756766Y455955D01*
X757776Y458393D01*
X758120Y461010D01*
X757776Y463627D01*
X756766Y466065D01*
X755159Y468159D01*
X753065Y469766D01*
X750627Y470776D01*
X748010Y471120D01*
D02*
G37*
G36*
X791210Y477614D02*
X787971Y477295D01*
X784856Y476350D01*
X781985Y474816D01*
X779469Y472751D01*
X777404Y470235D01*
X775870Y467364D01*
X774925Y464249D01*
X774606Y461010D01*
X774925Y457771D01*
X775870Y454656D01*
X777404Y451785D01*
X779469Y449269D01*
X781985Y447204D01*
X784856Y445670D01*
X787971Y444725D01*
X791210Y444406D01*
X794449Y444725D01*
X797564Y445670D01*
X800435Y447204D01*
X802951Y449269D01*
X805016Y451785D01*
X806550Y454656D01*
X807495Y457771D01*
X807814Y461010D01*
X807495Y464249D01*
X806550Y467364D01*
X805016Y470235D01*
X802951Y472751D01*
X800435Y474816D01*
X797564Y476350D01*
X794449Y477295D01*
X791210Y477614D01*
D02*
G37*
G36*
X718010Y471120D02*
X715393Y470776D01*
X712955Y469766D01*
X710861Y468159D01*
X709254Y466065D01*
X708244Y463627D01*
X707899Y461010D01*
X708244Y458393D01*
X709254Y455955D01*
X710861Y453861D01*
X712955Y452254D01*
X715393Y451244D01*
X718010Y450900D01*
X720627Y451244D01*
X723065Y452254D01*
X725159Y453861D01*
X726766Y455955D01*
X727776Y458393D01*
X728120Y461010D01*
X727776Y463627D01*
X726766Y466065D01*
X725159Y468159D01*
X723065Y469766D01*
X720627Y470776D01*
X718010Y471120D01*
D02*
G37*
%LPD*%
D22*
X434340Y393700D02*
X452120Y411480D01*
X434340Y360680D02*
Y393700D01*
X452120Y411480D02*
Y430530D01*
X584200Y369570D02*
X603250Y388620D01*
X576580Y369570D02*
X584200D01*
X603250Y388620D02*
Y445770D01*
X406400Y461010D02*
X411480Y455930D01*
X406400Y461010D02*
Y638810D01*
X398780Y646430D02*
X406400Y638810D01*
X397510Y452120D02*
X422910Y426720D01*
X397510Y452120D02*
Y596900D01*
X692150Y488950D02*
X698500D01*
X684530Y481330D02*
X692150Y488950D01*
X684530Y454660D02*
Y481330D01*
X675640Y445770D02*
X684530Y454660D01*
X665480Y445770D02*
X675640D01*
X566420Y350520D02*
X609600D01*
X563880Y353060D02*
X566420Y350520D01*
X563880Y353060D02*
Y405130D01*
X554990Y414020D02*
X563880Y405130D01*
X570230Y358140D02*
Y363220D01*
X576580Y369570D01*
X603250Y445770D02*
X610870D01*
X412750Y477520D02*
Y488950D01*
Y477520D02*
X420370Y469900D01*
X435610D01*
X459740Y445770D01*
Y378460D02*
Y445770D01*
Y378460D02*
X487680Y350520D01*
X501650D01*
X505460Y354330D01*
X518160D01*
X492760Y359410D02*
Y367030D01*
X468630Y391160D02*
X492760Y367030D01*
X468630Y391160D02*
Y543560D01*
X449580Y562610D02*
X468630Y543560D01*
X426720Y353060D02*
X434340Y360680D01*
D23*
X672939Y455769D02*
X673100Y455930D01*
X605790Y455769D02*
X672939D01*
X590712Y440690D02*
X605790Y455769D01*
X581660Y440690D02*
X590712D01*
X558800D02*
X581660D01*
D24*
X791210Y461010D02*
D03*
D25*
X748010D02*
D03*
Y491010D02*
D03*
Y431010D02*
D03*
X718010D02*
D03*
Y461010D02*
D03*
Y491010D02*
D03*
D26*
X401320Y328930D02*
D03*
X375920D02*
D03*
X426720D02*
D03*
X452120D02*
D03*
X518160D02*
D03*
X492760D02*
D03*
X543560D02*
D03*
X568960D02*
D03*
X635000D02*
D03*
X609600D02*
D03*
X660400D02*
D03*
X685800D02*
D03*
D27*
X312990Y409370D02*
D03*
Y735370D02*
D03*
D28*
X521830Y687070D02*
D03*
X671830D02*
D03*
D29*
X478790Y408940D02*
D03*
X444500Y393700D02*
D03*
X586740Y480060D02*
D03*
X590550Y393700D02*
D03*
X659130Y468630D02*
D03*
X704850Y414020D02*
D03*
X624840Y405130D02*
D03*
X675640Y414020D02*
D03*
X590550Y405130D02*
D03*
X510540Y430530D02*
D03*
Y384810D02*
D03*
X477520Y472440D02*
D03*
X655320Y524510D02*
D03*
X668020Y509270D02*
D03*
X681990Y496570D02*
D03*
X608330Y521970D02*
D03*
X623570Y509270D02*
D03*
X640080Y494030D02*
D03*
X541020Y468630D02*
D03*
X673100Y455930D02*
D03*
X411480D02*
D03*
X422910Y426720D02*
D03*
X397510Y596900D02*
D03*
X398780Y646430D02*
D03*
X665480Y445770D02*
D03*
X698500Y488950D02*
D03*
X558800Y440690D02*
D03*
X581660D02*
D03*
X690880Y429260D02*
D03*
X554990Y414020D02*
D03*
X609600Y350520D02*
D03*
X570230Y358140D02*
D03*
X610870Y445770D02*
D03*
X518160Y354330D02*
D03*
X412750Y488950D02*
D03*
X492760Y359410D02*
D03*
X449580Y562610D02*
D03*
X452120Y430530D02*
D03*
X426720Y353060D02*
D03*
M02*
