M48
;Layer_Color=9474304
;FILE_FORMAT=4:4
METRIC,LZ
;TYPE=PLATED
T1F00S00C0.3000
T2F00S00C1.0160
T3F00S00C1.0200
T4F00S00C1.1500
T5F00S00C1.9500
;TYPE=NON_PLATED
T6F00S00C3.0000
T7F00S00C4.5000
%
T01
X0042672Y0035306
X004445Y003937
X0051054Y0038481
X0051816Y0035433
X0049276Y0035941
X0057023Y0035814
X006096Y0035052
X0059055Y003937
Y0040513
X0062484
X0061087Y0044577
X0058166Y0044069
X005588
X0055499Y0041402
X0051054Y0043053
X0047879Y0040894
X0045212Y0043053
X0042291Y0042672
X0041148Y0045593
X0041275Y0048895
X0047752Y0047244
X0054102Y0046863
X0058674Y0048006
X0060833Y0052197
X0062357Y0050927
X0064008Y0049403
X0066802Y0050927
X0068199Y0049657
X006985Y0048895
X006731Y0045593
X0066548Y0044577
X0065913Y0046863
X0065532Y0052451
X0067564Y0041402
X0070485
X0069088Y0042926
X0044958Y0056261
X0039751Y005969
X0039878Y0064643
T02
X0037592Y0032893
X0040132
X0042672
X0045212
X0049276
X0051816
X0054356
X0056896
X006096
X00635
X006604
X006858
T03
X0071801Y0043101
Y0046101
Y0049101
X0074801
Y0046101
Y0043101
T04
X0052183Y0068707
X0067183
T05
X0031299Y0040937
Y0073537
T06
X0079121Y0046101
T07
X0030861Y0032258
X0078486Y0032131
X0030861Y008128
X0079375Y0080899
M30
