G04 Layer_Color=16711935*
%FSLAX44Y44*%
%MOMM*%
G71*
G01*
G75*
%ADD47C,8.5000*%
%ADD48C,3.2000*%
%ADD49C,1.9000*%
%ADD50C,1.5716*%
%ADD51C,2.1500*%
%ADD52C,2.5000*%
%ADD53C,0.9000*%
D47*
X784860Y321310D02*
D03*
X793750Y808990D02*
D03*
X308610Y322580D02*
D03*
Y812800D02*
D03*
D48*
X791210Y461010D02*
D03*
D49*
X748010D02*
D03*
Y491010D02*
D03*
Y431010D02*
D03*
X718010D02*
D03*
Y461010D02*
D03*
Y491010D02*
D03*
D50*
X401320Y328930D02*
D03*
X375920D02*
D03*
X426720D02*
D03*
X452120D02*
D03*
X518160D02*
D03*
X492760D02*
D03*
X543560D02*
D03*
X568960D02*
D03*
X635000D02*
D03*
X609600D02*
D03*
X660400D02*
D03*
X685800D02*
D03*
D51*
X312990Y409370D02*
D03*
Y735370D02*
D03*
D52*
X521830Y687070D02*
D03*
X671830D02*
D03*
D53*
X478790Y408940D02*
D03*
X444500Y393700D02*
D03*
X586740Y480060D02*
D03*
X590550Y393700D02*
D03*
X659130Y468630D02*
D03*
X704850Y414020D02*
D03*
X624840Y405130D02*
D03*
X675640Y414020D02*
D03*
X590550Y405130D02*
D03*
X510540Y430530D02*
D03*
Y384810D02*
D03*
X477520Y472440D02*
D03*
X655320Y524510D02*
D03*
X668020Y509270D02*
D03*
X681990Y496570D02*
D03*
X608330Y521970D02*
D03*
X623570Y509270D02*
D03*
X640080Y494030D02*
D03*
X541020Y468630D02*
D03*
X673100Y455930D02*
D03*
X411480D02*
D03*
X422910Y426720D02*
D03*
X397510Y596900D02*
D03*
X398780Y646430D02*
D03*
X665480Y445770D02*
D03*
X698500Y488950D02*
D03*
X558800Y440690D02*
D03*
X581660D02*
D03*
X690880Y429260D02*
D03*
X554990Y414020D02*
D03*
X609600Y350520D02*
D03*
X570230Y358140D02*
D03*
X610870Y445770D02*
D03*
X518160Y354330D02*
D03*
X412750Y488950D02*
D03*
X492760Y359410D02*
D03*
X449580Y562610D02*
D03*
X452120Y430530D02*
D03*
X426720Y353060D02*
D03*
M02*
