G04 Layer_Color=32896*
%FSLAX44Y44*%
%MOMM*%
G71*
G01*
G75*
%ADD31C,0.2540*%
G36*
X645922Y449580D02*
X643890D01*
Y447548D01*
X641858D01*
Y445516D01*
X639826D01*
Y447548D01*
X637794D01*
Y449580D01*
X639826D01*
Y451612D01*
X645922D01*
Y449580D01*
D02*
G37*
G36*
X292354Y457708D02*
X294386D01*
Y455676D01*
Y453644D01*
X296418D01*
Y451612D01*
Y449580D01*
X294386D01*
Y451612D01*
X288290D01*
Y453644D01*
X286258D01*
Y455676D01*
X280162D01*
Y457708D01*
X282194D01*
Y459740D01*
X284226D01*
Y457708D01*
X286258D01*
Y459740D01*
X288290D01*
Y457708D01*
X290322D01*
Y459740D01*
X292354D01*
Y457708D01*
D02*
G37*
G36*
X296418D02*
X294386D01*
Y459740D01*
X296418D01*
Y457708D01*
D02*
G37*
G36*
X304546Y449580D02*
Y447548D01*
X302514D01*
Y445516D01*
X300482D01*
Y443484D01*
X298450D01*
Y441452D01*
Y439420D01*
X294386D01*
Y437388D01*
Y435356D01*
Y433324D01*
X296418D01*
Y435356D01*
X645922D01*
Y433324D01*
X647954D01*
Y435356D01*
Y437388D01*
Y439420D01*
X643890D01*
Y441452D01*
Y443484D01*
X645922D01*
Y441452D01*
X647954D01*
Y439420D01*
X649986D01*
Y437388D01*
X652018D01*
Y435356D01*
X654050D01*
Y433324D01*
X656082D01*
Y431292D01*
X286258D01*
Y433324D01*
X288290D01*
Y435356D01*
Y437388D01*
X290322D01*
Y439420D01*
X292354D01*
Y441452D01*
X294386D01*
Y443484D01*
X296418D01*
Y445516D01*
X298450D01*
Y447548D01*
X300482D01*
Y449580D01*
X298450D01*
Y451612D01*
X304546D01*
Y449580D01*
D02*
G37*
G36*
X328930D02*
X330962D01*
Y447548D01*
X332994D01*
Y449580D01*
X335026D01*
Y447548D01*
X337058D01*
Y449580D01*
X339090D01*
Y447548D01*
X341122D01*
Y449580D01*
X343154D01*
Y447548D01*
X345186D01*
Y449580D01*
X347218D01*
Y447548D01*
X349250D01*
Y449580D01*
X351282D01*
Y447548D01*
X353314D01*
Y449580D01*
X355346D01*
Y447548D01*
X357378D01*
Y445516D01*
X320802D01*
Y447548D01*
X322834D01*
Y449580D01*
X326898D01*
Y451612D01*
X328930D01*
Y449580D01*
D02*
G37*
G36*
X517906Y646684D02*
X519938D01*
Y644652D01*
X517906D01*
Y642620D01*
X519938D01*
Y640588D01*
X521970D01*
Y638556D01*
X519938D01*
Y636524D01*
X521970D01*
Y634492D01*
X524002D01*
Y632460D01*
Y630428D01*
Y628396D01*
X526034D01*
Y626364D01*
Y624332D01*
Y622300D01*
X528066D01*
Y620268D01*
X530098D01*
Y618236D01*
X528066D01*
Y616204D01*
X530098D01*
Y614172D01*
Y612140D01*
X532130D01*
Y610108D01*
Y608076D01*
X534162D01*
Y606044D01*
X532130D01*
Y604012D01*
X534162D01*
Y601980D01*
X536194D01*
Y599948D01*
Y597916D01*
Y595884D01*
X538226D01*
Y593852D01*
Y591820D01*
Y589788D01*
X540258D01*
Y587756D01*
X542290D01*
Y585724D01*
X540258D01*
Y583692D01*
X542290D01*
Y581660D01*
X544322D01*
Y579628D01*
Y577596D01*
Y575564D01*
X546354D01*
Y573532D01*
X544322D01*
Y571500D01*
X546354D01*
Y569468D01*
X548386D01*
Y567436D01*
Y565404D01*
Y563372D01*
X550418D01*
Y561340D01*
Y559308D01*
Y557276D01*
X552450D01*
Y555244D01*
X554482D01*
Y553212D01*
X552450D01*
Y551180D01*
X554482D01*
Y549148D01*
Y547116D01*
X558546D01*
Y545084D01*
X556514D01*
Y543052D01*
X558546D01*
Y541020D01*
X556514D01*
Y538988D01*
X558546D01*
Y536956D01*
X560578D01*
Y534924D01*
X562610D01*
Y532892D01*
X560578D01*
Y530860D01*
X562610D01*
Y528828D01*
Y526796D01*
Y524764D01*
X564642D01*
Y522732D01*
X566674D01*
Y520700D01*
X564642D01*
Y518668D01*
X566674D01*
Y516636D01*
X568706D01*
Y514604D01*
Y512572D01*
Y510540D01*
X570738D01*
Y508508D01*
Y506476D01*
Y504444D01*
X572770D01*
Y502412D01*
Y500380D01*
Y498348D01*
X574802D01*
Y496316D01*
Y494284D01*
X576834D01*
Y492252D01*
Y490220D01*
X578866D01*
Y488188D01*
X576834D01*
Y486156D01*
X578866D01*
Y484124D01*
X580898D01*
Y482092D01*
Y480060D01*
Y478028D01*
X582930D01*
Y475996D01*
X580898D01*
Y473964D01*
X582930D01*
Y471932D01*
X584962D01*
Y469900D01*
X586994D01*
Y467868D01*
X584962D01*
Y465836D01*
X586994D01*
Y463804D01*
Y461772D01*
Y459740D01*
X589026D01*
Y457708D01*
X591058D01*
Y455676D01*
X589026D01*
Y453644D01*
X591058D01*
Y451612D01*
X593090D01*
Y449580D01*
X595122D01*
Y447548D01*
X597154D01*
Y449580D01*
X599186D01*
Y447548D01*
X601218D01*
Y449580D01*
X603250D01*
Y447548D01*
X605282D01*
Y449580D01*
X607314D01*
Y447548D01*
X609346D01*
Y449580D01*
X611378D01*
Y447548D01*
X613410D01*
Y449580D01*
X615442D01*
Y447548D01*
X617474D01*
Y449580D01*
X615442D01*
Y451612D01*
X613410D01*
Y453644D01*
X611378D01*
Y455676D01*
X609346D01*
Y457708D01*
X611378D01*
Y459740D01*
X613410D01*
Y457708D01*
X615442D01*
Y455676D01*
Y453644D01*
X617474D01*
Y451612D01*
X619506D01*
Y449580D01*
X621538D01*
Y447548D01*
X623570D01*
Y445516D01*
X586994D01*
Y447548D01*
X584962D01*
Y449580D01*
X582930D01*
Y447548D01*
X584962D01*
Y445516D01*
X578866D01*
Y447548D01*
X576834D01*
Y449580D01*
X574802D01*
Y451612D01*
X572770D01*
Y449580D01*
X574802D01*
Y447548D01*
X576834D01*
Y445516D01*
X570738D01*
Y447548D01*
X568706D01*
Y449580D01*
X566674D01*
Y447548D01*
X568706D01*
Y445516D01*
X562610D01*
Y447548D01*
X560578D01*
Y449580D01*
X562610D01*
Y451612D01*
X560578D01*
Y453644D01*
X558546D01*
Y455676D01*
Y457708D01*
Y459740D01*
X556514D01*
Y461772D01*
Y463804D01*
Y465836D01*
X554482D01*
Y467868D01*
X552450D01*
Y469900D01*
X554482D01*
Y471932D01*
X552450D01*
Y473964D01*
Y475996D01*
Y478028D01*
X550418D01*
Y480060D01*
X548386D01*
Y482092D01*
X550418D01*
Y484124D01*
X548386D01*
Y486156D01*
X546354D01*
Y488188D01*
Y490220D01*
Y492252D01*
X544322D01*
Y494284D01*
X546354D01*
Y496316D01*
X544322D01*
Y498348D01*
X542290D01*
Y500380D01*
Y502412D01*
Y504444D01*
X540258D01*
Y506476D01*
Y508508D01*
Y510540D01*
X538226D01*
Y512572D01*
X536194D01*
Y514604D01*
X538226D01*
Y516636D01*
X536194D01*
Y518668D01*
X534162D01*
Y520700D01*
X532130D01*
Y522732D01*
X534162D01*
Y524764D01*
X532130D01*
Y526796D01*
Y528828D01*
Y530860D01*
X530098D01*
Y532892D01*
X528066D01*
Y534924D01*
X530098D01*
Y536956D01*
X528066D01*
Y538988D01*
X526034D01*
Y541020D01*
Y543052D01*
Y545084D01*
X524002D01*
Y543052D01*
X521970D01*
Y545084D01*
X519938D01*
Y543052D01*
X517906D01*
Y545084D01*
X515874D01*
Y543052D01*
X513842D01*
Y545084D01*
X511810D01*
Y543052D01*
X509778D01*
Y545084D01*
X507746D01*
Y543052D01*
X505714D01*
Y545084D01*
X503682D01*
Y543052D01*
X501650D01*
Y545084D01*
X499618D01*
Y543052D01*
X497586D01*
Y545084D01*
X495554D01*
Y543052D01*
X493522D01*
Y545084D01*
X491490D01*
Y543052D01*
X489458D01*
Y545084D01*
X487426D01*
Y543052D01*
X485394D01*
Y545084D01*
X483362D01*
Y543052D01*
X481330D01*
Y545084D01*
X479298D01*
Y543052D01*
X481330D01*
Y541020D01*
X479298D01*
Y538988D01*
X481330D01*
Y536956D01*
X479298D01*
Y534924D01*
X481330D01*
Y532892D01*
X479298D01*
Y530860D01*
X481330D01*
Y528828D01*
X479298D01*
Y526796D01*
X481330D01*
Y524764D01*
X479298D01*
Y522732D01*
X481330D01*
Y520700D01*
X479298D01*
Y518668D01*
X481330D01*
Y516636D01*
X479298D01*
Y514604D01*
X481330D01*
Y512572D01*
X479298D01*
Y510540D01*
X481330D01*
Y508508D01*
X479298D01*
Y506476D01*
X481330D01*
Y504444D01*
X479298D01*
Y502412D01*
X481330D01*
Y500380D01*
X479298D01*
Y498348D01*
X481330D01*
Y496316D01*
X479298D01*
Y494284D01*
X481330D01*
Y492252D01*
X479298D01*
Y490220D01*
X481330D01*
Y488188D01*
X479298D01*
Y486156D01*
X481330D01*
Y484124D01*
X479298D01*
Y482092D01*
X481330D01*
Y480060D01*
X479298D01*
Y478028D01*
X481330D01*
Y475996D01*
X479298D01*
Y473964D01*
X481330D01*
Y471932D01*
X479298D01*
Y469900D01*
X481330D01*
Y467868D01*
X479298D01*
Y465836D01*
X481330D01*
Y463804D01*
X479298D01*
Y461772D01*
X481330D01*
Y459740D01*
X479298D01*
Y457708D01*
X481330D01*
Y455676D01*
X479298D01*
Y453644D01*
X481330D01*
Y451612D01*
X479298D01*
Y449580D01*
X481330D01*
Y447548D01*
X483362D01*
Y449580D01*
X485394D01*
Y447548D01*
X487426D01*
Y449580D01*
X489458D01*
Y447548D01*
X491490D01*
Y449580D01*
X493522D01*
Y447548D01*
X495554D01*
Y449580D01*
X497586D01*
Y447548D01*
X499618D01*
Y449580D01*
X501650D01*
Y447548D01*
X503682D01*
Y449580D01*
X505714D01*
Y447548D01*
X507746D01*
Y449580D01*
X509778D01*
Y447548D01*
X511810D01*
Y449580D01*
X513842D01*
Y447548D01*
X515874D01*
Y449580D01*
X517906D01*
Y447548D01*
X519938D01*
Y449580D01*
X521970D01*
Y447548D01*
X524002D01*
Y449580D01*
X526034D01*
Y447548D01*
X528066D01*
Y449580D01*
X530098D01*
Y447548D01*
X532130D01*
Y449580D01*
X534162D01*
Y447548D01*
X536194D01*
Y449580D01*
X538226D01*
Y447548D01*
X540258D01*
Y449580D01*
X542290D01*
Y447548D01*
X544322D01*
Y449580D01*
X546354D01*
Y447548D01*
X548386D01*
Y449580D01*
X550418D01*
Y447548D01*
X552450D01*
Y449580D01*
X554482D01*
Y447548D01*
X556514D01*
Y449580D01*
X558546D01*
Y447548D01*
X560578D01*
Y445516D01*
X481330D01*
Y447548D01*
X479298D01*
Y449580D01*
X477266D01*
Y451612D01*
X475234D01*
Y449580D01*
X477266D01*
Y447548D01*
X479298D01*
Y445516D01*
X473202D01*
Y447548D01*
X471170D01*
Y449580D01*
X469138D01*
Y447548D01*
X471170D01*
Y445516D01*
X465074D01*
Y447548D01*
X463042D01*
Y449580D01*
X461010D01*
Y447548D01*
X463042D01*
Y445516D01*
X456946D01*
Y447548D01*
X454914D01*
Y449580D01*
X452882D01*
Y447548D01*
X454914D01*
Y445516D01*
X448818D01*
Y447548D01*
X446786D01*
Y449580D01*
X444754D01*
Y451612D01*
X442722D01*
Y449580D01*
X444754D01*
Y447548D01*
X446786D01*
Y445516D01*
X440690D01*
Y447548D01*
X438658D01*
Y449580D01*
X436626D01*
Y447548D01*
X438658D01*
Y445516D01*
X432562D01*
Y447548D01*
X430530D01*
Y449580D01*
X428498D01*
Y447548D01*
X430530D01*
Y445516D01*
X424434D01*
Y447548D01*
X422402D01*
Y449580D01*
X420370D01*
Y447548D01*
X422402D01*
Y445516D01*
X416306D01*
Y447548D01*
X414274D01*
Y449580D01*
X412242D01*
Y451612D01*
X410210D01*
Y449580D01*
X412242D01*
Y447548D01*
X414274D01*
Y445516D01*
X408178D01*
Y447548D01*
X406146D01*
Y449580D01*
X404114D01*
Y447548D01*
X406146D01*
Y445516D01*
X400050D01*
Y447548D01*
X398018D01*
Y449580D01*
X395986D01*
Y447548D01*
X398018D01*
Y445516D01*
X391922D01*
Y447548D01*
X389890D01*
Y449580D01*
X387858D01*
Y447548D01*
X389890D01*
Y445516D01*
X383794D01*
Y447548D01*
X381762D01*
Y449580D01*
X379730D01*
Y451612D01*
X377698D01*
Y449580D01*
X379730D01*
Y447548D01*
X381762D01*
Y445516D01*
X375666D01*
Y447548D01*
X373634D01*
Y449580D01*
X371602D01*
Y447548D01*
X373634D01*
Y445516D01*
X367538D01*
Y447548D01*
X365506D01*
Y449580D01*
X363474D01*
Y447548D01*
X365506D01*
Y445516D01*
X359410D01*
Y447548D01*
X357378D01*
Y449580D01*
X355346D01*
Y451612D01*
X357378D01*
Y453644D01*
X359410D01*
Y455676D01*
Y457708D01*
X363474D01*
Y459740D01*
X361442D01*
Y461772D01*
X365506D01*
Y463804D01*
Y465836D01*
X371602D01*
Y467868D01*
X373634D01*
Y465836D01*
X375666D01*
Y467868D01*
X377698D01*
Y465836D01*
X379730D01*
Y467868D01*
X381762D01*
Y465836D01*
X383794D01*
Y467868D01*
X385826D01*
Y465836D01*
X387858D01*
Y467868D01*
X389890D01*
Y465836D01*
X391922D01*
Y467868D01*
X393954D01*
Y465836D01*
X395986D01*
Y467868D01*
X398018D01*
Y465836D01*
X400050D01*
Y467868D01*
X402082D01*
Y465836D01*
X404114D01*
Y467868D01*
X406146D01*
Y465836D01*
X408178D01*
Y467868D01*
X410210D01*
Y465836D01*
X412242D01*
Y467868D01*
X414274D01*
Y465836D01*
X416306D01*
Y467868D01*
X418338D01*
Y465836D01*
X420370D01*
Y467868D01*
X422402D01*
Y465836D01*
X424434D01*
Y467868D01*
X426466D01*
Y465836D01*
X428498D01*
Y467868D01*
X430530D01*
Y465836D01*
X432562D01*
Y467868D01*
X434594D01*
Y469900D01*
X432562D01*
Y471932D01*
Y473964D01*
Y475996D01*
X434594D01*
Y478028D01*
X432562D01*
Y480060D01*
X434594D01*
Y482092D01*
X432562D01*
Y484124D01*
X434594D01*
Y486156D01*
X432562D01*
Y488188D01*
Y490220D01*
Y492252D01*
X434594D01*
Y494284D01*
X432562D01*
Y496316D01*
X434594D01*
Y498348D01*
X432562D01*
Y500380D01*
X434594D01*
Y502412D01*
X432562D01*
Y504444D01*
Y506476D01*
Y508508D01*
X434594D01*
Y510540D01*
X432562D01*
Y512572D01*
X434594D01*
Y514604D01*
X432562D01*
Y516636D01*
X434594D01*
Y518668D01*
X432562D01*
Y520700D01*
Y522732D01*
Y524764D01*
X434594D01*
Y526796D01*
X432562D01*
Y528828D01*
X434594D01*
Y530860D01*
X432562D01*
Y532892D01*
X434594D01*
Y534924D01*
X432562D01*
Y536956D01*
Y538988D01*
Y541020D01*
X434594D01*
Y543052D01*
X432562D01*
Y545084D01*
X434594D01*
Y547116D01*
X432562D01*
Y549148D01*
X430530D01*
Y547116D01*
X428498D01*
Y549148D01*
X426466D01*
Y547116D01*
X424434D01*
Y549148D01*
X422402D01*
Y547116D01*
X420370D01*
Y549148D01*
X418338D01*
Y547116D01*
X416306D01*
Y549148D01*
X414274D01*
Y547116D01*
X412242D01*
Y549148D01*
X410210D01*
Y547116D01*
X408178D01*
Y549148D01*
X406146D01*
Y547116D01*
X404114D01*
Y549148D01*
X402082D01*
Y547116D01*
X400050D01*
Y549148D01*
X398018D01*
Y547116D01*
X395986D01*
Y549148D01*
X393954D01*
Y547116D01*
X391922D01*
Y549148D01*
X389890D01*
Y547116D01*
X387858D01*
Y549148D01*
X385826D01*
Y547116D01*
X383794D01*
Y549148D01*
X381762D01*
Y547116D01*
X379730D01*
Y549148D01*
X377698D01*
Y547116D01*
X375666D01*
Y549148D01*
X373634D01*
Y547116D01*
X371602D01*
Y549148D01*
X369570D01*
Y547116D01*
X367538D01*
Y549148D01*
Y551180D01*
Y553212D01*
Y555244D01*
Y557276D01*
X369570D01*
Y559308D01*
X367538D01*
Y561340D01*
Y563372D01*
Y565404D01*
X369570D01*
Y567436D01*
X367538D01*
Y569468D01*
X369570D01*
Y571500D01*
X432562D01*
Y573532D01*
X434594D01*
Y575564D01*
X432562D01*
Y577596D01*
X434594D01*
Y579628D01*
X432562D01*
Y581660D01*
X434594D01*
Y583692D01*
X432562D01*
Y585724D01*
Y587756D01*
Y589788D01*
X434594D01*
Y591820D01*
X432562D01*
Y593852D01*
X434594D01*
Y595884D01*
X432562D01*
Y597916D01*
X434594D01*
Y599948D01*
X432562D01*
Y601980D01*
Y604012D01*
Y606044D01*
X434594D01*
Y608076D01*
X432562D01*
Y610108D01*
X434594D01*
Y612140D01*
X432562D01*
Y614172D01*
X434594D01*
Y616204D01*
X432562D01*
Y618236D01*
Y620268D01*
Y622300D01*
X434594D01*
Y624332D01*
X432562D01*
Y626364D01*
X434594D01*
Y628396D01*
X432562D01*
Y630428D01*
X430530D01*
Y628396D01*
X428498D01*
Y630428D01*
X422402D01*
Y628396D01*
X420370D01*
Y630428D01*
X414274D01*
Y628396D01*
X412242D01*
Y630428D01*
X406146D01*
Y628396D01*
X404114D01*
Y630428D01*
X398018D01*
Y628396D01*
X395986D01*
Y630428D01*
X389890D01*
Y628396D01*
X387858D01*
Y630428D01*
X381762D01*
Y628396D01*
X379730D01*
Y630428D01*
X373634D01*
Y628396D01*
X371602D01*
Y630428D01*
X363474D01*
Y632460D01*
Y634492D01*
X361442D01*
Y636524D01*
X359410D01*
Y638556D01*
X357378D01*
Y640588D01*
X359410D01*
Y642620D01*
X357378D01*
Y644652D01*
X355346D01*
Y646684D01*
X353314D01*
Y648716D01*
X517906D01*
Y646684D01*
D02*
G37*
G36*
X617474Y457708D02*
X615442D01*
Y459740D01*
X617474D01*
Y457708D01*
D02*
G37*
G36*
X641858D02*
Y455676D01*
X619506D01*
Y457708D01*
Y459740D01*
X621538D01*
Y457708D01*
X623570D01*
Y459740D01*
X625602D01*
Y457708D01*
X627634D01*
Y459740D01*
X629666D01*
Y457708D01*
X631698D01*
Y459740D01*
X633730D01*
Y457708D01*
X635762D01*
Y459740D01*
X637794D01*
Y457708D01*
X639826D01*
Y459740D01*
X641858D01*
Y457708D01*
D02*
G37*
G36*
X658114D02*
X660146D01*
Y455676D01*
X658114D01*
Y453644D01*
X656082D01*
Y451612D01*
X654050D01*
Y453644D01*
X652018D01*
Y451612D01*
X645922D01*
Y453644D01*
X647954D01*
Y455676D01*
Y457708D01*
Y459740D01*
X649986D01*
Y457708D01*
X652018D01*
Y459740D01*
X654050D01*
Y457708D01*
X656082D01*
Y459740D01*
X658114D01*
Y457708D01*
D02*
G37*
G36*
X324866D02*
X326898D01*
Y455676D01*
X300482D01*
Y457708D01*
X302514D01*
Y459740D01*
X304546D01*
Y457708D01*
X306578D01*
Y459740D01*
X308610D01*
Y457708D01*
X310642D01*
Y459740D01*
X312674D01*
Y457708D01*
X314706D01*
Y459740D01*
X316738D01*
Y457708D01*
X318770D01*
Y459740D01*
X320802D01*
Y457708D01*
X322834D01*
Y459740D01*
X324866D01*
Y457708D01*
D02*
G37*
G36*
X337058D02*
X339090D01*
Y455676D01*
X332994D01*
Y453644D01*
X335026D01*
Y451612D01*
X328930D01*
Y453644D01*
Y455676D01*
Y457708D01*
X326898D01*
Y459740D01*
X328930D01*
Y457708D01*
X330962D01*
Y459740D01*
X332994D01*
Y457708D01*
X335026D01*
Y459740D01*
X337058D01*
Y457708D01*
D02*
G37*
%LPC*%
G36*
X497586Y630428D02*
X479298D01*
Y628396D01*
X481330D01*
Y626364D01*
X479298D01*
Y624332D01*
X481330D01*
Y622300D01*
X479298D01*
Y620268D01*
X481330D01*
Y618236D01*
X479298D01*
Y616204D01*
X481330D01*
Y614172D01*
X479298D01*
Y612140D01*
X481330D01*
Y610108D01*
X479298D01*
Y608076D01*
X481330D01*
Y606044D01*
X479298D01*
Y604012D01*
X481330D01*
Y601980D01*
X479298D01*
Y599948D01*
X481330D01*
Y597916D01*
X479298D01*
Y595884D01*
X481330D01*
Y593852D01*
X479298D01*
Y591820D01*
X481330D01*
Y589788D01*
X479298D01*
Y587756D01*
X481330D01*
Y585724D01*
X479298D01*
Y583692D01*
X481330D01*
Y581660D01*
X479298D01*
Y579628D01*
X481330D01*
Y577596D01*
X479298D01*
Y575564D01*
X481330D01*
Y573532D01*
X479298D01*
Y571500D01*
X481330D01*
Y569468D01*
X483362D01*
Y571500D01*
X485394D01*
Y569468D01*
X487426D01*
Y571500D01*
X489458D01*
Y569468D01*
X491490D01*
Y571500D01*
X493522D01*
Y569468D01*
X495554D01*
Y571500D01*
X497586D01*
Y569468D01*
X499618D01*
Y571500D01*
X501650D01*
Y569468D01*
X503682D01*
Y571500D01*
X505714D01*
Y569468D01*
X507746D01*
Y571500D01*
X509778D01*
Y569468D01*
X511810D01*
Y571500D01*
X513842D01*
Y569468D01*
X515874D01*
Y571500D01*
X517906D01*
Y573532D01*
X515874D01*
Y575564D01*
X517906D01*
Y577596D01*
X515874D01*
Y579628D01*
Y581660D01*
X513842D01*
Y583692D01*
Y585724D01*
X511810D01*
Y587756D01*
X513842D01*
Y589788D01*
X511810D01*
Y591820D01*
X509778D01*
Y593852D01*
Y595884D01*
Y597916D01*
X507746D01*
Y599948D01*
X509778D01*
Y601980D01*
X507746D01*
Y604012D01*
X505714D01*
Y606044D01*
Y608076D01*
Y610108D01*
X503682D01*
Y612140D01*
X505714D01*
Y614172D01*
X503682D01*
Y616204D01*
X501650D01*
Y618236D01*
X499618D01*
Y620268D01*
X501650D01*
Y622300D01*
X499618D01*
Y624332D01*
Y626364D01*
Y628396D01*
X497586D01*
Y630428D01*
D02*
G37*
G36*
X593090Y449580D02*
X591058D01*
Y447548D01*
X593090D01*
Y449580D01*
D02*
G37*
%LPD*%
D31*
X673103Y820910D02*
X675642Y823450D01*
X680721D01*
X683260Y820910D01*
Y818371D01*
X680721Y815832D01*
X675642D01*
X673103Y813293D01*
Y810754D01*
X675642Y808214D01*
X680721D01*
X683260Y810754D01*
X660407Y808214D02*
X665486D01*
X668025Y810754D01*
Y815832D01*
X665486Y818371D01*
X660407D01*
X657868Y815832D01*
Y813293D01*
X668025D01*
X652790Y808214D02*
Y818371D01*
X645172D01*
X642633Y815832D01*
Y808214D01*
X637555D02*
X629937D01*
X627398Y810754D01*
X629937Y813293D01*
X635016D01*
X637555Y815832D01*
X635016Y818371D01*
X627398D01*
X619781Y808214D02*
X614702D01*
X612163Y810754D01*
Y815832D01*
X614702Y818371D01*
X619781D01*
X622320Y815832D01*
Y810754D01*
X619781Y808214D01*
X607085Y818371D02*
Y808214D01*
Y813293D01*
X604546Y815832D01*
X602006Y818371D01*
X599467D01*
X576614Y823450D02*
Y808214D01*
X568997D01*
X566458Y810754D01*
Y813293D01*
X568997Y815832D01*
X576614D01*
X568997D01*
X566458Y818371D01*
Y820910D01*
X568997Y823450D01*
X576614D01*
X558840Y808214D02*
X553762D01*
X551223Y810754D01*
Y815832D01*
X553762Y818371D01*
X558840D01*
X561379Y815832D01*
Y810754D01*
X558840Y808214D01*
X543605Y818371D02*
X538527D01*
X535988Y815832D01*
Y808214D01*
X543605D01*
X546144Y810754D01*
X543605Y813293D01*
X535988D01*
X530909Y818371D02*
Y808214D01*
Y813293D01*
X528370Y815832D01*
X525831Y818371D01*
X523292D01*
X505518Y823450D02*
Y808214D01*
X513135D01*
X515674Y810754D01*
Y815832D01*
X513135Y818371D01*
X505518D01*
X683260Y799072D02*
Y788915D01*
X678182Y783836D01*
X673103Y788915D01*
Y799072D01*
X668025Y783836D02*
X662947D01*
X665486D01*
Y799072D01*
X668025Y796532D01*
X655329Y783836D02*
Y786376D01*
X652790D01*
Y783836D01*
X655329D01*
X642633Y796532D02*
X640094Y799072D01*
X635016D01*
X632476Y796532D01*
Y786376D01*
X635016Y783836D01*
X640094D01*
X642633Y786376D01*
Y796532D01*
X683260Y774693D02*
Y759458D01*
X675642D01*
X673103Y761998D01*
Y764537D01*
X675642Y767076D01*
X683260D01*
X675642D01*
X673103Y769615D01*
Y772154D01*
X675642Y774693D01*
X683260D01*
X668025Y769615D02*
Y761998D01*
X665486Y759458D01*
X657868D01*
Y756919D01*
X660407Y754380D01*
X662947D01*
X657868Y759458D02*
Y769615D01*
X652790D02*
X650251D01*
Y767076D01*
X652790D01*
Y769615D01*
Y761998D02*
X650251D01*
Y759458D01*
X652790D01*
Y761998D01*
X624859Y759458D02*
Y769615D01*
X619781Y774693D01*
X614702Y769615D01*
Y759458D01*
Y767076D01*
X624859D01*
X609624Y769615D02*
Y759458D01*
Y764537D01*
X607085Y767076D01*
X604546Y769615D01*
X602006D01*
X584232Y774693D02*
Y759458D01*
X591850D01*
X594389Y761998D01*
Y767076D01*
X591850Y769615D01*
X584232D01*
X571536Y759458D02*
X576614D01*
X579154Y761998D01*
Y767076D01*
X576614Y769615D01*
X571536D01*
X568997Y767076D01*
Y764537D01*
X579154D01*
X563919Y759458D02*
Y769615D01*
X556301D01*
X553762Y767076D01*
Y759458D01*
X525831Y774693D02*
X530909D01*
X533448Y772154D01*
Y761998D01*
X530909Y759458D01*
X525831D01*
X523292Y761998D01*
Y772154D01*
X525831Y774693D01*
X518213D02*
Y759458D01*
Y767076D01*
X515674Y769615D01*
X510596D01*
X508057Y767076D01*
Y759458D01*
M02*
