G04 Layer_Color=8421504*
%FSLAX44Y44*%
%MOMM*%
G71*
G01*
G75*
%ADD10R,2.0000X1.9000*%
%ADD11R,1.3000X1.9000*%
%ADD12R,2.5400X2.6700*%
%ADD13R,1.2700X0.7620*%
%ADD14R,0.7000X0.9000*%
%ADD15R,1.3000X2.0000*%
%ADD16R,1.2000X1.3000*%
%ADD17R,1.3000X1.3000*%
%ADD18R,0.9000X0.7000*%
%ADD19R,0.9500X0.3000*%
%ADD20R,0.5000X0.8000*%
%ADD21R,4.5000X1.4000*%
D10*
X626310Y430730D02*
D03*
D11*
X638810Y379730D02*
D03*
X613810D02*
D03*
D12*
X491490Y449580D02*
D03*
D13*
Y473075D02*
D03*
D14*
X437530Y414020D02*
D03*
X423530D02*
D03*
Y441960D02*
D03*
X437530D02*
D03*
D15*
X426330Y509200D02*
D03*
D16*
X481330Y497700D02*
D03*
D17*
Y520700D02*
D03*
D18*
X643890Y482630D02*
D03*
Y468630D02*
D03*
X690880Y381620D02*
D03*
Y395620D02*
D03*
X586740Y468660D02*
D03*
Y454660D02*
D03*
X577850Y385430D02*
D03*
Y399430D02*
D03*
X577850Y415260D02*
D03*
Y429260D02*
D03*
X552450Y474360D02*
D03*
Y460360D02*
D03*
X528320Y460360D02*
D03*
Y474360D02*
D03*
X528320Y384810D02*
D03*
Y398810D02*
D03*
X553720Y384810D02*
D03*
Y398810D02*
D03*
X458470Y472440D02*
D03*
Y458440D02*
D03*
X457200Y400700D02*
D03*
Y386700D02*
D03*
X430530Y563260D02*
D03*
Y549260D02*
D03*
D19*
X602410Y477520D02*
D03*
Y471020D02*
D03*
Y484020D02*
D03*
X624410D02*
D03*
Y471020D02*
D03*
X523670Y434340D02*
D03*
Y427840D02*
D03*
Y440840D02*
D03*
X545670D02*
D03*
Y427840D02*
D03*
D20*
X678180Y359410D02*
D03*
X693180D02*
D03*
D21*
X364490Y547370D02*
D03*
Y497370D02*
D03*
Y447370D02*
D03*
Y597370D02*
D03*
Y647370D02*
D03*
Y697370D02*
D03*
M02*
