G04 Layer_Physical_Order=1*
G04 Layer_Color=255*
%FSLAX44Y44*%
%MOMM*%
G71*
G01*
G75*
%ADD10R,1.5000X0.7000*%
%ADD11R,0.7000X1.5000*%
%ADD12C,0.5000*%
%ADD13C,0.2540*%
%ADD14C,1.8000*%
D10*
X902730Y561610D02*
D03*
Y573610D02*
D03*
Y585610D02*
D03*
Y597610D02*
D03*
Y609610D02*
D03*
X987730D02*
D03*
Y597610D02*
D03*
Y585610D02*
D03*
Y573610D02*
D03*
Y561610D02*
D03*
D11*
X915230Y626110D02*
D03*
X927230D02*
D03*
X939230D02*
D03*
X951230D02*
D03*
X963230D02*
D03*
X975230D02*
D03*
D12*
X1009650Y638810D02*
X1032510Y661670D01*
X1009650Y610870D02*
Y638810D01*
X996390Y597610D02*
X1009650Y610870D01*
X987730Y597610D02*
X996390D01*
X863600Y610567D02*
Y610870D01*
Y610567D02*
X876300Y597867D01*
X893879Y573610D02*
X902730D01*
X876300Y591189D02*
Y597867D01*
Y591189D02*
X893879Y573610D01*
X1018540Y622300D02*
X1032510Y636270D01*
X1018540Y607060D02*
Y622300D01*
X1008166Y596686D02*
X1018540Y607060D01*
X1008166Y592876D02*
Y596686D01*
X987730Y585610D02*
X1000900D01*
X1008166Y592876D01*
D13*
X893940Y585610D02*
X902730D01*
X883920Y595630D02*
X893940Y585610D01*
X883920Y595630D02*
Y597734D01*
X987730Y561610D02*
X1008650D01*
X987730Y573610D02*
X1002870D01*
X1013460Y584200D01*
X1008650Y561610D02*
X1032510Y585470D01*
X987730Y609610D02*
X996960D01*
X999490Y612140D01*
X1013460Y584200D02*
Y591820D01*
X1032510Y610870D01*
X999490Y612140D02*
Y654050D01*
X1032510Y687070D01*
X975230Y626110D02*
Y655190D01*
X1032510Y712470D01*
X963230Y626110D02*
Y668590D01*
X1032510Y737870D01*
X951230Y626110D02*
Y681990D01*
X1032510Y763270D01*
X939230Y626110D02*
Y687640D01*
X863600Y763270D02*
X939230Y687640D01*
X927230Y626110D02*
Y674240D01*
X863600Y737870D02*
X927230Y674240D01*
X915230Y626110D02*
Y660840D01*
X863600Y712470D02*
X915230Y660840D01*
X895340Y609610D02*
X902730D01*
X891540Y613410D02*
X895340Y609610D01*
X891540Y613410D02*
Y659130D01*
X863600Y687070D02*
X891540Y659130D01*
X887460Y561610D02*
X902730D01*
X863600Y585470D02*
X887460Y561610D01*
X877570Y604084D02*
X883920Y597734D01*
X877570Y604084D02*
Y622300D01*
X863600Y636270D02*
X877570Y622300D01*
X902170Y598170D02*
X902730Y597610D01*
X892810Y598170D02*
X902170D01*
X883920Y607060D02*
X892810Y598170D01*
X883920Y607060D02*
Y641350D01*
X863600Y661670D02*
X883920Y641350D01*
X859790Y802635D02*
X869947D01*
X864868D01*
Y787400D01*
X882643Y802635D02*
X877564D01*
X875025Y800096D01*
Y789939D01*
X877564Y787400D01*
X882643D01*
X885182Y789939D01*
Y800096D01*
X882643Y802635D01*
X890260Y787400D02*
Y802635D01*
X897878D01*
X900417Y800096D01*
Y795017D01*
X897878Y792478D01*
X890260D01*
X928348Y802635D02*
X923270D01*
X920730Y800096D01*
Y789939D01*
X923270Y787400D01*
X928348D01*
X930887Y789939D01*
Y800096D01*
X928348Y802635D01*
X946122D02*
X935965D01*
Y795017D01*
X941044D01*
X935965D01*
Y787400D01*
X966435Y802635D02*
Y787400D01*
X974053D01*
X976592Y789939D01*
Y792478D01*
X974053Y795017D01*
X966435D01*
X974053D01*
X976592Y797557D01*
Y800096D01*
X974053Y802635D01*
X966435D01*
X989288D02*
X984210D01*
X981671Y800096D01*
Y789939D01*
X984210Y787400D01*
X989288D01*
X991827Y789939D01*
Y800096D01*
X989288Y802635D01*
X996906Y787400D02*
Y797557D01*
X1001984Y802635D01*
X1007062Y797557D01*
Y787400D01*
Y795017D01*
X996906D01*
X1012141Y787400D02*
Y802635D01*
X1019758D01*
X1022297Y800096D01*
Y795017D01*
X1019758Y792478D01*
X1012141D01*
X1017219D02*
X1022297Y787400D01*
X1027376Y802635D02*
Y787400D01*
X1034993D01*
X1037533Y789939D01*
Y800096D01*
X1034993Y802635D01*
X1027376D01*
D14*
X1032510Y585470D02*
D03*
Y610870D02*
D03*
Y636270D02*
D03*
Y661670D02*
D03*
Y687070D02*
D03*
Y712470D02*
D03*
Y737870D02*
D03*
Y763270D02*
D03*
X863600Y585470D02*
D03*
Y610870D02*
D03*
Y636270D02*
D03*
Y661670D02*
D03*
Y687070D02*
D03*
Y712470D02*
D03*
Y737870D02*
D03*
Y763270D02*
D03*
M02*
