G04 Layer_Physical_Order=1*
G04 Layer_Color=255*
%FSLAX44Y44*%
%MOMM*%
G71*
G01*
G75*
%ADD10R,0.5000X0.8000*%
%ADD11R,1.0000X0.6000*%
%ADD12R,1.5000X0.7000*%
%ADD13R,0.7000X1.5000*%
G04:AMPARAMS|DCode=14|XSize=0.3mm|YSize=1.8mm|CornerRadius=0mm|HoleSize=0mm|Usage=FLASHONLY|Rotation=315.000|XOffset=0mm|YOffset=0mm|HoleType=Round|Shape=Round|*
%AMOVALD14*
21,1,1.5000,0.3000,0.0000,0.0000,45.0*
1,1,0.3000,-0.5303,-0.5303*
1,1,0.3000,0.5303,0.5303*
%
%ADD14OVALD14*%

G04:AMPARAMS|DCode=15|XSize=0.3mm|YSize=1.8mm|CornerRadius=0mm|HoleSize=0mm|Usage=FLASHONLY|Rotation=225.000|XOffset=0mm|YOffset=0mm|HoleType=Round|Shape=Round|*
%AMOVALD15*
21,1,1.5000,0.3000,0.0000,0.0000,315.0*
1,1,0.3000,-0.5303,0.5303*
1,1,0.3000,0.5303,-0.5303*
%
%ADD15OVALD15*%

%ADD16C,0.1270*%
%ADD17R,0.9000X0.7000*%
%ADD18R,0.7000X0.9000*%
%ADD19R,1.4000X4.5000*%
%ADD20R,4.5000X1.4000*%
%ADD21R,0.8000X0.5000*%
%ADD22R,1.5500X1.4000*%
G04:AMPARAMS|DCode=23|XSize=2.4mm|YSize=0.76mm|CornerRadius=0mm|HoleSize=0mm|Usage=FLASHONLY|Rotation=135.000|XOffset=0mm|YOffset=0mm|HoleType=Round|Shape=Rectangle|*
%AMROTATEDRECTD23*
4,1,4,1.1172,-0.5798,0.5798,-1.1172,-1.1172,0.5798,-0.5798,1.1172,1.1172,-0.5798,0.0*
%
%ADD23ROTATEDRECTD23*%

%ADD24R,1.2000X0.8500*%
%ADD25R,1.2700X0.7620*%
%ADD26R,2.5400X2.6700*%
G04:AMPARAMS|DCode=27|XSize=0.9mm|YSize=0.7mm|CornerRadius=0mm|HoleSize=0mm|Usage=FLASHONLY|Rotation=135.000|XOffset=0mm|YOffset=0mm|HoleType=Round|Shape=Rectangle|*
%AMROTATEDRECTD27*
4,1,4,0.5657,-0.0707,0.0707,-0.5657,-0.5657,0.0707,-0.0707,0.5657,0.5657,-0.0707,0.0*
%
%ADD27ROTATEDRECTD27*%

G04:AMPARAMS|DCode=28|XSize=0.9mm|YSize=0.7mm|CornerRadius=0mm|HoleSize=0mm|Usage=FLASHONLY|Rotation=225.000|XOffset=0mm|YOffset=0mm|HoleType=Round|Shape=Rectangle|*
%AMROTATEDRECTD28*
4,1,4,0.0707,0.5657,0.5657,0.0707,-0.0707,-0.5657,-0.5657,-0.0707,0.0707,0.5657,0.0*
%
%ADD28ROTATEDRECTD28*%

%ADD29C,0.8000*%
%ADD30C,1.0000*%
%ADD31C,0.2500*%
%ADD32C,0.6000*%
%ADD33C,0.3000*%
%ADD34C,0.5000*%
%ADD35C,1.8000*%
%ADD36C,1.0000*%
%ADD37C,2.0000*%
%ADD38C,1.9500*%
%ADD39C,1.3716*%
%ADD40C,1.9000*%
%ADD41C,0.7000*%
G36*
X1410451Y379730D02*
X1247140D01*
Y429260D01*
X1155700Y429260D01*
Y379730D01*
X875074D01*
Y388694D01*
X857026D01*
Y379730D01*
X790074D01*
Y388694D01*
X772026D01*
Y386368D01*
X768692D01*
X768162Y387162D01*
X766500Y388273D01*
X764540Y388662D01*
X762580Y388273D01*
X760918Y387162D01*
X759808Y385500D01*
X759418Y383540D01*
X759808Y381580D01*
X760918Y379918D01*
X761199Y379730D01*
X720090D01*
X720090Y429260D01*
X629920Y429260D01*
X629920Y379730D01*
X561352D01*
X562649Y381420D01*
X563760Y384102D01*
X564139Y386980D01*
X563760Y389858D01*
X562649Y392540D01*
X560882Y394842D01*
X558580Y396609D01*
X555898Y397720D01*
X553020Y398099D01*
X550142Y397720D01*
X547460Y396609D01*
X545158Y394842D01*
X543391Y392540D01*
X542280Y389858D01*
X541901Y386980D01*
X542280Y384102D01*
X543391Y381420D01*
X544688Y379730D01*
X499629D01*
Y985001D01*
X1410451D01*
Y379730D01*
D02*
G37*
%LPC*%
G36*
X998870Y523240D02*
X994140D01*
Y517510D01*
X998870D01*
Y523240D01*
D02*
G37*
G36*
X1090658Y529155D02*
X1087102Y525598D01*
X1096457Y516243D01*
X1100013Y519800D01*
X1090658Y529155D01*
D02*
G37*
G36*
X1096011Y534508D02*
X1092454Y530951D01*
X1101809Y521596D01*
X1105366Y525153D01*
X1096011Y534508D01*
D02*
G37*
G36*
X1006140Y523240D02*
X1001410D01*
Y517510D01*
X1006140D01*
Y523240D01*
D02*
G37*
G36*
X991080Y512760D02*
X987350D01*
Y507530D01*
X991080D01*
Y512760D01*
D02*
G37*
G36*
X984810D02*
X981080D01*
Y507530D01*
X984810D01*
Y512760D01*
D02*
G37*
G36*
X737544Y606354D02*
X725496D01*
Y596306D01*
X728692D01*
Y562610D01*
X728907Y561528D01*
X729520Y560610D01*
X741625Y548505D01*
X741625Y548505D01*
X742543Y547892D01*
X743276Y547746D01*
Y545481D01*
X746472D01*
Y541016D01*
X746088Y540632D01*
X745962Y540329D01*
X745730Y540097D01*
X745363Y539210D01*
X745363Y538882D01*
X745237Y538579D01*
Y538099D01*
X745721Y536933D01*
X746431Y536638D01*
X745721Y536344D01*
X745237Y535178D01*
Y534698D01*
X745363Y534395D01*
X745363Y534067D01*
X745730Y533180D01*
X745962Y532948D01*
X746088Y532645D01*
X746472Y532261D01*
Y530860D01*
X746687Y529778D01*
X747300Y528860D01*
X750282Y525878D01*
Y523582D01*
X749488Y523052D01*
X748378Y521390D01*
X747988Y519430D01*
X748378Y517470D01*
X749488Y515808D01*
X751150Y514697D01*
X753110Y514308D01*
X755070Y514697D01*
X756732Y515808D01*
X757842Y517470D01*
X758232Y519430D01*
X757842Y521390D01*
X756732Y523052D01*
X755938Y523582D01*
Y527050D01*
X755938Y527050D01*
X755723Y528132D01*
X755520Y528437D01*
X755110Y529050D01*
X755110Y529050D01*
X752128Y532032D01*
Y532261D01*
X752512Y532645D01*
X752638Y532948D01*
X752870Y533180D01*
X753237Y534067D01*
Y534395D01*
X753363Y534698D01*
Y535178D01*
X752879Y536344D01*
X752169Y536638D01*
X752879Y536933D01*
X753363Y538099D01*
Y538579D01*
X753237Y538882D01*
Y539210D01*
X752870Y540097D01*
X752638Y540329D01*
X752512Y540632D01*
X752128Y541016D01*
Y545481D01*
X755324D01*
Y555529D01*
X743276D01*
Y554854D01*
X734348Y563782D01*
Y596306D01*
X737544D01*
Y606354D01*
D02*
G37*
G36*
X975104Y511784D02*
X967056D01*
Y508288D01*
X960094D01*
Y511484D01*
X950046D01*
Y499436D01*
X960094D01*
Y502632D01*
X967056D01*
Y500736D01*
X975104D01*
Y511784D01*
D02*
G37*
G36*
X788820Y533930D02*
X783590D01*
Y530200D01*
X788820D01*
Y533930D01*
D02*
G37*
G36*
X781050D02*
X775820D01*
Y530200D01*
X781050D01*
Y533930D01*
D02*
G37*
G36*
X1084860Y545659D02*
X1081303Y542102D01*
X1090658Y532747D01*
X1094215Y536304D01*
X1084860Y545659D01*
D02*
G37*
G36*
X1104991Y543488D02*
X1101435Y539931D01*
X1110790Y530576D01*
X1114346Y534133D01*
X1104991Y543488D01*
D02*
G37*
G36*
X998870Y531510D02*
X994140D01*
Y525780D01*
X998870D01*
Y531510D01*
D02*
G37*
G36*
X1099639Y538135D02*
X1096082Y534579D01*
X1105437Y525224D01*
X1108994Y528780D01*
X1099639Y538135D01*
D02*
G37*
G36*
X1079507Y540306D02*
X1075950Y536749D01*
X1085305Y527394D01*
X1088862Y530951D01*
X1079507Y540306D01*
D02*
G37*
G36*
X1006140Y531510D02*
X1001410D01*
Y525780D01*
X1006140D01*
Y531510D01*
D02*
G37*
G36*
X991080Y504990D02*
X987350D01*
Y499760D01*
X991080D01*
Y504990D01*
D02*
G37*
G36*
X825882Y494030D02*
X817880D01*
Y486029D01*
X819053Y486183D01*
X821329Y487126D01*
X823284Y488626D01*
X824784Y490581D01*
X825727Y492857D01*
X825882Y494030D01*
D02*
G37*
G36*
X815340D02*
X807338D01*
X807493Y492857D01*
X808436Y490581D01*
X809936Y488626D01*
X811891Y487126D01*
X814167Y486183D01*
X815340Y486029D01*
Y494030D01*
D02*
G37*
G36*
X985820Y492140D02*
X981090D01*
Y486410D01*
X985820D01*
Y492140D01*
D02*
G37*
G36*
X978550D02*
X973820D01*
Y486410D01*
X978550D01*
Y492140D01*
D02*
G37*
G36*
X960100Y471320D02*
X956370D01*
Y466090D01*
X960100D01*
Y471320D01*
D02*
G37*
G36*
X953830D02*
X950100D01*
Y466090D01*
X953830D01*
Y471320D01*
D02*
G37*
G36*
X985820Y483870D02*
X981090D01*
Y478140D01*
X985820D01*
Y483870D01*
D02*
G37*
G36*
X978550D02*
X973820D01*
Y478140D01*
X978550D01*
Y483870D01*
D02*
G37*
G36*
X817880Y504571D02*
Y496570D01*
X825882D01*
X825727Y497743D01*
X824784Y500019D01*
X823284Y501974D01*
X821329Y503474D01*
X819053Y504417D01*
X817880Y504571D01*
D02*
G37*
G36*
X815340D02*
X814167Y504417D01*
X811891Y503474D01*
X809936Y501974D01*
X808436Y500019D01*
X807493Y497743D01*
X807338Y496570D01*
X815340D01*
Y504571D01*
D02*
G37*
G36*
X984810Y504990D02*
X981080D01*
Y499760D01*
X984810D01*
Y504990D01*
D02*
G37*
G36*
X775644Y554284D02*
X763596D01*
Y544236D01*
X766792D01*
Y502890D01*
X767007Y501808D01*
X767620Y500890D01*
X776296Y492214D01*
Y485166D01*
X779492D01*
Y481735D01*
X779108Y481351D01*
X778982Y481048D01*
X778750Y480816D01*
X778383Y479929D01*
X778383Y479601D01*
X778257Y479298D01*
Y478818D01*
X778741Y477652D01*
X779451Y477357D01*
X778741Y477063D01*
X778257Y475897D01*
Y475417D01*
X778383Y475114D01*
X778383Y474786D01*
X778750Y473899D01*
X778982Y473667D01*
X779108Y473364D01*
X779787Y472685D01*
X780090Y472559D01*
X780322Y472327D01*
X781191Y471968D01*
X781842Y471316D01*
X779824D01*
X775826Y475314D01*
X776012Y476250D01*
X775622Y478210D01*
X774512Y479872D01*
X772850Y480983D01*
X770890Y481372D01*
X768930Y480983D01*
X767268Y479872D01*
X766158Y478210D01*
X765768Y476250D01*
X766158Y474290D01*
X767268Y472628D01*
X768930Y471517D01*
X770890Y471128D01*
X771826Y471314D01*
X776652Y466488D01*
X777570Y465875D01*
X778652Y465660D01*
X787498D01*
X790722Y462436D01*
Y457194D01*
X788526D01*
Y439146D01*
X798574D01*
Y457194D01*
X796378D01*
Y462893D01*
X796637Y461590D01*
X797748Y459928D01*
X799410Y458817D01*
X801370Y458428D01*
X802306Y458614D01*
X802722Y458198D01*
Y457194D01*
X800526D01*
Y439146D01*
X810574D01*
Y457194D01*
X808378D01*
Y459370D01*
X808163Y460452D01*
X807550Y461370D01*
X806306Y462614D01*
X806492Y463550D01*
X806103Y465510D01*
X804992Y467172D01*
X803330Y468283D01*
X801370Y468672D01*
X799410Y468283D01*
X797748Y467172D01*
X796637Y465510D01*
X796319Y463908D01*
X796163Y464690D01*
X795550Y465608D01*
X790670Y470488D01*
X786257Y474901D01*
Y475114D01*
X786383Y475417D01*
Y475897D01*
X785899Y477063D01*
X785190Y477357D01*
X785899Y477652D01*
X786383Y478818D01*
Y479298D01*
X786257Y479601D01*
Y479929D01*
X785890Y480816D01*
X785658Y481048D01*
X785532Y481351D01*
X785148Y481735D01*
Y485166D01*
X788344D01*
Y495214D01*
X781296D01*
X777344Y499166D01*
X779795D01*
X780320Y498380D01*
X781238Y497767D01*
X782320Y497552D01*
X783402Y497767D01*
X784320Y498380D01*
X784845Y499166D01*
X788344D01*
Y509214D01*
X785148D01*
Y516176D01*
X787844D01*
Y524224D01*
X776796D01*
Y516176D01*
X779492D01*
Y509214D01*
X776296D01*
Y500214D01*
X772448Y504062D01*
Y544236D01*
X775644D01*
Y554284D01*
D02*
G37*
G36*
X897890Y540205D02*
X895143Y539843D01*
X892583Y538783D01*
X890384Y537096D01*
X888697Y534897D01*
X887637Y532337D01*
X887275Y529590D01*
X887637Y526843D01*
X888697Y524283D01*
X890384Y522084D01*
X892583Y520397D01*
X893792Y519897D01*
Y511712D01*
X890810Y508730D01*
X890197Y507812D01*
X889982Y506730D01*
Y503201D01*
X888583Y502622D01*
X886832Y501278D01*
X885488Y499527D01*
X884644Y497488D01*
X884356Y495300D01*
X884644Y493112D01*
X885488Y491073D01*
X886832Y489322D01*
X888583Y487978D01*
X890622Y487134D01*
X892810Y486846D01*
X894998Y487134D01*
X897037Y487978D01*
X898788Y489322D01*
X900132Y491073D01*
X900976Y493112D01*
X901264Y495300D01*
X900976Y497488D01*
X900132Y499527D01*
X898788Y501278D01*
X897037Y502622D01*
X895638Y503201D01*
Y505559D01*
X898620Y508540D01*
X899233Y509458D01*
X899448Y510540D01*
Y519180D01*
X900637Y519337D01*
X903197Y520397D01*
X905396Y522084D01*
X907083Y524283D01*
X908143Y526843D01*
X908505Y529590D01*
X908143Y532337D01*
X907083Y534897D01*
X905396Y537096D01*
X903197Y538783D01*
X900637Y539843D01*
X897890Y540205D01*
D02*
G37*
G36*
X866140D02*
X863393Y539843D01*
X860833Y538783D01*
X858634Y537096D01*
X856947Y534897D01*
X855887Y532337D01*
X855525Y529590D01*
X855887Y526843D01*
X856947Y524283D01*
X858634Y522084D01*
X860833Y520397D01*
X863393Y519337D01*
X864582Y519180D01*
Y503201D01*
X863183Y502622D01*
X861432Y501278D01*
X860088Y499527D01*
X859244Y497488D01*
X858956Y495300D01*
X859244Y493112D01*
X860088Y491073D01*
X861349Y489429D01*
X840010Y468090D01*
X839397Y467172D01*
X839182Y466090D01*
Y457194D01*
X836526D01*
Y439146D01*
X846574D01*
Y457194D01*
X844838D01*
Y464919D01*
X866841Y486921D01*
X867410Y486846D01*
X869598Y487134D01*
X871637Y487978D01*
X873388Y489322D01*
X874732Y491073D01*
X875576Y493112D01*
X875864Y495300D01*
X875576Y497488D01*
X874732Y499527D01*
X873388Y501278D01*
X871637Y502622D01*
X870238Y503201D01*
Y519897D01*
X871447Y520397D01*
X873646Y522084D01*
X875333Y524283D01*
X876393Y526843D01*
X876755Y529590D01*
X876393Y532337D01*
X875333Y534897D01*
X873646Y537096D01*
X871447Y538783D01*
X868887Y539843D01*
X866140Y540205D01*
D02*
G37*
G36*
X745964Y514144D02*
X733916D01*
Y504096D01*
X736642D01*
Y497134D01*
X733946D01*
Y489086D01*
X744994D01*
Y497134D01*
X742298D01*
Y504096D01*
X745964D01*
Y514144D01*
D02*
G37*
G36*
X970844Y491164D02*
X960796D01*
Y487968D01*
X923290D01*
X923290Y487968D01*
X922208Y487753D01*
X921903Y487550D01*
X921290Y487140D01*
X921290Y487140D01*
X908090Y473940D01*
X907477Y473022D01*
X907262Y471940D01*
Y471314D01*
X905066D01*
Y468118D01*
X899834D01*
X899739Y468158D01*
X899507Y468390D01*
X898620Y468757D01*
X898292D01*
X897989Y468883D01*
X897509D01*
X896343Y468399D01*
X896049Y467690D01*
X895754Y468399D01*
X894588Y468883D01*
X894108D01*
X893805Y468757D01*
X893477D01*
X892590Y468390D01*
X892358Y468158D01*
X892055Y468032D01*
X891376Y467353D01*
X891250Y467050D01*
X891018Y466818D01*
X890651Y465931D01*
X890651Y465603D01*
X890525Y465300D01*
Y465077D01*
X883190Y457742D01*
X882577Y456824D01*
X882362Y455742D01*
Y440592D01*
X876268Y434498D01*
X875074D01*
Y436694D01*
X857026D01*
Y426646D01*
X875074D01*
Y428842D01*
X877440D01*
X878522Y429057D01*
X879440Y429670D01*
X887190Y437420D01*
X887803Y438338D01*
X888018Y439420D01*
Y440297D01*
X888077Y440000D01*
X889188Y438338D01*
X889982Y437808D01*
Y436782D01*
X887470Y434270D01*
X886857Y433352D01*
X886642Y432270D01*
Y428362D01*
X880779Y422498D01*
X875074D01*
Y424694D01*
X857026D01*
Y414646D01*
X875074D01*
Y416842D01*
X881950D01*
X883032Y417057D01*
X883950Y417670D01*
X890446Y424166D01*
X890635Y423978D01*
X890938Y423852D01*
X891170Y423620D01*
X892057Y423253D01*
X892385Y423253D01*
X892688Y423127D01*
X893168D01*
X894334Y423611D01*
X894629Y424320D01*
X894923Y423611D01*
X896089Y423127D01*
X896569D01*
X896872Y423253D01*
X897200Y423253D01*
X898087Y423620D01*
X898319Y423852D01*
X898622Y423978D01*
X899006Y424362D01*
X903496D01*
Y421166D01*
X913544D01*
Y433214D01*
X911348D01*
Y433638D01*
X921921Y444212D01*
X960796D01*
Y441016D01*
X970844D01*
Y453064D01*
X960796D01*
Y449868D01*
X920750D01*
X920750Y449868D01*
X919847Y449689D01*
X919668Y449653D01*
X918750Y449040D01*
X906520Y436810D01*
X905907Y435892D01*
X905692Y434810D01*
Y433214D01*
X903496D01*
Y430018D01*
X899006D01*
X898622Y430402D01*
X898319Y430528D01*
X898087Y430760D01*
X897200Y431127D01*
X896872D01*
X896569Y431253D01*
X896089D01*
X894923Y430769D01*
X894629Y430060D01*
X894334Y430769D01*
X893168Y431253D01*
X892688D01*
X892385Y431127D01*
X892327D01*
X894810Y433610D01*
X894810Y433610D01*
X895423Y434528D01*
X895638Y435610D01*
Y437808D01*
X896432Y438338D01*
X897542Y440000D01*
X897932Y441960D01*
X897542Y443920D01*
X896432Y445582D01*
X894770Y446693D01*
X892810Y447082D01*
X890850Y446693D01*
X889188Y445582D01*
X888077Y443920D01*
X888018Y443623D01*
Y452914D01*
X894366D01*
X897850Y449430D01*
X897970Y449350D01*
X899000Y447808D01*
X900662Y446697D01*
X902623Y446307D01*
X904583Y446697D01*
X906245Y447808D01*
X907355Y449469D01*
X907745Y451430D01*
X907355Y453390D01*
X906245Y455052D01*
X904583Y456162D01*
X902623Y456552D01*
X900662Y456162D01*
X899736Y455544D01*
X897538Y457742D01*
X896620Y458355D01*
X895538Y458570D01*
X892018D01*
X894205Y460757D01*
X894588D01*
X895754Y461241D01*
X896049Y461950D01*
X896343Y461241D01*
X897509Y460757D01*
X897989D01*
X898292Y460883D01*
X898620Y460883D01*
X899507Y461250D01*
X899739Y461482D01*
X900042Y461608D01*
X900721Y462287D01*
X900794Y462462D01*
X905066D01*
Y459266D01*
X915114D01*
Y471314D01*
X913464D01*
X924462Y482312D01*
X960796D01*
Y479116D01*
X970844D01*
Y491164D01*
D02*
G37*
G36*
X1102821Y562239D02*
X1095291Y554710D01*
X1114417Y535584D01*
X1121946Y543113D01*
X1102821Y562239D01*
D02*
G37*
G36*
X629520Y573710D02*
X605790D01*
Y565480D01*
X629520D01*
Y573710D01*
D02*
G37*
G36*
X603250D02*
X579520D01*
Y565480D01*
X603250D01*
Y573710D01*
D02*
G37*
G36*
Y584480D02*
X579520D01*
Y576250D01*
X603250D01*
Y584480D01*
D02*
G37*
G36*
X983702Y575935D02*
X981742Y575545D01*
X980080Y574435D01*
X978969Y572773D01*
X978580Y570813D01*
X978766Y569876D01*
X978001Y569112D01*
X977943Y569404D01*
X977778Y569651D01*
X969770Y561642D01*
X961761Y553634D01*
X962008Y553469D01*
X963568Y553159D01*
X964107Y553266D01*
X964256Y552522D01*
X964924Y551521D01*
X965924Y550853D01*
X967104Y550618D01*
X968284Y550853D01*
X969284Y551521D01*
X979891Y562128D01*
X980559Y563128D01*
X980694Y563804D01*
X982766Y565877D01*
X983702Y565690D01*
X985662Y566080D01*
X987324Y567191D01*
X988435Y568852D01*
X988824Y570813D01*
X988435Y572773D01*
X987324Y574435D01*
X985662Y575545D01*
X983702Y575935D01*
D02*
G37*
G36*
X1065711Y596942D02*
X1063750Y596553D01*
X1062088Y595442D01*
X1060978Y593780D01*
X1060588Y591820D01*
X1060978Y589860D01*
X1062088Y588198D01*
X1063750Y587088D01*
X1065711Y586698D01*
X1066647Y586884D01*
X1069479Y584052D01*
X1067714Y582287D01*
X1086840Y563161D01*
X1094369Y570691D01*
X1075243Y589816D01*
X1073479Y588052D01*
X1070647Y590884D01*
X1070833Y591820D01*
X1070443Y593780D01*
X1069333Y595442D01*
X1067671Y596553D01*
X1065711Y596942D01*
D02*
G37*
G36*
X1111801Y572600D02*
X1108244Y569043D01*
X1117599Y559688D01*
X1121156Y563245D01*
X1111801Y572600D01*
D02*
G37*
G36*
X776620Y569260D02*
X770890D01*
Y564530D01*
X776620D01*
Y569260D01*
D02*
G37*
G36*
X768350D02*
X762620D01*
Y564530D01*
X768350D01*
Y569260D01*
D02*
G37*
G36*
X808990Y601360D02*
X803260D01*
Y596630D01*
X808990D01*
Y601360D01*
D02*
G37*
G36*
X755800Y594245D02*
X750570D01*
Y590515D01*
X755800D01*
Y594245D01*
D02*
G37*
G36*
X748030Y600515D02*
X742800D01*
Y596785D01*
X748030D01*
Y600515D01*
D02*
G37*
G36*
X817260Y601360D02*
X811530D01*
Y596630D01*
X817260D01*
Y601360D01*
D02*
G37*
G36*
X798474Y604234D02*
X787426D01*
Y596186D01*
X789652D01*
Y589224D01*
X786456D01*
Y579176D01*
X798504D01*
Y589224D01*
X795308D01*
Y596186D01*
X798474D01*
Y604234D01*
D02*
G37*
G36*
X629520Y584480D02*
X605790D01*
Y576250D01*
X629520D01*
Y584480D01*
D02*
G37*
G36*
X748030Y594245D02*
X742800D01*
Y590515D01*
X748030D01*
Y594245D01*
D02*
G37*
G36*
X1178181Y603849D02*
X1168133D01*
Y591801D01*
X1169461D01*
X1159609Y581948D01*
X1153503D01*
X1152972Y582742D01*
X1151310Y583853D01*
X1149350Y584242D01*
X1147390Y583853D01*
X1145728Y582742D01*
X1144617Y581080D01*
X1144228Y579120D01*
X1144617Y577160D01*
X1145728Y575498D01*
X1147390Y574388D01*
X1149350Y573998D01*
X1151310Y574388D01*
X1152972Y575498D01*
X1153503Y576292D01*
X1160780D01*
X1161862Y576507D01*
X1162780Y577120D01*
X1175157Y589497D01*
X1175157Y589497D01*
X1175770Y590414D01*
X1175985Y591497D01*
Y591801D01*
X1178181D01*
Y603849D01*
D02*
G37*
G36*
X754824Y584539D02*
X743776D01*
Y576491D01*
X746472D01*
Y569529D01*
X743276D01*
Y559481D01*
X748025D01*
X748218Y559352D01*
X749300Y559137D01*
X750382Y559352D01*
X750575Y559481D01*
X755324D01*
Y569529D01*
X752128D01*
Y576491D01*
X754824D01*
Y584539D01*
D02*
G37*
G36*
X1328884Y545364D02*
X1280836D01*
Y538768D01*
X1274153D01*
X1273622Y539562D01*
X1271960Y540672D01*
X1270000Y541062D01*
X1268040Y540672D01*
X1266378Y539562D01*
X1265267Y537900D01*
X1264878Y535940D01*
X1265267Y533980D01*
X1266378Y532318D01*
X1268040Y531208D01*
X1270000Y530818D01*
X1271960Y531208D01*
X1273622Y532318D01*
X1274153Y533112D01*
X1280836D01*
Y528316D01*
X1328884D01*
Y545364D01*
D02*
G37*
G36*
X966977Y545332D02*
X962925Y541281D01*
X966270Y537936D01*
X970322Y541988D01*
X966977Y545332D01*
D02*
G37*
G36*
X961837Y550473D02*
X957785Y546421D01*
X961130Y543077D01*
X965181Y547128D01*
X961837Y550473D01*
D02*
G37*
G36*
X1093840Y554639D02*
X1090284Y551082D01*
X1099639Y541727D01*
X1103195Y545284D01*
X1093840Y554639D01*
D02*
G37*
G36*
X781050Y540200D02*
X775820D01*
Y536470D01*
X781050D01*
Y540200D01*
D02*
G37*
G36*
X1088487Y549286D02*
X1084931Y545730D01*
X1094286Y536375D01*
X1097842Y539931D01*
X1088487Y549286D01*
D02*
G37*
G36*
X955989Y544625D02*
X951937Y540573D01*
X955282Y537229D01*
X959333Y541281D01*
X955989Y544625D01*
D02*
G37*
G36*
X788820Y540200D02*
X783590D01*
Y536470D01*
X788820D01*
Y540200D01*
D02*
G37*
G36*
X1106448Y567247D02*
X1102891Y563690D01*
X1112246Y554335D01*
X1115803Y557892D01*
X1106448Y567247D01*
D02*
G37*
G36*
X1122952Y561449D02*
X1119395Y557892D01*
X1128750Y548537D01*
X1132307Y552094D01*
X1122952Y561449D01*
D02*
G37*
G36*
X776620Y561990D02*
X770890D01*
Y557260D01*
X776620D01*
Y561990D01*
D02*
G37*
G36*
X768350D02*
X762620D01*
Y557260D01*
X768350D01*
Y561990D01*
D02*
G37*
G36*
X834390Y565605D02*
X831643Y565243D01*
X829083Y564183D01*
X826884Y562496D01*
X825197Y560297D01*
X824137Y557737D01*
X823775Y554990D01*
X824137Y552243D01*
X825197Y549683D01*
X826884Y547484D01*
X829083Y545797D01*
X831643Y544737D01*
X834390Y544375D01*
X837137Y544737D01*
X839697Y545797D01*
X841896Y547484D01*
X843583Y549683D01*
X844643Y552243D01*
X845005Y554990D01*
X844643Y557737D01*
X843583Y560297D01*
X841896Y562496D01*
X839697Y564183D01*
X837137Y565243D01*
X834390Y565605D01*
D02*
G37*
G36*
X1117599Y556096D02*
X1114042Y552539D01*
X1123397Y543184D01*
X1126954Y546741D01*
X1117599Y556096D01*
D02*
G37*
G36*
X885190Y599482D02*
X883230Y599092D01*
X881568Y597982D01*
X880458Y596320D01*
X880068Y594360D01*
X880458Y592400D01*
X881568Y590738D01*
X882107Y590378D01*
Y584200D01*
X882107Y584200D01*
X882342Y583020D01*
X883010Y582020D01*
X894807Y570223D01*
Y565104D01*
X892583Y564183D01*
X890384Y562496D01*
X888697Y560297D01*
X887637Y557737D01*
X887275Y554990D01*
X887637Y552243D01*
X888697Y549683D01*
X890384Y547484D01*
X892583Y545797D01*
X895143Y544737D01*
X897890Y544375D01*
X900637Y544737D01*
X903197Y545797D01*
X905396Y547484D01*
X907083Y549683D01*
X908143Y552243D01*
X908505Y554990D01*
X908143Y557737D01*
X907083Y560297D01*
X905396Y562496D01*
X903197Y564183D01*
X900973Y565104D01*
Y571500D01*
X900973Y571500D01*
X900739Y572680D01*
X900070Y573680D01*
X900070Y573680D01*
X888273Y585477D01*
Y590378D01*
X888812Y590738D01*
X889922Y592400D01*
X890312Y594360D01*
X889922Y596320D01*
X888812Y597982D01*
X887150Y599092D01*
X885190Y599482D01*
D02*
G37*
G36*
X866140Y565605D02*
X863393Y565243D01*
X860833Y564183D01*
X858634Y562496D01*
X856947Y560297D01*
X855887Y557737D01*
X855525Y554990D01*
X855887Y552243D01*
X856947Y549683D01*
X858634Y547484D01*
X860833Y545797D01*
X863393Y544737D01*
X866140Y544375D01*
X868887Y544737D01*
X871447Y545797D01*
X873646Y547484D01*
X875333Y549683D01*
X876393Y552243D01*
X876755Y554990D01*
X876393Y557737D01*
X875333Y560297D01*
X873646Y562496D01*
X871447Y564183D01*
X868887Y565243D01*
X866140Y565605D01*
D02*
G37*
G36*
X929114Y471314D02*
X919066D01*
Y459266D01*
X929114D01*
Y462462D01*
X936076D01*
Y459296D01*
X944124D01*
Y470344D01*
X936076D01*
Y468118D01*
X929114D01*
Y471314D01*
D02*
G37*
G36*
X1077956Y402998D02*
X1072726D01*
Y399268D01*
X1077956D01*
Y402998D01*
D02*
G37*
G36*
X1047476D02*
X1042246D01*
Y399268D01*
X1047476D01*
Y402998D01*
D02*
G37*
G36*
X1018266Y402998D02*
X1013036D01*
Y399268D01*
X1018266D01*
Y402998D01*
D02*
G37*
G36*
X1010496D02*
X1005266D01*
Y399268D01*
X1010496D01*
Y402998D01*
D02*
G37*
G36*
X790074Y400694D02*
X772026D01*
Y398498D01*
X769180D01*
X768098Y398283D01*
X767372Y397798D01*
X758532D01*
X758002Y398592D01*
X756340Y399702D01*
X754380Y400092D01*
X752420Y399702D01*
X750758Y398592D01*
X749648Y396930D01*
X749258Y394970D01*
X749648Y393010D01*
X750758Y391348D01*
X752420Y390238D01*
X754380Y389848D01*
X756340Y390238D01*
X758002Y391348D01*
X758532Y392142D01*
X768480D01*
X769562Y392357D01*
X770288Y392842D01*
X772026D01*
Y390646D01*
X790074D01*
Y400694D01*
D02*
G37*
G36*
X876050Y401670D02*
X867320D01*
Y396940D01*
X876050D01*
Y401670D01*
D02*
G37*
G36*
X1070186Y402998D02*
X1064957D01*
Y399268D01*
X1070186D01*
Y402998D01*
D02*
G37*
G36*
X1039706D02*
X1034476D01*
Y399268D01*
X1039706D01*
Y402998D01*
D02*
G37*
G36*
X1077950Y434032D02*
X1065902D01*
Y423984D01*
X1069098D01*
Y417022D01*
X1065932D01*
Y408974D01*
X1076980D01*
Y417022D01*
X1074755D01*
Y423984D01*
X1077950D01*
Y434032D01*
D02*
G37*
G36*
X1047470Y434652D02*
X1035423D01*
Y424604D01*
X1038618D01*
Y417022D01*
X1035452D01*
Y408974D01*
X1046500D01*
Y417022D01*
X1044275D01*
Y424604D01*
X1047470D01*
Y434652D01*
D02*
G37*
G36*
X1105420Y436422D02*
X1093372D01*
Y426374D01*
X1096568D01*
Y417894D01*
X1093826D01*
Y409846D01*
X1104874D01*
Y417894D01*
X1102225D01*
Y426374D01*
X1105420D01*
Y436422D01*
D02*
G37*
G36*
X1018260Y434652D02*
X1006212D01*
Y424604D01*
X1009408D01*
Y417022D01*
X1006243D01*
Y408974D01*
X1017290D01*
Y417022D01*
X1015065D01*
Y424604D01*
X1018260D01*
Y434652D01*
D02*
G37*
G36*
X1105850Y403870D02*
X1100620D01*
Y400140D01*
X1105850D01*
Y403870D01*
D02*
G37*
G36*
X1098080D02*
X1092850D01*
Y400140D01*
X1098080D01*
Y403870D01*
D02*
G37*
G36*
X985820Y407670D02*
X981090D01*
Y401940D01*
X985820D01*
Y407670D01*
D02*
G37*
G36*
X978550D02*
X973820D01*
Y401940D01*
X978550D01*
Y407670D01*
D02*
G37*
G36*
X864780Y401670D02*
X856050D01*
Y396940D01*
X864780D01*
Y401670D01*
D02*
G37*
G36*
X876050Y394400D02*
X867320D01*
Y389670D01*
X876050D01*
Y394400D01*
D02*
G37*
G36*
X864780D02*
X856050D01*
Y389670D01*
X864780D01*
Y394400D01*
D02*
G37*
G36*
X958830Y396860D02*
X955100D01*
Y391630D01*
X958830D01*
Y396860D01*
D02*
G37*
G36*
X952560D02*
X948830D01*
Y391630D01*
X952560D01*
Y396860D01*
D02*
G37*
G36*
X958830Y389090D02*
X955100D01*
Y383860D01*
X958830D01*
Y389090D01*
D02*
G37*
G36*
X952560D02*
X948830D01*
Y383860D01*
X952560D01*
Y389090D01*
D02*
G37*
G36*
X1356360Y409959D02*
X1353482Y409580D01*
X1350800Y408469D01*
X1348498Y406702D01*
X1346731Y404399D01*
X1345620Y401718D01*
X1345241Y398840D01*
X1345620Y395962D01*
X1346731Y393280D01*
X1348498Y390978D01*
X1350800Y389211D01*
X1353482Y388100D01*
X1356360Y387721D01*
X1359238Y388100D01*
X1361920Y389211D01*
X1364222Y390978D01*
X1365989Y393280D01*
X1367100Y395962D01*
X1367479Y398840D01*
X1367100Y401718D01*
X1365989Y404399D01*
X1364222Y406702D01*
X1361920Y408469D01*
X1359238Y409580D01*
X1356360Y409959D01*
D02*
G37*
G36*
X927844Y396384D02*
X917796D01*
Y384336D01*
X927844D01*
Y387532D01*
X934806D01*
Y384836D01*
X942854D01*
Y395884D01*
X934806D01*
Y393188D01*
X927844D01*
Y396384D01*
D02*
G37*
G36*
X1018266Y396728D02*
X1013036D01*
Y392998D01*
X1018266D01*
Y396728D01*
D02*
G37*
G36*
X1010496D02*
X1005266D01*
Y392998D01*
X1010496D01*
Y396728D01*
D02*
G37*
G36*
X1105850Y397600D02*
X1100620D01*
Y393870D01*
X1105850D01*
Y397600D01*
D02*
G37*
G36*
X1098080D02*
X1092850D01*
Y393870D01*
X1098080D01*
Y397600D01*
D02*
G37*
G36*
X1047476Y396728D02*
X1042246D01*
Y392998D01*
X1047476D01*
Y396728D01*
D02*
G37*
G36*
X1039706D02*
X1034476D01*
Y392998D01*
X1039706D01*
Y396728D01*
D02*
G37*
G36*
X1077956D02*
X1072726D01*
Y392998D01*
X1077956D01*
Y396728D01*
D02*
G37*
G36*
X1070186D02*
X1064957D01*
Y392998D01*
X1070186D01*
Y396728D01*
D02*
G37*
G36*
X978550Y415940D02*
X973820D01*
Y410210D01*
X978550D01*
Y415940D01*
D02*
G37*
G36*
X834390Y540205D02*
X831643Y539843D01*
X829083Y538783D01*
X826884Y537096D01*
X825197Y534897D01*
X824137Y532337D01*
X823775Y529590D01*
X824137Y526843D01*
X825197Y524283D01*
X826884Y522084D01*
X829083Y520397D01*
X831643Y519337D01*
X832832Y519180D01*
Y516890D01*
X833047Y515808D01*
X833660Y514890D01*
X839182Y509369D01*
Y503201D01*
X837783Y502622D01*
X836032Y501278D01*
X834688Y499527D01*
X833844Y497488D01*
X833556Y495300D01*
X833844Y493112D01*
X834688Y491073D01*
X836032Y489322D01*
X837783Y487978D01*
X839182Y487399D01*
Y485042D01*
X827550Y473410D01*
X826937Y472492D01*
X826722Y471410D01*
Y457194D01*
X824526D01*
Y439146D01*
X834574D01*
Y457194D01*
X832378D01*
Y470238D01*
X844010Y481870D01*
X844623Y482788D01*
X844838Y483870D01*
Y487399D01*
X846237Y487978D01*
X847988Y489322D01*
X849332Y491073D01*
X850176Y493112D01*
X850464Y495300D01*
X850176Y497488D01*
X849332Y499527D01*
X847988Y501278D01*
X846237Y502622D01*
X844838Y503201D01*
Y510540D01*
X844623Y511622D01*
X844010Y512540D01*
X844010Y512540D01*
X838488Y518061D01*
Y519897D01*
X839697Y520397D01*
X841896Y522084D01*
X843583Y524283D01*
X844643Y526843D01*
X845005Y529590D01*
X844643Y532337D01*
X843583Y534897D01*
X841896Y537096D01*
X839697Y538783D01*
X837137Y539843D01*
X834390Y540205D01*
D02*
G37*
G36*
X1329860Y446340D02*
X1306130D01*
Y438110D01*
X1329860D01*
Y446340D01*
D02*
G37*
G36*
X985820Y445770D02*
X981090D01*
Y440040D01*
X985820D01*
Y445770D01*
D02*
G37*
G36*
X978550D02*
X973820D01*
Y440040D01*
X978550D01*
Y445770D01*
D02*
G37*
G36*
X958530Y434490D02*
X954800D01*
Y429260D01*
X958530D01*
Y434490D01*
D02*
G37*
G36*
X952260D02*
X948530D01*
Y429260D01*
X952260D01*
Y434490D01*
D02*
G37*
G36*
X1303590Y446340D02*
X1279860D01*
Y438110D01*
X1303590D01*
Y446340D01*
D02*
G37*
G36*
X942554Y433514D02*
X934506D01*
Y430018D01*
X927544D01*
Y433214D01*
X917496D01*
Y421166D01*
X927544D01*
Y424362D01*
X934506D01*
Y422466D01*
X942554D01*
Y433514D01*
D02*
G37*
G36*
X741830Y455610D02*
X736600D01*
Y451880D01*
X741830D01*
Y455610D01*
D02*
G37*
G36*
X734060D02*
X728830D01*
Y451880D01*
X734060D01*
Y455610D01*
D02*
G37*
G36*
X960100Y463550D02*
X956370D01*
Y458320D01*
X960100D01*
Y463550D01*
D02*
G37*
G36*
X953830D02*
X950100D01*
Y458320D01*
X953830D01*
Y463550D01*
D02*
G37*
G36*
X741830Y449340D02*
X736600D01*
Y445610D01*
X741830D01*
Y449340D01*
D02*
G37*
G36*
X734060D02*
X728830D01*
Y445610D01*
X734060D01*
Y449340D01*
D02*
G37*
G36*
X985820Y454040D02*
X981090D01*
Y448310D01*
X985820D01*
Y454040D01*
D02*
G37*
G36*
X978550D02*
X973820D01*
Y448310D01*
X978550D01*
Y454040D01*
D02*
G37*
G36*
X1329860Y435570D02*
X1306130D01*
Y427340D01*
X1329860D01*
Y435570D01*
D02*
G37*
G36*
X759460Y419750D02*
X753730D01*
Y415020D01*
X759460D01*
Y419750D01*
D02*
G37*
G36*
X791050Y418400D02*
X782320D01*
Y413670D01*
X791050D01*
Y418400D01*
D02*
G37*
G36*
X740854Y439634D02*
X729806D01*
Y431586D01*
X732032D01*
Y425894D01*
X728836D01*
Y415846D01*
X740884D01*
Y425894D01*
X737688D01*
Y431586D01*
X740854D01*
Y439634D01*
D02*
G37*
G36*
X767730Y419750D02*
X762000D01*
Y415020D01*
X767730D01*
Y419750D01*
D02*
G37*
G36*
X790074Y412694D02*
X772026D01*
Y411123D01*
X766754D01*
Y412044D01*
X754706D01*
Y410973D01*
X741210D01*
X740884Y410908D01*
Y411894D01*
X728836D01*
Y401846D01*
X731227D01*
Y398512D01*
X730830Y398433D01*
X729168Y397322D01*
X728057Y395660D01*
X727668Y393700D01*
X728057Y391740D01*
X729168Y390078D01*
X730830Y388968D01*
X732790Y388578D01*
X734750Y388968D01*
X736412Y390078D01*
X737523Y391740D01*
X737744Y392851D01*
X738231Y393339D01*
X739120Y394670D01*
X739172Y394930D01*
X739433Y396240D01*
Y401846D01*
X740884D01*
Y402832D01*
X741210Y402767D01*
X754706D01*
Y401996D01*
X766754D01*
Y402917D01*
X772026D01*
Y402646D01*
X790074D01*
Y412694D01*
D02*
G37*
G36*
X985820Y415940D02*
X981090D01*
Y410210D01*
X985820D01*
Y415940D01*
D02*
G37*
G36*
X779780Y418400D02*
X771050D01*
Y413670D01*
X779780D01*
Y418400D01*
D02*
G37*
G36*
X970844Y414964D02*
X960796D01*
Y411768D01*
X918210D01*
X918210Y411768D01*
X917128Y411553D01*
X916823Y411350D01*
X916210Y410940D01*
X916210Y410940D01*
X906820Y401550D01*
X906207Y400632D01*
X905992Y399550D01*
Y396384D01*
X903796D01*
Y393188D01*
X900365D01*
X899981Y393572D01*
X899678Y393698D01*
X899446Y393930D01*
X898559Y394297D01*
X898231D01*
X897928Y394423D01*
X897448D01*
X896282Y393939D01*
X895987Y393229D01*
X895693Y393939D01*
X894527Y394423D01*
X894047D01*
X893744Y394297D01*
X893416D01*
X892700Y394000D01*
X886748Y399952D01*
Y402590D01*
X886533Y403672D01*
X885920Y404590D01*
X884398Y406112D01*
X886117D01*
X886648Y405318D01*
X888310Y404207D01*
X890270Y403818D01*
X892230Y404207D01*
X893892Y405318D01*
X895003Y406980D01*
X895392Y408940D01*
X895003Y410900D01*
X893892Y412562D01*
X892230Y413672D01*
X890270Y414062D01*
X888310Y413672D01*
X886648Y412562D01*
X886117Y411768D01*
X882650D01*
X881568Y411553D01*
X880650Y410940D01*
X879965Y410255D01*
X879922Y410283D01*
X878840Y410498D01*
X875074D01*
Y412694D01*
X857026D01*
Y402646D01*
X875074D01*
Y404842D01*
X877669D01*
X878110Y404400D01*
X881092Y401418D01*
Y398780D01*
X881307Y397698D01*
X881920Y396780D01*
X890340Y388360D01*
X891258Y387747D01*
X891429Y387713D01*
X891994Y387148D01*
X892297Y387022D01*
X892529Y386790D01*
X893416Y386423D01*
X893744Y386423D01*
X894047Y386297D01*
X894527D01*
X895693Y386781D01*
X895987Y387491D01*
X896282Y386781D01*
X897448Y386297D01*
X897928D01*
X898231Y386423D01*
X898559Y386423D01*
X899446Y386790D01*
X899678Y387022D01*
X899981Y387148D01*
X900365Y387532D01*
X903796D01*
Y384336D01*
X913844D01*
Y396384D01*
X911648D01*
Y398378D01*
X919381Y406112D01*
X960796D01*
Y402916D01*
X970844D01*
Y414964D01*
D02*
G37*
G36*
X767730Y427020D02*
X762000D01*
Y422290D01*
X767730D01*
Y427020D01*
D02*
G37*
G36*
X759460D02*
X753730D01*
Y422290D01*
X759460D01*
Y427020D01*
D02*
G37*
G36*
X1303590Y435570D02*
X1279860D01*
Y427340D01*
X1303590D01*
Y435570D01*
D02*
G37*
G36*
X744994Y482134D02*
X733946D01*
Y474086D01*
X736499D01*
X736621Y473470D01*
X737290Y472470D01*
X757647Y452113D01*
Y438150D01*
X757647Y438150D01*
X757881Y436970D01*
X758550Y435970D01*
X765030Y429490D01*
X765030Y429490D01*
X766030Y428821D01*
X767210Y428587D01*
X772026D01*
Y426646D01*
X790074D01*
Y436694D01*
X772026D01*
Y434753D01*
X768487D01*
X763813Y439427D01*
Y453390D01*
X763578Y454570D01*
X762910Y455570D01*
X762910Y455570D01*
X744394Y474086D01*
X744994D01*
Y482134D01*
D02*
G37*
G36*
X791050Y425670D02*
X782320D01*
Y420940D01*
X791050D01*
Y425670D01*
D02*
G37*
G36*
X779780D02*
X771050D01*
Y420940D01*
X779780D01*
Y425670D01*
D02*
G37*
G36*
X958530Y426720D02*
X954800D01*
Y421490D01*
X958530D01*
Y426720D01*
D02*
G37*
G36*
X952260D02*
X948530D01*
Y421490D01*
X952260D01*
Y426720D01*
D02*
G37*
G36*
X824230Y809610D02*
X818500D01*
Y804880D01*
X824230D01*
Y809610D01*
D02*
G37*
G36*
X934100Y801290D02*
X928370D01*
Y796560D01*
X934100D01*
Y801290D01*
D02*
G37*
G36*
X824230Y816880D02*
X818500D01*
Y812150D01*
X824230D01*
Y816880D01*
D02*
G37*
G36*
X832500Y809610D02*
X826770D01*
Y804880D01*
X832500D01*
Y809610D01*
D02*
G37*
G36*
X925830Y794020D02*
X920100D01*
Y789290D01*
X925830D01*
Y794020D01*
D02*
G37*
G36*
X857694Y780539D02*
X849646D01*
Y777298D01*
X842684D01*
Y780239D01*
X832636D01*
Y768191D01*
X842684D01*
Y771132D01*
X849646D01*
Y769491D01*
X857694D01*
Y780539D01*
D02*
G37*
G36*
X925830Y801290D02*
X920100D01*
Y796560D01*
X925830D01*
Y801290D01*
D02*
G37*
G36*
X934100Y794020D02*
X928370D01*
Y789290D01*
X934100D01*
Y794020D01*
D02*
G37*
G36*
X832500Y816880D02*
X826770D01*
Y812150D01*
X832500D01*
Y816880D01*
D02*
G37*
G36*
X725170Y831730D02*
X717940D01*
Y826250D01*
X725170D01*
Y831730D01*
D02*
G37*
G36*
X1328314Y826874D02*
X1280266D01*
Y821178D01*
X1251420D01*
X1251420Y821178D01*
X1250338Y820963D01*
X1249420Y820350D01*
X1245968Y816898D01*
X1229703D01*
X1229172Y817692D01*
X1227510Y818802D01*
X1225550Y819192D01*
X1223590Y818802D01*
X1221928Y817692D01*
X1220817Y816030D01*
X1220428Y814070D01*
X1220817Y812110D01*
X1221928Y810448D01*
X1223590Y809337D01*
X1225550Y808948D01*
X1227510Y809337D01*
X1229172Y810448D01*
X1229703Y811242D01*
X1247140D01*
X1248222Y811457D01*
X1249140Y812070D01*
X1252592Y815522D01*
X1280266D01*
Y809826D01*
X1328314D01*
Y826874D01*
D02*
G37*
G36*
X811500Y842010D02*
X806770D01*
Y836280D01*
X811500D01*
Y842010D01*
D02*
G37*
G36*
X734940Y831730D02*
X727710D01*
Y826250D01*
X734940D01*
Y831730D01*
D02*
G37*
G36*
X725170Y823710D02*
X717940D01*
Y818230D01*
X725170D01*
Y823710D01*
D02*
G37*
G36*
X908710Y849522D02*
X908710Y849522D01*
X873540D01*
X871385Y849093D01*
X870368Y848414D01*
X867016D01*
Y839890D01*
X866040D01*
Y835660D01*
X873540D01*
X881040D01*
Y838258D01*
X906377D01*
X930013Y814622D01*
X928608D01*
X927100Y814922D01*
X893362D01*
Y817880D01*
X892934Y820035D01*
X891713Y821863D01*
X891712Y821863D01*
X884703Y828873D01*
X882875Y830094D01*
X882518Y830165D01*
X881040Y830459D01*
Y833120D01*
X873540D01*
X866040D01*
Y828890D01*
X867016D01*
Y820366D01*
X870368D01*
X871385Y819687D01*
X873540Y819258D01*
X878387D01*
X882098Y815547D01*
Y811530D01*
X882098Y811530D01*
X882455Y809732D01*
X882526Y809375D01*
X883747Y807547D01*
X885987Y805307D01*
X887815Y804087D01*
X888172Y804015D01*
X889970Y803658D01*
X889970Y803658D01*
X925622D01*
X927130Y803358D01*
X941017D01*
X942454Y801484D01*
X944653Y799797D01*
X947213Y798737D01*
X949960Y798375D01*
X952707Y798737D01*
X955267Y799797D01*
X957466Y801484D01*
X959153Y803683D01*
X960213Y806243D01*
X960575Y808990D01*
X960213Y811737D01*
X959153Y814297D01*
X957466Y816496D01*
X955267Y818183D01*
X952707Y819243D01*
X949960Y819605D01*
X947213Y819243D01*
X944653Y818183D01*
X943368Y817197D01*
X912693Y847873D01*
X910865Y849093D01*
X910508Y849165D01*
X908710Y849522D01*
D02*
G37*
G36*
X763270Y834845D02*
X760523Y834483D01*
X757963Y833423D01*
X755764Y831736D01*
X754077Y829537D01*
X753017Y826977D01*
X752655Y824230D01*
X753017Y821483D01*
X754077Y818923D01*
X755764Y816724D01*
X757963Y815037D01*
X760523Y813977D01*
X763270Y813615D01*
X766017Y813977D01*
X768577Y815037D01*
X770776Y816724D01*
X772463Y818923D01*
X773020Y820267D01*
X819476D01*
Y819856D01*
X831524D01*
Y820277D01*
X846040D01*
X846486Y820366D01*
X852564D01*
Y829414D01*
X846486D01*
X846040Y829503D01*
X831524D01*
Y829904D01*
X819476D01*
Y829493D01*
X772481D01*
X772463Y829537D01*
X770776Y831736D01*
X768577Y833423D01*
X766017Y834483D01*
X763270Y834845D01*
D02*
G37*
G36*
X734940Y823710D02*
X727710D01*
Y818230D01*
X734940D01*
Y823710D01*
D02*
G37*
G36*
X873670Y781515D02*
X869940D01*
Y776285D01*
X873670D01*
Y781515D01*
D02*
G37*
G36*
X628544Y815914D02*
X580496D01*
Y798866D01*
X628544D01*
Y804562D01*
X634158D01*
X648240Y790480D01*
X649158Y789867D01*
X649337Y789831D01*
X650240Y789652D01*
X650240Y789652D01*
X718916D01*
Y786706D01*
X733964D01*
Y789652D01*
X734158D01*
X765332Y758478D01*
X751840D01*
X751840Y758478D01*
X750758Y758263D01*
X750453Y758060D01*
X749840Y757650D01*
X749840Y757650D01*
X717648Y725458D01*
X712374D01*
Y728404D01*
X697326D01*
Y725458D01*
X688340D01*
X688340Y725458D01*
X687437Y725279D01*
X687258Y725243D01*
X686340Y724630D01*
X641890Y680180D01*
X641277Y679262D01*
X641062Y678180D01*
Y546002D01*
X628544Y533484D01*
Y533504D01*
X580496D01*
Y516456D01*
X628544D01*
Y525484D01*
X645890Y542830D01*
X645890Y542830D01*
X646142Y543207D01*
Y499011D01*
X628544Y481414D01*
Y483504D01*
X580496D01*
Y466456D01*
X628544D01*
Y473414D01*
X650970Y495840D01*
X651583Y496758D01*
X651798Y497840D01*
Y651751D01*
X704086Y704039D01*
Y690116D01*
X722634D01*
Y707164D01*
X707211D01*
X708264Y708218D01*
X712927D01*
X714009Y708433D01*
X714927Y709046D01*
X754678Y748798D01*
X920743D01*
X925093Y744448D01*
X924790Y744508D01*
X923707Y744293D01*
X922790Y743680D01*
X921078Y741968D01*
X759802D01*
X759272Y742762D01*
X757610Y743873D01*
X755650Y744262D01*
X753690Y743873D01*
X752028Y742762D01*
X750918Y741100D01*
X750528Y739140D01*
X750918Y737180D01*
X752028Y735518D01*
X753690Y734408D01*
X755650Y734018D01*
X757610Y734408D01*
X759272Y735518D01*
X759802Y736312D01*
X922250D01*
X923332Y736527D01*
X924249Y737140D01*
X924790Y737680D01*
X935274Y727195D01*
X934104Y726963D01*
X933104Y726294D01*
X932436Y725294D01*
X932201Y724114D01*
X932313Y723550D01*
X931749Y723662D01*
X930569Y723427D01*
X929568Y722759D01*
X928900Y721759D01*
X928665Y720579D01*
X928778Y720014D01*
X928213Y720126D01*
X927033Y719892D01*
X926033Y719223D01*
X925365Y718223D01*
X925130Y717043D01*
X925242Y716479D01*
X924678Y716591D01*
X923498Y716356D01*
X922497Y715688D01*
X921829Y714688D01*
X921594Y713508D01*
X921707Y712943D01*
X921142Y713055D01*
X919962Y712821D01*
X918962Y712152D01*
X918294Y711152D01*
X918059Y709972D01*
X918171Y709407D01*
X917607Y709520D01*
X916427Y709285D01*
X915426Y708617D01*
X914758Y707616D01*
X914523Y706436D01*
X914636Y705872D01*
X914071Y705984D01*
X912891Y705750D01*
X911891Y705081D01*
X911223Y704081D01*
X910988Y702901D01*
X911100Y702336D01*
X910536Y702449D01*
X909356Y702214D01*
X908355Y701546D01*
X907687Y700545D01*
X907452Y699365D01*
X907564Y698801D01*
X907000Y698913D01*
X905820Y698678D01*
X904820Y698010D01*
X904151Y697010D01*
X903917Y695830D01*
X904029Y695265D01*
X903464Y695378D01*
X902284Y695143D01*
X901284Y694475D01*
X900616Y693474D01*
X900381Y692294D01*
X900493Y691730D01*
X899929Y691842D01*
X898749Y691607D01*
X897749Y690939D01*
X897080Y689939D01*
X896846Y688759D01*
X896958Y688194D01*
X896393Y688307D01*
X895213Y688072D01*
X894213Y687403D01*
X893545Y686403D01*
X893312Y685233D01*
X884299Y694247D01*
Y700849D01*
X885697Y701429D01*
X887448Y702772D01*
X888792Y704523D01*
X889637Y706562D01*
X889925Y708750D01*
X889637Y710938D01*
X888792Y712977D01*
X887448Y714728D01*
X885697Y716072D01*
X883658Y716917D01*
X881470Y717205D01*
X879282Y716917D01*
X877243Y716072D01*
X875492Y714728D01*
X874149Y712977D01*
X873304Y710938D01*
X873016Y708750D01*
X873304Y706562D01*
X874149Y704523D01*
X875492Y702772D01*
X877243Y701429D01*
X878642Y700849D01*
Y693075D01*
X878775Y692405D01*
X878390Y692790D01*
X877473Y693403D01*
X876390Y693618D01*
X871411D01*
X870831Y695017D01*
X869488Y696768D01*
X867737Y698111D01*
X865698Y698956D01*
X863510Y699244D01*
X861322Y698956D01*
X859283Y698111D01*
X857532Y696768D01*
X856188Y695017D01*
X855343Y692978D01*
X855055Y690790D01*
X855343Y688602D01*
X856188Y686563D01*
X857532Y684812D01*
X859283Y683468D01*
X861322Y682624D01*
X863510Y682335D01*
X865698Y682624D01*
X867737Y683468D01*
X869488Y684812D01*
X870831Y686563D01*
X871411Y687961D01*
X875219D01*
X882783Y680398D01*
X880769D01*
X879687Y680182D01*
X878769Y679569D01*
X864140Y664940D01*
X863527Y664022D01*
X863312Y662940D01*
Y655221D01*
X859942Y651852D01*
X857683Y654112D01*
X850578Y647007D01*
X859097Y638488D01*
X866202Y645593D01*
X863942Y647852D01*
X868140Y652050D01*
X868140Y652050D01*
X868550Y652663D01*
X868753Y652968D01*
X868968Y654050D01*
X868968Y654050D01*
Y661768D01*
X879388Y672188D01*
X879168Y671081D01*
X879403Y669901D01*
X880071Y668901D01*
X890678Y658294D01*
X891678Y657626D01*
X891714Y657619D01*
X895207Y654125D01*
X895699Y653796D01*
X896564Y652503D01*
X898225Y651393D01*
X900186Y651003D01*
X902146Y651393D01*
X903808Y652503D01*
X904918Y654165D01*
X905308Y656125D01*
X904918Y658085D01*
X903808Y659747D01*
X902146Y660858D01*
X900186Y661247D01*
X898225Y660858D01*
X897176Y660156D01*
X896403Y660929D01*
X897573Y661162D01*
X898574Y661830D01*
X899242Y662830D01*
X899477Y664010D01*
X899364Y664575D01*
X899929Y664462D01*
X901109Y664697D01*
X902109Y665366D01*
X902777Y666366D01*
X903012Y667546D01*
X902900Y668110D01*
X903464Y667998D01*
X904644Y668233D01*
X905645Y668901D01*
X906313Y669901D01*
X906486Y670770D01*
X911944Y665312D01*
X911818Y664677D01*
X912207Y662716D01*
X913318Y661055D01*
X914980Y659944D01*
X916940Y659554D01*
X918900Y659944D01*
X920562Y661055D01*
X921673Y662716D01*
X922062Y664677D01*
X921673Y666637D01*
X920562Y668299D01*
X918900Y669409D01*
X916940Y669799D01*
X916304Y669673D01*
X910846Y675131D01*
X911715Y675304D01*
X912716Y675972D01*
X913384Y676972D01*
X913619Y678152D01*
X913506Y678717D01*
X914071Y678605D01*
X915251Y678839D01*
X916251Y679508D01*
X916919Y680508D01*
X917154Y681688D01*
X917042Y682252D01*
X917607Y682140D01*
X918786Y682375D01*
X919787Y683043D01*
X920455Y684043D01*
X920690Y685223D01*
X920577Y685788D01*
X921142Y685676D01*
X922322Y685910D01*
X923322Y686579D01*
X923991Y687579D01*
X924225Y688759D01*
X924113Y689324D01*
X924678Y689211D01*
X925857Y689446D01*
X926858Y690114D01*
X927526Y691115D01*
X927761Y692294D01*
X927648Y692859D01*
X928213Y692747D01*
X929393Y692981D01*
X930393Y693650D01*
X931062Y694650D01*
X931296Y695830D01*
X931184Y696395D01*
X931749Y696282D01*
X932929Y696517D01*
X933929Y697185D01*
X934597Y698186D01*
X934832Y699365D01*
X934720Y699930D01*
X935284Y699818D01*
X936464Y700052D01*
X937464Y700721D01*
X938133Y701721D01*
X938367Y702901D01*
X938255Y703466D01*
X938820Y703353D01*
X940000Y703588D01*
X941000Y704256D01*
X941668Y705257D01*
X941903Y706436D01*
X941791Y707001D01*
X942355Y706889D01*
X943535Y707123D01*
X944535Y707792D01*
X945204Y708792D01*
X945439Y709972D01*
X945326Y710537D01*
X945891Y710424D01*
X947071Y710659D01*
X948071Y711327D01*
X948739Y712328D01*
X948974Y713508D01*
X948862Y714072D01*
X949426Y713960D01*
X950606Y714195D01*
X951607Y714863D01*
X952275Y715863D01*
X952510Y717043D01*
X952397Y717608D01*
X952962Y717495D01*
X954142Y717730D01*
X955142Y718399D01*
X955810Y719399D01*
X956045Y720579D01*
X955933Y721143D01*
X956497Y721031D01*
X957677Y721266D01*
X958678Y721934D01*
X959346Y722934D01*
X959581Y724114D01*
X959468Y724679D01*
X960033Y724566D01*
X961213Y724801D01*
X962213Y725470D01*
X962881Y726470D01*
X963116Y727650D01*
X963004Y728214D01*
X963568Y728102D01*
X964748Y728337D01*
X965749Y729005D01*
X966417Y730005D01*
X966652Y731185D01*
X966539Y731750D01*
X967104Y731638D01*
X968284Y731872D01*
X969284Y732541D01*
X969952Y733541D01*
X970185Y734711D01*
X973541Y731355D01*
X974458Y730742D01*
X974986Y730637D01*
X975590Y729733D01*
X977252Y728623D01*
X979212Y728233D01*
X981172Y728623D01*
X982834Y729733D01*
X983944Y731395D01*
X984334Y733355D01*
X983944Y735316D01*
X982834Y736977D01*
X981172Y738088D01*
X979212Y738478D01*
X977252Y738088D01*
X975787Y737109D01*
X975015Y737881D01*
X975736Y738024D01*
X975982Y738189D01*
X967974Y746197D01*
X959965Y754206D01*
X959800Y753959D01*
X959490Y752398D01*
X959597Y751860D01*
X958853Y751712D01*
X957853Y751043D01*
X957184Y750043D01*
X956950Y748863D01*
X957062Y748298D01*
X956497Y748411D01*
X955318Y748176D01*
X954317Y747508D01*
X953649Y746507D01*
X953416Y745338D01*
X937080Y761674D01*
X936162Y762287D01*
X935080Y762502D01*
X769308D01*
X737330Y794480D01*
X736412Y795093D01*
X735330Y795308D01*
X733964D01*
Y798254D01*
X718916D01*
Y795308D01*
X651412D01*
X637330Y809390D01*
X636412Y810003D01*
X635330Y810218D01*
X628544D01*
Y815914D01*
D02*
G37*
G36*
X703580Y761880D02*
X696350D01*
Y756400D01*
X703580D01*
Y761880D01*
D02*
G37*
G36*
X712470Y768638D02*
X660400D01*
X659318Y768423D01*
X658400Y767810D01*
X650808Y760218D01*
X628544D01*
Y765914D01*
X580496D01*
Y748866D01*
X628544D01*
Y754562D01*
X651980D01*
X653062Y754777D01*
X653980Y755390D01*
X661572Y762982D01*
X711299D01*
X712400Y761880D01*
X706120D01*
Y756400D01*
X713350D01*
Y760930D01*
X718532Y755749D01*
Y744563D01*
X717738Y744032D01*
X716628Y742370D01*
X716238Y740410D01*
X716628Y738450D01*
X717738Y736788D01*
X719400Y735677D01*
X721360Y735288D01*
X723320Y735677D01*
X724982Y736788D01*
X726093Y738450D01*
X726482Y740410D01*
X726093Y742370D01*
X724982Y744032D01*
X724188Y744563D01*
Y756920D01*
X724188Y756920D01*
X724009Y757823D01*
X723973Y758002D01*
X723360Y758920D01*
X714470Y767810D01*
X713552Y768423D01*
X712470Y768638D01*
D02*
G37*
G36*
X1083707Y813302D02*
X1034475D01*
X1033393Y813087D01*
X1032475Y812474D01*
X1009109Y789108D01*
X1008496Y788190D01*
X1008281Y787108D01*
Y768584D01*
X998487Y758790D01*
X998451Y758783D01*
X997451Y758114D01*
X986844Y747508D01*
X986176Y746507D01*
X985941Y745327D01*
X986176Y744147D01*
X986844Y743147D01*
X987844Y742479D01*
X989024Y742244D01*
X989589Y742356D01*
X989477Y741792D01*
X989711Y740612D01*
X990380Y739612D01*
X991380Y738943D01*
X992560Y738709D01*
X993124Y738821D01*
X993012Y738256D01*
X993247Y737076D01*
X993915Y736076D01*
X994915Y735408D01*
X996085Y735175D01*
X992134Y731224D01*
X991784Y731293D01*
X989824Y730904D01*
X988162Y729793D01*
X987052Y728131D01*
X986662Y726171D01*
X987052Y724211D01*
X988162Y722549D01*
X989824Y721439D01*
X991784Y721049D01*
X993745Y721439D01*
X995146Y722375D01*
X994929Y722050D01*
X994539Y720090D01*
X994929Y718130D01*
X996039Y716468D01*
X997701Y715358D01*
X999661Y714968D01*
X1001622Y715358D01*
X1003283Y716468D01*
X1003842Y717304D01*
Y710912D01*
X1003648Y710620D01*
X1003258Y708660D01*
X1003648Y706700D01*
X1004758Y705038D01*
X1006420Y703928D01*
X1008380Y703538D01*
X1010340Y703928D01*
X1012002Y705038D01*
X1013112Y706700D01*
X1013502Y708660D01*
X1013112Y710620D01*
X1012002Y712282D01*
X1010340Y713392D01*
X1009499Y713560D01*
Y718349D01*
X1010862Y719712D01*
X1010925Y719399D01*
X1011593Y718399D01*
X1012593Y717730D01*
X1013773Y717495D01*
X1014338Y717608D01*
X1014225Y717043D01*
X1014460Y715863D01*
X1015128Y714863D01*
X1016129Y714195D01*
X1017309Y713960D01*
X1017873Y714072D01*
X1017761Y713508D01*
X1017996Y712328D01*
X1018664Y711327D01*
X1019664Y710659D01*
X1020844Y710424D01*
X1021409Y710537D01*
X1021296Y709972D01*
X1021531Y708792D01*
X1022199Y707792D01*
X1023200Y707123D01*
X1024370Y706891D01*
X1020887Y703408D01*
X1019810Y703622D01*
X1017850Y703232D01*
X1016188Y702122D01*
X1015078Y700460D01*
X1014688Y698500D01*
X1015078Y696540D01*
X1016188Y694878D01*
X1017850Y693767D01*
X1019810Y693378D01*
X1021770Y693767D01*
X1023432Y694878D01*
X1024542Y696540D01*
X1024932Y698500D01*
X1024774Y699296D01*
X1028370Y702891D01*
X1028602Y701721D01*
X1029270Y700721D01*
X1030271Y700052D01*
X1031451Y699818D01*
X1032015Y699930D01*
X1031903Y699365D01*
X1032138Y698186D01*
X1032806Y697185D01*
X1033806Y696517D01*
X1034986Y696282D01*
X1035160Y696317D01*
X1033050Y694207D01*
X1032437Y693289D01*
X1032222Y692207D01*
Y688854D01*
X1031428Y688324D01*
X1030318Y686662D01*
X1029928Y684702D01*
X1030318Y682741D01*
X1031428Y681079D01*
X1033090Y679969D01*
X1035050Y679579D01*
X1037010Y679969D01*
X1038672Y681079D01*
X1039782Y682741D01*
X1040172Y684702D01*
X1039782Y686662D01*
X1038672Y688324D01*
X1037878Y688854D01*
Y691035D01*
X1038171Y691328D01*
X1038289Y690734D01*
X1038454Y690487D01*
X1046463Y698496D01*
X1054471Y706504D01*
X1054225Y706669D01*
X1052664Y706979D01*
X1052125Y706872D01*
X1051977Y707616D01*
X1051309Y708617D01*
X1050308Y709285D01*
X1049138Y709518D01*
X1051300Y711679D01*
X1055555D01*
X1056637Y711895D01*
X1057555Y712508D01*
X1059571Y714523D01*
X1061562Y712532D01*
X1070081Y721052D01*
X1068090Y723043D01*
X1076281Y731234D01*
X1096542D01*
X1096734Y730772D01*
X1097779Y729409D01*
X1099142Y728364D01*
X1100729Y727706D01*
X1102432Y727482D01*
X1104135Y727706D01*
X1105723Y728364D01*
X1107085Y729409D01*
X1108131Y730772D01*
X1108788Y732359D01*
X1109013Y734062D01*
X1108788Y735766D01*
X1108131Y737353D01*
X1107085Y738715D01*
X1105723Y739761D01*
X1104135Y740418D01*
X1102432Y740643D01*
X1100729Y740418D01*
X1099142Y739761D01*
X1097779Y738715D01*
X1096734Y737353D01*
X1096542Y736891D01*
X1075110D01*
X1074027Y736675D01*
X1073110Y736062D01*
X1064090Y727042D01*
X1062976Y728157D01*
X1054457Y719637D01*
X1055571Y718523D01*
X1054383Y717336D01*
X1050128D01*
X1049459Y717203D01*
X1049481Y717235D01*
X1049696Y718318D01*
Y724398D01*
X1050807Y723288D01*
X1059326Y731807D01*
X1057773Y733359D01*
X1069926Y745512D01*
X1070539Y746429D01*
X1070754Y747512D01*
Y762679D01*
X1071216Y762870D01*
X1072579Y763916D01*
X1073624Y765279D01*
X1074282Y766866D01*
X1074506Y768569D01*
X1074282Y770272D01*
X1073624Y771859D01*
X1072579Y773222D01*
X1071216Y774268D01*
X1069629Y774925D01*
X1067925Y775150D01*
X1066222Y774925D01*
X1064635Y774268D01*
X1063273Y773222D01*
X1062227Y771859D01*
X1061570Y770272D01*
X1061345Y768569D01*
X1061570Y766866D01*
X1062227Y765279D01*
X1063273Y763916D01*
X1064635Y762870D01*
X1065097Y762679D01*
Y748683D01*
X1053773Y737359D01*
X1052221Y738912D01*
X1043701Y730393D01*
X1045254Y728840D01*
X1044867Y728454D01*
X1044254Y727536D01*
X1044039Y726454D01*
Y719489D01*
X1041603Y717053D01*
X1041370Y718223D01*
X1040702Y719223D01*
X1039702Y719892D01*
X1038522Y720126D01*
X1037957Y720014D01*
X1038070Y720579D01*
X1037835Y721759D01*
X1037166Y722759D01*
X1036166Y723427D01*
X1034986Y723662D01*
X1034422Y723550D01*
X1034534Y724114D01*
X1034299Y725294D01*
X1033631Y726294D01*
X1032631Y726963D01*
X1031451Y727197D01*
X1030886Y727085D01*
X1030998Y727650D01*
X1030764Y728830D01*
X1030095Y729830D01*
X1029095Y730498D01*
X1027915Y730733D01*
X1027351Y730621D01*
X1027463Y731185D01*
X1027228Y732365D01*
X1026560Y733365D01*
X1025559Y734034D01*
X1024380Y734268D01*
X1023815Y734156D01*
X1023927Y734721D01*
X1023693Y735901D01*
X1023024Y736901D01*
X1022024Y737569D01*
X1021280Y737717D01*
X1021387Y738256D01*
X1021077Y739817D01*
X1020912Y740063D01*
X1012903Y732055D01*
X1011107Y733851D01*
X1019116Y741860D01*
X1018869Y742024D01*
X1017309Y742335D01*
X1016770Y742227D01*
X1016622Y742972D01*
X1015953Y743972D01*
X1014953Y744640D01*
X1013773Y744875D01*
X1013208Y744763D01*
X1013321Y745327D01*
X1013086Y746507D01*
X1012418Y747507D01*
X1011417Y748176D01*
X1010238Y748411D01*
X1009673Y748298D01*
X1009785Y748863D01*
X1009550Y750043D01*
X1008882Y751043D01*
X1007882Y751712D01*
X1006712Y751944D01*
X1017133Y762365D01*
X1017133Y762365D01*
X1017746Y763282D01*
X1017961Y764365D01*
Y784269D01*
X1037314Y803622D01*
X1080869D01*
X1142270Y742220D01*
X1143188Y741607D01*
X1144270Y741392D01*
X1152303D01*
Y739081D01*
X1167352D01*
Y740951D01*
X1174973Y733330D01*
X1175890Y732717D01*
X1176973Y732502D01*
X1228188D01*
X1250662Y710029D01*
Y508000D01*
X1250877Y506918D01*
X1251490Y506000D01*
X1272650Y484840D01*
X1273568Y484227D01*
X1274650Y484012D01*
X1280836D01*
Y478316D01*
X1328884D01*
Y495364D01*
X1280836D01*
Y489668D01*
X1275822D01*
X1256318Y509171D01*
Y711200D01*
X1256103Y712282D01*
X1255490Y713200D01*
X1231360Y737330D01*
X1230442Y737943D01*
X1229360Y738158D01*
X1178144D01*
X1169447Y746855D01*
X1168530Y747468D01*
X1167448Y747683D01*
X1167352D01*
Y750629D01*
X1152303D01*
Y747048D01*
X1145442D01*
X1090138Y802352D01*
X1131666D01*
Y799406D01*
X1146714D01*
Y802352D01*
X1150719D01*
X1156240Y796830D01*
X1156240Y796830D01*
X1157158Y796217D01*
X1158240Y796002D01*
X1196439D01*
X1227360Y765080D01*
X1228278Y764467D01*
X1229360Y764252D01*
X1280266D01*
Y759826D01*
X1328314D01*
Y776874D01*
X1280266D01*
Y769908D01*
X1230531D01*
X1199610Y800830D01*
X1198692Y801443D01*
X1197610Y801658D01*
X1159411D01*
X1153890Y807180D01*
X1152972Y807793D01*
X1151890Y808008D01*
X1146714D01*
Y810954D01*
X1131666D01*
Y808008D01*
X1090172D01*
X1085707Y812474D01*
X1084789Y813087D01*
X1083707Y813302D01*
D02*
G37*
G36*
X703580Y753860D02*
X696350D01*
Y748380D01*
X703580D01*
Y753860D01*
D02*
G37*
G36*
X1042321Y750191D02*
X1038270Y746140D01*
X1041614Y742795D01*
X1045666Y746847D01*
X1042321Y750191D01*
D02*
G37*
G36*
X967104Y759017D02*
X965924Y758783D01*
X964924Y758114D01*
X964256Y757114D01*
X964107Y756370D01*
X963568Y756477D01*
X962008Y756166D01*
X961761Y756002D01*
X969770Y747993D01*
X977778Y739985D01*
X977943Y740231D01*
X978253Y741792D01*
X978146Y742331D01*
X978891Y742479D01*
X979891Y743147D01*
X980559Y744147D01*
X980794Y745327D01*
X980559Y746507D01*
X979891Y747508D01*
X969284Y758114D01*
X968284Y758783D01*
X967104Y759017D01*
D02*
G37*
G36*
X713350Y753860D02*
X706120D01*
Y748380D01*
X713350D01*
Y753860D01*
D02*
G37*
G36*
X1137920Y771410D02*
X1130690D01*
Y765930D01*
X1137920D01*
Y771410D01*
D02*
G37*
G36*
Y779430D02*
X1130690D01*
Y773950D01*
X1137920D01*
Y779430D01*
D02*
G37*
G36*
X873670Y773745D02*
X869940D01*
Y768515D01*
X873670D01*
Y773745D01*
D02*
G37*
G36*
X867400Y781515D02*
X863670D01*
Y776285D01*
X867400D01*
Y781515D01*
D02*
G37*
G36*
X1147690Y779430D02*
X1140460D01*
Y773950D01*
X1147690D01*
Y779430D01*
D02*
G37*
G36*
X934720Y782872D02*
X934720Y782872D01*
X910590D01*
X908435Y782443D01*
X906607Y781223D01*
X905387Y779395D01*
X904958Y777240D01*
X905387Y775085D01*
X906607Y773257D01*
X908435Y772037D01*
X910590Y771608D01*
X932387D01*
X934532Y769463D01*
X934532Y769462D01*
X936360Y768242D01*
X938515Y767813D01*
X985520D01*
X987019Y768111D01*
X993394D01*
Y778779D01*
X987019D01*
X985520Y779077D01*
X940848D01*
X938703Y781223D01*
X936875Y782443D01*
X936518Y782515D01*
X934720Y782872D01*
D02*
G37*
G36*
X1147690Y771410D02*
X1140460D01*
Y765930D01*
X1147690D01*
Y771410D01*
D02*
G37*
G36*
X867400Y773745D02*
X863670D01*
Y768515D01*
X867400D01*
Y773745D01*
D02*
G37*
G36*
X763270Y809445D02*
X760523Y809083D01*
X757963Y808023D01*
X755764Y806336D01*
X754077Y804137D01*
X753017Y801577D01*
X752655Y798830D01*
X753017Y796083D01*
X754077Y793523D01*
X755764Y791324D01*
X757963Y789637D01*
X760523Y788577D01*
X763270Y788215D01*
X766017Y788577D01*
X768577Y789637D01*
X770776Y791324D01*
X772463Y793523D01*
X773490Y796002D01*
X774799D01*
X798585Y772215D01*
X799503Y771602D01*
X800585Y771387D01*
X818636D01*
Y768191D01*
X828684D01*
Y780239D01*
X818636D01*
Y777043D01*
X801757D01*
X777970Y800830D01*
X777052Y801443D01*
X775970Y801658D01*
X773490D01*
X772463Y804137D01*
X770776Y806336D01*
X768577Y808023D01*
X766017Y809083D01*
X763270Y809445D01*
D02*
G37*
G36*
X818770Y842010D02*
X814040D01*
Y836280D01*
X818770D01*
Y842010D01*
D02*
G37*
G36*
X833034Y897564D02*
X822986D01*
Y894623D01*
X816024D01*
Y896264D01*
X807976D01*
Y885216D01*
X816024D01*
Y888457D01*
X822986D01*
Y885516D01*
X833034D01*
Y897564D01*
D02*
G37*
G36*
X629920Y974090D02*
X629920Y892178D01*
X629451Y892240D01*
X588479D01*
X586776Y892015D01*
X585189Y891358D01*
X583826Y890312D01*
X526207Y832693D01*
X525161Y831330D01*
X524504Y829743D01*
X524280Y828040D01*
Y750556D01*
X523891Y750050D01*
X523234Y748463D01*
X523010Y746760D01*
Y452120D01*
X523234Y450417D01*
X523891Y448830D01*
X524937Y447467D01*
X552077Y420327D01*
X553440Y419281D01*
X555027Y418624D01*
X556730Y418400D01*
X580496D01*
Y416456D01*
X628544D01*
Y433504D01*
X580496D01*
Y431560D01*
X559456D01*
X536170Y454846D01*
Y730874D01*
X564307Y702737D01*
X565670Y701691D01*
X566327Y701419D01*
X567257Y701034D01*
X568960Y700810D01*
X580496D01*
Y698866D01*
X628544D01*
Y715914D01*
X580496D01*
Y713970D01*
X571686D01*
X537440Y748216D01*
Y825314D01*
X591205Y879079D01*
X626725D01*
X643047Y862757D01*
X644410Y861711D01*
X645997Y861054D01*
X647700Y860830D01*
X939800D01*
X941503Y861054D01*
X943090Y861711D01*
X944453Y862757D01*
X965918Y884222D01*
Y877570D01*
X965918Y877570D01*
X966275Y875772D01*
X966347Y875415D01*
X967567Y873587D01*
X975106Y866049D01*
Y855711D01*
X981481D01*
X982980Y855413D01*
X984479Y855711D01*
X990854D01*
Y866379D01*
X988565D01*
X988255Y867938D01*
X988184Y868295D01*
X986963Y870123D01*
X986963Y870123D01*
X977182Y879903D01*
Y884222D01*
X1022777Y838627D01*
X1024140Y837581D01*
X1025727Y836924D01*
X1027430Y836700D01*
X1252220D01*
X1253923Y836924D01*
X1255510Y837581D01*
X1256873Y838627D01*
X1280266Y862020D01*
Y859826D01*
X1328314D01*
Y862100D01*
X1339664D01*
X1376450Y825314D01*
Y614866D01*
X1353634Y592050D01*
X1328884D01*
Y595364D01*
X1280836D01*
Y578316D01*
X1328884D01*
Y578890D01*
X1356360D01*
X1358063Y579114D01*
X1359650Y579771D01*
X1361013Y580817D01*
X1387683Y607487D01*
X1388729Y608850D01*
X1389386Y610437D01*
X1389412Y610635D01*
X1389610Y612140D01*
Y828040D01*
X1389386Y829743D01*
X1388729Y831330D01*
X1387683Y832693D01*
X1347043Y873333D01*
X1345680Y874379D01*
X1344093Y875036D01*
X1342390Y875260D01*
X1328314D01*
Y876874D01*
X1280266D01*
Y875260D01*
X1277620D01*
X1275917Y875036D01*
X1274330Y874379D01*
X1272967Y873333D01*
X1249494Y849860D01*
X1030156D01*
X982246Y897770D01*
X982777Y899052D01*
X983173Y902060D01*
X982777Y905068D01*
X981616Y907872D01*
X979769Y910279D01*
X977362Y912126D01*
X974558Y913287D01*
X971550Y913683D01*
X968542Y913287D01*
X965738Y912126D01*
X963331Y910279D01*
X961484Y907872D01*
X960323Y905068D01*
X959927Y902060D01*
X960323Y899052D01*
X960854Y897770D01*
X937074Y873990D01*
X650426D01*
X639226Y885190D01*
X720090Y885190D01*
X720090Y974090D01*
X629920Y974090D01*
D02*
G37*
G36*
X944880Y914501D02*
X942887Y914238D01*
X939846Y912979D01*
X937235Y910975D01*
X935231Y908364D01*
X933972Y905323D01*
X933709Y903330D01*
X944880D01*
Y914501D01*
D02*
G37*
G36*
X1355790Y917469D02*
X1352912Y917090D01*
X1350230Y915979D01*
X1347928Y914212D01*
X1346161Y911910D01*
X1345050Y909228D01*
X1344671Y906350D01*
X1345050Y903472D01*
X1346161Y900790D01*
X1347928Y898488D01*
X1350230Y896721D01*
X1352912Y895610D01*
X1355790Y895231D01*
X1358668Y895610D01*
X1361350Y896721D01*
X1363652Y898488D01*
X1365419Y900790D01*
X1366530Y903472D01*
X1366909Y906350D01*
X1366530Y909228D01*
X1365419Y911910D01*
X1363652Y914212D01*
X1361350Y915979D01*
X1358668Y917090D01*
X1355790Y917469D01*
D02*
G37*
G36*
X958591Y900790D02*
X947420D01*
Y889619D01*
X949413Y889882D01*
X952454Y891141D01*
X955065Y893145D01*
X957069Y895756D01*
X958328Y898797D01*
X958591Y900790D01*
D02*
G37*
G36*
X944880D02*
X933709D01*
X933972Y898797D01*
X935231Y895756D01*
X937235Y893145D01*
X939846Y891141D01*
X942887Y889882D01*
X944880Y889619D01*
Y900790D01*
D02*
G37*
G36*
X802000Y897240D02*
X798270D01*
Y892010D01*
X802000D01*
Y897240D01*
D02*
G37*
G36*
X795730D02*
X792000D01*
Y892010D01*
X795730D01*
Y897240D01*
D02*
G37*
G36*
X947420Y914501D02*
Y903330D01*
X958591D01*
X958328Y905323D01*
X957069Y908364D01*
X955065Y910975D01*
X952454Y912979D01*
X949413Y914238D01*
X947420Y914501D01*
D02*
G37*
G36*
X796380Y945500D02*
X792650D01*
Y940270D01*
X796380D01*
Y945500D01*
D02*
G37*
G36*
X847684Y945824D02*
X837636D01*
Y933776D01*
X847684D01*
Y936972D01*
X853098D01*
X853628Y936178D01*
X855290Y935068D01*
X857250Y934678D01*
X859210Y935068D01*
X860872Y936178D01*
X861982Y937840D01*
X862053Y938194D01*
X862200Y938413D01*
X862403Y938718D01*
X862618Y939800D01*
X862403Y940882D01*
X862053Y941406D01*
X861982Y941760D01*
X860872Y943422D01*
X859210Y944532D01*
X857250Y944922D01*
X855290Y944532D01*
X853628Y943422D01*
X853098Y942628D01*
X847684D01*
Y945824D01*
D02*
G37*
G36*
X833684D02*
X823636D01*
Y942883D01*
X816674D01*
Y944524D01*
X808626D01*
Y933476D01*
X816674D01*
Y936717D01*
X823636D01*
Y933776D01*
X833684D01*
Y945824D01*
D02*
G37*
G36*
X802650Y945500D02*
X798920D01*
Y940270D01*
X802650D01*
Y945500D01*
D02*
G37*
G36*
X1155700Y946091D02*
X1152757Y945704D01*
X1150014Y944568D01*
X1147659Y942761D01*
X1145852Y940406D01*
X1144716Y937663D01*
X1144329Y934720D01*
X1144716Y931777D01*
X1145852Y929034D01*
X1147659Y926679D01*
X1150014Y924872D01*
X1152757Y923736D01*
X1155700Y923349D01*
X1158643Y923736D01*
X1161386Y924872D01*
X1163741Y926679D01*
X1165548Y929034D01*
X1166684Y931777D01*
X1167071Y934720D01*
X1166684Y937663D01*
X1165548Y940406D01*
X1163741Y942761D01*
X1161386Y944568D01*
X1158643Y945704D01*
X1155700Y946091D01*
D02*
G37*
G36*
X1029700D02*
X1026757Y945704D01*
X1024014Y944568D01*
X1021659Y942761D01*
X1019852Y940406D01*
X1018716Y937663D01*
X1018329Y934720D01*
X1018716Y931777D01*
X1019852Y929034D01*
X1021659Y926679D01*
X1024014Y924872D01*
X1026757Y923736D01*
X1029700Y923349D01*
X1032643Y923736D01*
X1035386Y924872D01*
X1037741Y926679D01*
X1039548Y929034D01*
X1040684Y931777D01*
X1041071Y934720D01*
X1040684Y937663D01*
X1039548Y940406D01*
X1037741Y942761D01*
X1035386Y944568D01*
X1032643Y945704D01*
X1029700Y946091D01*
D02*
G37*
G36*
X802650Y937730D02*
X798920D01*
Y932500D01*
X802650D01*
Y937730D01*
D02*
G37*
G36*
X796380D02*
X792650D01*
Y932500D01*
X796380D01*
Y937730D01*
D02*
G37*
G36*
X847034Y897564D02*
X836986D01*
Y885516D01*
X847034D01*
Y888712D01*
X855638D01*
X856168Y887918D01*
X857830Y886807D01*
X859790Y886418D01*
X861750Y886807D01*
X863412Y887918D01*
X864522Y889580D01*
X864912Y891540D01*
X864522Y893500D01*
X863412Y895162D01*
X861750Y896273D01*
X859790Y896662D01*
X857830Y896273D01*
X856168Y895162D01*
X855638Y894368D01*
X847034D01*
Y897564D01*
D02*
G37*
G36*
X629520Y856120D02*
X605790D01*
Y847890D01*
X629520D01*
Y856120D01*
D02*
G37*
G36*
X603250D02*
X579520D01*
Y847890D01*
X603250D01*
Y856120D01*
D02*
G37*
G36*
X1077200Y881950D02*
X1068970D01*
Y858220D01*
X1077200D01*
Y881950D01*
D02*
G37*
G36*
X1066430D02*
X1058200D01*
Y858220D01*
X1066430D01*
Y881950D01*
D02*
G37*
G36*
X997204Y852424D02*
X968756D01*
Y840022D01*
X958903D01*
X957466Y841896D01*
X955267Y843583D01*
X952707Y844643D01*
X949960Y845005D01*
X947213Y844643D01*
X944653Y843583D01*
X942454Y841896D01*
X940767Y839697D01*
X939707Y837137D01*
X939345Y834390D01*
X939707Y831643D01*
X940767Y829083D01*
X942454Y826884D01*
X944653Y825197D01*
X947213Y824137D01*
X949960Y823775D01*
X952301Y824083D01*
X971296Y805089D01*
Y782066D01*
X999744D01*
Y811814D01*
X980501D01*
X969639Y822676D01*
X997204D01*
Y852424D01*
D02*
G37*
G36*
X831794Y849304D02*
X821746D01*
Y837256D01*
X831794D01*
Y840807D01*
X839516D01*
Y839366D01*
X852564D01*
Y848414D01*
X839516D01*
Y846973D01*
X831794D01*
Y849304D01*
D02*
G37*
G36*
X818770Y850280D02*
X814040D01*
Y844550D01*
X818770D01*
Y850280D01*
D02*
G37*
G36*
X811500D02*
X806770D01*
Y844550D01*
X811500D01*
Y850280D01*
D02*
G37*
G36*
X603250Y866890D02*
X579520D01*
Y858660D01*
X603250D01*
Y866890D01*
D02*
G37*
G36*
X1066430Y908220D02*
X1058200D01*
Y884490D01*
X1066430D01*
Y908220D01*
D02*
G37*
G36*
X553020Y906509D02*
X550142Y906130D01*
X547460Y905019D01*
X545158Y903252D01*
X543391Y900950D01*
X542280Y898268D01*
X541901Y895390D01*
X542280Y892512D01*
X543391Y889830D01*
X545158Y887528D01*
X547460Y885761D01*
X550142Y884650D01*
X553020Y884271D01*
X555898Y884650D01*
X558580Y885761D01*
X560882Y887528D01*
X562649Y889830D01*
X563760Y892512D01*
X564139Y895390D01*
X563760Y898268D01*
X562649Y900950D01*
X560882Y903252D01*
X558580Y905019D01*
X555898Y906130D01*
X553020Y906509D01*
D02*
G37*
G36*
X1183640Y974090D02*
X1183640Y885190D01*
X1272540Y885190D01*
X1272540Y974090D01*
X1183640Y974090D01*
D02*
G37*
G36*
X1077200Y908220D02*
X1068970D01*
Y884490D01*
X1077200D01*
Y908220D01*
D02*
G37*
G36*
X1102360Y961620D02*
X951230D01*
X949725Y961422D01*
X949527Y961396D01*
X947940Y960739D01*
X946577Y959693D01*
X916097Y929213D01*
X915051Y927850D01*
X914394Y926263D01*
X914170Y924560D01*
Y911536D01*
X912531Y910279D01*
X910684Y907872D01*
X909523Y905068D01*
X909127Y902060D01*
X909523Y899052D01*
X910684Y896248D01*
X912531Y893841D01*
X914938Y891994D01*
X917742Y890833D01*
X920750Y890437D01*
X923758Y890833D01*
X926562Y891994D01*
X928969Y893841D01*
X930816Y896248D01*
X931977Y899052D01*
X932373Y902060D01*
X931977Y905068D01*
X930816Y907872D01*
X928969Y910279D01*
X927330Y911536D01*
Y921834D01*
X953956Y948460D01*
X1099634D01*
X1111020Y937074D01*
Y907244D01*
X1109176D01*
Y859196D01*
X1126224D01*
Y907244D01*
X1124180D01*
Y939800D01*
X1123956Y941503D01*
X1123299Y943090D01*
X1122253Y944453D01*
X1107013Y959693D01*
X1105650Y960739D01*
X1104063Y961396D01*
X1102360Y961620D01*
D02*
G37*
G36*
X629520Y866890D02*
X605790D01*
Y858660D01*
X629520D01*
Y866890D01*
D02*
G37*
G36*
X802000Y889470D02*
X798270D01*
Y884240D01*
X802000D01*
Y889470D01*
D02*
G37*
G36*
X795730D02*
X792000D01*
Y884240D01*
X795730D01*
Y889470D01*
D02*
G37*
G36*
X1047462Y745051D02*
X1043410Y740999D01*
X1046755Y737655D01*
X1050807Y741706D01*
X1047462Y745051D01*
D02*
G37*
G36*
X1065422Y661247D02*
X1063462Y660858D01*
X1061800Y659747D01*
X1060690Y658085D01*
X1060300Y656125D01*
X1060690Y654165D01*
X1061800Y652503D01*
X1063462Y651393D01*
X1065422Y651003D01*
X1066451Y651207D01*
X1067034Y650818D01*
X1068117Y650603D01*
X1068435D01*
X1069501Y649537D01*
X1068781Y649393D01*
X1068534Y649229D01*
X1076543Y641220D01*
X1084551Y633212D01*
X1084716Y633458D01*
X1085027Y635019D01*
X1084919Y635558D01*
X1085664Y635706D01*
X1086664Y636374D01*
X1087332Y637374D01*
X1087567Y638554D01*
X1087332Y639734D01*
X1086664Y640734D01*
X1076057Y651341D01*
X1075057Y652009D01*
X1075021Y652017D01*
X1071607Y655431D01*
X1070689Y656044D01*
X1070535Y656075D01*
X1070545Y656125D01*
X1070155Y658085D01*
X1069044Y659747D01*
X1067383Y660858D01*
X1065422Y661247D01*
D02*
G37*
G36*
X842643Y640452D02*
X839298Y637107D01*
X843350Y633056D01*
X846694Y636400D01*
X842643Y640452D01*
D02*
G37*
G36*
X1139190Y639110D02*
X1133460D01*
Y634380D01*
X1139190D01*
Y639110D01*
D02*
G37*
G36*
X802134Y661164D02*
X783586D01*
Y644116D01*
X790032D01*
Y641632D01*
X783689Y635288D01*
X752434D01*
Y639754D01*
X742386D01*
Y627706D01*
X745202D01*
Y618833D01*
X744408Y618302D01*
X743298Y616640D01*
X742908Y614680D01*
X743298Y612720D01*
X744408Y611058D01*
X746070Y609948D01*
X748030Y609558D01*
X749990Y609948D01*
X751652Y611058D01*
X752763Y612720D01*
X753152Y614680D01*
X752763Y616640D01*
X751652Y618302D01*
X750858Y618833D01*
Y627706D01*
X752434D01*
Y629632D01*
X784860D01*
X785942Y629847D01*
X786860Y630460D01*
X794860Y638460D01*
X795473Y639378D01*
X795688Y640460D01*
Y644116D01*
X802134D01*
Y649952D01*
X804008D01*
X808826Y645134D01*
X806776D01*
Y635086D01*
X818824D01*
Y645134D01*
X815628D01*
Y645160D01*
X815413Y646242D01*
X814800Y647160D01*
X807180Y654780D01*
X806262Y655393D01*
X805180Y655608D01*
X802134D01*
Y661164D01*
D02*
G37*
G36*
X1147460Y639110D02*
X1141730D01*
Y634380D01*
X1147460D01*
Y639110D01*
D02*
G37*
G36*
X848490Y634604D02*
X845146Y631260D01*
X849197Y627208D01*
X852542Y630552D01*
X848490Y634604D01*
D02*
G37*
G36*
X1147460Y631840D02*
X1141730D01*
Y627110D01*
X1147460D01*
Y631840D01*
D02*
G37*
G36*
X811530Y632110D02*
X805800D01*
Y627380D01*
X811530D01*
Y632110D01*
D02*
G37*
G36*
X853631Y639745D02*
X850286Y636400D01*
X854338Y632349D01*
X857683Y635693D01*
X853631Y639745D01*
D02*
G37*
G36*
X819800Y632110D02*
X814070D01*
Y627380D01*
X819800D01*
Y632110D01*
D02*
G37*
G36*
X553020Y680509D02*
X550142Y680130D01*
X547460Y679019D01*
X545158Y677252D01*
X543391Y674950D01*
X542280Y672268D01*
X541901Y669390D01*
X542280Y666512D01*
X543391Y663830D01*
X545158Y661528D01*
X547460Y659761D01*
X550142Y658650D01*
X553020Y658271D01*
X555898Y658650D01*
X558580Y659761D01*
X560882Y661528D01*
X562649Y663830D01*
X563760Y666512D01*
X564139Y669390D01*
X563760Y672268D01*
X562649Y674950D01*
X560882Y677252D01*
X558580Y679019D01*
X555898Y680130D01*
X553020Y680509D01*
D02*
G37*
G36*
X1249851Y675209D02*
X1231303D01*
Y658161D01*
X1249851D01*
Y675209D01*
D02*
G37*
G36*
X845549Y671033D02*
X839891Y665375D01*
X840830Y664655D01*
X843106Y663712D01*
X845549Y663391D01*
X847992Y663712D01*
X850269Y664655D01*
X851207Y665375D01*
X845549Y671033D01*
D02*
G37*
G36*
X853003Y678487D02*
X847345Y672829D01*
X853003Y667171D01*
X853723Y668110D01*
X854666Y670386D01*
X854988Y672829D01*
X854666Y675272D01*
X853723Y677549D01*
X853003Y678487D01*
D02*
G37*
G36*
X838095D02*
X837375Y677549D01*
X836432Y675272D01*
X836111Y672829D01*
X836432Y670386D01*
X837375Y668110D01*
X838095Y667171D01*
X843753Y672829D01*
X838095Y678487D01*
D02*
G37*
G36*
X847783Y645593D02*
X844438Y642248D01*
X848490Y638196D01*
X851835Y641541D01*
X847783Y645593D01*
D02*
G37*
G36*
X674370Y657045D02*
X671623Y656683D01*
X669063Y655623D01*
X666864Y653936D01*
X665177Y651737D01*
X664117Y649177D01*
X663755Y646430D01*
X664117Y643683D01*
X665177Y641123D01*
X666864Y638924D01*
X669063Y637237D01*
X671623Y636177D01*
X674370Y635815D01*
X677117Y636177D01*
X679677Y637237D01*
X681876Y638924D01*
X683563Y641123D01*
X684623Y643683D01*
X684985Y646430D01*
X684623Y649177D01*
X683563Y651737D01*
X681876Y653936D01*
X679677Y655623D01*
X677117Y656683D01*
X674370Y657045D01*
D02*
G37*
G36*
X722634Y661164D02*
X704086D01*
Y644116D01*
X722634D01*
Y661164D01*
D02*
G37*
G36*
X1171327Y665415D02*
X1162347D01*
Y657185D01*
X1171327D01*
Y665415D01*
D02*
G37*
G36*
X1159807D02*
X1150827D01*
Y657185D01*
X1159807D01*
Y665415D01*
D02*
G37*
G36*
X791680Y613940D02*
X786450D01*
Y610210D01*
X791680D01*
Y613940D01*
D02*
G37*
G36*
X738520Y614060D02*
X732790D01*
Y609330D01*
X738520D01*
Y614060D01*
D02*
G37*
G36*
X799450Y613940D02*
X794220D01*
Y610210D01*
X799450D01*
Y613940D01*
D02*
G37*
G36*
X892858Y652244D02*
X891678Y652009D01*
X890678Y651341D01*
X880071Y640734D01*
X879403Y639734D01*
X879168Y638554D01*
X879403Y637374D01*
X880071Y636374D01*
X881071Y635706D01*
X882241Y635473D01*
X804445Y557676D01*
X796066D01*
X796543Y558828D01*
Y559308D01*
X796417Y559611D01*
Y559939D01*
X796050Y560826D01*
X795818Y561058D01*
X795692Y561361D01*
X795308Y561745D01*
Y565176D01*
X798504D01*
Y568672D01*
X805180D01*
X806262Y568887D01*
X807180Y569500D01*
X812260Y574580D01*
X812873Y575498D01*
X813088Y576580D01*
Y583606D01*
X816284D01*
Y593654D01*
X804236D01*
Y583606D01*
X807432D01*
Y577752D01*
X804008Y574328D01*
X798504D01*
Y575224D01*
X786456D01*
Y565176D01*
X789652D01*
Y561745D01*
X789268Y561361D01*
X789142Y561058D01*
X788910Y560826D01*
X788543Y559939D01*
X788543Y559611D01*
X788417Y559308D01*
Y558828D01*
X788901Y557662D01*
X789611Y557368D01*
X788901Y557073D01*
X788417Y555907D01*
Y555427D01*
X788543Y555124D01*
X788543Y554796D01*
X788910Y553909D01*
X789142Y553677D01*
X789268Y553374D01*
X789652Y552990D01*
Y485140D01*
X789867Y484058D01*
X790480Y483140D01*
X814722Y458898D01*
Y457194D01*
X812526D01*
Y439146D01*
X822574D01*
Y457194D01*
X820378D01*
Y460070D01*
X820378Y460070D01*
X820199Y460973D01*
X820163Y461152D01*
X819550Y462070D01*
X795308Y486311D01*
Y552020D01*
X805616D01*
X806699Y552235D01*
X807616Y552848D01*
X860832Y606064D01*
X860772Y605761D01*
Y603592D01*
X859978Y603062D01*
X858867Y601400D01*
X858478Y599440D01*
X858867Y597480D01*
X859978Y595818D01*
X861640Y594707D01*
X863600Y594318D01*
X865560Y594707D01*
X867222Y595818D01*
X868333Y597480D01*
X868722Y599440D01*
X868333Y601400D01*
X867222Y603062D01*
X866428Y603592D01*
Y604589D01*
X882422Y620583D01*
X882362Y620280D01*
Y613753D01*
X881568Y613222D01*
X880458Y611560D01*
X880068Y609600D01*
X880458Y607640D01*
X881568Y605978D01*
X883230Y604868D01*
X885190Y604478D01*
X887150Y604868D01*
X888812Y605978D01*
X889922Y607640D01*
X890312Y609600D01*
X889922Y611560D01*
X888812Y613222D01*
X888018Y613753D01*
Y619108D01*
X893312Y624402D01*
X893545Y623232D01*
X894213Y622232D01*
X895213Y621564D01*
X896393Y621329D01*
X896958Y621441D01*
X896846Y620877D01*
X897080Y619697D01*
X897749Y618696D01*
X898749Y618028D01*
X899929Y617793D01*
X900493Y617906D01*
X900381Y617341D01*
X900616Y616161D01*
X901284Y615161D01*
X902284Y614492D01*
X903464Y614258D01*
X904029Y614370D01*
X903917Y613806D01*
X904151Y612626D01*
X904820Y611625D01*
X905820Y610957D01*
X907000Y610722D01*
X907564Y610835D01*
X907452Y610270D01*
X907687Y609090D01*
X908355Y608090D01*
X909356Y607421D01*
X910536Y607187D01*
X911100Y607299D01*
X910988Y606734D01*
X911223Y605555D01*
X911891Y604554D01*
X912891Y603886D01*
X914071Y603651D01*
X914636Y603764D01*
X914523Y603199D01*
X914758Y602019D01*
X915426Y601019D01*
X916427Y600350D01*
X917607Y600116D01*
X918171Y600228D01*
X918059Y599663D01*
X918294Y598484D01*
X918962Y597483D01*
X919962Y596815D01*
X921132Y596582D01*
X919198Y594648D01*
X914743D01*
X914212Y595442D01*
X912550Y596553D01*
X910590Y596942D01*
X908630Y596553D01*
X906968Y595442D01*
X905857Y593780D01*
X905468Y591820D01*
X905857Y589860D01*
X906968Y588198D01*
X908630Y587088D01*
X910590Y586698D01*
X912550Y587088D01*
X914212Y588198D01*
X914743Y588992D01*
X920370D01*
X920673Y589052D01*
X914940Y583319D01*
X914327Y582402D01*
X914112Y581319D01*
Y515962D01*
X913318Y515432D01*
X912207Y513770D01*
X911818Y511810D01*
X912207Y509850D01*
X913318Y508188D01*
X914980Y507077D01*
X916940Y506688D01*
X918900Y507077D01*
X920562Y508188D01*
X921673Y509850D01*
X922062Y511810D01*
X921673Y513770D01*
X920562Y515432D01*
X919768Y515962D01*
Y580148D01*
X922511Y582890D01*
X922451Y582587D01*
Y506691D01*
X922409Y506589D01*
X893627Y477808D01*
X864870D01*
X863788Y477593D01*
X862870Y476980D01*
X851550Y465660D01*
X850937Y464742D01*
X850722Y463660D01*
Y457194D01*
X848526D01*
Y439146D01*
X858574D01*
Y457194D01*
X856378D01*
Y462489D01*
X866041Y472152D01*
X894799D01*
X895881Y472367D01*
X896799Y472980D01*
X925342Y501523D01*
X925555Y501523D01*
X925858Y501397D01*
X926338D01*
X927504Y501881D01*
X927798Y502590D01*
X928093Y501881D01*
X929259Y501397D01*
X929739D01*
X930042Y501523D01*
X930370Y501523D01*
X931257Y501890D01*
X931489Y502122D01*
X931792Y502248D01*
X932176Y502632D01*
X936046D01*
Y499436D01*
X946094D01*
Y511484D01*
X943898D01*
Y514448D01*
X951132Y521682D01*
X981116D01*
Y518486D01*
X991164D01*
Y530534D01*
X981116D01*
Y527338D01*
X966823D01*
X967200Y527590D01*
X973991Y534382D01*
X1007110D01*
X1008192Y534597D01*
X1009110Y535210D01*
X1032411Y558512D01*
X1041137D01*
X1042538Y557111D01*
X1040773Y555346D01*
X1059899Y536221D01*
X1067428Y543750D01*
X1048303Y562876D01*
X1046538Y561111D01*
X1044309Y563340D01*
X1043391Y563953D01*
X1042309Y564168D01*
X1031718D01*
X1033681Y566132D01*
X1051478D01*
X1051518Y566091D01*
X1049754Y564327D01*
X1068879Y545201D01*
X1076409Y552730D01*
X1057283Y571856D01*
X1055518Y570091D01*
X1054649Y570960D01*
X1053732Y571573D01*
X1052650Y571788D01*
X1032510D01*
X1031522Y571592D01*
X1037492Y577562D01*
X1038518D01*
X1039048Y576768D01*
X1040710Y575658D01*
X1042670Y575268D01*
X1044630Y575658D01*
X1046292Y576768D01*
X1047402Y578430D01*
X1047792Y580390D01*
X1047402Y582350D01*
X1046292Y584012D01*
X1044630Y585122D01*
X1042670Y585512D01*
X1040710Y585122D01*
X1039048Y584012D01*
X1038518Y583218D01*
X1036320D01*
X1036320Y583218D01*
X1035238Y583003D01*
X1034933Y582800D01*
X1034320Y582390D01*
X1034320Y582390D01*
X1009749Y557818D01*
X1007351D01*
X1007882Y557924D01*
X1008882Y558592D01*
X1009550Y559593D01*
X1009785Y560773D01*
X1009673Y561337D01*
X1010238Y561225D01*
X1011417Y561460D01*
X1012418Y562128D01*
X1013086Y563128D01*
X1013321Y564308D01*
X1013208Y564873D01*
X1013773Y564760D01*
X1014953Y564995D01*
X1015953Y565663D01*
X1016622Y566664D01*
X1016856Y567844D01*
X1016744Y568408D01*
X1017309Y568296D01*
X1018488Y568531D01*
X1019489Y569199D01*
X1020157Y570199D01*
X1020392Y571379D01*
X1020279Y571944D01*
X1020844Y571831D01*
X1022024Y572066D01*
X1023024Y572734D01*
X1023693Y573735D01*
X1023927Y574915D01*
X1023815Y575479D01*
X1024380Y575367D01*
X1025559Y575602D01*
X1026560Y576270D01*
X1027228Y577270D01*
X1027463Y578450D01*
X1027351Y579015D01*
X1027915Y578903D01*
X1029095Y579137D01*
X1030095Y579805D01*
X1030764Y580806D01*
X1030998Y581986D01*
X1030886Y582550D01*
X1031451Y582438D01*
X1032631Y582673D01*
X1033631Y583341D01*
X1034299Y584341D01*
X1034534Y585521D01*
X1034422Y586086D01*
X1034986Y585974D01*
X1036166Y586208D01*
X1037166Y586877D01*
X1037835Y587877D01*
X1038070Y589057D01*
X1037957Y589621D01*
X1038522Y589509D01*
X1039702Y589744D01*
X1040702Y590412D01*
X1041370Y591412D01*
X1041605Y592592D01*
X1041493Y593157D01*
X1042057Y593045D01*
X1043237Y593279D01*
X1044238Y593948D01*
X1044906Y594948D01*
X1045138Y596118D01*
X1048732Y592525D01*
Y588010D01*
X1048947Y586928D01*
X1049560Y586010D01*
X1060499Y575071D01*
X1058734Y573307D01*
X1077860Y554181D01*
X1085389Y561710D01*
X1066263Y580836D01*
X1064498Y579071D01*
X1054388Y589182D01*
Y593696D01*
X1054173Y594779D01*
X1053560Y595696D01*
X1049138Y600118D01*
X1050308Y600350D01*
X1051309Y601019D01*
X1051977Y602019D01*
X1052212Y603199D01*
X1052099Y603764D01*
X1052664Y603651D01*
X1053844Y603886D01*
X1054844Y604554D01*
X1055512Y605555D01*
X1055747Y606734D01*
X1055635Y607299D01*
X1056199Y607187D01*
X1057379Y607421D01*
X1058380Y608090D01*
X1059048Y609090D01*
X1059283Y610270D01*
X1059170Y610835D01*
X1059735Y610722D01*
X1060915Y610957D01*
X1061915Y611625D01*
X1062583Y612626D01*
X1062732Y613370D01*
X1063270Y613263D01*
X1064831Y613573D01*
X1065078Y613738D01*
X1057069Y621746D01*
X1049061Y629755D01*
X1048896Y629508D01*
X1048586Y627948D01*
X1048693Y627409D01*
X1047949Y627261D01*
X1046948Y626592D01*
X1046280Y625592D01*
X1046045Y624412D01*
X1046157Y623848D01*
X1045593Y623960D01*
X1044413Y623725D01*
X1043413Y623057D01*
X1042744Y622057D01*
X1042510Y620877D01*
X1042622Y620312D01*
X1042057Y620424D01*
X1040877Y620190D01*
X1039877Y619521D01*
X1039209Y618521D01*
X1038974Y617341D01*
X1039086Y616776D01*
X1038522Y616889D01*
X1037342Y616654D01*
X1036342Y615986D01*
X1035673Y614985D01*
X1035439Y613806D01*
X1035551Y613241D01*
X1034986Y613353D01*
X1033806Y613119D01*
X1032806Y612450D01*
X1032138Y611450D01*
X1031903Y610270D01*
X1032015Y609705D01*
X1031451Y609818D01*
X1030271Y609583D01*
X1029270Y608915D01*
X1028602Y607914D01*
X1028367Y606734D01*
X1028480Y606170D01*
X1027915Y606282D01*
X1026735Y606048D01*
X1025735Y605379D01*
X1025067Y604379D01*
X1024832Y603199D01*
X1024944Y602634D01*
X1024380Y602747D01*
X1023200Y602512D01*
X1022199Y601844D01*
X1021531Y600843D01*
X1021296Y599663D01*
X1021409Y599099D01*
X1020844Y599211D01*
X1019664Y598976D01*
X1018664Y598308D01*
X1017996Y597308D01*
X1017761Y596128D01*
X1017873Y595563D01*
X1017309Y595676D01*
X1016129Y595441D01*
X1015128Y594772D01*
X1014460Y593772D01*
X1014225Y592592D01*
X1014338Y592028D01*
X1013773Y592140D01*
X1012593Y591905D01*
X1011593Y591237D01*
X1010925Y590237D01*
X1010690Y589057D01*
X1010802Y588492D01*
X1010238Y588605D01*
X1009058Y588370D01*
X1008057Y587701D01*
X1007389Y586701D01*
X1007154Y585521D01*
X1007267Y584957D01*
X1006702Y585069D01*
X1005522Y584834D01*
X1004522Y584166D01*
X1003853Y583166D01*
X1003619Y581986D01*
X1003731Y581421D01*
X1003166Y581533D01*
X1001986Y581299D01*
X1000986Y580630D01*
X1000318Y579630D01*
X1000083Y578450D01*
X1000195Y577886D01*
X999631Y577998D01*
X998451Y577763D01*
X997451Y577095D01*
X996782Y576095D01*
X996548Y574915D01*
X996660Y574350D01*
X996095Y574462D01*
X994915Y574228D01*
X993915Y573559D01*
X993247Y572559D01*
X993012Y571379D01*
X993124Y570815D01*
X992560Y570927D01*
X991380Y570692D01*
X990380Y570024D01*
X989711Y569024D01*
X989477Y567844D01*
X989589Y567279D01*
X989024Y567391D01*
X987844Y567157D01*
X986844Y566488D01*
X986176Y565488D01*
X985941Y564308D01*
X986176Y563128D01*
X986844Y562128D01*
X997451Y551521D01*
X998451Y550853D01*
X998487Y550846D01*
X1001422Y547910D01*
X1001423Y547910D01*
X1002036Y547500D01*
X1002340Y547297D01*
X1003422Y547082D01*
X1003422Y547082D01*
X1012982D01*
X1005938Y540038D01*
X972820D01*
X971738Y539823D01*
X970820Y539210D01*
X964028Y532418D01*
X960753D01*
X964474Y536140D01*
X961130Y539484D01*
X957078Y535433D01*
X960092Y532418D01*
X954941D01*
X941358Y546002D01*
Y558899D01*
X942242Y559782D01*
X954799D01*
X955102Y559842D01*
X953095Y557834D01*
X951937Y558992D01*
X943418Y550473D01*
X950523Y543368D01*
X959042Y551887D01*
X957095Y553834D01*
X959657Y556397D01*
X959800Y555676D01*
X959965Y555430D01*
X967974Y563438D01*
X975982Y571447D01*
X975736Y571612D01*
X974175Y571922D01*
X973636Y571815D01*
X973488Y572559D01*
X972820Y573559D01*
X971819Y574228D01*
X970639Y574462D01*
X970075Y574350D01*
X970187Y574915D01*
X969952Y576095D01*
X969284Y577095D01*
X968284Y577763D01*
X967104Y577998D01*
X966539Y577886D01*
X966652Y578450D01*
X966417Y579630D01*
X965749Y580630D01*
X964748Y581299D01*
X963568Y581533D01*
X963004Y581421D01*
X963116Y581986D01*
X962881Y583166D01*
X962213Y584166D01*
X961213Y584834D01*
X960344Y585007D01*
X966042Y590706D01*
X966042Y590706D01*
X966711Y591706D01*
X966945Y592886D01*
Y608398D01*
X966945Y608398D01*
X966711Y609578D01*
X966360Y610103D01*
X966512Y610870D01*
X966123Y612830D01*
X965012Y614492D01*
X963350Y615602D01*
X961390Y615992D01*
X959430Y615602D01*
X957768Y614492D01*
X956657Y612830D01*
X956268Y610870D01*
X956657Y608910D01*
X957768Y607248D01*
X959430Y606138D01*
X960779Y605869D01*
Y594163D01*
X960663Y594047D01*
Y601980D01*
X960663Y601980D01*
X960428Y603160D01*
X959760Y604160D01*
X959760Y604160D01*
X951146Y612774D01*
X951272Y613410D01*
X950882Y615370D01*
X949772Y617032D01*
X948110Y618143D01*
X946150Y618532D01*
X944190Y618143D01*
X942528Y617032D01*
X941417Y615370D01*
X941028Y613410D01*
X941417Y611450D01*
X942528Y609788D01*
X944190Y608677D01*
X946150Y608288D01*
X946786Y608414D01*
X954497Y600703D01*
Y594952D01*
X952448Y592903D01*
X952275Y593772D01*
X951607Y594772D01*
X950606Y595441D01*
X949426Y595676D01*
X948862Y595563D01*
X948974Y596128D01*
X948739Y597308D01*
X948071Y598308D01*
X947071Y598976D01*
X945891Y599211D01*
X945326Y599099D01*
X945439Y599663D01*
X945204Y600843D01*
X944535Y601844D01*
X943535Y602512D01*
X942355Y602747D01*
X941791Y602634D01*
X941903Y603199D01*
X941668Y604379D01*
X941000Y605379D01*
X940000Y606048D01*
X938820Y606282D01*
X938255Y606170D01*
X938367Y606734D01*
X938133Y607914D01*
X937464Y608915D01*
X936464Y609583D01*
X935284Y609818D01*
X934720Y609705D01*
X934832Y610270D01*
X934597Y611450D01*
X933929Y612450D01*
X932929Y613119D01*
X931749Y613353D01*
X931184Y613241D01*
X931296Y613806D01*
X931062Y614985D01*
X930393Y615986D01*
X929393Y616654D01*
X928213Y616889D01*
X927648Y616776D01*
X927761Y617341D01*
X927526Y618521D01*
X926858Y619521D01*
X925857Y620190D01*
X924678Y620424D01*
X924113Y620312D01*
X924225Y620877D01*
X923991Y622057D01*
X923322Y623057D01*
X922322Y623725D01*
X921142Y623960D01*
X920577Y623848D01*
X920690Y624412D01*
X920455Y625592D01*
X919787Y626592D01*
X918786Y627261D01*
X917607Y627495D01*
X917042Y627383D01*
X917154Y627948D01*
X916919Y629128D01*
X916251Y630128D01*
X915251Y630796D01*
X914071Y631031D01*
X913506Y630919D01*
X913619Y631483D01*
X913384Y632663D01*
X912716Y633663D01*
X911715Y634332D01*
X910535Y634566D01*
X909971Y634454D01*
X910083Y635019D01*
X909848Y636199D01*
X909180Y637199D01*
X908180Y637867D01*
X907000Y638102D01*
X906435Y637990D01*
X906548Y638554D01*
X906313Y639734D01*
X905645Y640734D01*
X904644Y641403D01*
X903464Y641637D01*
X902900Y641525D01*
X903012Y642090D01*
X902777Y643270D01*
X902109Y644270D01*
X901109Y644938D01*
X899929Y645173D01*
X899364Y645061D01*
X899477Y645625D01*
X899242Y646805D01*
X898574Y647805D01*
X897573Y648474D01*
X896393Y648709D01*
X895829Y648596D01*
X895941Y649161D01*
X895706Y650341D01*
X895038Y651341D01*
X894038Y652009D01*
X892858Y652244D01*
D02*
G37*
G36*
X1249851Y629209D02*
X1231303D01*
Y612161D01*
X1249851D01*
Y629209D01*
D02*
G37*
G36*
X553020Y624099D02*
X550142Y623720D01*
X547460Y622609D01*
X545158Y620842D01*
X543391Y618540D01*
X542280Y615858D01*
X541901Y612980D01*
X542280Y610102D01*
X543391Y607421D01*
X545158Y605118D01*
X547460Y603351D01*
X550142Y602240D01*
X553020Y601861D01*
X555898Y602240D01*
X558580Y603351D01*
X560882Y605118D01*
X562649Y607421D01*
X563760Y610102D01*
X564139Y612980D01*
X563760Y615858D01*
X562649Y618540D01*
X560882Y620842D01*
X558580Y622609D01*
X555898Y623720D01*
X553020Y624099D01*
D02*
G37*
G36*
X755800Y600515D02*
X750570D01*
Y596785D01*
X755800D01*
Y600515D01*
D02*
G37*
G36*
X808990Y608630D02*
X803260D01*
Y603900D01*
X808990D01*
Y608630D01*
D02*
G37*
G36*
X730250Y614060D02*
X724520D01*
Y609330D01*
X730250D01*
Y614060D01*
D02*
G37*
G36*
X817260Y608630D02*
X811530D01*
Y603900D01*
X817260D01*
Y608630D01*
D02*
G37*
G36*
X819800Y624840D02*
X814070D01*
Y620110D01*
X819800D01*
Y624840D01*
D02*
G37*
G36*
X811530D02*
X805800D01*
Y620110D01*
X811530D01*
Y624840D01*
D02*
G37*
G36*
X738434Y639754D02*
X728386D01*
Y636813D01*
X711200D01*
X710020Y636579D01*
X709020Y635910D01*
X709020Y635910D01*
X697223Y624113D01*
X684484D01*
X683563Y626337D01*
X681876Y628536D01*
X679677Y630223D01*
X677117Y631283D01*
X674370Y631645D01*
X671623Y631283D01*
X669063Y630223D01*
X666864Y628536D01*
X665177Y626337D01*
X664117Y623777D01*
X663755Y621030D01*
X664117Y618283D01*
X665177Y615723D01*
X666864Y613524D01*
X669063Y611837D01*
X669757Y611550D01*
Y607060D01*
X670108Y605295D01*
X671108Y603798D01*
X731825Y543081D01*
X731868Y542870D01*
X732497Y541927D01*
Y532130D01*
X732810Y530560D01*
X733699Y529229D01*
X734784Y528144D01*
X733916D01*
Y518096D01*
X745964D01*
Y528144D01*
X744043D01*
Y528790D01*
X743730Y530360D01*
X742841Y531691D01*
X740703Y533829D01*
Y541927D01*
X741332Y542870D01*
X741722Y544830D01*
X741332Y546790D01*
X740222Y548452D01*
X738560Y549562D01*
X738349Y549605D01*
X678983Y608971D01*
Y611550D01*
X679677Y611837D01*
X681876Y613524D01*
X683563Y615723D01*
X684484Y617947D01*
X698500D01*
X698500Y617947D01*
X699680Y618181D01*
X700680Y618850D01*
X712477Y630647D01*
X728386D01*
Y627706D01*
X738434D01*
Y639754D01*
D02*
G37*
G36*
X1139190Y631840D02*
X1133460D01*
Y627110D01*
X1139190D01*
Y631840D01*
D02*
G37*
G36*
X1167130Y656878D02*
X1124658D01*
X1123575Y656663D01*
X1122658Y656050D01*
X1122658Y656050D01*
X1091108Y624500D01*
X1088042D01*
X1081493Y631049D01*
X1082509Y631251D01*
X1082755Y631415D01*
X1074747Y639424D01*
X1066738Y647432D01*
X1066574Y647186D01*
X1066263Y645625D01*
X1066370Y645086D01*
X1065626Y644938D01*
X1064626Y644270D01*
X1063958Y643270D01*
X1063723Y642090D01*
X1063835Y641525D01*
X1063270Y641637D01*
X1062091Y641403D01*
X1061090Y640734D01*
X1060422Y639734D01*
X1060187Y638554D01*
X1060300Y637990D01*
X1059735Y638102D01*
X1058555Y637867D01*
X1057555Y637199D01*
X1056887Y636199D01*
X1056652Y635019D01*
X1056764Y634454D01*
X1056199Y634566D01*
X1055020Y634332D01*
X1054019Y633663D01*
X1053351Y632663D01*
X1053203Y631919D01*
X1052664Y632026D01*
X1051103Y631716D01*
X1050857Y631551D01*
X1058865Y623542D01*
X1066874Y615534D01*
X1067038Y615780D01*
X1067182Y616501D01*
X1075278Y608404D01*
X1074298D01*
X1074232Y608503D01*
X1072570Y609614D01*
X1070610Y610004D01*
X1068650Y609614D01*
X1066988Y608503D01*
X1065878Y606841D01*
X1065488Y604881D01*
X1065878Y602921D01*
X1066988Y601259D01*
X1068650Y600149D01*
X1070610Y599759D01*
X1071546Y599945D01*
X1078459Y593032D01*
X1076694Y591267D01*
X1095820Y572142D01*
X1103350Y579671D01*
X1084224Y598797D01*
X1082459Y597032D01*
X1076743Y602748D01*
X1098947D01*
X1100029Y602963D01*
X1100947Y603576D01*
X1113652Y616282D01*
X1134436D01*
Y614086D01*
X1146484D01*
Y616282D01*
X1147430D01*
X1148512Y616497D01*
X1149430Y617110D01*
X1151446Y619126D01*
X1151803D01*
Y612161D01*
X1156328D01*
Y603849D01*
X1154133D01*
Y591801D01*
X1164181D01*
Y603849D01*
X1161985D01*
Y612161D01*
X1170351D01*
Y629209D01*
X1151803D01*
Y624783D01*
X1150275D01*
X1149192Y624568D01*
X1148275Y623955D01*
X1146484Y622164D01*
Y624134D01*
X1134436D01*
Y621938D01*
X1113618D01*
X1130829Y639150D01*
X1160958D01*
X1182082Y618026D01*
Y587911D01*
X1096813Y502643D01*
Y511449D01*
X1096461Y513214D01*
X1095462Y514711D01*
X1094503Y515670D01*
X1095006Y516173D01*
X1075880Y535298D01*
X1068351Y527769D01*
X1087476Y508643D01*
X1087587Y508754D01*
Y504106D01*
X1076468Y492987D01*
X1040077D01*
X1030935Y502129D01*
X1030892Y502340D01*
X1029782Y504002D01*
X1028120Y505112D01*
X1026160Y505502D01*
X1024200Y505112D01*
X1022538Y504002D01*
X1021428Y502340D01*
X1021038Y500380D01*
X1021428Y498420D01*
X1022538Y496758D01*
X1024200Y495648D01*
X1024411Y495605D01*
X1034588Y485428D01*
X1028700D01*
X1027618Y485213D01*
X1026700Y484600D01*
X1010237Y468136D01*
X1009623Y467219D01*
X1009408Y466137D01*
Y459228D01*
X1009024Y458844D01*
X1008899Y458541D01*
X1008667Y458309D01*
X1008299Y457422D01*
X1008299Y457094D01*
X1008174Y456791D01*
Y456311D01*
X1008657Y455145D01*
X1009367Y454851D01*
X1008657Y454556D01*
X1008174Y453390D01*
Y452910D01*
X1008299Y452607D01*
X1008299Y452279D01*
X1008667Y451392D01*
X1008899Y451160D01*
X1009024Y450857D01*
X1009408Y450473D01*
Y448652D01*
X1006212D01*
Y438604D01*
X1018260D01*
Y448652D01*
X1015065D01*
Y450473D01*
X1015449Y450857D01*
X1015574Y451160D01*
X1015806Y451392D01*
X1016173Y452279D01*
Y452607D01*
X1016299Y452910D01*
Y453390D01*
X1015816Y454556D01*
X1015106Y454851D01*
X1015816Y455145D01*
X1016299Y456311D01*
Y456791D01*
X1016173Y457094D01*
Y457422D01*
X1015806Y458309D01*
X1015574Y458541D01*
X1015449Y458844D01*
X1015065Y459228D01*
Y464965D01*
X1029872Y479772D01*
X1049812D01*
X1039927Y469886D01*
X1039313Y468969D01*
X1039098Y467886D01*
Y460000D01*
X1038867Y459904D01*
X1038188Y459225D01*
X1038062Y458922D01*
X1037830Y458690D01*
X1037463Y457803D01*
X1037463Y457475D01*
X1037337Y457172D01*
Y456692D01*
X1037821Y455526D01*
X1038531Y455232D01*
X1037821Y454937D01*
X1037337Y453771D01*
Y453291D01*
X1037463Y452988D01*
X1037463Y452660D01*
X1037830Y451773D01*
X1038062Y451541D01*
X1038188Y451238D01*
X1038618Y450807D01*
Y448652D01*
X1035423D01*
Y438604D01*
X1047470D01*
Y448652D01*
X1044275D01*
Y450900D01*
X1044612Y451238D01*
X1044738Y451541D01*
X1044970Y451773D01*
X1045337Y452660D01*
Y452988D01*
X1045463Y453291D01*
Y453771D01*
X1044979Y454937D01*
X1044269Y455232D01*
X1044979Y455526D01*
X1045463Y456692D01*
Y457172D01*
X1045337Y457475D01*
Y457803D01*
X1044970Y458690D01*
X1044755Y458905D01*
Y466715D01*
X1053788Y475748D01*
X1081299D01*
X1069880Y464328D01*
X1069267Y463411D01*
X1069052Y462328D01*
Y460328D01*
X1068668Y459944D01*
X1068542Y459641D01*
X1068310Y459409D01*
X1067943Y458522D01*
X1067943Y458194D01*
X1067817Y457891D01*
Y457411D01*
X1068301Y456245D01*
X1069010Y455951D01*
X1068301Y455656D01*
X1067817Y454490D01*
Y454010D01*
X1067943Y453707D01*
X1067943Y453379D01*
X1068310Y452492D01*
X1068542Y452260D01*
X1068668Y451957D01*
X1069338Y451287D01*
Y448032D01*
X1065902D01*
Y437984D01*
X1077950D01*
Y448032D01*
X1074995D01*
Y451859D01*
X1075092Y451957D01*
X1075218Y452260D01*
X1075450Y452492D01*
X1075817Y453379D01*
Y453707D01*
X1075943Y454010D01*
Y454490D01*
X1075459Y455656D01*
X1074750Y455951D01*
X1075459Y456245D01*
X1075943Y457411D01*
Y457891D01*
X1075817Y458194D01*
Y458522D01*
X1075450Y459409D01*
X1075218Y459641D01*
X1075092Y459944D01*
X1074708Y460328D01*
Y461157D01*
X1096992Y483440D01*
Y460328D01*
X1096608Y459944D01*
X1096482Y459641D01*
X1096250Y459409D01*
X1095883Y458522D01*
X1095883Y458194D01*
X1095757Y457891D01*
Y457411D01*
X1096241Y456245D01*
X1096951Y455951D01*
X1096241Y455656D01*
X1095757Y454490D01*
Y454010D01*
X1095883Y453707D01*
X1095883Y453379D01*
X1096250Y452492D01*
X1096482Y452260D01*
X1096608Y451957D01*
X1097038Y451526D01*
Y450422D01*
X1093372D01*
Y440374D01*
X1105420D01*
Y450422D01*
X1102695D01*
Y451619D01*
X1103032Y451957D01*
X1103158Y452260D01*
X1103390Y452492D01*
X1103757Y453379D01*
Y453707D01*
X1103883Y454010D01*
Y454490D01*
X1103399Y455656D01*
X1102690Y455951D01*
X1103399Y456245D01*
X1103883Y457411D01*
Y457891D01*
X1103757Y458194D01*
Y458522D01*
X1103390Y459409D01*
X1103158Y459641D01*
X1103032Y459944D01*
X1102648Y460328D01*
Y483406D01*
X1198982Y579740D01*
X1199595Y580657D01*
X1199810Y581740D01*
Y624198D01*
X1199595Y625280D01*
X1198982Y626198D01*
X1169130Y656050D01*
X1168212Y656663D01*
X1167130Y656878D01*
D02*
G37*
G36*
X791680Y620210D02*
X786450D01*
Y616480D01*
X791680D01*
Y620210D01*
D02*
G37*
G36*
X1356360Y635959D02*
X1353482Y635580D01*
X1350800Y634469D01*
X1348498Y632702D01*
X1346731Y630400D01*
X1345620Y627718D01*
X1345241Y624840D01*
X1345620Y621962D01*
X1346731Y619280D01*
X1348498Y616978D01*
X1350800Y615211D01*
X1353482Y614100D01*
X1356360Y613721D01*
X1359238Y614100D01*
X1361920Y615211D01*
X1364222Y616978D01*
X1365989Y619280D01*
X1367100Y621962D01*
X1367479Y624840D01*
X1367100Y627718D01*
X1365989Y630400D01*
X1364222Y632702D01*
X1361920Y634469D01*
X1359238Y635580D01*
X1356360Y635959D01*
D02*
G37*
G36*
X799450Y620210D02*
X794220D01*
Y616480D01*
X799450D01*
Y620210D01*
D02*
G37*
G36*
X738520Y621330D02*
X732790D01*
Y616600D01*
X738520D01*
Y621330D01*
D02*
G37*
G36*
X730250D02*
X724520D01*
Y616600D01*
X730250D01*
Y621330D01*
D02*
G37*
G36*
X1078016Y714497D02*
X1073964Y710445D01*
X1077309Y707100D01*
X1081360Y711152D01*
X1078016Y714497D01*
D02*
G37*
G36*
X1303020Y717080D02*
X1279290D01*
Y708850D01*
X1303020D01*
Y717080D01*
D02*
G37*
G36*
X1329290D02*
X1305560D01*
Y708850D01*
X1329290D01*
Y717080D01*
D02*
G37*
G36*
X1158558Y711085D02*
X1151328D01*
Y705605D01*
X1158558D01*
Y711085D01*
D02*
G37*
G36*
X1168327D02*
X1161097D01*
Y705605D01*
X1168327D01*
Y711085D01*
D02*
G37*
G36*
X1067028Y713790D02*
X1062976Y709738D01*
X1066320Y706393D01*
X1070372Y710445D01*
X1067028Y713790D01*
D02*
G37*
G36*
X1072875Y719637D02*
X1068823Y715586D01*
X1072168Y712241D01*
X1076220Y716293D01*
X1072875Y719637D01*
D02*
G37*
G36*
X1303020Y727850D02*
X1279290D01*
Y719620D01*
X1303020D01*
Y727850D01*
D02*
G37*
G36*
X1168327Y719105D02*
X1161097D01*
Y713625D01*
X1168327D01*
Y719105D01*
D02*
G37*
G36*
X899431Y735165D02*
X897243Y734877D01*
X895204Y734032D01*
X893453Y732689D01*
X892109Y730938D01*
X891264Y728899D01*
X890976Y726711D01*
X891264Y724523D01*
X892109Y722484D01*
X893453Y720733D01*
X895204Y719389D01*
X897243Y718544D01*
X899431Y718256D01*
X901619Y718544D01*
X903658Y719389D01*
X905409Y720733D01*
X906752Y722484D01*
X907597Y724523D01*
X907885Y726711D01*
X907597Y728899D01*
X906752Y730938D01*
X905409Y732689D01*
X903658Y734032D01*
X901619Y734877D01*
X899431Y735165D01*
D02*
G37*
G36*
X1158558Y719105D02*
X1151328D01*
Y713625D01*
X1158558D01*
Y719105D01*
D02*
G37*
G36*
X1041614Y739203D02*
X1037562Y735151D01*
X1040907Y731807D01*
X1044959Y735859D01*
X1041614Y739203D01*
D02*
G37*
G36*
X1329290Y727850D02*
X1305560D01*
Y719620D01*
X1329290D01*
Y727850D01*
D02*
G37*
G36*
X1171327Y676185D02*
X1162347D01*
Y667955D01*
X1171327D01*
Y676185D01*
D02*
G37*
G36*
X1159807D02*
X1150827D01*
Y667955D01*
X1159807D01*
Y676185D01*
D02*
G37*
G36*
X791590Y697370D02*
X782610D01*
Y689140D01*
X791590D01*
Y697370D01*
D02*
G37*
G36*
X1036473Y744344D02*
X1032422Y740292D01*
X1035766Y736947D01*
X1039818Y740999D01*
X1036473Y744344D01*
D02*
G37*
G36*
X845549Y682268D02*
X843106Y681946D01*
X840830Y681003D01*
X839891Y680283D01*
X845549Y674625D01*
X851207Y680283D01*
X850269Y681003D01*
X847992Y681946D01*
X845549Y682268D01*
D02*
G37*
G36*
X1056267Y704708D02*
X1048259Y696700D01*
X1040250Y688691D01*
X1040497Y688527D01*
X1042057Y688216D01*
X1042596Y688323D01*
X1042744Y687579D01*
X1043413Y686579D01*
X1044413Y685910D01*
X1045593Y685676D01*
X1046157Y685788D01*
X1046045Y685223D01*
X1046280Y684043D01*
X1046948Y683043D01*
X1047949Y682375D01*
X1049128Y682140D01*
X1049693Y682252D01*
X1049581Y681688D01*
X1049815Y680508D01*
X1050484Y679508D01*
X1051484Y678839D01*
X1052654Y678606D01*
X1049298Y675251D01*
X1047462Y675616D01*
X1045502Y675226D01*
X1043840Y674116D01*
X1042729Y672454D01*
X1042339Y670493D01*
X1042729Y668533D01*
X1043840Y666871D01*
X1045502Y665761D01*
X1047462Y665371D01*
X1049422Y665761D01*
X1051084Y666871D01*
X1052194Y668533D01*
X1052584Y670493D01*
X1052577Y670530D01*
X1056654Y674607D01*
X1056887Y673437D01*
X1057555Y672437D01*
X1058555Y671768D01*
X1059735Y671534D01*
X1060300Y671646D01*
X1060187Y671081D01*
X1060422Y669901D01*
X1061090Y668901D01*
X1062091Y668233D01*
X1063270Y667998D01*
X1063835Y668110D01*
X1063723Y667546D01*
X1063958Y666366D01*
X1064626Y665366D01*
X1065626Y664697D01*
X1066806Y664462D01*
X1067371Y664575D01*
X1067258Y664010D01*
X1067493Y662830D01*
X1068161Y661830D01*
X1069162Y661162D01*
X1070342Y660927D01*
X1070906Y661039D01*
X1070794Y660475D01*
X1071029Y659295D01*
X1071697Y658294D01*
X1072697Y657626D01*
X1073877Y657391D01*
X1075057Y657626D01*
X1076057Y658294D01*
X1086664Y668901D01*
X1087332Y669901D01*
X1087339Y669937D01*
X1091484Y674082D01*
X1104557D01*
X1105088Y673288D01*
X1106750Y672178D01*
X1108710Y671788D01*
X1110670Y672178D01*
X1112332Y673288D01*
X1113443Y674950D01*
X1113832Y676910D01*
X1113443Y678870D01*
X1112332Y680532D01*
X1110670Y681643D01*
X1108710Y682032D01*
X1106750Y681643D01*
X1105088Y680532D01*
X1104557Y679738D01*
X1090312D01*
X1090009Y679678D01*
X1092713Y682382D01*
X1092780Y682337D01*
X1094740Y681948D01*
X1096700Y682337D01*
X1098362Y683448D01*
X1099473Y685110D01*
X1099862Y687070D01*
X1099473Y689030D01*
X1098362Y690692D01*
X1096700Y691803D01*
X1094740Y692192D01*
X1092780Y691803D01*
X1091118Y690692D01*
X1090007Y689030D01*
X1089671Y687340D01*
X1080494Y678162D01*
X1080261Y679332D01*
X1079593Y680332D01*
X1078593Y681001D01*
X1077413Y681236D01*
X1076848Y681123D01*
X1076960Y681688D01*
X1076726Y682868D01*
X1076057Y683868D01*
X1075057Y684536D01*
X1073877Y684771D01*
X1073313Y684659D01*
X1073425Y685223D01*
X1073190Y686403D01*
X1072522Y687403D01*
X1071522Y688072D01*
X1070342Y688307D01*
X1069777Y688194D01*
X1069889Y688759D01*
X1069655Y689939D01*
X1068986Y690939D01*
X1067986Y691607D01*
X1066806Y691842D01*
X1066241Y691730D01*
X1066354Y692294D01*
X1066119Y693474D01*
X1065451Y694475D01*
X1064450Y695143D01*
X1063270Y695378D01*
X1062706Y695265D01*
X1062818Y695830D01*
X1062583Y697010D01*
X1061915Y698010D01*
X1060915Y698678D01*
X1059735Y698913D01*
X1059170Y698801D01*
X1059283Y699365D01*
X1059048Y700545D01*
X1058380Y701546D01*
X1057379Y702214D01*
X1056635Y702362D01*
X1056742Y702901D01*
X1056432Y704462D01*
X1056267Y704708D01*
D02*
G37*
G36*
X1355790Y691469D02*
X1352912Y691090D01*
X1350230Y689979D01*
X1347928Y688212D01*
X1346161Y685910D01*
X1345050Y683228D01*
X1344671Y680350D01*
X1345050Y677472D01*
X1346161Y674790D01*
X1347928Y672488D01*
X1350230Y670721D01*
X1352912Y669610D01*
X1355790Y669231D01*
X1358668Y669610D01*
X1361350Y670721D01*
X1363652Y672488D01*
X1365419Y674790D01*
X1366530Y677472D01*
X1366909Y680350D01*
X1366530Y683228D01*
X1365419Y685910D01*
X1363652Y688212D01*
X1361350Y689979D01*
X1358668Y691090D01*
X1355790Y691469D01*
D02*
G37*
G36*
X803110Y708140D02*
X794130D01*
Y699910D01*
X803110D01*
Y708140D01*
D02*
G37*
G36*
X1072168Y708649D02*
X1068117Y704597D01*
X1071461Y701253D01*
X1075513Y705304D01*
X1072168Y708649D01*
D02*
G37*
G36*
X803110Y697370D02*
X794130D01*
Y689140D01*
X803110D01*
Y697370D01*
D02*
G37*
G36*
X791590Y708140D02*
X782610D01*
Y699910D01*
X791590D01*
Y708140D01*
D02*
G37*
%LPD*%
G36*
X750667Y540145D02*
X751346Y539466D01*
X751713Y538579D01*
Y538099D01*
X746887D01*
Y538579D01*
X747254Y539466D01*
X747933Y540145D01*
X748820Y540512D01*
X749780D01*
X750667Y540145D01*
D02*
G37*
G36*
X751713Y534698D02*
X751346Y533811D01*
X750667Y533132D01*
X749780Y532765D01*
X748820D01*
X747933Y533132D01*
X747254Y533811D01*
X746887Y534698D01*
Y535178D01*
X751713D01*
Y534698D01*
D02*
G37*
G36*
X784733Y475417D02*
X784366Y474530D01*
X783687Y473851D01*
X782800Y473484D01*
X781840D01*
X780953Y473851D01*
X780274Y474530D01*
X779907Y475417D01*
Y475897D01*
X784733D01*
Y475417D01*
D02*
G37*
G36*
X783687Y480864D02*
X784366Y480185D01*
X784733Y479298D01*
Y478818D01*
X779907D01*
Y479298D01*
X780274Y480185D01*
X780953Y480864D01*
X781840Y481231D01*
X782800D01*
X783687Y480864D01*
D02*
G37*
G36*
X894588Y462407D02*
X894108D01*
X893221Y462774D01*
X892542Y463453D01*
X892175Y464340D01*
Y464820D01*
Y465300D01*
X892542Y466187D01*
X893221Y466866D01*
X894108Y467233D01*
X894588D01*
Y462407D01*
D02*
G37*
G36*
X898876Y466866D02*
X899555Y466187D01*
X899922Y465300D01*
Y464820D01*
Y464340D01*
X899555Y463453D01*
X898876Y462774D01*
X897989Y462407D01*
X897509D01*
Y467233D01*
X897989D01*
X898876Y466866D01*
D02*
G37*
G36*
X893168Y424777D02*
X892688D01*
X891801Y425144D01*
X891122Y425823D01*
X890755Y426710D01*
Y427190D01*
Y427670D01*
X891122Y428557D01*
X891801Y429236D01*
X892688Y429603D01*
X893168D01*
Y424777D01*
D02*
G37*
G36*
X897456Y429236D02*
X898135Y428557D01*
X898502Y427670D01*
Y427190D01*
Y426710D01*
X898135Y425823D01*
X897456Y425144D01*
X896569Y424777D01*
X896089D01*
Y429603D01*
X896569D01*
X897456Y429236D01*
D02*
G37*
G36*
X894527Y387947D02*
X894047D01*
X893160Y388314D01*
X892481Y388993D01*
X892114Y389880D01*
Y390360D01*
Y390840D01*
X892481Y391727D01*
X893160Y392406D01*
X894047Y392773D01*
X894527D01*
Y387947D01*
D02*
G37*
G36*
X898815Y392406D02*
X899494Y391727D01*
X899861Y390840D01*
Y390360D01*
Y389880D01*
X899494Y388993D01*
X898815Y388314D01*
X897928Y387947D01*
X897448D01*
Y392773D01*
X897928D01*
X898815Y392406D01*
D02*
G37*
G36*
X930626Y507506D02*
X931305Y506827D01*
X931672Y505940D01*
Y505460D01*
Y504980D01*
X931305Y504093D01*
X930626Y503414D01*
X929739Y503047D01*
X929259D01*
Y507873D01*
X929739D01*
X930626Y507506D01*
D02*
G37*
G36*
X926338Y503047D02*
X925858D01*
X924971Y503414D01*
X924292Y504093D01*
X923925Y504980D01*
Y505460D01*
Y505940D01*
X924292Y506827D01*
X924971Y507506D01*
X925858Y507873D01*
X926338D01*
Y503047D01*
D02*
G37*
G36*
X794893Y555427D02*
X794526Y554540D01*
X793847Y553861D01*
X792960Y553494D01*
X792000D01*
X791113Y553861D01*
X790434Y554540D01*
X790067Y555427D01*
Y555907D01*
X794893D01*
Y555427D01*
D02*
G37*
G36*
X793847Y560874D02*
X794526Y560195D01*
X794893Y559308D01*
Y558828D01*
X790067D01*
Y559308D01*
X790434Y560195D01*
X791113Y560874D01*
X792000Y561241D01*
X792960D01*
X793847Y560874D01*
D02*
G37*
G36*
X1042767Y458738D02*
X1043446Y458059D01*
X1043813Y457172D01*
Y456692D01*
X1038987D01*
Y457172D01*
X1039354Y458059D01*
X1040033Y458738D01*
X1040920Y459105D01*
X1041880D01*
X1042767Y458738D01*
D02*
G37*
G36*
X1073247Y459457D02*
X1073926Y458778D01*
X1074293Y457891D01*
Y457411D01*
X1069467D01*
Y457891D01*
X1069834Y458778D01*
X1070513Y459457D01*
X1071400Y459824D01*
X1072360D01*
X1073247Y459457D01*
D02*
G37*
G36*
X1101187D02*
X1101866Y458778D01*
X1102233Y457891D01*
Y457411D01*
X1097407D01*
Y457891D01*
X1097774Y458778D01*
X1098453Y459457D01*
X1099340Y459824D01*
X1100300D01*
X1101187Y459457D01*
D02*
G37*
G36*
X1074293Y454010D02*
X1073926Y453123D01*
X1073247Y452444D01*
X1072360Y452077D01*
X1071400D01*
X1070513Y452444D01*
X1069834Y453123D01*
X1069467Y454010D01*
Y454490D01*
X1074293D01*
Y454010D01*
D02*
G37*
G36*
X1102233D02*
X1101866Y453123D01*
X1101187Y452444D01*
X1100300Y452077D01*
X1099340D01*
X1098453Y452444D01*
X1097774Y453123D01*
X1097407Y454010D01*
Y454490D01*
X1102233D01*
Y454010D01*
D02*
G37*
G36*
X1013603Y458357D02*
X1014282Y457678D01*
X1014650Y456791D01*
Y456311D01*
X1009824D01*
Y456791D01*
X1010191Y457678D01*
X1010870Y458357D01*
X1011757Y458724D01*
X1012716D01*
X1013603Y458357D01*
D02*
G37*
G36*
X1014650Y452910D02*
X1014282Y452023D01*
X1013603Y451344D01*
X1012716Y450977D01*
X1011757D01*
X1010870Y451344D01*
X1010191Y452023D01*
X1009824Y452910D01*
Y453390D01*
X1014650D01*
Y452910D01*
D02*
G37*
G36*
X1043813Y453291D02*
X1043446Y452404D01*
X1042767Y451725D01*
X1041880Y451358D01*
X1040920D01*
X1040033Y451725D01*
X1039354Y452404D01*
X1038987Y453291D01*
Y453771D01*
X1043813D01*
Y453291D01*
D02*
G37*
D10*
X812000Y890740D02*
D03*
X797000D02*
D03*
X940100Y464820D02*
D03*
X955100D02*
D03*
X971080Y506260D02*
D03*
X986080D02*
D03*
X938530Y427990D02*
D03*
X953530D02*
D03*
X938830Y390360D02*
D03*
X953830D02*
D03*
X853670Y775015D02*
D03*
X868670D02*
D03*
X812650Y939000D02*
D03*
X797650D02*
D03*
D11*
X873540Y824890D02*
D03*
Y834390D02*
D03*
Y843890D02*
D03*
X846040D02*
D03*
Y824890D02*
D03*
D12*
X781050Y383670D02*
D03*
Y395670D02*
D03*
Y407670D02*
D03*
Y419670D02*
D03*
Y431670D02*
D03*
X866050D02*
D03*
Y419670D02*
D03*
Y407670D02*
D03*
Y395670D02*
D03*
Y383670D02*
D03*
D13*
X793550Y448170D02*
D03*
X805550D02*
D03*
X817550D02*
D03*
X829550D02*
D03*
X841550D02*
D03*
X853550D02*
D03*
D14*
X1079180Y665778D02*
D03*
X1075645Y669313D02*
D03*
X1072109Y672849D02*
D03*
X1068574Y676385D02*
D03*
X1065038Y679920D02*
D03*
X1061503Y683456D02*
D03*
X1057967Y686991D02*
D03*
X1054432Y690527D02*
D03*
X1050896Y694062D02*
D03*
X1047361Y697598D02*
D03*
X1043825Y701133D02*
D03*
X1040290Y704669D02*
D03*
X1036754Y708204D02*
D03*
X1033219Y711740D02*
D03*
X1029683Y715275D02*
D03*
X1026147Y718811D02*
D03*
X1022612Y722346D02*
D03*
X1019076Y725882D02*
D03*
X1015541Y729417D02*
D03*
X1012005Y732953D02*
D03*
X1008470Y736488D02*
D03*
X1004934Y740024D02*
D03*
X1001399Y743560D02*
D03*
X997863Y747095D02*
D03*
X994328Y750631D02*
D03*
X887554Y643858D02*
D03*
X891090Y640322D02*
D03*
X894625Y636786D02*
D03*
X898161Y633251D02*
D03*
X901697Y629715D02*
D03*
X905232Y626180D02*
D03*
X908768Y622644D02*
D03*
X912303Y619109D02*
D03*
X915839Y615573D02*
D03*
X919374Y612038D02*
D03*
X922910Y608502D02*
D03*
X926445Y604967D02*
D03*
X929981Y601431D02*
D03*
X933516Y597896D02*
D03*
X937052Y594360D02*
D03*
X940587Y590825D02*
D03*
X944123Y587289D02*
D03*
X947659Y583754D02*
D03*
X951194Y580218D02*
D03*
X954730Y576682D02*
D03*
X958265Y573147D02*
D03*
X961801Y569611D02*
D03*
X965336Y566076D02*
D03*
X968872Y562540D02*
D03*
X972407Y559005D02*
D03*
D15*
Y750631D02*
D03*
X968872Y747095D02*
D03*
X965336Y743560D02*
D03*
X961801Y740024D02*
D03*
X958265Y736488D02*
D03*
X954730Y732953D02*
D03*
X951194Y729417D02*
D03*
X947659Y725882D02*
D03*
X944123Y722346D02*
D03*
X940587Y718811D02*
D03*
X937052Y715275D02*
D03*
X933516Y711740D02*
D03*
X929981Y708204D02*
D03*
X926445Y704669D02*
D03*
X922910Y701133D02*
D03*
X919374Y697598D02*
D03*
X915839Y694062D02*
D03*
X912303Y690527D02*
D03*
X908768Y686991D02*
D03*
X905232Y683456D02*
D03*
X901697Y679920D02*
D03*
X898161Y676385D02*
D03*
X894625Y672849D02*
D03*
X891090Y669313D02*
D03*
X887554Y665778D02*
D03*
X994328Y559005D02*
D03*
X997863Y562540D02*
D03*
X1001399Y566076D02*
D03*
X1004934Y569611D02*
D03*
X1008470Y573147D02*
D03*
X1012005Y576682D02*
D03*
X1015541Y580218D02*
D03*
X1019076Y583754D02*
D03*
X1022612Y587289D02*
D03*
X1026147Y590825D02*
D03*
X1029683Y594360D02*
D03*
X1033219Y597896D02*
D03*
X1036754Y601431D02*
D03*
X1040290Y604967D02*
D03*
X1043825Y608502D02*
D03*
X1047361Y612038D02*
D03*
X1050896Y615573D02*
D03*
X1054432Y619109D02*
D03*
X1057967Y622644D02*
D03*
X1061503Y626180D02*
D03*
X1065038Y629715D02*
D03*
X1068574Y633251D02*
D03*
X1072109Y636786D02*
D03*
X1075645Y640322D02*
D03*
X1079180Y643858D02*
D03*
D16*
X1099820Y458470D02*
D03*
Y453220D02*
D03*
X1071880Y458470D02*
D03*
Y453220D02*
D03*
X1041400Y457751D02*
D03*
Y452501D02*
D03*
X1012236Y457370D02*
D03*
Y452120D02*
D03*
X792480Y554848D02*
D03*
Y560098D02*
D03*
X782320Y474838D02*
D03*
Y480088D02*
D03*
X749300Y534119D02*
D03*
Y539369D02*
D03*
X893529Y464820D02*
D03*
X898779D02*
D03*
X925279Y505460D02*
D03*
X930529D02*
D03*
X892109Y427190D02*
D03*
X897359D02*
D03*
X893468Y390360D02*
D03*
X898718D02*
D03*
D17*
X734860Y406870D02*
D03*
Y420870D02*
D03*
X1099397Y431398D02*
D03*
Y445398D02*
D03*
X1071926Y429008D02*
D03*
Y443008D02*
D03*
X1041447Y429628D02*
D03*
Y443628D02*
D03*
X1012236Y429628D02*
D03*
Y443628D02*
D03*
X810260Y602630D02*
D03*
Y588630D02*
D03*
X769620Y563260D02*
D03*
Y549260D02*
D03*
X731520Y615330D02*
D03*
Y601330D02*
D03*
X792480Y570200D02*
D03*
Y584200D02*
D03*
X782320Y490190D02*
D03*
Y504190D02*
D03*
X749300Y550505D02*
D03*
Y564505D02*
D03*
X739940Y509120D02*
D03*
Y523120D02*
D03*
X812800Y626110D02*
D03*
Y640110D02*
D03*
X760730Y421020D02*
D03*
Y407020D02*
D03*
X825500Y810880D02*
D03*
Y824880D02*
D03*
X927100Y809290D02*
D03*
Y795290D02*
D03*
X1140460Y619110D02*
D03*
Y633110D02*
D03*
D18*
X823660Y774215D02*
D03*
X837660D02*
D03*
X842010Y891540D02*
D03*
X828010D02*
D03*
X842660Y939800D02*
D03*
X828660D02*
D03*
X1000140Y524510D02*
D03*
X986140D02*
D03*
X979820Y447040D02*
D03*
X965820D02*
D03*
X979820Y408940D02*
D03*
X965820D02*
D03*
X941070Y505460D02*
D03*
X955070D02*
D03*
X908520Y427190D02*
D03*
X922520D02*
D03*
X979820Y485140D02*
D03*
X965820D02*
D03*
X908820Y390360D02*
D03*
X922820D02*
D03*
X910090Y465290D02*
D03*
X924090D02*
D03*
X733410Y633730D02*
D03*
X747410D02*
D03*
X1159157Y597825D02*
D03*
X1173157D02*
D03*
X812770Y843280D02*
D03*
X826770D02*
D03*
D19*
X1117700Y883220D02*
D03*
X1067700D02*
D03*
D20*
X1304290Y868350D02*
D03*
Y818350D02*
D03*
Y768350D02*
D03*
Y718350D02*
D03*
X1304860Y586840D02*
D03*
Y536840D02*
D03*
Y486840D02*
D03*
Y436840D02*
D03*
X604520Y707390D02*
D03*
Y757390D02*
D03*
Y807390D02*
D03*
Y857390D02*
D03*
Y424980D02*
D03*
Y474980D02*
D03*
Y524980D02*
D03*
Y574980D02*
D03*
D21*
X792950Y600210D02*
D03*
Y615210D02*
D03*
X749300Y580515D02*
D03*
Y595515D02*
D03*
X782320Y520200D02*
D03*
Y535200D02*
D03*
X735330Y435610D02*
D03*
Y450610D02*
D03*
X739470Y493110D02*
D03*
Y478110D02*
D03*
X1099350Y413870D02*
D03*
Y398870D02*
D03*
X1071457Y412998D02*
D03*
Y397998D02*
D03*
X1040976Y412998D02*
D03*
Y397998D02*
D03*
X1011767Y412998D02*
D03*
Y397998D02*
D03*
D22*
X1240577Y666685D02*
D03*
X1161077D02*
D03*
X1240577Y620685D02*
D03*
X1161077D02*
D03*
X713360Y652640D02*
D03*
X792860D02*
D03*
X713360Y698640D02*
D03*
X792860D02*
D03*
D23*
X1090022Y585469D02*
D03*
X1117599Y557892D02*
D03*
X1081042Y576489D02*
D03*
X1108619Y548912D02*
D03*
X1072061Y567509D02*
D03*
X1099639Y539931D02*
D03*
X1063081Y558528D02*
D03*
X1090658Y530951D02*
D03*
X1054101Y549548D02*
D03*
X1081678Y521971D02*
D03*
D24*
X1159827Y744855D02*
D03*
Y712355D02*
D03*
X726440Y792480D02*
D03*
Y824980D02*
D03*
X704850Y722630D02*
D03*
Y755130D02*
D03*
X1139190Y805180D02*
D03*
Y772680D02*
D03*
D25*
X982980Y861045D02*
D03*
X985520Y773445D02*
D03*
D26*
X982980Y837550D02*
D03*
X985520Y796940D02*
D03*
D27*
X848490Y636400D02*
D03*
X858390Y646300D02*
D03*
D28*
X961130Y541281D02*
D03*
X951230Y551180D02*
D03*
X1041614Y740999D02*
D03*
X1051514Y731100D02*
D03*
X1072168Y710445D02*
D03*
X1062269Y720344D02*
D03*
D29*
X938515Y773445D02*
X985520D01*
X934720Y777240D02*
X938515Y773445D01*
X910590Y777240D02*
X934720D01*
X927130Y808990D02*
X943610D01*
X873540Y843890D02*
X908710D01*
X943610Y808990D01*
X949960D01*
X873540Y824890D02*
X880720D01*
X887730Y817880D01*
Y811530D02*
Y817880D01*
Y811530D02*
X889970Y809290D01*
X927100D01*
X949960Y834390D02*
X983600Y800750D01*
X971550Y877570D02*
X982980Y866140D01*
X971550Y877570D02*
Y899160D01*
X982980Y861045D02*
Y866140D01*
X949960Y834390D02*
X979820D01*
X982980Y837550D01*
X971550Y899160D02*
Y902060D01*
D30*
X647700Y867410D02*
X939800D01*
X629451Y885659D02*
X647700Y867410D01*
X939800D02*
X971550Y899160D01*
X1277620Y868680D02*
X1342390D01*
X1117600Y874330D02*
Y939800D01*
X1102360Y955040D02*
X1117600Y939800D01*
X951230Y955040D02*
X1102360D01*
X920750Y924560D02*
X951230Y955040D01*
X1304860Y586840D02*
X1306230Y585470D01*
X1356360D01*
X1383030Y612140D01*
Y828040D01*
X1342390Y868680D02*
X1383030Y828040D01*
X1252220Y843280D02*
X1277620Y868680D01*
X529590Y452120D02*
Y746760D01*
Y452120D02*
X556730Y424980D01*
X530860Y745490D02*
X568960Y707390D01*
X529590Y746760D02*
X530860Y745490D01*
Y828040D02*
X588479Y885659D01*
X530860Y745490D02*
Y828040D01*
X588479Y885659D02*
X629451D01*
X568960Y707390D02*
X604520D01*
X556730Y424980D02*
X604520D01*
X920750Y902060D02*
Y924560D01*
X971550Y899160D02*
X1027430Y843280D01*
X1252220D01*
D31*
X842660Y939800D02*
X859790D01*
X1099866Y445868D02*
Y453220D01*
X950835Y551575D02*
X965336Y566076D01*
X1072166Y444151D02*
Y453263D01*
X896620Y527050D02*
X899160Y529590D01*
X1046868Y726454D02*
X1067925Y747512D01*
X835660Y516890D02*
Y529590D01*
X867410Y495300D02*
Y529590D01*
X1055555Y714508D02*
X1075110Y734062D01*
X1072109Y636248D02*
X1072294D01*
X749300Y539344D02*
Y550505D01*
X1270000Y535940D02*
X1305560D01*
X1048001Y669954D02*
X1061503Y683456D01*
X1229360Y767080D02*
X1308100D01*
X1041926Y457751D02*
Y467886D01*
X1019810Y698331D02*
X1033219Y711740D01*
X1071880Y458470D02*
Y462328D01*
X1192958Y583406D01*
X650240Y792480D02*
X726440D01*
X899850Y451430D02*
X902623D01*
X895538Y455742D02*
X899850Y451430D01*
X885190Y455742D02*
X895538D01*
X1006671Y710369D02*
Y719521D01*
Y710369D02*
X1008380Y708660D01*
X1006671Y719521D02*
X1009650Y722500D01*
X999661Y727680D02*
X1008470Y736488D01*
X999661Y720090D02*
Y727680D01*
X1009650Y723527D02*
X1015541Y729417D01*
X1009650Y722500D02*
Y723527D01*
X1149350Y579120D02*
X1160780D01*
X1173157Y591497D01*
Y597825D01*
X704850Y722630D02*
X718820D01*
X707093Y711046D02*
X712927D01*
X648970Y497840D02*
Y652923D01*
X707093Y711046D01*
X721360Y740410D02*
Y756920D01*
X712470Y765810D02*
X721360Y756920D01*
X660400Y765810D02*
X712470D01*
X651980Y757390D02*
X660400Y765810D01*
X604520Y757390D02*
X651980D01*
X635330Y807390D02*
X650240Y792480D01*
X726440D02*
X735330D01*
X768136Y759674D02*
X935080D01*
X735330Y792480D02*
X768136Y759674D01*
X1225550Y814070D02*
X1247140D01*
X1251420Y818350D01*
X1012236Y458540D02*
Y466137D01*
X1028700Y482600D01*
X1041926Y467886D02*
X1052616Y478576D01*
X1251420Y818350D02*
X1304290D01*
X842010Y891540D02*
X859790D01*
X859790Y939800D02*
X859790Y939800D01*
X800585Y774215D02*
X823660D01*
X775970Y798830D02*
X800585Y774215D01*
X763270Y798830D02*
X775970D01*
X935080Y759674D02*
X958265Y736489D01*
X755650Y739140D02*
X922250D01*
X924790Y741680D01*
X604520Y807390D02*
X635330D01*
X999661Y720090D02*
X1000704D01*
X1035050Y684702D02*
Y692207D01*
X1043825Y700982D01*
X1019810Y698331D02*
Y698500D01*
X1274650Y486840D02*
X1304860D01*
X1253490Y508000D02*
X1274650Y486840D01*
X1305560Y535940D02*
X1310005Y531495D01*
X1229360Y735330D02*
X1253490Y711200D01*
Y508000D02*
Y711200D01*
X604520Y757390D02*
X605320Y758190D01*
X924790Y741680D02*
X944123Y722346D01*
X718820Y722630D02*
X751840Y755650D01*
X615950Y474980D02*
X626110D01*
X648970Y497840D01*
X712927Y711046D02*
X753507Y751626D01*
X921915D01*
X947659Y725882D01*
X615950Y527050D02*
X626110D01*
X643890Y544830D01*
Y678180D01*
X751840Y755650D02*
X932033D01*
X954730Y732953D01*
X1151890Y805180D02*
X1158240Y798830D01*
X1139190Y805180D02*
X1151890D01*
X1158240Y798830D02*
X1197610D01*
X1229360Y767080D01*
X852870Y774215D02*
X853670Y775015D01*
X1079180Y665778D02*
X1090312Y676910D01*
X1108710D01*
X1075645Y669313D02*
X1093401Y687070D01*
X1094740D01*
X1176973Y735330D02*
X1229360D01*
X1159193Y744220D02*
X1159827Y744855D01*
X1144270Y744220D02*
X1159193D01*
X1167448Y744855D02*
X1176973Y735330D01*
X1159827Y744855D02*
X1167448D01*
X1089001Y805180D02*
X1139190D01*
X1083707Y810474D02*
X1089001Y805180D01*
X1034475Y810474D02*
X1083707D01*
X1011109Y787108D02*
X1034475Y810474D01*
X1082040Y806450D02*
X1144270Y744220D01*
X1036142Y806450D02*
X1082040D01*
X1015133Y785441D02*
X1036142Y806450D01*
X1015133Y764365D02*
Y785441D01*
X792860Y640460D02*
Y652640D01*
X784860Y632460D02*
X792860Y640460D01*
X748030Y632460D02*
X784860D01*
X731520Y562610D02*
Y601330D01*
Y562610D02*
X743625Y550505D01*
X812800Y640110D02*
Y645160D01*
X805180Y652780D02*
X812800Y645160D01*
X793000Y652780D02*
X805180D01*
X792860Y652640D02*
X793000Y652780D01*
X1099397Y415140D02*
Y431398D01*
X1070610Y604881D02*
X1071305Y605576D01*
X1098947D01*
X1112481Y619110D01*
X1140460D01*
X1052616Y478576D02*
X1082437D01*
X1184910Y586740D02*
Y619198D01*
X1162130Y641978D02*
X1184910Y619198D01*
X1129658Y641978D02*
X1162130D01*
X1188934Y585073D02*
Y620864D01*
X1163796Y646002D02*
X1188934Y620864D01*
X1127991Y646002D02*
X1163796D01*
X1192958Y583406D02*
Y622531D01*
X1165463Y650026D02*
X1192958Y622531D01*
X1126324Y650026D02*
X1165463D01*
X1196982Y581740D02*
Y624198D01*
X1167130Y654050D02*
X1196982Y624198D01*
X1124658Y654050D02*
X1167130D01*
X1159157Y618765D02*
X1161077Y620685D01*
X1150275Y621955D02*
X1159807D01*
X1161077Y620685D01*
X1140460Y619110D02*
X1147430D01*
X1150275Y621955D01*
X734860Y435140D02*
X735330Y435610D01*
X734860Y420870D02*
Y435140D01*
X782320Y490190D02*
X782320Y490190D01*
X749300Y550505D02*
X749300Y550505D01*
X970280Y505460D02*
X971080Y506260D01*
X908820Y390360D02*
X908820Y390360D01*
X897359Y427190D02*
X897359Y427190D01*
X937730D02*
X938530Y427990D01*
X938830Y390360D02*
X938830Y390360D01*
X749300Y564505D02*
Y579335D01*
Y561965D02*
Y564505D01*
X792480Y584200D02*
Y599740D01*
Y582930D02*
Y584200D01*
X782320Y504190D02*
Y518780D01*
Y500380D02*
Y504190D01*
X792480Y599740D02*
X792950Y600210D01*
X782320Y518780D02*
X782320Y518780D01*
X749300Y579335D02*
X749300Y579335D01*
X939630Y465290D02*
X940100Y464820D01*
X1012236Y443628D02*
Y452120D01*
X1041447Y443628D02*
Y452120D01*
X1099397Y445398D02*
X1099866Y445868D01*
X1011767Y412998D02*
X1012236Y413468D01*
Y429628D01*
X1040976Y412998D02*
X1041447Y413468D01*
Y429628D01*
X1071457Y412998D02*
X1071926Y413468D01*
Y429008D01*
X1098596Y432198D02*
X1099397Y431398D01*
X897359Y427190D02*
X908520D01*
X955070Y505460D02*
X970280D01*
X922520Y427190D02*
X937730D01*
X922820Y390360D02*
X938830D01*
X924090Y465290D02*
X939630D01*
X922820D02*
X924090D01*
X739470Y493110D02*
Y508650D01*
X739940Y509120D01*
X1046868Y718318D02*
Y726454D01*
X1036754Y708204D02*
X1046868Y718318D01*
X812000Y890740D02*
X812800Y891540D01*
X991784Y726171D02*
Y726874D01*
X975540Y733355D02*
X979212D01*
X1043825Y700982D02*
Y701133D01*
X1065422Y656125D02*
X1068117Y653431D01*
X1069607D01*
X972407Y559518D02*
X983702Y570813D01*
X972407Y559005D02*
Y559518D01*
X892340Y390360D02*
X893468D01*
X883920Y398780D02*
X892340Y390360D01*
X883920Y398780D02*
Y402590D01*
X885190Y439420D02*
Y455742D01*
X877440Y431670D02*
X885190Y439420D01*
X867410Y491490D02*
Y495300D01*
X842010Y466090D02*
X867410Y491490D01*
X842010Y448630D02*
Y466090D01*
X841550Y448170D02*
X842010Y448630D01*
Y483870D02*
Y495300D01*
X829550Y471410D02*
X842010Y483870D01*
X829550Y448170D02*
Y471410D01*
X892810Y495300D02*
Y506730D01*
X853550Y463660D02*
X864870Y474980D01*
X853550Y448170D02*
Y463660D01*
X792480Y485140D02*
X817550Y460070D01*
Y448170D02*
Y460070D01*
X793550Y448170D02*
Y463608D01*
X749300Y530860D02*
X753110Y527050D01*
Y519430D02*
Y527050D01*
X743625Y550505D02*
X749300D01*
X769620Y502890D02*
Y549260D01*
Y502890D02*
X782320Y490190D01*
X941070Y505460D02*
Y515620D01*
X949960Y524510D01*
X986140D01*
X923290Y485140D02*
X965820D01*
X910090Y471940D02*
X923290Y485140D01*
X910090Y465290D02*
Y471940D01*
X908520Y427190D02*
Y434810D01*
X920750Y447040D01*
X965820D01*
X908820Y390360D02*
Y399550D01*
X918210Y408940D01*
X965820D01*
X754380Y394970D02*
X768480D01*
X769180Y395670D02*
X781050D01*
X768480Y394970D02*
X769180Y395670D01*
X764540Y383540D02*
X780920D01*
X781050Y383670D01*
X1050128Y714508D02*
X1055555D01*
X1040290Y704669D02*
X1050128Y714508D01*
X1067925Y747512D02*
Y768569D01*
X1075110Y734062D02*
X1102432D01*
X997863Y747095D02*
X1015133Y764365D01*
X994328Y750631D02*
X1011109Y767412D01*
Y787108D01*
X897207Y656125D02*
X900186D01*
X887554Y665778D02*
X897207Y656125D01*
X965336Y743560D02*
X975540Y733355D01*
X894331Y672849D02*
X894626D01*
X933450Y528320D02*
Y583687D01*
X916940Y511810D02*
Y581319D01*
X896620Y510540D02*
Y527050D01*
X892810Y506730D02*
X896620Y510540D01*
X842010Y495300D02*
Y510540D01*
X835660Y516890D02*
X842010Y510540D01*
X910590Y591820D02*
X920370D01*
X863600Y599440D02*
Y605761D01*
X885190Y609600D02*
Y620280D01*
X770890Y476250D02*
X778652Y468488D01*
X788670D01*
X793550Y463608D01*
X782320Y474838D02*
X788670Y468488D01*
X892810Y435610D02*
Y441960D01*
X889470Y432270D02*
X892810Y435610D01*
X878840Y407670D02*
X880110Y406400D01*
X883920Y402590D01*
X880110Y406400D02*
X882650Y408940D01*
X890270D01*
X805616Y554848D02*
X891090Y640322D01*
X885190Y620280D02*
X898161Y633251D01*
X933450Y583687D02*
X940587Y590825D01*
X916940Y581319D02*
X933516Y597896D01*
X920370Y591820D02*
X929981Y601431D01*
X991784Y726874D02*
X1004934Y740024D01*
X1069607Y653431D02*
X1079180Y643858D01*
X863600Y605761D02*
X894626Y636786D01*
X1052650Y568960D02*
X1063081Y558528D01*
X1032510Y568960D02*
X1052650D01*
X1013460Y549910D02*
X1032510Y568960D01*
X1003422Y549910D02*
X1013460D01*
X994328Y559005D02*
X1003422Y549910D01*
X1042309Y561340D02*
X1054101Y549548D01*
X1031240Y561340D02*
X1042309D01*
X1007110Y537210D02*
X1031240Y561340D01*
X972820Y537210D02*
X1007110D01*
X965200Y529590D02*
X972820Y537210D01*
X953770Y529590D02*
X965200D01*
X938530Y544830D02*
X953770Y529590D01*
X938530Y544830D02*
Y560070D01*
X941070Y562610D01*
X954799D01*
X961801Y569611D01*
X1051560Y588010D02*
X1072061Y567509D01*
X1051560Y588010D02*
Y593696D01*
X1040290Y604967D02*
X1051560Y593696D01*
X1065711Y591820D02*
X1081042Y576489D01*
X1036320Y580390D02*
X1042670D01*
X1010920Y554990D02*
X1036320Y580390D01*
X1005414Y554990D02*
X1010920D01*
X997863Y562540D02*
X1005414Y554990D01*
X1070610Y604881D02*
X1090022Y585469D01*
X1159157Y597825D02*
Y618765D01*
X805550Y448170D02*
Y459370D01*
X801370Y463550D02*
X805550Y459370D01*
X748030Y614680D02*
Y632460D01*
X882834Y677569D02*
X891090Y669313D01*
X880769Y677569D02*
X882834D01*
X866140Y662940D02*
X880769Y677569D01*
X866140Y654050D02*
Y662940D01*
X858390Y646300D02*
X866140Y654050D01*
X863510Y690790D02*
X876390D01*
X894331Y672849D01*
X881470Y693075D02*
Y708750D01*
Y693075D02*
X898161Y676385D01*
X792480Y570200D02*
X793780Y571500D01*
X805180D01*
X810260Y576580D01*
Y588630D01*
X866050Y431670D02*
X877440D01*
X866050Y419670D02*
X881950D01*
X866050Y407670D02*
X878840D01*
X1028700Y482600D02*
X1080770D01*
X1184910Y586740D01*
X1097280Y609600D02*
X1129658Y641978D01*
X1078083Y609600D02*
X1097280D01*
X1061503Y626180D02*
X1078083Y609600D01*
X1082437Y478576D02*
X1188934Y585073D01*
X1095613Y613624D02*
X1127991Y646002D01*
X1081130Y613624D02*
X1095613D01*
X1065038Y629715D02*
X1081130Y613624D01*
X1093947Y617648D02*
X1126324Y650026D01*
X1092280Y621672D02*
X1124658Y654050D01*
X1072109Y636248D02*
Y636786D01*
X1086870Y621672D02*
X1092280D01*
X1072294Y636248D02*
X1086870Y621672D01*
X1068574Y633251D02*
X1084177Y617648D01*
X1093947D01*
X930621Y505460D02*
X941070D01*
X930621Y505460D02*
X930621Y505460D01*
X864870Y474980D02*
X894799D01*
X925279Y505460D01*
Y582587D01*
X937052Y594360D01*
X885190Y455742D02*
X892722Y463274D01*
X898929Y465290D02*
X898929Y465290D01*
X910090D01*
X749300Y530860D02*
Y534119D01*
X782320Y480299D02*
Y490190D01*
X792480Y554848D02*
X805616D01*
X792480Y485140D02*
Y554848D01*
Y560098D02*
Y570200D01*
X792480Y570200D02*
X792480Y570200D01*
X898929Y390360D02*
X908820D01*
X881950Y419670D02*
X889470Y427190D01*
Y432270D01*
Y427190D02*
X892109D01*
X643890Y678180D02*
X688340Y722630D01*
X704850D01*
X1099820Y484578D02*
X1196982Y581740D01*
X1099820Y459740D02*
Y484578D01*
D32*
X944880Y834390D02*
X949960D01*
X674370Y607060D02*
Y621030D01*
Y607060D02*
X736600Y544830D01*
X763270Y824230D02*
X763920Y824880D01*
X825500D01*
X1026160Y500380D02*
X1038166Y488374D01*
X1078378D01*
X1092200Y502196D01*
Y511449D01*
X1081678Y521971D02*
X1092200Y511449D01*
X825510Y824890D02*
X846040D01*
D33*
X826770Y843890D02*
X846040D01*
X674370Y621030D02*
X698500D01*
X711200Y633730D01*
X897890Y554990D02*
Y571500D01*
X885190Y584200D02*
X897890Y571500D01*
X885190Y584200D02*
Y594360D01*
X946150Y613410D02*
X957580Y601980D01*
Y593675D02*
Y601980D01*
X947659Y583754D02*
X957580Y593675D01*
X961390Y610870D02*
X963862Y608398D01*
Y592886D02*
Y608398D01*
X901697Y679920D02*
X916940Y664677D01*
X951194Y580218D02*
X963862Y592886D01*
X711200Y633730D02*
X733410D01*
X812650Y939000D02*
X813450Y939800D01*
X828660D01*
X837660Y774215D02*
X852870D01*
X812800Y891540D02*
X828010D01*
X760730Y438150D02*
X767210Y431670D01*
X781050D01*
X760730Y438150D02*
Y453390D01*
X739470Y474650D02*
X760730Y453390D01*
X739470Y474650D02*
Y478110D01*
D34*
X741210Y406870D02*
X760580D01*
X760730Y407020D01*
X780400D01*
X781050Y407670D01*
X736600Y532130D02*
Y544830D01*
Y532130D02*
X739940Y528790D01*
Y523120D02*
Y528790D01*
X732790Y393700D02*
X735330Y396240D01*
Y406400D01*
X734860Y406870D02*
X735330Y406400D01*
D35*
X949960Y808990D02*
D03*
Y834390D02*
D03*
X834390Y529590D02*
D03*
Y554990D02*
D03*
X866140Y529590D02*
D03*
Y554990D02*
D03*
X763270Y798830D02*
D03*
Y824230D02*
D03*
X897890Y529590D02*
D03*
Y554990D02*
D03*
X674370Y646430D02*
D03*
Y621030D02*
D03*
D36*
X1067925Y768569D02*
D03*
X1102432Y734062D02*
D03*
D37*
X971550Y902060D02*
D03*
X946150D02*
D03*
X920750D02*
D03*
D38*
X1155700Y934720D02*
D03*
X1029700D02*
D03*
D39*
X842010Y495300D02*
D03*
X816610D02*
D03*
X867410D02*
D03*
X892810D02*
D03*
X863510Y690790D02*
D03*
X845549Y672829D02*
D03*
X881470Y708750D02*
D03*
X899431Y726711D02*
D03*
D40*
X1355790Y906350D02*
D03*
Y680350D02*
D03*
X1356360Y624840D02*
D03*
Y398840D02*
D03*
X553020Y669390D02*
D03*
Y895390D02*
D03*
Y386980D02*
D03*
Y612980D02*
D03*
D41*
X925830Y847090D02*
D03*
X908050Y825500D02*
D03*
X746760Y422910D02*
D03*
X998220Y588010D02*
D03*
X985520Y549910D02*
D03*
X1202690Y670560D02*
D03*
X1217930Y661670D02*
D03*
X1236980Y703580D02*
D03*
X1127760Y628650D02*
D03*
X1139190Y607060D02*
D03*
X969010Y391160D02*
D03*
X676910Y754380D02*
D03*
X690880Y746760D02*
D03*
X680720Y566420D02*
D03*
X628650Y552450D02*
D03*
X698500Y549910D02*
D03*
X902623Y451430D02*
D03*
X822960Y659130D02*
D03*
X802640Y528320D02*
D03*
X1098550Y595630D02*
D03*
X1108710Y586740D02*
D03*
X1137920Y561340D02*
D03*
X1008380Y708660D02*
D03*
X707390Y836930D02*
D03*
X726440Y849630D02*
D03*
X848360Y855980D02*
D03*
X901700Y796290D02*
D03*
X943610Y853440D02*
D03*
X848360Y797560D02*
D03*
Y811530D02*
D03*
X1003300Y843280D02*
D03*
X1010920Y831850D02*
D03*
X1022350Y822960D02*
D03*
X885190Y775970D02*
D03*
X904240Y411480D02*
D03*
X1149350Y579120D02*
D03*
X885190Y594360D02*
D03*
X946150Y613410D02*
D03*
X961390Y610870D02*
D03*
X916940Y664677D02*
D03*
X932180Y648970D02*
D03*
X935990Y688340D02*
D03*
X943610Y695960D02*
D03*
X1033780Y632460D02*
D03*
X1021080Y643890D02*
D03*
X1008380Y657860D02*
D03*
X952500Y704850D02*
D03*
X967740Y693420D02*
D03*
X982980Y681990D02*
D03*
X991870Y666750D02*
D03*
X775970Y619760D02*
D03*
X1221740Y713740D02*
D03*
X1203960Y775970D02*
D03*
X1122680Y792480D02*
D03*
X1112520Y760730D02*
D03*
X1127760Y741680D02*
D03*
X902970Y924560D02*
D03*
X915670Y951230D02*
D03*
X617220Y872490D02*
D03*
X829310Y720090D02*
D03*
X814070D02*
D03*
X782320Y558800D02*
D03*
X826770Y604520D02*
D03*
X763270Y598170D02*
D03*
X709930Y533400D02*
D03*
X706120Y440690D02*
D03*
X882650Y386080D02*
D03*
X975360Y464820D02*
D03*
X974090Y427990D02*
D03*
X1085850Y458470D02*
D03*
X1116330Y467360D02*
D03*
X1027430Y459740D02*
D03*
X1056640D02*
D03*
X995680Y482600D02*
D03*
X1003300Y502920D02*
D03*
X1017270Y527050D02*
D03*
X600710Y590550D02*
D03*
X619760Y591820D02*
D03*
X609600Y840740D02*
D03*
X635000Y842010D02*
D03*
X975360Y610870D02*
D03*
X1083310Y694690D02*
D03*
X1085850Y709930D02*
D03*
X1035050Y754380D02*
D03*
X1022350D02*
D03*
X1290320Y457200D02*
D03*
X1275080Y453390D02*
D03*
X1291590Y737870D02*
D03*
X1267460Y736600D02*
D03*
X1084580Y858520D02*
D03*
X1052830Y855980D02*
D03*
X1041400Y863600D02*
D03*
X1033780Y872490D02*
D03*
X1093470Y864870D02*
D03*
X721360Y740410D02*
D03*
X1225550Y814070D02*
D03*
X857250Y939800D02*
D03*
X859790Y891540D02*
D03*
X755650Y739140D02*
D03*
X999661Y720090D02*
D03*
X1035050Y684702D02*
D03*
X1019810Y698500D02*
D03*
X1026160Y500380D02*
D03*
X1270000Y535940D02*
D03*
X910590Y777240D02*
D03*
X1108710Y676910D02*
D03*
X1094740Y687070D02*
D03*
X900186Y656125D02*
D03*
X979212Y733355D02*
D03*
X991784Y726171D02*
D03*
X1065422Y656125D02*
D03*
X983702Y570813D02*
D03*
X1047462Y670493D02*
D03*
X753110Y519430D02*
D03*
X736600Y544830D02*
D03*
X732790Y393700D02*
D03*
X754380Y394970D02*
D03*
X764540Y383540D02*
D03*
X933450Y528320D02*
D03*
X916940Y511810D02*
D03*
X910590Y591820D02*
D03*
X885190Y609600D02*
D03*
X863600Y599440D02*
D03*
X770890Y476250D02*
D03*
X892810Y441960D02*
D03*
X890270Y408940D02*
D03*
X1065711Y591820D02*
D03*
X1042670Y580390D02*
D03*
X1070610Y604881D02*
D03*
X801370Y463550D02*
D03*
X748030Y614680D02*
D03*
M02*
