G04 Layer_Color=65535*
%FSLAX44Y44*%
%MOMM*%
G71*
G01*
G75*
%ADD43C,0.1000*%
%ADD44C,0.2000*%
%ADD45C,0.2540*%
D43*
X935990Y795020D02*
X963930D01*
X935990D02*
Y848360D01*
X963930D01*
Y795020D02*
Y848360D01*
X792455Y912965D02*
X793205Y912215D01*
Y909902D02*
Y912215D01*
X792643Y909340D02*
X793205Y909902D01*
X791830Y909340D02*
X792643D01*
X791830D02*
X792393Y909902D01*
X793205D01*
X791455Y911653D02*
X793205Y909902D01*
X791455Y911653D02*
Y911965D01*
X791611Y911809D01*
X793205D01*
X791830Y910434D02*
X793205Y911809D01*
X791830Y909340D02*
Y910434D01*
X791455Y909715D02*
X791830Y909340D01*
X791455Y909715D02*
Y911965D01*
X793205Y910215D01*
Y907965D02*
Y910215D01*
X790455Y910715D02*
X793205Y907965D01*
X790455Y910715D02*
Y910965D01*
X793205Y913715D01*
Y909902D02*
Y913715D01*
Y907965D02*
Y909902D01*
X820420Y515620D02*
X848360D01*
X820420D02*
Y568960D01*
X848360D01*
Y515620D02*
Y568960D01*
X852170Y515620D02*
X880110D01*
X852170D02*
Y568960D01*
X880110D01*
Y515620D02*
Y568960D01*
X643785Y468275D02*
X644535Y467525D01*
X643785Y468275D02*
Y470588D01*
X644348Y471150D01*
X645160D01*
X644597Y470588D02*
X645160Y471150D01*
X643785Y470588D02*
X644597D01*
X643785D02*
X645535Y468838D01*
Y468525D02*
Y468838D01*
X645379Y468681D02*
X645535Y468525D01*
X643785Y468681D02*
X645379D01*
X643785D02*
X645160Y470056D01*
Y471150D01*
X645535Y470775D01*
Y468525D02*
Y470775D01*
X643785Y470275D02*
X645535Y468525D01*
X643785Y470275D02*
Y472525D01*
X646535Y469775D01*
Y469525D02*
Y469775D01*
X643785Y466775D02*
X646535Y469525D01*
X643785Y466775D02*
Y470588D01*
Y472525D01*
X589265Y468745D02*
X590015Y467995D01*
X589265Y468745D02*
Y471058D01*
X589827Y471620D01*
X590640D01*
X590078Y471058D02*
X590640Y471620D01*
X589265Y471058D02*
X590078D01*
X589265D02*
X591015Y469308D01*
Y468995D02*
Y469308D01*
X590859Y469151D02*
X591015Y468995D01*
X589265Y469151D02*
X590859D01*
X589265D02*
X590640Y470526D01*
Y471620D01*
X591015Y471245D01*
Y468995D02*
Y471245D01*
X589265Y470745D02*
X591015Y468995D01*
X589265Y470745D02*
Y472995D01*
X592015Y470245D01*
Y469995D02*
Y470245D01*
X589265Y467245D02*
X592015Y469995D01*
X589265Y467245D02*
Y471058D01*
Y472995D01*
X946195Y463665D02*
X946945Y462915D01*
X946195Y463665D02*
Y465978D01*
X946758Y466540D01*
X947570D01*
X947008Y465978D02*
X947570Y466540D01*
X946195Y465978D02*
X947008D01*
X946195D02*
X947945Y464227D01*
Y463915D02*
Y464227D01*
X947789Y464071D02*
X947945Y463915D01*
X946195Y464071D02*
X947789D01*
X946195D02*
X947570Y465446D01*
Y466540D01*
X947945Y466165D01*
Y463915D02*
Y466165D01*
X946195Y465665D02*
X947945Y463915D01*
X946195Y465665D02*
Y467915D01*
X948945Y465165D01*
Y464915D02*
Y465165D01*
X946195Y462165D02*
X948945Y464915D01*
X946195Y462165D02*
Y465978D01*
Y467915D01*
X977175Y505105D02*
X977925Y504355D01*
X977175Y505105D02*
Y507417D01*
X977738Y507980D01*
X978550D01*
X977988Y507417D02*
X978550Y507980D01*
X977175Y507417D02*
X977988D01*
X977175D02*
X978925Y505667D01*
Y505355D02*
Y505667D01*
X978769Y505511D02*
X978925Y505355D01*
X977175Y505511D02*
X978769D01*
X977175D02*
X978550Y506886D01*
Y507980D01*
X978925Y507605D01*
Y505355D02*
Y507605D01*
X977175Y507105D02*
X978925Y505355D01*
X977175Y507105D02*
Y509355D01*
X979925Y506605D01*
Y506355D02*
Y506605D01*
X977175Y503605D02*
X979925Y506355D01*
X977175Y503605D02*
Y507417D01*
Y509355D01*
X944625Y426835D02*
X945375Y426085D01*
X944625Y426835D02*
Y429147D01*
X945188Y429710D01*
X946000D01*
X945437Y429147D02*
X946000Y429710D01*
X944625Y429147D02*
X945437D01*
X944625D02*
X946375Y427397D01*
Y427085D02*
Y427397D01*
X946219Y427241D02*
X946375Y427085D01*
X944625Y427241D02*
X946219D01*
X944625D02*
X946000Y428616D01*
Y429710D01*
X946375Y429335D01*
Y427085D02*
Y429335D01*
X944625Y428835D02*
X946375Y427085D01*
X944625Y428835D02*
Y431085D01*
X947375Y428335D01*
Y428085D02*
Y428335D01*
X944625Y425335D02*
X947375Y428085D01*
X944625Y425335D02*
Y429147D01*
Y431085D01*
X944925Y389205D02*
X945675Y388455D01*
X944925Y389205D02*
Y391517D01*
X945488Y392080D01*
X946300D01*
X945738Y391517D02*
X946300Y392080D01*
X944925Y391517D02*
X945738D01*
X944925D02*
X946675Y389767D01*
Y389455D02*
Y389767D01*
X946519Y389611D02*
X946675Y389455D01*
X944925Y389611D02*
X946519D01*
X944925D02*
X946300Y390986D01*
Y392080D01*
X946675Y391705D01*
Y389455D02*
Y391705D01*
X944925Y391205D02*
X946675Y389455D01*
X944925Y391205D02*
Y393455D01*
X947675Y390705D01*
Y390455D02*
Y390705D01*
X944925Y387705D02*
X947675Y390455D01*
X944925Y387705D02*
Y391517D01*
Y393455D01*
X544335Y471805D02*
X545085Y471055D01*
Y468742D02*
Y471055D01*
X544523Y468180D02*
X545085Y468742D01*
X543710Y468180D02*
X544523D01*
X543710D02*
X544272Y468742D01*
X545085D01*
X543335Y470493D02*
X545085Y468742D01*
X543335Y470493D02*
Y470805D01*
X543491Y470649D01*
X545085D01*
X543710Y469274D02*
X545085Y470649D01*
X543710Y468180D02*
Y469274D01*
X543335Y468555D02*
X543710Y468180D01*
X543335Y468555D02*
Y470805D01*
X545085Y469055D01*
Y466805D02*
Y469055D01*
X542335Y469555D02*
X545085Y466805D01*
X542335Y469555D02*
Y469805D01*
X545085Y472555D01*
Y468742D02*
Y472555D01*
Y466805D02*
Y468742D01*
X664755Y828360D02*
X665505Y827610D01*
Y825297D02*
Y827610D01*
X664942Y824735D02*
X665505Y825297D01*
X664130Y824735D02*
X664942D01*
X664130D02*
X664693Y825297D01*
X665505D01*
X663755Y827048D02*
X665505Y825297D01*
X663755Y827048D02*
Y827360D01*
X663911Y827204D01*
X665505D01*
X664130Y825829D02*
X665505Y827204D01*
X664130Y824735D02*
Y825829D01*
X663755Y825110D02*
X664130Y824735D01*
X663755Y825110D02*
Y827360D01*
X665505Y825610D01*
Y823360D02*
Y825610D01*
X662755Y826110D02*
X665505Y823360D01*
X662755Y826110D02*
Y826360D01*
X665505Y829110D01*
Y825297D02*
Y829110D01*
Y823360D02*
Y825297D01*
X749300Y784860D02*
X777240D01*
X749300D02*
Y838200D01*
X777240D01*
Y784860D02*
Y838200D01*
X793105Y957415D02*
X793855Y956665D01*
Y954352D02*
Y956665D01*
X793292Y953790D02*
X793855Y954352D01*
X792480Y953790D02*
X793292D01*
X792480D02*
X793043Y954352D01*
X793855D01*
X792105Y956103D02*
X793855Y954352D01*
X792105Y956103D02*
Y956415D01*
X792261Y956259D01*
X793855D01*
X792480Y954884D02*
X793855Y956259D01*
X792480Y953790D02*
Y954884D01*
X792105Y954165D02*
X792480Y953790D01*
X792105Y954165D02*
Y956415D01*
X793855Y954665D01*
Y952415D02*
Y954665D01*
X791105Y955165D02*
X793855Y952415D01*
X791105Y955165D02*
Y955415D01*
X793855Y958165D01*
Y954352D02*
Y958165D01*
Y952415D02*
Y954352D01*
X883920Y515620D02*
X911860D01*
X883920D02*
Y568960D01*
X911860D01*
Y515620D02*
Y568960D01*
X530365Y391795D02*
X531115Y391045D01*
Y388732D02*
Y391045D01*
X530552Y388170D02*
X531115Y388732D01*
X529740Y388170D02*
X530552D01*
X529740D02*
X530303Y388732D01*
X531115D01*
X529365Y390482D02*
X531115Y388732D01*
X529365Y390482D02*
Y390795D01*
X529521Y390639D01*
X531115D01*
X529740Y389264D02*
X531115Y390639D01*
X529740Y388170D02*
Y389264D01*
X529365Y388545D02*
X529740Y388170D01*
X529365Y388545D02*
Y390795D01*
X531115Y389045D01*
Y386795D02*
Y389045D01*
X528365Y389545D02*
X531115Y386795D01*
X528365Y389545D02*
Y389795D01*
X531115Y392545D01*
Y388732D02*
Y392545D01*
Y386795D02*
Y388732D01*
X660400Y660400D02*
X688340D01*
Y607060D02*
Y660400D01*
X660400Y607060D02*
X688340D01*
X660400D02*
Y660400D01*
X526905Y432105D02*
X527655Y431355D01*
Y429043D02*
Y431355D01*
X527093Y428480D02*
X527655Y429043D01*
X526280Y428480D02*
X527093D01*
X526280D02*
X526842Y429043D01*
X527655D01*
X525905Y430793D02*
X527655Y429043D01*
X525905Y430793D02*
Y431105D01*
X526061Y430949D01*
X527655D01*
X526280Y429574D02*
X527655Y430949D01*
X526280Y428480D02*
Y429574D01*
X525905Y428855D02*
X526280Y428480D01*
X525905Y428855D02*
Y431105D01*
X527655Y429355D01*
Y427105D02*
Y429355D01*
X524905Y429855D02*
X527655Y427105D01*
X524905Y429855D02*
Y430105D01*
X527655Y432855D01*
Y429043D02*
Y432855D01*
Y427105D02*
Y429043D01*
X1097915Y405665D02*
X1098665Y406415D01*
X1100977D01*
X1101540Y405853D01*
Y405040D02*
Y405853D01*
X1100977Y405602D02*
X1101540Y405040D01*
X1100977Y405602D02*
Y406415D01*
X1099228Y404665D02*
X1100977Y406415D01*
X1098915Y404665D02*
X1099228D01*
X1098915D02*
X1099071Y404821D01*
Y406415D01*
X1100446Y405040D01*
X1101540D01*
X1101165Y404665D02*
X1101540Y405040D01*
X1098915Y404665D02*
X1101165D01*
X1098915D02*
X1100665Y406415D01*
X1102915D01*
X1100165Y403665D02*
X1102915Y406415D01*
X1099915Y403665D02*
X1100165D01*
X1097165Y406415D02*
X1099915Y403665D01*
X1097165Y406415D02*
X1100977D01*
X1102915D01*
X1069551Y406153D02*
X1070302Y406903D01*
X1072614D01*
X1073176Y406341D01*
Y405528D02*
Y406341D01*
X1072614Y406091D02*
X1073176Y405528D01*
X1072614Y406091D02*
Y406903D01*
X1070864Y405153D02*
X1072614Y406903D01*
X1070552Y405153D02*
X1070864D01*
X1070552D02*
X1070708Y405310D01*
Y406903D01*
X1072083Y405528D01*
X1073176D01*
X1072801Y405153D02*
X1073176Y405528D01*
X1070552Y405153D02*
X1072801D01*
X1070552D02*
X1072301Y406903D01*
X1074551D01*
X1071801Y404153D02*
X1074551Y406903D01*
X1071552Y404153D02*
X1071801D01*
X1068801Y406903D02*
X1071552Y404153D01*
X1068801Y406903D02*
X1072614D01*
X1074551D01*
X1039072Y406153D02*
X1039821Y406903D01*
X1042134D01*
X1042696Y406341D01*
Y405528D02*
Y406341D01*
X1042134Y406091D02*
X1042696Y405528D01*
X1042134Y406091D02*
Y406903D01*
X1040384Y405153D02*
X1042134Y406903D01*
X1040071Y405153D02*
X1040384D01*
X1040071D02*
X1040228Y405310D01*
Y406903D01*
X1041603Y405528D01*
X1042696D01*
X1042321Y405153D02*
X1042696Y405528D01*
X1040071Y405153D02*
X1042321D01*
X1040071D02*
X1041822Y406903D01*
X1044071D01*
X1041321Y404153D02*
X1044071Y406903D01*
X1041071Y404153D02*
X1041321D01*
X1038321Y406903D02*
X1041071Y404153D01*
X1038321Y406903D02*
X1042134D01*
X1044071D01*
X1009862Y406153D02*
X1010611Y406903D01*
X1012924D01*
X1013486Y406341D01*
Y405528D02*
Y406341D01*
X1012924Y406091D02*
X1013486Y405528D01*
X1012924Y406091D02*
Y406903D01*
X1011174Y405153D02*
X1012924Y406903D01*
X1010862Y405153D02*
X1011174D01*
X1010862D02*
X1011018Y405310D01*
Y406903D01*
X1012393Y405528D01*
X1013486D01*
X1013111Y405153D02*
X1013486Y405528D01*
X1010862Y405153D02*
X1013111D01*
X1010862D02*
X1012611Y406903D01*
X1014861D01*
X1012111Y404153D02*
X1014861Y406903D01*
X1011861Y404153D02*
X1012111D01*
X1009111Y406903D02*
X1011861Y404153D01*
X1009111Y406903D02*
X1012924D01*
X1014861D01*
D44*
X805830Y903090D02*
Y919090D01*
X777830D02*
X805830D01*
X777830Y903090D02*
Y919090D01*
Y903090D02*
X805830D01*
X631160Y461400D02*
Y477400D01*
Y461400D02*
X659160D01*
Y477400D01*
X631160D02*
X659160D01*
X576640Y461870D02*
Y477870D01*
Y461870D02*
X604640D01*
Y477870D01*
X576640D02*
X604640D01*
X933570Y456790D02*
Y472790D01*
Y456790D02*
X961570D01*
Y472790D01*
X933570D02*
X961570D01*
X964550Y498230D02*
Y514230D01*
Y498230D02*
X992550D01*
Y514230D01*
X964550D02*
X992550D01*
X932000Y419960D02*
Y435960D01*
Y419960D02*
X960000D01*
Y435960D01*
X932000D02*
X960000D01*
X932300Y382330D02*
Y398330D01*
Y382330D02*
X960300D01*
Y398330D01*
X932300D02*
X960300D01*
X557710Y461930D02*
Y477930D01*
X529710D02*
X557710D01*
X529710Y461930D02*
Y477930D01*
Y461930D02*
X557710D01*
X678130Y818485D02*
Y834485D01*
X650130D02*
X678130D01*
X650130Y818485D02*
Y834485D01*
Y818485D02*
X678130D01*
X806480Y947540D02*
Y963540D01*
X778480D02*
X806480D01*
X778480Y947540D02*
Y963540D01*
Y947540D02*
X806480D01*
X543740Y381920D02*
Y397920D01*
X515740D02*
X543740D01*
X515740Y381920D02*
Y397920D01*
Y381920D02*
X543740D01*
X540280Y422230D02*
Y438230D01*
X512280D02*
X540280D01*
X512280Y422230D02*
Y438230D01*
Y422230D02*
X540280D01*
X1091790Y419040D02*
X1107790D01*
X1091790Y391040D02*
Y419040D01*
Y391040D02*
X1107790D01*
Y419040D01*
X1063426Y419528D02*
X1079426D01*
X1063426Y391528D02*
Y419528D01*
Y391528D02*
X1079426D01*
Y419528D01*
X1032946D02*
X1048947D01*
X1032946Y391528D02*
Y419528D01*
Y391528D02*
X1048947D01*
Y419528D01*
X1003736Y419528D02*
X1019736D01*
X1003736Y391528D02*
Y419528D01*
Y391528D02*
X1019736D01*
Y419528D01*
X863337Y743669D02*
X868050Y738956D01*
X865694Y741312D01*
X858625Y734244D01*
X870406Y736600D02*
X868050Y724819D01*
X875118Y731888D02*
X863337Y729531D01*
X913130Y872327D02*
Y862330D01*
X919794D01*
X923127Y872327D02*
Y862330D01*
X928125D01*
X929791Y863996D01*
Y870661D01*
X928125Y872327D01*
X923127D01*
X938122D02*
X934790D01*
X933124Y870661D01*
Y863996D01*
X934790Y862330D01*
X938122D01*
X939788Y863996D01*
Y870661D01*
X938122Y872327D01*
X943120Y860664D02*
X949785D01*
X958115Y872327D02*
X954783D01*
X953117Y870661D01*
Y863996D01*
X954783Y862330D01*
X958115D01*
X959782Y863996D01*
Y870661D01*
X958115Y872327D01*
X963114Y862330D02*
Y872327D01*
X969778Y862330D01*
Y872327D01*
X933893Y572678D02*
Y575034D01*
X931537Y577391D01*
X929181D01*
X924468Y572678D01*
Y570322D01*
X926824Y567966D01*
X929181D01*
X930359Y564431D02*
X932715Y562075D01*
X931537Y563253D01*
X938606Y570322D01*
X936249D01*
X940962Y553828D02*
X936249Y558541D01*
X945675D01*
X946853Y559719D01*
X946853Y562075D01*
X944496Y564431D01*
X942140D01*
X856072Y626553D02*
X853716D01*
X851359Y624197D01*
Y621841D01*
X856072Y617128D01*
X858428D01*
X860784Y619484D01*
Y621841D01*
X864319Y623019D02*
X866675Y625375D01*
X865497Y624197D01*
X858428Y631266D01*
Y628909D01*
X864319Y634800D02*
Y637156D01*
X866675Y639513D01*
X869031Y639513D01*
X870209Y638335D01*
Y635978D01*
X869031Y634800D01*
X870209Y635978D01*
X872566Y635978D01*
X873744Y634800D01*
X873744Y632444D01*
X871388Y630088D01*
X869031D01*
X1124265Y652221D02*
X1122598Y653887D01*
X1119266D01*
X1117600Y652221D01*
Y645556D01*
X1119266Y643890D01*
X1122598D01*
X1124265Y645556D01*
X1127597Y643890D02*
X1130929D01*
X1129263D01*
Y653887D01*
X1127597Y652221D01*
X1140926Y643890D02*
Y653887D01*
X1135927Y648888D01*
X1142592D01*
X908609Y796605D02*
X906943Y794938D01*
Y791606D01*
X908609Y789940D01*
X915274D01*
X916940Y791606D01*
Y794938D01*
X915274Y796605D01*
X916940Y799937D02*
Y803269D01*
Y801603D01*
X906943D01*
X908609Y799937D01*
X906943Y814932D02*
X908609Y811600D01*
X911942Y808267D01*
X915274D01*
X916940Y809934D01*
Y813266D01*
X915274Y814932D01*
X913608D01*
X911942Y813266D01*
Y808267D01*
X790651Y793436D02*
X792317Y795102D01*
Y798434D01*
X790651Y800100D01*
X783986D01*
X782320Y798434D01*
Y795102D01*
X783986Y793436D01*
X782320Y790103D02*
Y786771D01*
Y788437D01*
X792317D01*
X790651Y790103D01*
X792317Y781773D02*
Y775108D01*
X790651D01*
X783986Y781773D01*
X782320D01*
X831291Y638495D02*
X832957Y640162D01*
Y643494D01*
X831291Y645160D01*
X824626D01*
X822960Y643494D01*
Y640162D01*
X824626Y638495D01*
X822960Y635163D02*
Y631831D01*
Y633497D01*
X832957D01*
X831291Y635163D01*
X824626Y626833D02*
X822960Y625166D01*
Y621834D01*
X824626Y620168D01*
X831291D01*
X832957Y621834D01*
Y625166D01*
X831291Y626833D01*
X829624D01*
X827958Y625166D01*
Y620168D01*
X919630Y479260D02*
Y489257D01*
X924628D01*
X926294Y487591D01*
Y484258D01*
X924628Y482592D01*
X919630D01*
X929627Y479260D02*
X932959D01*
X931293D01*
Y489257D01*
X929627Y487591D01*
X937957Y477594D02*
X944622D01*
X947954Y489257D02*
X954619D01*
Y487591D01*
X947954Y480926D01*
Y479260D01*
X502920Y454497D02*
Y444500D01*
X507918D01*
X509585Y446166D01*
Y447832D01*
X507918Y449498D01*
X502920D01*
X507918D01*
X509585Y451165D01*
Y452831D01*
X507918Y454497D01*
X502920D01*
X512917Y444500D02*
Y454497D01*
X516249Y451165D01*
X519581Y454497D01*
Y444500D01*
X522914Y442834D02*
X529578D01*
X532910Y444500D02*
Y454497D01*
X536243Y451165D01*
X539575Y454497D01*
Y444500D01*
X547906Y454497D02*
X544573D01*
X542907Y452831D01*
Y446166D01*
X544573Y444500D01*
X547906D01*
X549572Y446166D01*
Y452831D01*
X547906Y454497D01*
X552904D02*
Y444500D01*
X557902D01*
X559568Y446166D01*
Y452831D01*
X557902Y454497D01*
X552904D01*
X569565D02*
X562901D01*
Y444500D01*
X569565D01*
X562901Y449498D02*
X566233D01*
X576230Y444500D02*
X572897Y447832D01*
Y451165D01*
X576230Y454497D01*
X581228Y444500D02*
Y454497D01*
X586227D01*
X587893Y452831D01*
Y449498D01*
X586227Y447832D01*
X581228D01*
X591225Y452831D02*
X592891Y454497D01*
X596223D01*
X597889Y452831D01*
Y446166D01*
X596223Y444500D01*
X592891D01*
X591225Y446166D01*
Y452831D01*
X601222Y442834D02*
X607886D01*
X617883Y444500D02*
X611218D01*
X617883Y451165D01*
Y452831D01*
X616217Y454497D01*
X612885D01*
X611218Y452831D01*
X621215Y444500D02*
X624548Y447832D01*
Y451165D01*
X621215Y454497D01*
X919540Y404330D02*
Y414327D01*
X924538D01*
X926205Y412661D01*
Y409328D01*
X924538Y407662D01*
X919540D01*
X929537Y404330D02*
X932869D01*
X931203D01*
Y414327D01*
X929537Y412661D01*
X937867Y402664D02*
X944532D01*
X954529Y404330D02*
X947864D01*
X954529Y410994D01*
Y412661D01*
X952863Y414327D01*
X949530D01*
X947864Y412661D01*
X919330Y441160D02*
Y451157D01*
X924328D01*
X925994Y449491D01*
Y446158D01*
X924328Y444492D01*
X919330D01*
X929327Y441160D02*
X932659D01*
X930993D01*
Y451157D01*
X929327Y449491D01*
X937657Y439494D02*
X944322D01*
X947654Y449491D02*
X949320Y451157D01*
X952653D01*
X954319Y449491D01*
Y447825D01*
X952653Y446158D01*
X950986D01*
X952653D01*
X954319Y444492D01*
Y442826D01*
X952653Y441160D01*
X949320D01*
X947654Y442826D01*
X942340Y520700D02*
Y530697D01*
X947338D01*
X949005Y529031D01*
Y525698D01*
X947338Y524032D01*
X942340D01*
X952337Y520700D02*
X955669D01*
X954003D01*
Y530697D01*
X952337Y529031D01*
X960667Y519034D02*
X967332D01*
X977329Y530697D02*
X973997Y529031D01*
X970664Y525698D01*
Y522366D01*
X972330Y520700D01*
X975663D01*
X977329Y522366D01*
Y524032D01*
X975663Y525698D01*
X970664D01*
X576695Y483870D02*
Y493867D01*
X581693D01*
X583359Y492201D01*
Y488868D01*
X581693Y487202D01*
X576695D01*
X593356Y483870D02*
X586692D01*
X593356Y490535D01*
Y492201D01*
X591690Y493867D01*
X588358D01*
X586692Y492201D01*
X596688Y482204D02*
X603353D01*
X606685Y493867D02*
X613350D01*
Y492201D01*
X606685Y485536D01*
Y483870D01*
X524660Y483400D02*
Y493397D01*
X529658D01*
X531325Y491731D01*
Y488398D01*
X529658Y486732D01*
X524660D01*
X534657Y491731D02*
X536323Y493397D01*
X539655D01*
X541321Y491731D01*
Y485066D01*
X539655Y483400D01*
X536323D01*
X534657Y485066D01*
Y491731D01*
X544654Y481734D02*
X551318D01*
X554650Y491731D02*
X556316Y493397D01*
X559649D01*
X561315Y491731D01*
Y485066D01*
X559649Y483400D01*
X556316D01*
X554650Y485066D01*
Y491731D01*
X627380Y483870D02*
Y493867D01*
X632378D01*
X634044Y492201D01*
Y488868D01*
X632378Y487202D01*
X627380D01*
X637377Y492201D02*
X639043Y493867D01*
X642375D01*
X644041Y492201D01*
Y490535D01*
X642375Y488868D01*
X640709D01*
X642375D01*
X644041Y487202D01*
Y485536D01*
X642375Y483870D01*
X639043D01*
X637377Y485536D01*
X647374Y482204D02*
X654038D01*
X664035Y493867D02*
X660703Y492201D01*
X657370Y488868D01*
Y485536D01*
X659036Y483870D01*
X662369D01*
X664035Y485536D01*
Y487202D01*
X662369Y488868D01*
X657370D01*
X645160Y844550D02*
Y854547D01*
X648492Y851215D01*
X651824Y854547D01*
Y844550D01*
X661821Y852881D02*
X660155Y854547D01*
X656823D01*
X655157Y852881D01*
Y846216D01*
X656823Y844550D01*
X660155D01*
X661821Y846216D01*
X665154Y854547D02*
Y846216D01*
X666820Y844550D01*
X670152D01*
X671818Y846216D01*
Y854547D01*
X675150Y842884D02*
X681815D01*
X685147Y844550D02*
Y854547D01*
X690145D01*
X691812Y852881D01*
Y849548D01*
X690145Y847882D01*
X685147D01*
X695144Y854547D02*
Y844550D01*
X698476Y847882D01*
X701808Y844550D01*
Y854547D01*
X705141Y844550D02*
Y854547D01*
X710139D01*
X711805Y852881D01*
Y849548D01*
X710139Y847882D01*
X705141D01*
X708473D02*
X711805Y844550D01*
X515620Y415127D02*
Y405130D01*
X520618D01*
X522285Y406796D01*
Y408462D01*
X520618Y410128D01*
X515620D01*
X520618D01*
X522285Y411795D01*
Y413461D01*
X520618Y415127D01*
X515620D01*
X525617Y405130D02*
Y415127D01*
X528949Y411795D01*
X532281Y415127D01*
Y405130D01*
X535614Y403464D02*
X542278D01*
X545610Y405130D02*
Y415127D01*
X550609D01*
X552275Y413461D01*
Y410128D01*
X550609Y408462D01*
X545610D01*
X555607Y415127D02*
Y405130D01*
X558939Y408462D01*
X562272Y405130D01*
Y415127D01*
X565604Y405130D02*
Y415127D01*
X570602D01*
X572268Y413461D01*
Y410128D01*
X570602Y408462D01*
X565604D01*
X568936D02*
X572268Y405130D01*
X768350Y981547D02*
Y971550D01*
X773348D01*
X775014Y973216D01*
Y979881D01*
X773348Y981547D01*
X768350D01*
X785011Y979881D02*
X783345Y981547D01*
X780013D01*
X778347Y979881D01*
Y973216D01*
X780013Y971550D01*
X783345D01*
X785011Y973216D01*
X788344Y981547D02*
Y971550D01*
X793342D01*
X795008Y973216D01*
Y979881D01*
X793342Y981547D01*
X788344D01*
X805005Y979881D02*
X803339Y981547D01*
X800006D01*
X798340Y979881D01*
Y973216D01*
X800006Y971550D01*
X803339D01*
X805005Y973216D01*
X808337Y969884D02*
X815002D01*
X818334Y971550D02*
Y981547D01*
X823332D01*
X824998Y979881D01*
Y976548D01*
X823332Y974882D01*
X818334D01*
X828331Y981547D02*
Y971550D01*
X831663Y974882D01*
X834995Y971550D01*
Y981547D01*
X838327Y971550D02*
Y981547D01*
X843326D01*
X844992Y979881D01*
Y976548D01*
X843326Y974882D01*
X838327D01*
X841660D02*
X844992Y971550D01*
X769200Y937412D02*
Y929081D01*
X770866Y927415D01*
X774198D01*
X775864Y929081D01*
Y937412D01*
X779197Y927415D02*
Y934080D01*
X782529Y937412D01*
X785861Y934080D01*
Y927415D01*
Y932413D01*
X779197D01*
X789193Y927415D02*
Y937412D01*
X794192D01*
X795858Y935746D01*
Y932413D01*
X794192Y930747D01*
X789193D01*
X792526D02*
X795858Y927415D01*
X799190Y937412D02*
X805855D01*
X802523D01*
Y927415D01*
X809187Y925749D02*
X815852D01*
X819184Y927415D02*
Y937412D01*
X824182D01*
X825848Y935746D01*
Y932413D01*
X824182Y930747D01*
X819184D01*
X829181Y937412D02*
Y927415D01*
X832513Y930747D01*
X835845Y927415D01*
Y937412D01*
X839177Y927415D02*
Y937412D01*
X844176D01*
X845842Y935746D01*
Y932413D01*
X844176Y930747D01*
X839177D01*
X842510D02*
X845842Y927415D01*
X1009650Y375920D02*
X1012982D01*
X1011316D01*
Y385917D01*
X1009650Y384251D01*
X1044255Y375920D02*
X1037590D01*
X1044255Y382584D01*
Y384251D01*
X1042588Y385917D01*
X1039256D01*
X1037590Y384251D01*
X1068070D02*
X1069736Y385917D01*
X1073068D01*
X1074734Y384251D01*
Y382584D01*
X1073068Y380918D01*
X1071402D01*
X1073068D01*
X1074734Y379252D01*
Y377586D01*
X1073068Y375920D01*
X1069736D01*
X1068070Y377586D01*
X1100208Y375830D02*
Y385827D01*
X1095210Y380828D01*
X1101874D01*
X888045Y582371D02*
X886378Y584037D01*
X883046D01*
X881380Y582371D01*
Y575706D01*
X883046Y574040D01*
X886378D01*
X888045Y575706D01*
X896375Y584037D02*
X893043D01*
X891377Y582371D01*
Y575706D01*
X893043Y574040D01*
X896375D01*
X898041Y575706D01*
Y582371D01*
X896375Y584037D01*
X901374Y574040D02*
Y584037D01*
X908038Y574040D01*
Y584037D01*
X918035D02*
X911370D01*
Y579038D01*
X914703D01*
X911370D01*
Y574040D01*
X853440D02*
Y584037D01*
X858438D01*
X860105Y582371D01*
Y579038D01*
X858438Y577372D01*
X853440D01*
X856772D02*
X860105Y574040D01*
X863437Y584037D02*
X870101Y574040D01*
Y584037D02*
X863437Y574040D01*
X822960Y584037D02*
X829624D01*
X826292D01*
Y574040D01*
X832957Y584037D02*
X839621Y574040D01*
Y584037D02*
X832957Y574040D01*
X735330Y844550D02*
Y854547D01*
X738662Y851215D01*
X741994Y854547D01*
Y844550D01*
X751991Y852881D02*
X750325Y854547D01*
X746993D01*
X745327Y852881D01*
Y846216D01*
X746993Y844550D01*
X750325D01*
X751991Y846216D01*
X755324Y854547D02*
Y846216D01*
X756990Y844550D01*
X760322D01*
X761988Y846216D01*
Y854547D01*
X765320Y842884D02*
X771985D01*
X780315Y854547D02*
X776983D01*
X775317Y852881D01*
Y846216D01*
X776983Y844550D01*
X780315D01*
X781982Y846216D01*
Y852881D01*
X780315Y854547D01*
X785314Y844550D02*
Y854547D01*
X791978Y844550D01*
Y854547D01*
X646430Y675477D02*
Y665480D01*
X651428D01*
X653094Y667146D01*
Y668812D01*
X651428Y670478D01*
X646430D01*
X651428D01*
X653094Y672144D01*
Y673811D01*
X651428Y675477D01*
X646430D01*
X656427Y665480D02*
Y675477D01*
X659759Y672144D01*
X663091Y675477D01*
Y665480D01*
X666424Y663814D02*
X673088D01*
X681419Y675477D02*
X678086D01*
X676420Y673811D01*
Y667146D01*
X678086Y665480D01*
X681419D01*
X683085Y667146D01*
Y673811D01*
X681419Y675477D01*
X686417Y665480D02*
Y675477D01*
X693082Y665480D01*
Y675477D01*
X1183937Y594015D02*
Y604012D01*
X1188935D01*
X1190601Y602345D01*
Y599013D01*
X1188935Y597347D01*
X1183937D01*
X1187269D02*
X1190601Y594015D01*
X1193934D02*
X1197266D01*
X1195600D01*
Y604012D01*
X1193934Y602345D01*
X707390Y628650D02*
Y638647D01*
X712388D01*
X714054Y636981D01*
Y633648D01*
X712388Y631982D01*
X707390D01*
X710722D02*
X714054Y628650D01*
X717387Y636981D02*
X719053Y638647D01*
X722385D01*
X724051Y636981D01*
Y635314D01*
X722385Y633648D01*
X720719D01*
X722385D01*
X724051Y631982D01*
Y630316D01*
X722385Y628650D01*
X719053D01*
X717387Y630316D01*
X1154430Y681990D02*
Y691987D01*
X1157762Y688654D01*
X1161095Y691987D01*
Y681990D01*
X1171091Y690321D02*
X1169425Y691987D01*
X1166093D01*
X1164427Y690321D01*
Y683656D01*
X1166093Y681990D01*
X1169425D01*
X1171091Y683656D01*
X1174424Y691987D02*
Y683656D01*
X1176090Y681990D01*
X1179422D01*
X1181088Y683656D01*
Y691987D01*
X1184420Y680324D02*
X1191085D01*
X1194417Y681990D02*
Y691987D01*
X1199416D01*
X1201082Y690321D01*
Y686988D01*
X1199416Y685322D01*
X1194417D01*
X1197749D02*
X1201082Y681990D01*
X1211078Y691987D02*
X1204414D01*
Y681990D01*
X1211078D01*
X1204414Y686988D02*
X1207746D01*
X1221075Y690321D02*
X1219409Y691987D01*
X1216077D01*
X1214411Y690321D01*
Y688654D01*
X1216077Y686988D01*
X1219409D01*
X1221075Y685322D01*
Y683656D01*
X1219409Y681990D01*
X1216077D01*
X1214411Y683656D01*
X1231072Y691987D02*
X1224408D01*
Y681990D01*
X1231072D01*
X1224408Y686988D02*
X1227740D01*
X1234404Y691987D02*
X1241069D01*
X1237737D01*
Y681990D01*
X722630Y726277D02*
Y716280D01*
X727628D01*
X729295Y717946D01*
Y719612D01*
X727628Y721278D01*
X722630D01*
X727628D01*
X729295Y722944D01*
Y724611D01*
X727628Y726277D01*
X722630D01*
X732627Y716280D02*
Y726277D01*
X735959Y722944D01*
X739291Y726277D01*
Y716280D01*
X742624Y714614D02*
X749288D01*
X752620Y716280D02*
Y726277D01*
X757619D01*
X759285Y724611D01*
Y721278D01*
X757619Y719612D01*
X752620D01*
X755953D02*
X759285Y716280D01*
X769282Y726277D02*
X762617D01*
Y716280D01*
X769282D01*
X762617Y721278D02*
X765949D01*
X779278Y724611D02*
X777612Y726277D01*
X774280D01*
X772614Y724611D01*
Y722944D01*
X774280Y721278D01*
X777612D01*
X779278Y719612D01*
Y717946D01*
X777612Y716280D01*
X774280D01*
X772614Y717946D01*
X789275Y726277D02*
X782611D01*
Y716280D01*
X789275D01*
X782611Y721278D02*
X785943D01*
X792607Y726277D02*
X799272D01*
X795940D01*
Y716280D01*
X1274125Y695401D02*
X1272458Y697067D01*
X1269126D01*
X1267460Y695401D01*
Y688736D01*
X1269126Y687070D01*
X1272458D01*
X1274125Y688736D01*
Y692068D01*
X1270792D01*
X1277457Y687070D02*
Y697067D01*
X1284121Y687070D01*
Y697067D01*
X1287454D02*
Y687070D01*
X1292452D01*
X1294118Y688736D01*
Y695401D01*
X1292452Y697067D01*
X1287454D01*
X1204275Y465531D02*
X1202608Y467197D01*
X1199276D01*
X1197610Y465531D01*
Y458866D01*
X1199276Y457200D01*
X1202608D01*
X1204275Y458866D01*
Y462198D01*
X1200942D01*
X1207607Y457200D02*
Y467197D01*
X1214271Y457200D01*
Y467197D01*
X1217604D02*
Y457200D01*
X1222602D01*
X1224268Y458866D01*
Y465531D01*
X1222602Y467197D01*
X1217604D01*
X650555Y720801D02*
X648888Y722467D01*
X645556D01*
X643890Y720801D01*
Y719135D01*
X645556Y717468D01*
X648888D01*
X650555Y715802D01*
Y714136D01*
X648888Y712470D01*
X645556D01*
X643890Y714136D01*
X658885Y712470D02*
X655553D01*
X653887Y714136D01*
Y717468D01*
X655553Y719135D01*
X658885D01*
X660551Y717468D01*
Y715802D01*
X653887D01*
X663884Y712470D02*
Y719135D01*
X668882D01*
X670548Y717468D01*
Y712470D01*
X641350Y755487D02*
Y745490D01*
X646348D01*
X648015Y747156D01*
Y748822D01*
X646348Y750488D01*
X641350D01*
X646348D01*
X648015Y752154D01*
Y753821D01*
X646348Y755487D01*
X641350D01*
X651347Y752154D02*
Y747156D01*
X653013Y745490D01*
X658011D01*
Y752154D01*
X661344D02*
X668008D01*
X661344Y745490D01*
X668008D01*
X671340Y752154D02*
X678005D01*
X671340Y745490D01*
X678005D01*
X649285Y785967D02*
X642620D01*
Y780968D01*
X645952Y782635D01*
X647618D01*
X649285Y780968D01*
Y777636D01*
X647618Y775970D01*
X644286D01*
X642620Y777636D01*
X652617Y785967D02*
Y779302D01*
X655949Y775970D01*
X659281Y779302D01*
Y785967D01*
X584515Y832561D02*
X582848Y834227D01*
X579516D01*
X577850Y832561D01*
Y825896D01*
X579516Y824230D01*
X582848D01*
X584515Y825896D01*
Y829228D01*
X581182D01*
X587847Y824230D02*
Y834227D01*
X594511Y824230D01*
Y834227D01*
X597844D02*
Y824230D01*
X602842D01*
X604508Y825896D01*
Y832561D01*
X602842Y834227D01*
X597844D01*
X578164Y682701D02*
X576498Y684367D01*
X573166D01*
X571500Y682701D01*
Y676036D01*
X573166Y674370D01*
X576498D01*
X578164Y676036D01*
Y679368D01*
X574832D01*
X581497Y674370D02*
Y684367D01*
X588161Y674370D01*
Y684367D01*
X591494D02*
Y674370D01*
X596492D01*
X598158Y676036D01*
Y682701D01*
X596492Y684367D01*
X591494D01*
X645474Y641187D02*
X638810D01*
Y636188D01*
X642142Y637854D01*
X643808D01*
X645474Y636188D01*
Y632856D01*
X643808Y631190D01*
X640476D01*
X638810Y632856D01*
X648807Y641187D02*
Y634522D01*
X652139Y631190D01*
X655471Y634522D01*
Y641187D01*
X638810Y601817D02*
Y591820D01*
X643808D01*
X645474Y593486D01*
Y595152D01*
X643808Y596818D01*
X638810D01*
X643808D01*
X645474Y598484D01*
Y600151D01*
X643808Y601817D01*
X638810D01*
X648807Y598484D02*
Y593486D01*
X650473Y591820D01*
X655471D01*
Y598484D01*
X658804D02*
X665468D01*
X658804Y591820D01*
X665468D01*
X668800Y598484D02*
X675465D01*
X668800Y591820D01*
X675465D01*
X648015Y577291D02*
X646348Y578957D01*
X643016D01*
X641350Y577291D01*
Y575625D01*
X643016Y573958D01*
X646348D01*
X648015Y572292D01*
Y570626D01*
X646348Y568960D01*
X643016D01*
X641350Y570626D01*
X656345Y568960D02*
X653013D01*
X651347Y570626D01*
Y573958D01*
X653013Y575625D01*
X656345D01*
X658011Y573958D01*
Y572292D01*
X651347D01*
X661344Y568960D02*
Y575625D01*
X666342D01*
X668008Y573958D01*
Y568960D01*
X1082355Y846531D02*
X1080688Y848197D01*
X1077356D01*
X1075690Y846531D01*
Y839866D01*
X1077356Y838200D01*
X1080688D01*
X1082355Y839866D01*
Y843198D01*
X1079022D01*
X1085687Y838200D02*
Y848197D01*
X1092351Y838200D01*
Y848197D01*
X1095684D02*
Y838200D01*
X1100682D01*
X1102348Y839866D01*
Y846531D01*
X1100682Y848197D01*
X1095684D01*
X1131570Y841136D02*
X1133236Y839470D01*
X1136568D01*
X1138234Y841136D01*
Y847801D01*
X1136568Y849467D01*
X1133236D01*
X1131570Y847801D01*
Y846134D01*
X1133236Y844468D01*
X1138234D01*
X1141567Y849467D02*
Y842802D01*
X1144899Y839470D01*
X1148231Y842802D01*
Y849467D01*
X1161095Y495137D02*
X1154430D01*
Y490138D01*
X1157762Y491805D01*
X1159428D01*
X1161095Y490138D01*
Y486806D01*
X1159428Y485140D01*
X1156096D01*
X1154430Y486806D01*
X1164427Y495137D02*
Y488472D01*
X1167759Y485140D01*
X1171091Y488472D01*
Y495137D01*
X1134110Y525617D02*
Y515620D01*
X1139108D01*
X1140775Y517286D01*
Y518952D01*
X1139108Y520618D01*
X1134110D01*
X1139108D01*
X1140775Y522285D01*
Y523951D01*
X1139108Y525617D01*
X1134110D01*
X1144107Y522285D02*
Y517286D01*
X1145773Y515620D01*
X1150771D01*
Y522285D01*
X1154104D02*
X1160768D01*
X1154104Y515620D01*
X1160768D01*
X1164100Y522285D02*
X1170765D01*
X1164100Y515620D01*
X1170765D01*
X508000Y872327D02*
Y862330D01*
X512998D01*
X514664Y863996D01*
Y865662D01*
X512998Y867328D01*
X508000D01*
X512998D01*
X514664Y868995D01*
Y870661D01*
X512998Y872327D01*
X508000D01*
X519663Y868995D02*
X522995D01*
X524661Y867328D01*
Y862330D01*
X519663D01*
X517997Y863996D01*
X519663Y865662D01*
X524661D01*
X534658Y868995D02*
X529660D01*
X527994Y867328D01*
Y863996D01*
X529660Y862330D01*
X534658D01*
X537990D02*
Y872327D01*
Y865662D02*
X542989Y868995D01*
X537990Y865662D02*
X542989Y862330D01*
X557984D02*
Y872327D01*
X562982D01*
X564648Y870661D01*
Y867328D01*
X562982Y865662D01*
X557984D01*
X561316D02*
X564648Y862330D01*
X567981D02*
X571313D01*
X569647D01*
Y868995D01*
X567981D01*
X579644Y858998D02*
X581310D01*
X582976Y860664D01*
Y868995D01*
X577977D01*
X576311Y867328D01*
Y863996D01*
X577977Y862330D01*
X582976D01*
X586308Y872327D02*
Y862330D01*
Y867328D01*
X587974Y868995D01*
X591306D01*
X592973Y867328D01*
Y862330D01*
X597971Y870661D02*
Y868995D01*
X596305D01*
X599637D01*
X597971D01*
Y863996D01*
X599637Y862330D01*
X510854Y525617D02*
X504190D01*
Y520618D01*
X507522D01*
X504190D01*
Y515620D01*
X514187Y522285D02*
Y515620D01*
Y518952D01*
X515853Y520618D01*
X517519Y522285D01*
X519185D01*
X525850Y515620D02*
X529182D01*
X530848Y517286D01*
Y520618D01*
X529182Y522285D01*
X525850D01*
X524184Y520618D01*
Y517286D01*
X525850Y515620D01*
X534180D02*
Y522285D01*
X539179D01*
X540845Y520618D01*
Y515620D01*
X545843Y523951D02*
Y522285D01*
X544177D01*
X547509D01*
X545843D01*
Y517286D01*
X547509Y515620D01*
X562505D02*
Y525617D01*
X567503D01*
X569169Y523951D01*
Y520618D01*
X567503Y518952D01*
X562505D01*
X565837D02*
X569169Y515620D01*
X572501D02*
X575834D01*
X574168D01*
Y522285D01*
X572501D01*
X584164Y512288D02*
X585830D01*
X587496Y513954D01*
Y522285D01*
X582498D01*
X580832Y520618D01*
Y517286D01*
X582498Y515620D01*
X587496D01*
X590829Y525617D02*
Y515620D01*
Y520618D01*
X592495Y522285D01*
X595827D01*
X597493Y520618D01*
Y515620D01*
X602492Y523951D02*
Y522285D01*
X600826D01*
X604158D01*
X602492D01*
Y517286D01*
X604158Y515620D01*
X1216974Y601817D02*
X1210310D01*
Y596818D01*
X1213642D01*
X1210310D01*
Y591820D01*
X1220307Y598484D02*
Y591820D01*
Y595152D01*
X1221973Y596818D01*
X1223639Y598484D01*
X1225305D01*
X1231970Y591820D02*
X1235302D01*
X1236968Y593486D01*
Y596818D01*
X1235302Y598484D01*
X1231970D01*
X1230304Y596818D01*
Y593486D01*
X1231970Y591820D01*
X1240300D02*
Y598484D01*
X1245299D01*
X1246965Y596818D01*
Y591820D01*
X1251963Y600151D02*
Y598484D01*
X1250297D01*
X1253629D01*
X1251963D01*
Y593486D01*
X1253629Y591820D01*
X1268624Y601817D02*
Y591820D01*
X1275289D01*
X1283620D02*
X1280287D01*
X1278621Y593486D01*
Y596818D01*
X1280287Y598484D01*
X1283620D01*
X1285286Y596818D01*
Y595152D01*
X1278621D01*
X1290284Y591820D02*
Y600151D01*
Y596818D01*
X1288618D01*
X1291950D01*
X1290284D01*
Y600151D01*
X1291950Y601817D01*
X1298615Y600151D02*
Y598484D01*
X1296949D01*
X1300281D01*
X1298615D01*
Y593486D01*
X1300281Y591820D01*
X1203960Y872327D02*
Y862330D01*
X1208958D01*
X1210624Y863996D01*
Y865662D01*
X1208958Y867328D01*
X1203960D01*
X1208958D01*
X1210624Y868995D01*
Y870661D01*
X1208958Y872327D01*
X1203960D01*
X1215623Y868995D02*
X1218955D01*
X1220621Y867328D01*
Y862330D01*
X1215623D01*
X1213957Y863996D01*
X1215623Y865662D01*
X1220621D01*
X1230618Y868995D02*
X1225620D01*
X1223954Y867328D01*
Y863996D01*
X1225620Y862330D01*
X1230618D01*
X1233950D02*
Y872327D01*
Y865662D02*
X1238949Y868995D01*
X1233950Y865662D02*
X1238949Y862330D01*
X1253944Y872327D02*
Y862330D01*
X1260608D01*
X1268939D02*
X1265607D01*
X1263941Y863996D01*
Y867328D01*
X1265607Y868995D01*
X1268939D01*
X1270605Y867328D01*
Y865662D01*
X1263941D01*
X1275604Y862330D02*
Y870661D01*
Y867328D01*
X1273938D01*
X1277270D01*
X1275604D01*
Y870661D01*
X1277270Y872327D01*
X1283934Y870661D02*
Y868995D01*
X1282268D01*
X1285600D01*
X1283934D01*
Y863996D01*
X1285600Y862330D01*
X1159825Y746597D02*
X1153160D01*
Y741598D01*
X1156492Y743264D01*
X1158158D01*
X1159825Y741598D01*
Y738266D01*
X1158158Y736600D01*
X1154826D01*
X1153160Y738266D01*
X1163157Y746597D02*
Y739932D01*
X1166489Y736600D01*
X1169821Y739932D01*
Y746597D01*
X1148394Y554431D02*
X1146728Y556097D01*
X1143396D01*
X1141730Y554431D01*
Y552765D01*
X1143396Y551098D01*
X1146728D01*
X1148394Y549432D01*
Y547766D01*
X1146728Y546100D01*
X1143396D01*
X1141730Y547766D01*
X1156725Y546100D02*
X1153393D01*
X1151727Y547766D01*
Y551098D01*
X1153393Y552765D01*
X1156725D01*
X1158391Y551098D01*
Y549432D01*
X1151727D01*
X1161724Y546100D02*
Y552765D01*
X1166722D01*
X1168388Y551098D01*
Y546100D01*
X1130300Y778347D02*
Y768350D01*
X1135298D01*
X1136964Y770016D01*
Y771682D01*
X1135298Y773348D01*
X1130300D01*
X1135298D01*
X1136964Y775014D01*
Y776681D01*
X1135298Y778347D01*
X1130300D01*
X1140297Y775014D02*
Y770016D01*
X1141963Y768350D01*
X1146961D01*
Y775014D01*
X1150294D02*
X1156958D01*
X1150294Y768350D01*
X1156958D01*
X1160290Y775014D02*
X1166955D01*
X1160290Y768350D01*
X1166955D01*
X807009Y542604D02*
X805343Y540938D01*
Y537606D01*
X807009Y535940D01*
X813674D01*
X815340Y537606D01*
Y540938D01*
X813674Y542604D01*
X810342D01*
Y539272D01*
X815340Y545937D02*
X805343D01*
X815340Y552601D01*
X805343D01*
Y555934D02*
X815340D01*
Y560932D01*
X813674Y562598D01*
X807009D01*
X805343Y560932D01*
Y555934D01*
X819593Y704758D02*
Y707114D01*
X817237Y709471D01*
X814881D01*
X810168Y704758D01*
Y702402D01*
X812524Y700046D01*
X814881D01*
X817237Y702402D01*
X814881Y704758D01*
X816059Y696511D02*
X823128Y703580D01*
X820771Y691799D01*
X827840Y698867D01*
X830196Y696511D02*
X823128Y689442D01*
X826662Y685908D01*
X829018Y685908D01*
X833731Y690621D01*
X833731Y692977D01*
X830196Y696511D01*
X835660Y716280D02*
X842729Y723349D01*
X846263Y719814D01*
Y717458D01*
X843907Y715102D01*
X841551D01*
X838016Y718636D01*
X840372Y716280D02*
Y711568D01*
X849798Y716280D02*
X847441Y704499D01*
X854510Y711568D02*
X842729Y709211D01*
X884271Y755466D02*
X879559Y760179D01*
X876024Y756644D01*
X879559Y755466D01*
X880737Y754288D01*
Y751932D01*
X878381Y749576D01*
X876024D01*
X873668Y751932D01*
Y754288D01*
X886628Y753110D02*
X881915Y748398D01*
Y743685D01*
X886628D01*
X891340Y748398D01*
X1145854Y805891D02*
X1144188Y807557D01*
X1140856D01*
X1139190Y805891D01*
Y804224D01*
X1140856Y802558D01*
X1144188D01*
X1145854Y800892D01*
Y799226D01*
X1144188Y797560D01*
X1140856D01*
X1139190Y799226D01*
X1154185Y797560D02*
X1150853D01*
X1149187Y799226D01*
Y802558D01*
X1150853Y804224D01*
X1154185D01*
X1155851Y802558D01*
Y800892D01*
X1149187D01*
X1159184Y797560D02*
Y804224D01*
X1164182D01*
X1165848Y802558D01*
Y797560D01*
D45*
X853310Y382090D02*
Y384630D01*
X845690Y380820D02*
X853310D01*
X793620D02*
X853310D01*
X793620D02*
Y435430D01*
X853310D01*
Y380820D02*
Y435430D01*
X839340Y380820D02*
X853310Y394790D01*
X1143100Y857820D02*
X1167230D01*
Y923860D01*
X1168500Y945450D02*
Y982280D01*
X1165960D02*
X1168500D01*
X1018640D02*
X1165960D01*
X1018640Y950530D02*
Y982280D01*
Y857820D02*
Y918780D01*
Y857820D02*
X1036420D01*
X799210Y480050D02*
X910710D01*
Y510300D01*
X910210Y510800D02*
X910710Y510300D01*
X799210Y510800D02*
X910210D01*
X799210Y480050D02*
Y510800D01*
X844029Y649742D02*
X922871Y728585D01*
X901481Y749975D02*
X922871Y728585D01*
X900774Y749975D02*
X901481D01*
X822285Y671486D02*
X900774Y749975D01*
X822285Y671486D02*
X844029Y649742D01*
X1137920Y681470D02*
Y685280D01*
X1135380Y682740D02*
X1137920Y685280D01*
X1135380Y680200D02*
Y682740D01*
Y680200D02*
X1136650Y681470D01*
X1141730D01*
X1137920Y685280D02*
X1141730Y681470D01*
X1134110D02*
X1137920Y685280D01*
X1134110Y681470D02*
X1135380Y680200D01*
X1145540D01*
X1137920Y687820D02*
X1145540Y680200D01*
X1130300D02*
X1137920Y687820D01*
X1130300Y680200D02*
X1145540D01*
X726440Y807720D02*
Y811530D01*
Y807720D02*
X728980Y810260D01*
Y812800D01*
X727710Y811530D02*
X728980Y812800D01*
X722630Y811530D02*
X727710D01*
X722630D02*
X726440Y807720D01*
X730250Y811530D01*
X728980Y812800D02*
X730250Y811530D01*
X718820Y812800D02*
X728980D01*
X718820D02*
X726440Y805180D01*
X734060Y812800D01*
X718820D02*
X734060D01*
X704850Y737870D02*
Y741680D01*
Y737870D02*
X707390Y740410D01*
Y742950D01*
X706120Y741680D02*
X707390Y742950D01*
X701040Y741680D02*
X706120D01*
X701040D02*
X704850Y737870D01*
X708660Y741680D01*
X707390Y742950D02*
X708660Y741680D01*
X697230Y742950D02*
X707390D01*
X697230D02*
X704850Y735330D01*
X712470Y742950D01*
X697230D02*
X712470D01*
X1120140Y808240D02*
Y812050D01*
Y808240D02*
X1122680Y810780D01*
Y813320D01*
X1121410Y812050D02*
X1122680Y813320D01*
X1116330Y812050D02*
X1121410D01*
X1116330D02*
X1120140Y808240D01*
X1123950Y812050D01*
X1122680Y813320D02*
X1123950Y812050D01*
X1112520Y813320D02*
X1122680D01*
X1112520D02*
X1120140Y805700D01*
X1127760Y813320D01*
X1112520D02*
X1127760D01*
X811530Y515620D02*
Y529590D01*
Y515620D02*
X816610Y520700D01*
X811530Y515620D02*
X816610Y520700D01*
X806450D02*
X811530Y515620D01*
X1002030Y346710D02*
Y361945D01*
X1007108Y356867D01*
X1012187Y361945D01*
Y346710D01*
X1027422Y359406D02*
X1024883Y361945D01*
X1019804D01*
X1017265Y359406D01*
Y349249D01*
X1019804Y346710D01*
X1024883D01*
X1027422Y349249D01*
X1032500Y361945D02*
Y349249D01*
X1035039Y346710D01*
X1040118D01*
X1042657Y349249D01*
Y361945D01*
X1062970D02*
Y346710D01*
X1073127D01*
X1088362Y361945D02*
X1078205D01*
Y346710D01*
X1088362D01*
X1078205Y354328D02*
X1083284D01*
X1093440Y361945D02*
Y346710D01*
X1101058D01*
X1103597Y349249D01*
Y359406D01*
X1101058Y361945D01*
X1093440D01*
X1111215Y364484D02*
Y359406D01*
X1108676Y356867D01*
X1118832Y346710D02*
X1126450D01*
X1128989Y349249D01*
X1126450Y351788D01*
X1121371D01*
X1118832Y354328D01*
X1121371Y356867D01*
X1128989D01*
M02*
