M48
;Layer_Color=9474304
;FILE_FORMAT=4:4
METRIC,LZ
;TYPE=PLATED
T1F00S00C0.3000
T2F00S00C0.5000
T3F00S00C1.0000
T4F00S00C1.0160
T5F00S00C1.0200
T6F00S00C1.1500
T7F00S00C1.9500
;TYPE=NON_PLATED
T8F00S00C3.0000
T9F00S00C4.5000
%
T01
X00508Y0039116
X0058928
X0075438Y0039497
X0076454Y0038354
X0088265Y0038608
X0096901Y0039116
X0128016Y0046355
X0129286Y0047117
X0124079Y0057404
X0122047
X0121793Y0066167
X0120269Y0067056
X0110871Y0067691
X0109474Y0068707
X0108331Y0069469
X0108585Y0070993
X0112776Y0074168
X0111252Y0076073
X0103505Y0075438
X0102235
X00999661Y0072009
X00991784Y00726171
X00979212Y00733355
X0096774Y0069342
X0094361Y0069596
X0093599Y0068834
X009525Y0070485
X0098298Y0068199
X0099187Y0066675
X0100838Y0065786
X0102108Y0064389
X0103378Y0063246
X01047462Y00670493
X0103505Y00684702
X0101981Y006985
X0100838Y0070866
X01065422Y00656125
X0107061Y00604881
X01065711Y0059182
X0104267Y0058039
X0099314Y00580251
X0100076Y0058928
X0097536Y0061087
X0096139
X0094615Y0061341
X0093218Y0064897
X0091694Y00664677
X00900186Y00656125
X0088519Y006096
Y0059436
X008636Y0059944
X0082677Y0060452
X0082296Y0065913
X0082931Y0072009
X0081407
X0091059Y0077724
Y0059182
X0093345Y0052832
X0091694Y0051181
X00902623Y0045143
X0089281Y0044196
X0089027Y0040894
X0090424Y0041148
X0097409Y0042799
X0097536Y0046482
X0099568Y004826
X010033Y0050292
X0102616Y0050038
X0101727Y0052705
X0098552Y0054991
X0102743Y0045974
X0105664
X0108585Y0045847
X0111633Y0046736
X0113792Y0056134
X0114935Y0057912
X0113919Y0060706
X0112776Y0062865
X0110871Y0058674
X0109855Y0059563
X0080264Y0052832
X0080137Y0046355
X0077089Y0047625
X0073787Y0045212
X0074676Y0043815
X0074168Y0040767
X0070612Y0044069
X0072263Y0046609
X0070993Y005334
X006985Y0054991
X0071374Y0056261
X0069088Y0058547
X0067945Y0058166
X0064897Y0053848
X0061849Y004699
X0058039Y0042037
X0075311Y0051943
X0076327Y0059817
X0077597Y0061976
X0075565Y0073914
X0068834Y0075057
X0068453Y0076454
X0067818Y0072644
X0065532Y0073025
X00683188Y00687141
X0072644Y0084963
X0084328Y008636
X0085852Y0086106
X00851535Y00897255
X0087249Y0089535
X0082296Y0089662
X0086868Y0094234
X0090297Y0092456
X0091567Y0095123
X0091821Y0085217
X0092075Y0083439
X0087503Y0080137
X0085598Y0080645
X0101092Y0083185
X010033Y0084328
X0102235Y0082296
X0105918Y0082423
X0105283Y0079375
X0107569
X0109855Y0082423
X0109347Y0086487
X0108458Y0085852
X0105283Y0085598
X010414Y008636
X0103378Y0087249
X0115062Y0082423
X0118745Y008255
T02
X01067925Y00768569
X01102432Y00734062
T03
X0083439Y0052959
Y0055499
X0086614
Y0052959
X0089789
Y0055499
X0067437Y0062103
Y0064643
X0076327Y0079883
Y0082423
X0094996Y0083439
Y0080899
T04
X0081661Y004953
X0084201
X0086741
X0089281
X0086351Y0069079
X0088147Y0070875
X00899431Y00726711
X00845549Y00672829
T05
X0121569Y004907
Y005207
Y005507
X012141Y0074216
Y0077216
X011841
Y0074216
X0118569Y005507
Y005207
Y004907
X0062311Y0057579
Y0060579
Y0063579
X0059311
Y0060579
Y0057579
X0059309Y0071978
Y0074978
Y0077978
X0062309
Y0074978
Y0071978
X011841Y0080216
X012141
T06
X0092075Y0090206
X0094615
X0097155
T07
X010297Y0093472
X011557
T08
X0125889Y005207
X012573Y0077216
X0054989Y0074978
X0054991Y0060579
T09
X0123Y0041
X0066
Y0093
X0123
M30
