G04 Layer_Color=32896*
%FSLAX44Y44*%
%MOMM*%
G71*
G01*
G75*
%ADD44C,0.2000*%
%ADD78C,0.4000*%
G36*
X1203198Y361188D02*
X1205230D01*
Y359156D01*
X1178814D01*
Y361188D01*
X1176782D01*
Y363220D01*
X1182878D01*
Y361188D01*
X1184910D01*
Y363220D01*
X1186942D01*
Y361188D01*
X1188974D01*
Y363220D01*
X1191006D01*
Y361188D01*
X1193038D01*
Y363220D01*
X1199134D01*
Y361188D01*
X1201166D01*
Y363220D01*
X1203198D01*
Y361188D01*
D02*
G37*
G36*
X1207262D02*
X1205230D01*
Y363220D01*
X1207262D01*
Y361188D01*
D02*
G37*
G36*
X857758D02*
X855726D01*
Y359156D01*
Y357124D01*
X859790D01*
Y355092D01*
X865886D01*
Y353060D01*
Y351028D01*
X863854D01*
Y348996D01*
X861822D01*
Y346964D01*
Y344932D01*
X859790D01*
Y342900D01*
X855726D01*
Y340868D01*
Y338836D01*
X1209294D01*
Y340868D01*
X1207262D01*
Y342900D01*
X1205230D01*
Y344932D01*
Y346964D01*
X1207262D01*
Y344932D01*
X1209294D01*
Y342900D01*
X1211326D01*
Y340868D01*
X1213358D01*
Y338836D01*
X1215390D01*
Y336804D01*
X1217422D01*
Y334772D01*
X847598D01*
Y336804D01*
X849630D01*
Y338836D01*
Y340868D01*
X851662D01*
Y342900D01*
X853694D01*
Y344932D01*
X855726D01*
Y346964D01*
X857758D01*
Y348996D01*
X859790D01*
Y351028D01*
X861822D01*
Y353060D01*
X859790D01*
Y355092D01*
X857758D01*
Y353060D01*
X855726D01*
Y355092D01*
X849630D01*
Y357124D01*
X847598D01*
Y359156D01*
X845566D01*
Y357124D01*
X843534D01*
Y359156D01*
X841502D01*
Y361188D01*
X843534D01*
Y363220D01*
X845566D01*
Y361188D01*
X847598D01*
Y363220D01*
X849630D01*
Y361188D01*
X851662D01*
Y363220D01*
X857758D01*
Y361188D01*
D02*
G37*
G36*
X898398D02*
X900430D01*
Y359156D01*
X894334D01*
Y357124D01*
X896366D01*
Y355092D01*
X890270D01*
Y357124D01*
X892302D01*
Y359156D01*
X890270D01*
Y361188D01*
X888238D01*
Y359156D01*
X859790D01*
Y361188D01*
Y363220D01*
X861822D01*
Y361188D01*
X863854D01*
Y363220D01*
X865886D01*
Y361188D01*
X867918D01*
Y363220D01*
X874014D01*
Y361188D01*
X876046D01*
Y363220D01*
X878078D01*
Y361188D01*
X880110D01*
Y363220D01*
X882142D01*
Y361188D01*
X884174D01*
Y363220D01*
X890270D01*
Y361188D01*
X892302D01*
Y363220D01*
X894334D01*
Y361188D01*
X896366D01*
Y363220D01*
X898398D01*
Y361188D01*
D02*
G37*
G36*
X1207262Y353060D02*
X1205230D01*
Y351028D01*
X1203198D01*
Y348996D01*
X1201166D01*
Y351028D01*
X1199134D01*
Y353060D01*
X1201166D01*
Y355092D01*
X1207262D01*
Y353060D01*
D02*
G37*
G36*
X1079246Y550164D02*
Y548132D01*
X1081278D01*
Y546100D01*
Y544068D01*
X1083310D01*
Y542036D01*
X1081278D01*
Y540004D01*
X1083310D01*
Y537972D01*
X1085342D01*
Y535940D01*
Y533908D01*
Y531876D01*
X1087374D01*
Y529844D01*
Y527812D01*
Y525780D01*
X1089406D01*
Y523748D01*
X1091438D01*
Y521716D01*
X1089406D01*
Y519684D01*
X1091438D01*
Y517652D01*
Y515620D01*
X1093470D01*
Y513588D01*
Y511556D01*
X1095502D01*
Y509524D01*
X1093470D01*
Y507492D01*
X1095502D01*
Y505460D01*
X1097534D01*
Y503428D01*
Y501396D01*
Y499364D01*
X1099566D01*
Y497332D01*
Y495300D01*
Y493268D01*
X1101598D01*
Y491236D01*
X1103630D01*
Y489204D01*
X1101598D01*
Y487172D01*
X1103630D01*
Y485140D01*
X1105662D01*
Y483108D01*
Y481076D01*
Y479044D01*
X1107694D01*
Y477012D01*
X1105662D01*
Y474980D01*
X1107694D01*
Y472948D01*
X1109726D01*
Y470916D01*
Y468884D01*
Y466852D01*
X1111758D01*
Y464820D01*
Y462788D01*
Y460756D01*
X1113790D01*
Y458724D01*
X1115822D01*
Y456692D01*
X1113790D01*
Y454660D01*
X1115822D01*
Y452628D01*
Y450596D01*
X1117854D01*
Y448564D01*
Y446532D01*
X1119886D01*
Y444500D01*
X1117854D01*
Y442468D01*
X1119886D01*
Y440436D01*
X1121918D01*
Y438404D01*
X1123950D01*
Y436372D01*
X1121918D01*
Y434340D01*
X1123950D01*
Y432308D01*
Y430276D01*
Y428244D01*
X1125982D01*
Y426212D01*
X1128014D01*
Y424180D01*
X1125982D01*
Y422148D01*
X1128014D01*
Y420116D01*
X1130046D01*
Y418084D01*
Y416052D01*
Y414020D01*
X1132078D01*
Y411988D01*
Y409956D01*
Y407924D01*
X1134110D01*
Y405892D01*
Y403860D01*
Y401828D01*
X1136142D01*
Y399796D01*
Y397764D01*
Y395732D01*
X1138174D01*
Y393700D01*
X1140206D01*
Y391668D01*
X1138174D01*
Y389636D01*
X1140206D01*
Y387604D01*
X1142238D01*
Y385572D01*
Y383540D01*
Y381508D01*
X1144270D01*
Y379476D01*
X1142238D01*
Y377444D01*
X1144270D01*
Y375412D01*
X1146302D01*
Y373380D01*
X1148334D01*
Y371348D01*
X1146302D01*
Y369316D01*
X1148334D01*
Y367284D01*
Y365252D01*
Y363220D01*
X1150366D01*
Y361188D01*
X1152398D01*
Y359156D01*
X1150366D01*
Y357124D01*
X1152398D01*
Y355092D01*
X1154430D01*
Y353060D01*
X1152398D01*
Y351028D01*
X1158494D01*
Y353060D01*
X1160526D01*
Y351028D01*
X1162558D01*
Y353060D01*
X1164590D01*
Y351028D01*
X1166622D01*
Y353060D01*
X1168654D01*
Y351028D01*
X1174750D01*
Y353060D01*
X1176782D01*
Y351028D01*
X1178814D01*
Y353060D01*
X1176782D01*
Y355092D01*
X1174750D01*
Y357124D01*
X1172718D01*
Y359156D01*
X1170686D01*
Y361188D01*
X1168654D01*
Y363220D01*
X1174750D01*
Y361188D01*
X1176782D01*
Y359156D01*
Y357124D01*
X1178814D01*
Y355092D01*
X1180846D01*
Y353060D01*
X1182878D01*
Y351028D01*
X1184910D01*
Y348996D01*
X1140206D01*
Y351028D01*
X1138174D01*
Y353060D01*
X1136142D01*
Y351028D01*
X1138174D01*
Y348996D01*
X1026414D01*
Y351028D01*
X1024382D01*
Y353060D01*
X1022350D01*
Y351028D01*
X1024382D01*
Y348996D01*
X1010158D01*
Y351028D01*
X1008126D01*
Y353060D01*
X1006094D01*
Y351028D01*
X1008126D01*
Y348996D01*
X993902D01*
Y351028D01*
X991870D01*
Y353060D01*
X989838D01*
Y351028D01*
X991870D01*
Y348996D01*
X977646D01*
Y351028D01*
X975614D01*
Y353060D01*
X973582D01*
Y351028D01*
X975614D01*
Y348996D01*
X961390D01*
Y351028D01*
X959358D01*
Y353060D01*
X957326D01*
Y351028D01*
X959358D01*
Y348996D01*
X945134D01*
Y351028D01*
X943102D01*
Y353060D01*
X941070D01*
Y351028D01*
X943102D01*
Y348996D01*
X928878D01*
Y351028D01*
X926846D01*
Y353060D01*
X924814D01*
Y351028D01*
X926846D01*
Y348996D01*
X882142D01*
Y351028D01*
X884174D01*
Y353060D01*
X888238D01*
Y355092D01*
X890270D01*
Y353060D01*
X892302D01*
Y351028D01*
X898398D01*
Y353060D01*
X900430D01*
Y351028D01*
X902462D01*
Y353060D01*
X904494D01*
Y351028D01*
X906526D01*
Y353060D01*
X908558D01*
Y351028D01*
X914654D01*
Y353060D01*
X916686D01*
Y351028D01*
X918718D01*
Y353060D01*
X916686D01*
Y355092D01*
X918718D01*
Y357124D01*
X920750D01*
Y359156D01*
Y361188D01*
X924814D01*
Y363220D01*
X922782D01*
Y365252D01*
X926846D01*
Y367284D01*
Y369316D01*
X932942D01*
Y371348D01*
X934974D01*
Y369316D01*
X937006D01*
Y371348D01*
X939038D01*
Y369316D01*
X941070D01*
Y371348D01*
X943102D01*
Y369316D01*
X945134D01*
Y371348D01*
X947166D01*
Y369316D01*
X949198D01*
Y371348D01*
X951230D01*
Y369316D01*
X953262D01*
Y371348D01*
X955294D01*
Y369316D01*
X957326D01*
Y371348D01*
X959358D01*
Y369316D01*
X961390D01*
Y371348D01*
X963422D01*
Y369316D01*
X965454D01*
Y371348D01*
X967486D01*
Y369316D01*
X969518D01*
Y371348D01*
X971550D01*
Y369316D01*
X973582D01*
Y371348D01*
X975614D01*
Y369316D01*
X977646D01*
Y371348D01*
X979678D01*
Y369316D01*
X981710D01*
Y371348D01*
X983742D01*
Y369316D01*
X985774D01*
Y371348D01*
X987806D01*
Y369316D01*
X989838D01*
Y371348D01*
X991870D01*
Y369316D01*
X993902D01*
Y371348D01*
X995934D01*
Y373380D01*
X993902D01*
Y375412D01*
Y377444D01*
Y379476D01*
X995934D01*
Y381508D01*
X993902D01*
Y383540D01*
Y385572D01*
Y387604D01*
X995934D01*
Y389636D01*
X993902D01*
Y391668D01*
Y393700D01*
Y395732D01*
X995934D01*
Y397764D01*
X993902D01*
Y399796D01*
Y401828D01*
Y403860D01*
X995934D01*
Y405892D01*
X993902D01*
Y407924D01*
Y409956D01*
Y411988D01*
X995934D01*
Y414020D01*
X993902D01*
Y416052D01*
Y418084D01*
Y420116D01*
X995934D01*
Y422148D01*
X993902D01*
Y424180D01*
Y426212D01*
Y428244D01*
X995934D01*
Y430276D01*
X993902D01*
Y432308D01*
Y434340D01*
Y436372D01*
X995934D01*
Y438404D01*
X993902D01*
Y440436D01*
Y442468D01*
Y444500D01*
X995934D01*
Y446532D01*
X993902D01*
Y448564D01*
Y450596D01*
Y452628D01*
X991870D01*
Y450596D01*
X989838D01*
Y452628D01*
X987806D01*
Y450596D01*
X985774D01*
Y452628D01*
X983742D01*
Y450596D01*
X981710D01*
Y452628D01*
X979678D01*
Y450596D01*
X977646D01*
Y452628D01*
X975614D01*
Y450596D01*
X973582D01*
Y452628D01*
X971550D01*
Y450596D01*
X969518D01*
Y452628D01*
X967486D01*
Y450596D01*
X965454D01*
Y452628D01*
X963422D01*
Y450596D01*
X961390D01*
Y452628D01*
X959358D01*
Y450596D01*
X957326D01*
Y452628D01*
X955294D01*
Y450596D01*
X953262D01*
Y452628D01*
X951230D01*
Y450596D01*
X949198D01*
Y452628D01*
X947166D01*
Y450596D01*
X945134D01*
Y452628D01*
X943102D01*
Y450596D01*
X941070D01*
Y452628D01*
X939038D01*
Y450596D01*
X937006D01*
Y452628D01*
X934974D01*
Y450596D01*
X932942D01*
Y452628D01*
X930910D01*
Y450596D01*
X928878D01*
Y452628D01*
Y454660D01*
Y456692D01*
Y458724D01*
Y460756D01*
X930910D01*
Y462788D01*
X928878D01*
Y464820D01*
Y466852D01*
Y468884D01*
X930910D01*
Y470916D01*
X928878D01*
Y472948D01*
X930910D01*
Y474980D01*
X993902D01*
Y477012D01*
X995934D01*
Y479044D01*
X993902D01*
Y481076D01*
Y483108D01*
Y485140D01*
X995934D01*
Y487172D01*
X993902D01*
Y489204D01*
Y491236D01*
Y493268D01*
X995934D01*
Y495300D01*
X993902D01*
Y497332D01*
Y499364D01*
Y501396D01*
X995934D01*
Y503428D01*
X993902D01*
Y505460D01*
Y507492D01*
Y509524D01*
X995934D01*
Y511556D01*
X993902D01*
Y513588D01*
Y515620D01*
Y517652D01*
X995934D01*
Y519684D01*
X993902D01*
Y521716D01*
Y523748D01*
Y525780D01*
X995934D01*
Y527812D01*
X993902D01*
Y529844D01*
Y531876D01*
Y533908D01*
X991870D01*
Y531876D01*
X989838D01*
Y533908D01*
X983742D01*
Y531876D01*
X981710D01*
Y533908D01*
X975614D01*
Y531876D01*
X973582D01*
Y533908D01*
X967486D01*
Y531876D01*
X965454D01*
Y533908D01*
X959358D01*
Y531876D01*
X957326D01*
Y533908D01*
X951230D01*
Y531876D01*
X949198D01*
Y533908D01*
X943102D01*
Y531876D01*
X941070D01*
Y533908D01*
X934974D01*
Y531876D01*
X932942D01*
Y533908D01*
X924814D01*
Y535940D01*
Y537972D01*
X922782D01*
Y540004D01*
X920750D01*
Y542036D01*
X918718D01*
Y544068D01*
X920750D01*
Y546100D01*
X918718D01*
Y548132D01*
X916686D01*
Y550164D01*
X914654D01*
Y552196D01*
X1079246D01*
Y550164D01*
D02*
G37*
G36*
X1219454Y361188D02*
X1221486D01*
Y359156D01*
X1219454D01*
Y357124D01*
X1217422D01*
Y355092D01*
X1215390D01*
Y357124D01*
X1213358D01*
Y355092D01*
X1207262D01*
Y357124D01*
X1209294D01*
Y359156D01*
Y361188D01*
Y363220D01*
X1215390D01*
Y361188D01*
X1217422D01*
Y363220D01*
X1219454D01*
Y361188D01*
D02*
G37*
%LPC*%
G36*
X971550Y353060D02*
X969518D01*
Y351028D01*
X971550D01*
Y353060D01*
D02*
G37*
G36*
X967486D02*
X965454D01*
Y351028D01*
X967486D01*
Y353060D01*
D02*
G37*
G36*
X963422D02*
X961390D01*
Y351028D01*
X963422D01*
Y353060D01*
D02*
G37*
G36*
X979678D02*
X977646D01*
Y351028D01*
X979678D01*
Y353060D01*
D02*
G37*
G36*
X995934D02*
X993902D01*
Y351028D01*
X995934D01*
Y353060D01*
D02*
G37*
G36*
X987806D02*
X985774D01*
Y351028D01*
X987806D01*
Y353060D01*
D02*
G37*
G36*
X983742D02*
X981710D01*
Y351028D01*
X983742D01*
Y353060D01*
D02*
G37*
G36*
X934974D02*
X932942D01*
Y351028D01*
X934974D01*
Y353060D01*
D02*
G37*
G36*
X930910D02*
X928878D01*
Y351028D01*
X930910D01*
Y353060D01*
D02*
G37*
G36*
X922782D02*
X920750D01*
Y351028D01*
X922782D01*
Y353060D01*
D02*
G37*
G36*
X939038D02*
X937006D01*
Y351028D01*
X939038D01*
Y353060D01*
D02*
G37*
G36*
X955294D02*
X953262D01*
Y351028D01*
X955294D01*
Y353060D01*
D02*
G37*
G36*
X951230D02*
X949198D01*
Y351028D01*
X951230D01*
Y353060D01*
D02*
G37*
G36*
X947166D02*
X945134D01*
Y351028D01*
X947166D01*
Y353060D01*
D02*
G37*
G36*
X999998D02*
X997966D01*
Y351028D01*
X999998D01*
Y353060D01*
D02*
G37*
G36*
X1142238D02*
X1140206D01*
Y351028D01*
X1142238D01*
Y353060D01*
D02*
G37*
G36*
X1134110D02*
X1132078D01*
Y351028D01*
X1134110D01*
Y353060D01*
D02*
G37*
G36*
X1130046D02*
X1128014D01*
Y351028D01*
X1130046D01*
Y353060D01*
D02*
G37*
G36*
X1146302D02*
X1144270D01*
Y351028D01*
X1146302D01*
Y353060D01*
D02*
G37*
G36*
X1058926Y533908D02*
X1040638D01*
Y531876D01*
X1042670D01*
Y529844D01*
X1040638D01*
Y527812D01*
X1042670D01*
Y525780D01*
X1040638D01*
Y523748D01*
X1042670D01*
Y521716D01*
X1040638D01*
Y519684D01*
X1042670D01*
Y517652D01*
X1040638D01*
Y515620D01*
X1042670D01*
Y513588D01*
X1040638D01*
Y511556D01*
X1042670D01*
Y509524D01*
X1040638D01*
Y507492D01*
X1042670D01*
Y505460D01*
X1040638D01*
Y503428D01*
X1042670D01*
Y501396D01*
X1040638D01*
Y499364D01*
X1042670D01*
Y497332D01*
X1040638D01*
Y495300D01*
X1042670D01*
Y493268D01*
X1040638D01*
Y491236D01*
X1042670D01*
Y489204D01*
X1040638D01*
Y487172D01*
X1042670D01*
Y485140D01*
X1040638D01*
Y483108D01*
X1042670D01*
Y481076D01*
X1040638D01*
Y479044D01*
X1042670D01*
Y477012D01*
X1040638D01*
Y474980D01*
X1042670D01*
Y472948D01*
X1044702D01*
Y474980D01*
X1046734D01*
Y472948D01*
X1048766D01*
Y474980D01*
X1050798D01*
Y472948D01*
X1052830D01*
Y474980D01*
X1054862D01*
Y472948D01*
X1056894D01*
Y474980D01*
X1058926D01*
Y472948D01*
X1060958D01*
Y474980D01*
X1062990D01*
Y472948D01*
X1065022D01*
Y474980D01*
X1067054D01*
Y472948D01*
X1069086D01*
Y474980D01*
X1071118D01*
Y472948D01*
X1073150D01*
Y474980D01*
X1075182D01*
Y472948D01*
X1077214D01*
Y474980D01*
X1079246D01*
Y477012D01*
X1077214D01*
Y479044D01*
X1079246D01*
Y481076D01*
X1077214D01*
Y483108D01*
Y485140D01*
X1075182D01*
Y487172D01*
Y489204D01*
X1073150D01*
Y491236D01*
X1075182D01*
Y493268D01*
X1073150D01*
Y495300D01*
X1071118D01*
Y497332D01*
Y499364D01*
Y501396D01*
X1069086D01*
Y503428D01*
Y505460D01*
Y507492D01*
X1067054D01*
Y509524D01*
Y511556D01*
Y513588D01*
X1065022D01*
Y515620D01*
Y517652D01*
Y519684D01*
X1062990D01*
Y521716D01*
X1060958D01*
Y523748D01*
X1062990D01*
Y525780D01*
X1060958D01*
Y527812D01*
Y529844D01*
Y531876D01*
X1058926D01*
Y533908D01*
D02*
G37*
G36*
X1087374Y448564D02*
X1085342D01*
Y446532D01*
X1083310D01*
Y448564D01*
X1081278D01*
Y446532D01*
X1079246D01*
Y448564D01*
X1077214D01*
Y446532D01*
X1075182D01*
Y448564D01*
X1073150D01*
Y446532D01*
X1071118D01*
Y448564D01*
X1069086D01*
Y446532D01*
X1067054D01*
Y448564D01*
X1065022D01*
Y446532D01*
X1062990D01*
Y448564D01*
X1060958D01*
Y446532D01*
X1058926D01*
Y448564D01*
X1056894D01*
Y446532D01*
X1054862D01*
Y448564D01*
X1052830D01*
Y446532D01*
X1050798D01*
Y448564D01*
X1048766D01*
Y446532D01*
X1046734D01*
Y448564D01*
X1044702D01*
Y446532D01*
X1042670D01*
Y448564D01*
X1040638D01*
Y446532D01*
X1042670D01*
Y444500D01*
X1040638D01*
Y442468D01*
X1042670D01*
Y440436D01*
X1040638D01*
Y438404D01*
X1042670D01*
Y436372D01*
X1040638D01*
Y434340D01*
X1042670D01*
Y432308D01*
X1040638D01*
Y430276D01*
X1042670D01*
Y428244D01*
X1040638D01*
Y426212D01*
X1042670D01*
Y424180D01*
X1040638D01*
Y422148D01*
X1042670D01*
Y420116D01*
X1040638D01*
Y418084D01*
X1042670D01*
Y416052D01*
X1040638D01*
Y414020D01*
X1042670D01*
Y411988D01*
X1040638D01*
Y409956D01*
X1042670D01*
Y407924D01*
X1040638D01*
Y405892D01*
X1042670D01*
Y403860D01*
X1040638D01*
Y401828D01*
X1042670D01*
Y399796D01*
X1040638D01*
Y397764D01*
X1042670D01*
Y395732D01*
X1040638D01*
Y393700D01*
X1042670D01*
Y391668D01*
X1040638D01*
Y389636D01*
X1042670D01*
Y387604D01*
X1040638D01*
Y385572D01*
X1042670D01*
Y383540D01*
X1040638D01*
Y381508D01*
X1042670D01*
Y379476D01*
X1040638D01*
Y377444D01*
X1042670D01*
Y375412D01*
X1040638D01*
Y373380D01*
X1042670D01*
Y371348D01*
X1040638D01*
Y369316D01*
X1042670D01*
Y367284D01*
X1040638D01*
Y365252D01*
X1042670D01*
Y363220D01*
X1040638D01*
Y361188D01*
X1042670D01*
Y359156D01*
X1040638D01*
Y357124D01*
X1042670D01*
Y355092D01*
X1040638D01*
Y353060D01*
X1042670D01*
Y351028D01*
X1044702D01*
Y353060D01*
X1046734D01*
Y351028D01*
X1048766D01*
Y353060D01*
X1050798D01*
Y351028D01*
X1052830D01*
Y353060D01*
X1054862D01*
Y351028D01*
X1060958D01*
Y353060D01*
X1062990D01*
Y351028D01*
X1065022D01*
Y353060D01*
X1067054D01*
Y351028D01*
X1069086D01*
Y353060D01*
X1071118D01*
Y351028D01*
X1077214D01*
Y353060D01*
X1079246D01*
Y351028D01*
X1081278D01*
Y353060D01*
X1083310D01*
Y351028D01*
X1085342D01*
Y353060D01*
X1087374D01*
Y351028D01*
X1093470D01*
Y353060D01*
X1095502D01*
Y351028D01*
X1097534D01*
Y353060D01*
X1099566D01*
Y351028D01*
X1101598D01*
Y353060D01*
X1103630D01*
Y351028D01*
X1109726D01*
Y353060D01*
X1111758D01*
Y351028D01*
X1113790D01*
Y353060D01*
X1115822D01*
Y351028D01*
X1117854D01*
Y353060D01*
X1119886D01*
Y351028D01*
X1121918D01*
Y353060D01*
X1123950D01*
Y351028D01*
X1125982D01*
Y353060D01*
X1123950D01*
Y355092D01*
X1121918D01*
Y357124D01*
X1119886D01*
Y359156D01*
Y361188D01*
Y363220D01*
X1117854D01*
Y365252D01*
Y367284D01*
Y369316D01*
X1115822D01*
Y371348D01*
X1113790D01*
Y373380D01*
X1115822D01*
Y375412D01*
X1113790D01*
Y377444D01*
Y379476D01*
X1111758D01*
Y381508D01*
Y383540D01*
X1109726D01*
Y385572D01*
X1111758D01*
Y387604D01*
X1109726D01*
Y389636D01*
X1107694D01*
Y391668D01*
Y393700D01*
Y395732D01*
X1105662D01*
Y397764D01*
Y399796D01*
Y401828D01*
X1103630D01*
Y403860D01*
Y405892D01*
Y407924D01*
X1101598D01*
Y409956D01*
Y411988D01*
Y414020D01*
X1099566D01*
Y416052D01*
X1097534D01*
Y418084D01*
X1099566D01*
Y420116D01*
X1097534D01*
Y422148D01*
X1095502D01*
Y424180D01*
X1093470D01*
Y426212D01*
X1095502D01*
Y428244D01*
X1093470D01*
Y430276D01*
Y432308D01*
Y434340D01*
X1091438D01*
Y436372D01*
X1089406D01*
Y438404D01*
X1091438D01*
Y440436D01*
X1089406D01*
Y442468D01*
X1087374D01*
Y444500D01*
Y446532D01*
Y448564D01*
D02*
G37*
G36*
X1150366Y353060D02*
X1148334D01*
Y351028D01*
X1150366D01*
Y353060D01*
D02*
G37*
G36*
X1040638D02*
X1038606D01*
Y351028D01*
X1040638D01*
Y353060D01*
D02*
G37*
G36*
X1016254D02*
X1014222D01*
Y351028D01*
X1016254D01*
Y353060D01*
D02*
G37*
G36*
X1012190D02*
X1010158D01*
Y351028D01*
X1012190D01*
Y353060D01*
D02*
G37*
G36*
X1004062D02*
X1002030D01*
Y351028D01*
X1004062D01*
Y353060D01*
D02*
G37*
G36*
X1020318D02*
X1018286D01*
Y351028D01*
X1020318D01*
Y353060D01*
D02*
G37*
G36*
X1036574D02*
X1034542D01*
Y351028D01*
X1036574D01*
Y353060D01*
D02*
G37*
G36*
X1032510D02*
X1030478D01*
Y351028D01*
X1032510D01*
Y353060D01*
D02*
G37*
G36*
X1028446D02*
X1026414D01*
Y351028D01*
X1028446D01*
Y353060D01*
D02*
G37*
%LPD*%
D44*
X710155Y517155D02*
X711822Y518821D01*
X715154D01*
X716820Y517155D01*
Y510491D01*
X715154Y508825D01*
X711822D01*
X710155Y510491D01*
X701825Y508825D02*
X705157D01*
X706823Y510491D01*
Y513823D01*
X705157Y515489D01*
X701825D01*
X700159Y513823D01*
Y512157D01*
X706823D01*
X696826Y508825D02*
Y515489D01*
X691828D01*
X690162Y513823D01*
Y508825D01*
X685163Y517155D02*
Y515489D01*
X686830D01*
X683497D01*
X685163D01*
Y510491D01*
X683497Y508825D01*
X678499Y515489D02*
Y508825D01*
Y512157D01*
X676833Y513823D01*
X675167Y515489D01*
X673501D01*
X666836D02*
X663504D01*
X661838Y513823D01*
Y508825D01*
X666836D01*
X668502Y510491D01*
X666836Y512157D01*
X661838D01*
X658505Y508825D02*
X655173D01*
X656839D01*
Y518821D01*
X658505D01*
X633513Y517155D02*
X635180Y518821D01*
X638512D01*
X640178Y517155D01*
Y510491D01*
X638512Y508825D01*
X635180D01*
X633513Y510491D01*
X628515Y508825D02*
X625183D01*
X623517Y510491D01*
Y513823D01*
X625183Y515489D01*
X628515D01*
X630181Y513823D01*
Y510491D01*
X628515Y508825D01*
X620185D02*
Y515489D01*
X618518D01*
X616852Y513823D01*
Y508825D01*
Y513823D01*
X615186Y515489D01*
X613520Y513823D01*
Y508825D01*
X610188D02*
Y515489D01*
X608522D01*
X606856Y513823D01*
Y508825D01*
Y513823D01*
X605189Y515489D01*
X603523Y513823D01*
Y508825D01*
X600191Y515489D02*
Y510491D01*
X598525Y508825D01*
X593526D01*
Y515489D01*
X590194Y508825D02*
Y515489D01*
X585196D01*
X583530Y513823D01*
Y508825D01*
X580197D02*
X576865D01*
X578531D01*
Y515489D01*
X580197D01*
X565202D02*
X570201D01*
X571867Y513823D01*
Y510491D01*
X570201Y508825D01*
X565202D01*
X560204Y515489D02*
X556872D01*
X555205Y513823D01*
Y508825D01*
X560204D01*
X561870Y510491D01*
X560204Y512157D01*
X555205D01*
X550207Y517155D02*
Y515489D01*
X551873D01*
X548541D01*
X550207D01*
Y510491D01*
X548541Y508825D01*
X543543D02*
X540210D01*
X541876D01*
Y515489D01*
X543543D01*
X533546Y508825D02*
X530214D01*
X528547Y510491D01*
Y513823D01*
X530214Y515489D01*
X533546D01*
X535212Y513823D01*
Y510491D01*
X533546Y508825D01*
X525215D02*
Y515489D01*
X520217D01*
X518551Y513823D01*
Y508825D01*
X716820Y502025D02*
Y495361D01*
X713488Y492028D01*
X710155Y495361D01*
Y502025D01*
X706823Y492028D02*
X703491D01*
X705157D01*
Y502025D01*
X706823Y500359D01*
X698493Y492028D02*
Y493694D01*
X696826D01*
Y492028D01*
X698493D01*
X690162D02*
X686830D01*
X688496D01*
Y502025D01*
X690162Y500359D01*
X716820Y485229D02*
Y475232D01*
X711822D01*
X710155Y476898D01*
Y478564D01*
X711822Y480231D01*
X716820D01*
X711822D01*
X710155Y481897D01*
Y483563D01*
X711822Y485229D01*
X716820D01*
X706823Y481897D02*
Y476898D01*
X705157Y475232D01*
X700159D01*
Y473566D01*
X701825Y471900D01*
X703491D01*
X700159Y475232D02*
Y481897D01*
X696826D02*
X695160D01*
Y480231D01*
X696826D01*
Y481897D01*
Y476898D02*
X695160D01*
Y475232D01*
X696826D01*
Y476898D01*
X678499Y475232D02*
Y485229D01*
X673501D01*
X671834Y483563D01*
Y480231D01*
X673501Y478564D01*
X678499D01*
X675167D02*
X671834Y475232D01*
X666836D02*
X663504D01*
X661838Y476898D01*
Y480231D01*
X663504Y481897D01*
X666836D01*
X668502Y480231D01*
Y476898D01*
X666836Y475232D01*
X658505Y485229D02*
Y475232D01*
X653507D01*
X651841Y476898D01*
Y478564D01*
Y480231D01*
X653507Y481897D01*
X658505D01*
X643510Y475232D02*
X646842D01*
X648509Y476898D01*
Y480231D01*
X646842Y481897D01*
X643510D01*
X641844Y480231D01*
Y478564D01*
X648509D01*
X638512Y481897D02*
Y475232D01*
Y478564D01*
X636846Y480231D01*
X635180Y481897D01*
X633513D01*
X626849Y483563D02*
Y481897D01*
X628515D01*
X625183D01*
X626849D01*
Y476898D01*
X625183Y475232D01*
X610188Y485229D02*
Y475232D01*
X605189D01*
X603523Y476898D01*
Y483563D01*
X605189Y485229D01*
X610188D01*
X600191Y481897D02*
Y476898D01*
X598525Y475232D01*
X593526D01*
Y481897D01*
X590194Y475232D02*
Y481897D01*
X585196D01*
X583530Y480231D01*
Y475232D01*
X580197D02*
Y481897D01*
X575199D01*
X573533Y480231D01*
Y475232D01*
D78*
X1160780Y777240D02*
Y789236D01*
X1154782Y795234D01*
X1148784Y789236D01*
Y777240D01*
Y786237D01*
X1160780D01*
X1142786Y777240D02*
X1136788D01*
X1139787D01*
Y795234D01*
X1142786D01*
X1127791D02*
Y777240D01*
X1118794D01*
X1115795Y780239D01*
Y783238D01*
Y786237D01*
X1118794Y789236D01*
X1127791D01*
X1106797D02*
X1100799D01*
X1097800Y786237D01*
Y777240D01*
X1106797D01*
X1109797Y780239D01*
X1106797Y783238D01*
X1097800D01*
X1088803Y792235D02*
Y789236D01*
X1091802D01*
X1085804D01*
X1088803D01*
Y780239D01*
X1085804Y777240D01*
X1076807Y789236D02*
Y777240D01*
Y783238D01*
X1073808Y786237D01*
X1070809Y789236D01*
X1067810D01*
X1055814Y777240D02*
X1049816D01*
X1046817Y780239D01*
Y786237D01*
X1049816Y789236D01*
X1055814D01*
X1058813Y786237D01*
Y780239D01*
X1055814Y777240D01*
X1040819D02*
X1031822D01*
X1028823Y780239D01*
X1031822Y783238D01*
X1037820D01*
X1040819Y786237D01*
X1037820Y789236D01*
X1028823D01*
X1022825Y777240D02*
X1013828D01*
X1010829Y780239D01*
X1013828Y783238D01*
X1019826D01*
X1022825Y786237D01*
X1019826Y789236D01*
X1010829D01*
X974840Y795234D02*
X986836D01*
Y777240D01*
X974840D01*
X986836Y786237D02*
X980838D01*
X968842Y777240D02*
X962844D01*
X965843D01*
Y795234D01*
X968842D01*
X944850Y777240D02*
X950848D01*
X953847Y780239D01*
Y786237D01*
X950848Y789236D01*
X944850D01*
X941851Y786237D01*
Y783238D01*
X953847D01*
X923857Y789236D02*
X932854D01*
X935853Y786237D01*
Y780239D01*
X932854Y777240D01*
X923857D01*
X914860Y792235D02*
Y789236D01*
X917859D01*
X911861D01*
X914860D01*
Y780239D01*
X911861Y777240D01*
X902863Y789236D02*
Y777240D01*
Y783238D01*
X899865Y786237D01*
X896865Y789236D01*
X893866D01*
X881870Y777240D02*
X875872D01*
X872873Y780239D01*
Y786237D01*
X875872Y789236D01*
X881870D01*
X884869Y786237D01*
Y780239D01*
X881870Y777240D01*
X866875D02*
Y789236D01*
X857878D01*
X854879Y786237D01*
Y777240D01*
X848881D02*
X842883D01*
X845882D01*
Y789236D01*
X848881D01*
X821890D02*
X830887D01*
X833886Y786237D01*
Y780239D01*
X830887Y777240D01*
X821890D01*
X815892D02*
X806895D01*
X803896Y780239D01*
X806895Y783238D01*
X812893D01*
X815892Y786237D01*
X812893Y789236D01*
X803896D01*
M02*
