G04 Layer_Color=8421504*
%FSLAX44Y44*%
%MOMM*%
G71*
G01*
G75*
%ADD10R,0.5000X0.8000*%
%ADD11R,1.0000X0.6000*%
%ADD12R,1.5000X0.7000*%
%ADD13R,0.7000X1.5000*%
G04:AMPARAMS|DCode=14|XSize=0.3mm|YSize=1.8mm|CornerRadius=0mm|HoleSize=0mm|Usage=FLASHONLY|Rotation=315.000|XOffset=0mm|YOffset=0mm|HoleType=Round|Shape=Round|*
%AMOVALD14*
21,1,1.5000,0.3000,0.0000,0.0000,45.0*
1,1,0.3000,-0.5303,-0.5303*
1,1,0.3000,0.5303,0.5303*
%
%ADD14OVALD14*%

G04:AMPARAMS|DCode=15|XSize=0.3mm|YSize=1.8mm|CornerRadius=0mm|HoleSize=0mm|Usage=FLASHONLY|Rotation=225.000|XOffset=0mm|YOffset=0mm|HoleType=Round|Shape=Round|*
%AMOVALD15*
21,1,1.5000,0.3000,0.0000,0.0000,315.0*
1,1,0.3000,-0.5303,0.5303*
1,1,0.3000,0.5303,-0.5303*
%
%ADD15OVALD15*%

%ADD17R,0.9000X0.7000*%
%ADD18R,0.7000X0.9000*%
%ADD19R,1.4000X4.5000*%
%ADD20R,4.5000X1.4000*%
%ADD21R,0.8000X0.5000*%
%ADD22R,1.5500X1.4000*%
G04:AMPARAMS|DCode=23|XSize=2.4mm|YSize=0.76mm|CornerRadius=0mm|HoleSize=0mm|Usage=FLASHONLY|Rotation=135.000|XOffset=0mm|YOffset=0mm|HoleType=Round|Shape=Rectangle|*
%AMROTATEDRECTD23*
4,1,4,1.1172,-0.5798,0.5798,-1.1172,-1.1172,0.5798,-0.5798,1.1172,1.1172,-0.5798,0.0*
%
%ADD23ROTATEDRECTD23*%

%ADD24R,1.2000X0.8500*%
%ADD25R,1.2700X0.7620*%
%ADD26R,2.5400X2.6700*%
G04:AMPARAMS|DCode=27|XSize=0.9mm|YSize=0.7mm|CornerRadius=0mm|HoleSize=0mm|Usage=FLASHONLY|Rotation=135.000|XOffset=0mm|YOffset=0mm|HoleType=Round|Shape=Rectangle|*
%AMROTATEDRECTD27*
4,1,4,0.5657,-0.0707,0.0707,-0.5657,-0.5657,0.0707,-0.0707,0.5657,0.5657,-0.0707,0.0*
%
%ADD27ROTATEDRECTD27*%

G04:AMPARAMS|DCode=28|XSize=0.9mm|YSize=0.7mm|CornerRadius=0mm|HoleSize=0mm|Usage=FLASHONLY|Rotation=225.000|XOffset=0mm|YOffset=0mm|HoleType=Round|Shape=Rectangle|*
%AMROTATEDRECTD28*
4,1,4,0.0707,0.5657,0.5657,0.0707,-0.0707,-0.5657,-0.5657,-0.0707,0.0707,0.5657,0.0*
%
%ADD28ROTATEDRECTD28*%

D10*
X812000Y890740D02*
D03*
X797000D02*
D03*
X940100Y464820D02*
D03*
X955100D02*
D03*
X971080Y506260D02*
D03*
X986080D02*
D03*
X938530Y427990D02*
D03*
X953530D02*
D03*
X938830Y390360D02*
D03*
X953830D02*
D03*
X853670Y775015D02*
D03*
X868670D02*
D03*
X812650Y939000D02*
D03*
X797650D02*
D03*
D11*
X873540Y824890D02*
D03*
Y834390D02*
D03*
Y843890D02*
D03*
X846040D02*
D03*
Y824890D02*
D03*
D12*
X781050Y383670D02*
D03*
Y395670D02*
D03*
Y407670D02*
D03*
Y419670D02*
D03*
Y431670D02*
D03*
X866050D02*
D03*
Y419670D02*
D03*
Y407670D02*
D03*
Y395670D02*
D03*
Y383670D02*
D03*
D13*
X793550Y448170D02*
D03*
X805550D02*
D03*
X817550D02*
D03*
X829550D02*
D03*
X841550D02*
D03*
X853550D02*
D03*
D14*
X1079180Y665778D02*
D03*
X1075645Y669313D02*
D03*
X1072109Y672849D02*
D03*
X1068574Y676385D02*
D03*
X1065038Y679920D02*
D03*
X1061503Y683456D02*
D03*
X1057967Y686991D02*
D03*
X1054432Y690527D02*
D03*
X1050896Y694062D02*
D03*
X1047361Y697598D02*
D03*
X1043825Y701133D02*
D03*
X1040290Y704669D02*
D03*
X1036754Y708204D02*
D03*
X1033219Y711740D02*
D03*
X1029683Y715275D02*
D03*
X1026147Y718811D02*
D03*
X1022612Y722346D02*
D03*
X1019076Y725882D02*
D03*
X1015541Y729417D02*
D03*
X1012005Y732953D02*
D03*
X1008470Y736488D02*
D03*
X1004934Y740024D02*
D03*
X1001399Y743560D02*
D03*
X997863Y747095D02*
D03*
X994328Y750631D02*
D03*
X887554Y643858D02*
D03*
X891090Y640322D02*
D03*
X894625Y636786D02*
D03*
X898161Y633251D02*
D03*
X901697Y629715D02*
D03*
X905232Y626180D02*
D03*
X908768Y622644D02*
D03*
X912303Y619109D02*
D03*
X915839Y615573D02*
D03*
X919374Y612038D02*
D03*
X922910Y608502D02*
D03*
X926445Y604967D02*
D03*
X929981Y601431D02*
D03*
X933516Y597896D02*
D03*
X937052Y594360D02*
D03*
X940587Y590825D02*
D03*
X944123Y587289D02*
D03*
X947659Y583754D02*
D03*
X951194Y580218D02*
D03*
X954730Y576682D02*
D03*
X958265Y573147D02*
D03*
X961801Y569611D02*
D03*
X965336Y566076D02*
D03*
X968872Y562540D02*
D03*
X972407Y559005D02*
D03*
D15*
Y750631D02*
D03*
X968872Y747095D02*
D03*
X965336Y743560D02*
D03*
X961801Y740024D02*
D03*
X958265Y736488D02*
D03*
X954730Y732953D02*
D03*
X951194Y729417D02*
D03*
X947659Y725882D02*
D03*
X944123Y722346D02*
D03*
X940587Y718811D02*
D03*
X937052Y715275D02*
D03*
X933516Y711740D02*
D03*
X929981Y708204D02*
D03*
X926445Y704669D02*
D03*
X922910Y701133D02*
D03*
X919374Y697598D02*
D03*
X915839Y694062D02*
D03*
X912303Y690527D02*
D03*
X908768Y686991D02*
D03*
X905232Y683456D02*
D03*
X901697Y679920D02*
D03*
X898161Y676385D02*
D03*
X894625Y672849D02*
D03*
X891090Y669313D02*
D03*
X887554Y665778D02*
D03*
X994328Y559005D02*
D03*
X997863Y562540D02*
D03*
X1001399Y566076D02*
D03*
X1004934Y569611D02*
D03*
X1008470Y573147D02*
D03*
X1012005Y576682D02*
D03*
X1015541Y580218D02*
D03*
X1019076Y583754D02*
D03*
X1022612Y587289D02*
D03*
X1026147Y590825D02*
D03*
X1029683Y594360D02*
D03*
X1033219Y597896D02*
D03*
X1036754Y601431D02*
D03*
X1040290Y604967D02*
D03*
X1043825Y608502D02*
D03*
X1047361Y612038D02*
D03*
X1050896Y615573D02*
D03*
X1054432Y619109D02*
D03*
X1057967Y622644D02*
D03*
X1061503Y626180D02*
D03*
X1065038Y629715D02*
D03*
X1068574Y633251D02*
D03*
X1072109Y636786D02*
D03*
X1075645Y640322D02*
D03*
X1079180Y643858D02*
D03*
D17*
X734860Y406870D02*
D03*
Y420870D02*
D03*
X1099397Y431398D02*
D03*
Y445398D02*
D03*
X1071926Y429008D02*
D03*
Y443008D02*
D03*
X1041447Y429628D02*
D03*
Y443628D02*
D03*
X1012236Y429628D02*
D03*
Y443628D02*
D03*
X810260Y602630D02*
D03*
Y588630D02*
D03*
X769620Y563260D02*
D03*
Y549260D02*
D03*
X731520Y615330D02*
D03*
Y601330D02*
D03*
X792480Y570200D02*
D03*
Y584200D02*
D03*
X782320Y490190D02*
D03*
Y504190D02*
D03*
X749300Y550505D02*
D03*
Y564505D02*
D03*
X739940Y509120D02*
D03*
Y523120D02*
D03*
X812800Y626110D02*
D03*
Y640110D02*
D03*
X760730Y421020D02*
D03*
Y407020D02*
D03*
X825500Y810880D02*
D03*
Y824880D02*
D03*
X927100Y809290D02*
D03*
Y795290D02*
D03*
X1140460Y619110D02*
D03*
Y633110D02*
D03*
D18*
X823660Y774215D02*
D03*
X837660D02*
D03*
X842010Y891540D02*
D03*
X828010D02*
D03*
X842660Y939800D02*
D03*
X828660D02*
D03*
X1000140Y524510D02*
D03*
X986140D02*
D03*
X979820Y447040D02*
D03*
X965820D02*
D03*
X979820Y408940D02*
D03*
X965820D02*
D03*
X941070Y505460D02*
D03*
X955070D02*
D03*
X908520Y427190D02*
D03*
X922520D02*
D03*
X979820Y485140D02*
D03*
X965820D02*
D03*
X908820Y390360D02*
D03*
X922820D02*
D03*
X910090Y465290D02*
D03*
X924090D02*
D03*
X733410Y633730D02*
D03*
X747410D02*
D03*
X1159157Y597825D02*
D03*
X1173157D02*
D03*
X812770Y843280D02*
D03*
X826770D02*
D03*
D19*
X1117700Y883220D02*
D03*
X1067700D02*
D03*
D20*
X1304290Y868350D02*
D03*
Y818350D02*
D03*
Y768350D02*
D03*
Y718350D02*
D03*
X1304860Y586840D02*
D03*
Y536840D02*
D03*
Y486840D02*
D03*
Y436840D02*
D03*
X604520Y707390D02*
D03*
Y757390D02*
D03*
Y807390D02*
D03*
Y857390D02*
D03*
Y424980D02*
D03*
Y474980D02*
D03*
Y524980D02*
D03*
Y574980D02*
D03*
D21*
X792950Y600210D02*
D03*
Y615210D02*
D03*
X749300Y580515D02*
D03*
Y595515D02*
D03*
X782320Y520200D02*
D03*
Y535200D02*
D03*
X735330Y435610D02*
D03*
Y450610D02*
D03*
X739470Y493110D02*
D03*
Y478110D02*
D03*
X1099350Y413870D02*
D03*
Y398870D02*
D03*
X1071457Y412998D02*
D03*
Y397998D02*
D03*
X1040976Y412998D02*
D03*
Y397998D02*
D03*
X1011767Y412998D02*
D03*
Y397998D02*
D03*
D22*
X1240577Y666685D02*
D03*
X1161077D02*
D03*
X1240577Y620685D02*
D03*
X1161077D02*
D03*
X713360Y652640D02*
D03*
X792860D02*
D03*
X713360Y698640D02*
D03*
X792860D02*
D03*
D23*
X1090022Y585469D02*
D03*
X1117599Y557892D02*
D03*
X1081042Y576489D02*
D03*
X1108619Y548912D02*
D03*
X1072061Y567509D02*
D03*
X1099639Y539931D02*
D03*
X1063081Y558528D02*
D03*
X1090658Y530951D02*
D03*
X1054101Y549548D02*
D03*
X1081678Y521971D02*
D03*
D24*
X1159827Y744855D02*
D03*
Y712355D02*
D03*
X726440Y792480D02*
D03*
Y824980D02*
D03*
X704850Y722630D02*
D03*
Y755130D02*
D03*
X1139190Y805180D02*
D03*
Y772680D02*
D03*
D25*
X982980Y861045D02*
D03*
X985520Y773445D02*
D03*
D26*
X982980Y837550D02*
D03*
X985520Y796940D02*
D03*
D27*
X848490Y636400D02*
D03*
X858390Y646300D02*
D03*
D28*
X961130Y541281D02*
D03*
X951230Y551180D02*
D03*
X1041614Y740999D02*
D03*
X1051514Y731100D02*
D03*
X1072168Y710445D02*
D03*
X1062269Y720344D02*
D03*
M02*
