G04 Layer_Color=16711935*
%FSLAX44Y44*%
%MOMM*%
G71*
G01*
G75*
G04:AMPARAMS|DCode=64|XSize=1.1mm|YSize=0.9mm|CornerRadius=0mm|HoleSize=0mm|Usage=FLASHONLY|Rotation=135.000|XOffset=0mm|YOffset=0mm|HoleType=Round|Shape=Rectangle|*
%AMROTATEDRECTD64*
4,1,4,0.7071,-0.0707,0.0707,-0.7071,-0.7071,0.0707,-0.0707,0.7071,0.7071,-0.0707,0.0*
%
%ADD64ROTATEDRECTD64*%

G04:AMPARAMS|DCode=65|XSize=1.1mm|YSize=0.9mm|CornerRadius=0mm|HoleSize=0mm|Usage=FLASHONLY|Rotation=225.000|XOffset=0mm|YOffset=0mm|HoleType=Round|Shape=Rectangle|*
%AMROTATEDRECTD65*
4,1,4,0.0707,0.7071,0.7071,0.0707,-0.0707,-0.7071,-0.7071,-0.0707,0.0707,0.7071,0.0*
%
%ADD65ROTATEDRECTD65*%

%ADD66C,8.5000*%
%ADD68C,1.2000*%
%ADD69C,2.2000*%
%ADD70C,2.1500*%
%ADD71C,2.1532*%
%ADD72C,1.5716*%
%ADD73C,2.1000*%
%ADD74C,0.9000*%
%ADD75C,0.2000*%
D64*
X1029940Y652971D02*
D03*
X1039839Y662871D02*
D03*
X975878Y703208D02*
D03*
X985777Y713108D02*
D03*
X988578Y691778D02*
D03*
X998477Y701677D02*
D03*
X1002290Y677170D02*
D03*
X1012190Y687070D02*
D03*
X1042512Y640399D02*
D03*
X1052412Y650298D02*
D03*
X962588Y713139D02*
D03*
X972487Y723039D02*
D03*
X1017400Y665610D02*
D03*
X1027300Y675510D02*
D03*
D65*
X967870Y594230D02*
D03*
X977770Y584330D02*
D03*
X921300Y638603D02*
D03*
X911400Y648503D02*
D03*
D66*
X675000Y380000D02*
D03*
X1201420D02*
D03*
X1228090Y930000D02*
D03*
X675000D02*
D03*
D68*
X1067925Y768569D02*
D03*
X1102432Y734062D02*
D03*
D69*
X971550Y902060D02*
D03*
X946150D02*
D03*
X920750D02*
D03*
D70*
X1155700Y934720D02*
D03*
D71*
X1029700D02*
D03*
D72*
X842010Y495300D02*
D03*
X816610D02*
D03*
X867410D02*
D03*
X892810D02*
D03*
X863510Y690790D02*
D03*
X845549Y672829D02*
D03*
X881470Y708750D02*
D03*
X899431Y726711D02*
D03*
D73*
X1355790Y906350D02*
D03*
Y680350D02*
D03*
X1356360Y624840D02*
D03*
Y398840D02*
D03*
X553020Y669390D02*
D03*
Y895390D02*
D03*
Y386980D02*
D03*
Y612980D02*
D03*
D74*
X925830Y847090D02*
D03*
X908050Y825500D02*
D03*
X746760Y422910D02*
D03*
X998220Y588010D02*
D03*
X985520Y549910D02*
D03*
X1202690Y670560D02*
D03*
X1217930Y661670D02*
D03*
X1236980Y703580D02*
D03*
X1127760Y628650D02*
D03*
X1139190Y607060D02*
D03*
X969010Y391160D02*
D03*
X676910Y754380D02*
D03*
X690880Y746760D02*
D03*
X680720Y566420D02*
D03*
X628650Y552450D02*
D03*
X698500Y549910D02*
D03*
X902623Y451430D02*
D03*
X822960Y659130D02*
D03*
X802640Y528320D02*
D03*
X1098550Y595630D02*
D03*
X1108710Y586740D02*
D03*
X1137920Y561340D02*
D03*
X1008380Y708660D02*
D03*
X707390Y836930D02*
D03*
X726440Y849630D02*
D03*
X848360Y855980D02*
D03*
X901700Y796290D02*
D03*
X943610Y853440D02*
D03*
X848360Y797560D02*
D03*
Y811530D02*
D03*
X1003300Y843280D02*
D03*
X1010920Y831850D02*
D03*
X1022350Y822960D02*
D03*
X885190Y775970D02*
D03*
X904240Y411480D02*
D03*
X1149350Y579120D02*
D03*
X885190Y594360D02*
D03*
X946150Y613410D02*
D03*
X961390Y610870D02*
D03*
X916940Y664677D02*
D03*
X932180Y648970D02*
D03*
X935990Y688340D02*
D03*
X943610Y695960D02*
D03*
X1033780Y632460D02*
D03*
X1021080Y643890D02*
D03*
X1008380Y657860D02*
D03*
X952500Y704850D02*
D03*
X967740Y693420D02*
D03*
X982980Y681990D02*
D03*
X991870Y666750D02*
D03*
X775970Y619760D02*
D03*
X1221740Y713740D02*
D03*
X1203960Y775970D02*
D03*
X1122680Y792480D02*
D03*
X1112520Y760730D02*
D03*
X1127760Y741680D02*
D03*
X902970Y924560D02*
D03*
X915670Y951230D02*
D03*
X617220Y872490D02*
D03*
X829310Y720090D02*
D03*
X814070D02*
D03*
X782320Y558800D02*
D03*
X826770Y604520D02*
D03*
X763270Y598170D02*
D03*
X709930Y533400D02*
D03*
X706120Y440690D02*
D03*
X882650Y386080D02*
D03*
X975360Y464820D02*
D03*
X974090Y427990D02*
D03*
X1085850Y458470D02*
D03*
X1116330Y467360D02*
D03*
X1027430Y459740D02*
D03*
X1056640D02*
D03*
X995680Y482600D02*
D03*
X1003300Y502920D02*
D03*
X1017270Y527050D02*
D03*
X600710Y590550D02*
D03*
X619760Y591820D02*
D03*
X609600Y840740D02*
D03*
X635000Y842010D02*
D03*
X975360Y610870D02*
D03*
X1083310Y694690D02*
D03*
X1085850Y709930D02*
D03*
X1035050Y754380D02*
D03*
X1022350D02*
D03*
X1290320Y457200D02*
D03*
X1275080Y453390D02*
D03*
X1291590Y737870D02*
D03*
X1267460Y736600D02*
D03*
X1084580Y858520D02*
D03*
X1052830Y855980D02*
D03*
X1041400Y863600D02*
D03*
X1033780Y872490D02*
D03*
X1093470Y864870D02*
D03*
X721360Y740410D02*
D03*
X1225550Y814070D02*
D03*
X857250Y939800D02*
D03*
X859790Y891540D02*
D03*
X755650Y739140D02*
D03*
X999661Y720090D02*
D03*
X1035050Y684702D02*
D03*
X1019810Y698500D02*
D03*
X1026160Y500380D02*
D03*
X1270000Y535940D02*
D03*
X910590Y777240D02*
D03*
X1108710Y676910D02*
D03*
X1094740Y687070D02*
D03*
X900186Y656125D02*
D03*
X979212Y733355D02*
D03*
X991784Y726171D02*
D03*
X1065422Y656125D02*
D03*
X983702Y570813D02*
D03*
X1047462Y670493D02*
D03*
X753110Y519430D02*
D03*
X736600Y544830D02*
D03*
X732790Y393700D02*
D03*
X754380Y394970D02*
D03*
X764540Y383540D02*
D03*
X933450Y528320D02*
D03*
X916940Y511810D02*
D03*
X910590Y591820D02*
D03*
X885190Y609600D02*
D03*
X863600Y599440D02*
D03*
X770890Y476250D02*
D03*
X892810Y441960D02*
D03*
X890270Y408940D02*
D03*
X1065711Y591820D02*
D03*
X1042670Y580390D02*
D03*
X1070610Y604881D02*
D03*
X801370Y463550D02*
D03*
X748030Y614680D02*
D03*
D75*
X949960Y808990D02*
D03*
Y834390D02*
D03*
X834390Y529590D02*
D03*
Y554990D02*
D03*
X866140Y529590D02*
D03*
Y554990D02*
D03*
X763270Y798830D02*
D03*
Y824230D02*
D03*
X897890Y529590D02*
D03*
Y554990D02*
D03*
X674370Y646430D02*
D03*
Y621030D02*
D03*
M02*
