M48
;Layer_Color=9474304
;FILE_FORMAT=4:4
METRIC,LZ
;TYPE=PLATED
T1F00S00C0.3000
T2F00S00C0.5000
T3F00S00C1.0000
T4F00S00C1.0160
T5F00S00C1.1500
T6F00S00C1.9000
T7F00S00C1.9500
;TYPE=NON_PLATED
T8F00S00C4.5000
%
T01
X0073279Y003937
X0075438Y0039497
X0076454Y0038354
X0088265Y0038608
X0096901Y0039116
X0127508Y0045339
X0129032Y004572
X0127Y0053594
X0121793Y0066167
X0120269Y0067056
X0122174Y0071374
X0123698Y0070358
X0126746Y007366
X0129159Y0073787
X0120396Y0077597
X0112268Y0079248
X0111252Y0076073
X0112776Y0074168
X0108585Y0070993
X0108331Y0069469
X0109474Y0068707
X0110871Y0067691
X01065422Y00656125
X01047462Y00670493
X0103505Y00684702
X0101981Y006985
X0100838Y0070866
X00999661Y0072009
X00991784Y00726171
X00979212Y00733355
X0096774Y0069342
X0094361Y0069596
X0093599Y0068834
X009525Y0070485
X0098298Y0068199
X0099187Y0066675
X0100838Y0065786
X0102108Y0064389
X0103378Y0063246
X0104267Y0058039
X01065711Y0059182
X0107061Y00604881
X0109855Y0059563
X0110871Y0058674
X0114935Y0057912
X0113792Y0056134
X0113919Y0060706
X0112776Y0062865
X0099822Y0058801
X00983702Y00570813
X0098552Y0054991
X0101727Y0052705
X0102616Y0050038
X010033Y0050292
X0099568Y004826
X0097536Y0046482
X0097409Y0042799
X0102743Y0045974
X0105664
X0108585Y0045847
X0111633Y0046736
X00902623Y0045143
X0089281Y0044196
X0089027Y0040894
X0090424Y0041148
X0091694Y0051181
X0093345Y0052832
X0091059Y0059182
X0088519Y0059436
Y006096
X008636Y0059944
X0082677Y0060452
X0082296Y0065913
X0082931Y0072009
X0081407
X0088519Y0077597
X0091059Y0077724
X0091694Y00664677
X00900186Y00656125
X0093218Y0064897
X0094615Y0061341
X0096139Y0061087
X0097536
X0102235Y0075438
X0103505
X0080264Y0052832
X0080137Y0046355
X0077089Y0047625
X0075311Y0051943
X007366Y0054483
X0070993Y005334
X006985Y0054991
X0068072Y0056642
X0062865Y0055245
X0061976Y0059182
X0060071Y0059055
X0076327Y0059817
X0074803Y0061468
X0077597Y0061976
X0078232Y005588
X0074676Y0042291
X0070612Y0044069
X0072136Y0074041
X0075565Y0073914
X0069088Y0074676
X0067691Y0075438
X0070739Y0083693
X0072644Y0084963
X00635Y0084201
X006096Y0084074
X0061722Y0087249
X0084836Y0085598
Y0081153
Y0079756
X009017Y0079629
X0090805Y008255
X0092583Y0084709
X0094361Y0085344
X010033Y0084328
X0101092Y0083185
X0102235Y0082296
X010414Y008636
X0103378Y0087249
X0105283Y0085598
X0108458Y0085852
X0109347Y0086487
X0090297Y0092456
X0091567Y0095123
X0085725Y009398
X0085979Y0089154
X0122555Y0081407
T02
X01067925Y00768569
X01102432Y00734062
T03
X0083439Y0052959
Y0055499
X0086614
Y0052959
X0089789
Y0055499
X0067437Y0062103
Y0064643
X0076327Y0079883
Y0082423
X0094996Y0083439
Y0080899
T04
X0081661Y004953
X0084201
X0086741
X0089281
X0086351Y0069079
X0088147Y0070875
X00899431Y00726711
X00845549Y00672829
T05
X0092075Y0090206
X0094615
X0097155
T06
X0055302Y0038698
X0135636Y0039884
Y0062484
X0135579Y0068035
X0055302Y0066939
Y0061298
Y0089539
X0135579Y0090635
T07
X010297Y0093472
X011557
T08
X00675Y0038
X0120142
X00675Y0093
X0122809
M30
