G04 Layer_Physical_Order=2*
G04 Layer_Color=16711680*
%FSLAX44Y44*%
%MOMM*%
G71*
G01*
G75*
G04:AMPARAMS|DCode=27|XSize=0.9mm|YSize=0.7mm|CornerRadius=0mm|HoleSize=0mm|Usage=FLASHONLY|Rotation=135.000|XOffset=0mm|YOffset=0mm|HoleType=Round|Shape=Rectangle|*
%AMROTATEDRECTD27*
4,1,4,0.5657,-0.0707,0.0707,-0.5657,-0.5657,0.0707,-0.0707,0.5657,0.5657,-0.0707,0.0*
%
%ADD27ROTATEDRECTD27*%

G04:AMPARAMS|DCode=28|XSize=0.9mm|YSize=0.7mm|CornerRadius=0mm|HoleSize=0mm|Usage=FLASHONLY|Rotation=225.000|XOffset=0mm|YOffset=0mm|HoleType=Round|Shape=Rectangle|*
%AMROTATEDRECTD28*
4,1,4,0.0707,0.5657,0.5657,0.0707,-0.0707,-0.5657,-0.5657,-0.0707,0.0707,0.5657,0.0*
%
%ADD28ROTATEDRECTD28*%

%ADD29C,0.8000*%
%ADD31C,0.2500*%
%ADD32C,0.6000*%
%ADD33C,0.3000*%
%ADD34C,0.5000*%
%ADD36C,1.0000*%
%ADD37C,2.0000*%
%ADD38C,1.9500*%
%ADD39C,1.3716*%
%ADD40C,1.9000*%
%ADD41C,0.7000*%
G36*
X1003188Y676273D02*
X998946Y672030D01*
X1002398Y668578D01*
X971542Y637722D01*
X962207Y647057D01*
X991281Y676132D01*
X994859Y676117D01*
X997150Y673826D01*
X1001392Y678068D01*
X1003188Y676273D01*
D02*
G37*
G36*
X989476Y690880D02*
X985233Y686637D01*
X987714Y684156D01*
X987808Y680658D01*
X958207Y651057D01*
X953952Y655312D01*
X977360Y678720D01*
X977973Y679638D01*
X978188Y680720D01*
Y689708D01*
X980175Y691695D01*
X983437Y688433D01*
X987680Y692676D01*
X989476Y690880D01*
D02*
G37*
G36*
X976776Y702310D02*
X972533Y698067D01*
X975540Y695060D01*
X973360Y692880D01*
X972747Y691962D01*
X972532Y690880D01*
Y681891D01*
X949201Y658561D01*
X948690Y658663D01*
X948061D01*
X942628Y664095D01*
Y678279D01*
X967475Y703125D01*
X970737Y699863D01*
X974980Y704106D01*
X976776Y702310D01*
D02*
G37*
G36*
X1018298Y664712D02*
X1014056Y660470D01*
X1017508Y657018D01*
X1013559Y653068D01*
X1008380D01*
X1007298Y652853D01*
X1006380Y652240D01*
X981702Y627562D01*
X975542Y633722D01*
X1006391Y664571D01*
X1009969Y664557D01*
X1012260Y662266D01*
X1016502Y666508D01*
X1018298Y664712D01*
D02*
G37*
G36*
X1407160Y383540D02*
X1406634Y382270D01*
X1248410D01*
Y430530D01*
X1155700D01*
Y382270D01*
X770705D01*
X770158Y382936D01*
X769810Y384810D01*
X786031Y401032D01*
X876300D01*
X877382Y401247D01*
X878300Y401860D01*
X881682Y405242D01*
X881682Y405242D01*
X882295Y406160D01*
X882415Y406764D01*
X883691Y407611D01*
X885050Y408037D01*
X885371Y407817D01*
X885537Y406980D01*
X886648Y405318D01*
X888310Y404207D01*
X890270Y403818D01*
X892230Y404207D01*
X893892Y405318D01*
X895003Y406980D01*
X895392Y408940D01*
X895003Y410900D01*
X893892Y412562D01*
X892230Y413672D01*
X890270Y414062D01*
X889334Y413876D01*
X886534Y416675D01*
Y437737D01*
X889074Y438508D01*
X889188Y438338D01*
X890850Y437228D01*
X892810Y436838D01*
X894770Y437228D01*
X896432Y438338D01*
X897542Y440000D01*
X897932Y441960D01*
X897542Y443920D01*
X896432Y445582D01*
X894770Y446693D01*
X892810Y447082D01*
X892615Y447043D01*
X890558Y448840D01*
Y466189D01*
X918940Y494570D01*
X918940Y494570D01*
X919553Y495488D01*
X919768Y496570D01*
X919768Y496570D01*
Y507658D01*
X920562Y508188D01*
X921673Y509850D01*
X922062Y511810D01*
X921673Y513770D01*
X920562Y515432D01*
X918900Y516543D01*
X916940Y516932D01*
X915958Y516737D01*
X913418Y518321D01*
Y587668D01*
X914212Y588198D01*
X915322Y589860D01*
X915712Y591820D01*
X915322Y593780D01*
X914449Y595087D01*
X914853Y596518D01*
X915514Y597627D01*
X951230D01*
X951230Y597627D01*
X952410Y597862D01*
X953410Y598530D01*
X960754Y605874D01*
X961390Y605748D01*
X963350Y606138D01*
X965012Y607248D01*
X966123Y608910D01*
X966512Y610870D01*
X966123Y612830D01*
X965012Y614492D01*
X963350Y615602D01*
X961390Y615992D01*
X959430Y615602D01*
X957768Y614492D01*
X956657Y612830D01*
X956268Y610870D01*
X956394Y610234D01*
X949953Y603793D01*
X911144D01*
X910172Y606140D01*
X914359Y610327D01*
X942168D01*
X942528Y609788D01*
X944190Y608677D01*
X946150Y608288D01*
X948110Y608677D01*
X949772Y609788D01*
X950882Y611450D01*
X951272Y613410D01*
X950882Y615370D01*
X949772Y617032D01*
X948110Y618143D01*
X946150Y618532D01*
X944190Y618143D01*
X942528Y617032D01*
X942168Y616493D01*
X913082D01*
X913082Y616493D01*
X911902Y616259D01*
X910902Y615590D01*
X910902Y615590D01*
X909863Y614552D01*
X907323Y615604D01*
Y628650D01*
X907088Y629830D01*
X906420Y630830D01*
X906420Y630830D01*
X888273Y648977D01*
Y654043D01*
X893245Y659015D01*
X893357Y658968D01*
X895340Y657518D01*
X895063Y656125D01*
X895453Y654165D01*
X896564Y652503D01*
X898225Y651393D01*
X900186Y651003D01*
X901122Y651189D01*
X904052Y648259D01*
X903588Y647795D01*
X910693Y640690D01*
X919212Y649210D01*
X917660Y650762D01*
X927009Y660112D01*
X933565D01*
X942888Y650788D01*
X944385Y649789D01*
X946150Y649437D01*
X946779D01*
X953683Y642533D01*
X954064Y642279D01*
X954318Y641898D01*
X967018Y629198D01*
X977178Y619038D01*
X994228Y601988D01*
X986889Y594648D01*
X985259D01*
X984177Y594433D01*
X983260Y593820D01*
X980029Y590590D01*
X978477Y592142D01*
X969958Y583623D01*
X977063Y576518D01*
X977063D01*
X979114Y574977D01*
X979450Y573492D01*
X978969Y572773D01*
X978580Y570813D01*
X978969Y568852D01*
X980080Y567191D01*
X981742Y566080D01*
X983702Y565690D01*
X985662Y566080D01*
X987324Y567191D01*
X988435Y568852D01*
X988824Y570813D01*
X988435Y572773D01*
X987324Y574435D01*
X985662Y575545D01*
X985632Y575551D01*
Y579296D01*
X985417Y580378D01*
X984804Y581296D01*
X983322Y582778D01*
X985582Y585037D01*
X984029Y586590D01*
X986431Y588992D01*
X988060D01*
X989142Y589207D01*
X990060Y589820D01*
X998228Y597988D01*
X1005118Y591098D01*
X1021547Y574669D01*
Y502520D01*
X1021428Y502340D01*
X1021038Y500380D01*
X1021428Y498420D01*
X1022538Y496758D01*
X1024200Y495648D01*
X1026160Y495258D01*
X1028120Y495648D01*
X1029782Y496758D01*
X1030892Y498420D01*
X1031282Y500380D01*
X1031096Y501316D01*
X1106071Y576292D01*
X1145198D01*
X1145728Y575498D01*
X1147390Y574388D01*
X1149350Y573998D01*
X1151310Y574388D01*
X1152972Y575498D01*
X1154082Y577160D01*
X1154472Y579120D01*
X1154082Y581080D01*
X1152972Y582742D01*
X1151310Y583853D01*
X1149350Y584242D01*
X1147390Y583853D01*
X1145728Y582742D01*
X1145198Y581948D01*
X1104900D01*
X1103818Y581733D01*
X1102900Y581120D01*
X1033119Y511339D01*
X1030773Y512311D01*
Y576580D01*
X1030422Y578345D01*
X1029422Y579842D01*
X1013642Y595622D01*
X1054412Y636392D01*
X1055025Y637309D01*
X1055240Y638392D01*
Y644608D01*
X1060224Y649591D01*
X1059803Y650012D01*
X1060131Y650777D01*
X1063216Y651557D01*
X1063462Y651393D01*
X1065422Y651003D01*
X1067383Y651393D01*
X1069044Y652503D01*
X1070155Y654165D01*
X1070545Y656125D01*
X1070155Y658085D01*
X1069044Y659747D01*
X1067383Y660858D01*
X1065422Y661247D01*
X1063462Y660858D01*
X1061956Y659851D01*
X1059136D01*
X1059136Y659851D01*
X1058054Y659636D01*
X1057136Y659023D01*
X1057136Y659023D01*
X1053964Y655851D01*
X1051704Y658111D01*
X1045208Y651614D01*
X1042668Y652474D01*
Y657180D01*
X1047651Y662164D01*
X1046927Y662888D01*
X1047179Y664054D01*
X1047941Y665466D01*
X1049422Y665761D01*
X1051084Y666871D01*
X1052194Y668533D01*
X1052584Y670493D01*
X1052194Y672454D01*
X1051084Y674116D01*
X1049422Y675226D01*
X1047462Y675616D01*
X1045502Y675226D01*
X1043840Y674116D01*
X1042729Y672454D01*
X1042435Y670973D01*
X1041023Y670210D01*
X1039856Y669959D01*
X1039132Y670683D01*
X1032668Y664219D01*
X1030128Y665125D01*
Y669819D01*
X1035112Y674803D01*
X1032852Y677062D01*
X1035448Y679658D01*
X1037010Y679969D01*
X1038672Y681079D01*
X1039782Y682741D01*
X1040172Y684702D01*
X1039782Y686662D01*
X1038672Y688324D01*
X1037010Y689434D01*
X1035050Y689824D01*
X1033090Y689434D01*
X1031428Y688324D01*
X1030318Y686662D01*
X1029928Y684702D01*
X1030206Y683300D01*
X1028287Y681878D01*
X1028111Y681803D01*
X1026593Y683322D01*
X1019488Y676217D01*
X1023157Y672548D01*
X1023054Y672033D01*
X1020298Y671197D01*
X1016693Y674803D01*
Y674803D01*
X1015018Y676649D01*
Y681379D01*
X1020002Y686363D01*
X1016020Y690345D01*
X1016193Y691820D01*
X1016552Y692242D01*
X1018734Y693592D01*
X1019810Y693378D01*
X1021770Y693767D01*
X1023432Y694878D01*
X1024542Y696540D01*
X1024932Y698500D01*
X1024746Y699436D01*
X1027331Y702022D01*
X1041498D01*
X1088102Y655418D01*
Y631091D01*
X1068610Y611600D01*
X1067997Y610682D01*
X1067782Y609600D01*
Y609034D01*
X1066988Y608503D01*
X1065878Y606841D01*
X1065488Y604881D01*
X1065878Y602921D01*
X1066988Y601259D01*
X1068650Y600149D01*
X1070610Y599759D01*
X1072570Y600149D01*
X1074232Y601259D01*
X1075342Y602921D01*
X1075732Y604881D01*
X1075342Y606841D01*
X1074232Y608503D01*
X1074168Y609158D01*
X1092930Y627920D01*
X1093543Y628838D01*
X1093758Y629920D01*
Y656590D01*
X1093758Y656590D01*
X1093543Y657672D01*
X1092930Y658590D01*
X1044670Y706850D01*
X1043752Y707463D01*
X1042670Y707678D01*
X1026160D01*
X1025078Y707463D01*
X1024160Y706850D01*
X1024160Y706850D01*
X1020746Y703436D01*
X1019810Y703622D01*
X1017850Y703232D01*
X1016188Y702122D01*
X1016126Y702029D01*
X1016090Y702001D01*
X1012941Y701749D01*
X1012348Y702342D01*
X1012002Y705038D01*
X1013112Y706700D01*
X1013502Y708660D01*
X1013112Y710620D01*
X1012002Y712282D01*
X1010340Y713392D01*
X1008380Y713782D01*
X1007398Y713587D01*
X1004858Y715172D01*
Y717721D01*
X1004643Y718804D01*
X1004554Y718936D01*
X1004784Y720090D01*
X1004394Y722050D01*
X1003283Y723712D01*
X1001622Y724822D01*
X999661Y725212D01*
X999291Y725139D01*
X997158Y726062D01*
X996737Y727023D01*
X996517Y728131D01*
X995406Y729793D01*
X993745Y730904D01*
X991784Y731293D01*
X989824Y730904D01*
X988162Y729793D01*
X987052Y728131D01*
X986662Y726171D01*
X987052Y724211D01*
X987477Y723575D01*
X986830Y720617D01*
X985829Y720161D01*
X985070Y720920D01*
X977965Y713815D01*
X981634Y710145D01*
X981532Y709631D01*
X978776Y708795D01*
X975316Y712255D01*
Y717348D01*
X980300Y722331D01*
X978040Y724591D01*
X981212Y727763D01*
X981212Y727763D01*
X981825Y728681D01*
X981912Y729117D01*
X982834Y729733D01*
X983944Y731395D01*
X984334Y733355D01*
X983944Y735316D01*
X982834Y736977D01*
X981172Y738088D01*
X979212Y738478D01*
X977252Y738088D01*
X975590Y736977D01*
X974479Y735316D01*
X974090Y733355D01*
X974393Y731830D01*
X973246Y730794D01*
X972298Y730333D01*
X971780Y730851D01*
X964675Y723746D01*
X968344Y720077D01*
X968242Y719562D01*
X965486Y718726D01*
X961881Y722331D01*
X958536Y718987D01*
X963486Y714037D01*
X962588Y713139D01*
X963486Y712241D01*
X959243Y707999D01*
X961796Y705446D01*
X937800Y681450D01*
X937187Y680532D01*
X934501Y679842D01*
X898530Y715813D01*
X899203Y717639D01*
X899650Y718285D01*
X901619Y718544D01*
X903658Y719389D01*
X905409Y720733D01*
X906752Y722484D01*
X907597Y724523D01*
X907885Y726711D01*
X907597Y728899D01*
X906752Y730938D01*
X905409Y732689D01*
X905063Y732954D01*
Y763748D01*
X914573Y773257D01*
X915794Y775085D01*
X916222Y777240D01*
X915794Y779395D01*
X914573Y781223D01*
X912745Y782443D01*
X910590Y782872D01*
X909229Y782601D01*
X896908Y794921D01*
Y857250D01*
X896693Y858332D01*
X896080Y859250D01*
X864726Y890604D01*
X864912Y891540D01*
X864522Y893500D01*
X863412Y895162D01*
X861750Y896273D01*
X859790Y896662D01*
X857830Y896273D01*
X856168Y895162D01*
X855058Y893500D01*
X854668Y891540D01*
X855058Y889580D01*
X856168Y887918D01*
X857830Y886807D01*
X859790Y886418D01*
X860726Y886604D01*
X891252Y856078D01*
Y793750D01*
X891467Y792668D01*
X892080Y791750D01*
X904607Y779223D01*
X895448Y770063D01*
X894227Y768236D01*
X893799Y766081D01*
X893799Y766081D01*
Y732954D01*
X893453Y732689D01*
X892109Y730938D01*
X891264Y728899D01*
X891005Y726930D01*
X890359Y726483D01*
X888533Y725810D01*
X887182Y727162D01*
X885685Y728161D01*
X883920Y728513D01*
X840111D01*
X769844Y798780D01*
X769850Y798830D01*
X769626Y800533D01*
X768969Y802120D01*
X767923Y803483D01*
X766560Y804529D01*
X764973Y805186D01*
X763270Y805410D01*
X761567Y805186D01*
X759980Y804529D01*
X758617Y803483D01*
X757571Y802120D01*
X756914Y800533D01*
X756690Y798830D01*
X756914Y797127D01*
X757571Y795540D01*
X758617Y794177D01*
X759980Y793131D01*
X761567Y792474D01*
X763270Y792250D01*
X763320Y792256D01*
X834938Y720638D01*
X836435Y719639D01*
X838200Y719287D01*
X878695D01*
X879282Y716917D01*
X877243Y716072D01*
X875492Y714728D01*
X874149Y712977D01*
X873304Y710938D01*
X873016Y708750D01*
X873304Y706562D01*
X874149Y704523D01*
X875492Y702772D01*
X877243Y701429D01*
X879282Y700584D01*
X881470Y700296D01*
X883658Y700584D01*
X885697Y701429D01*
X887448Y702772D01*
X888792Y704523D01*
X889637Y706562D01*
X889812Y707893D01*
X891982Y708877D01*
X892395Y708902D01*
X927567Y673729D01*
Y668020D01*
X925844Y665776D01*
X925631Y665727D01*
X924755Y665553D01*
X924510Y665389D01*
X922420Y665924D01*
X921717Y666412D01*
X921673Y666637D01*
X920562Y668299D01*
X918900Y669409D01*
X916940Y669799D01*
X914980Y669409D01*
X913318Y668299D01*
X912958Y667760D01*
X894547D01*
X894547Y667760D01*
X893367Y667525D01*
X892366Y666857D01*
X892366Y666857D01*
X883010Y657500D01*
X882342Y656500D01*
X882107Y655320D01*
X882107Y655320D01*
Y647700D01*
X882107Y647700D01*
X882342Y646520D01*
X883010Y645520D01*
X901157Y627373D01*
Y614687D01*
X885826Y599356D01*
X885190Y599482D01*
X883230Y599092D01*
X881568Y597982D01*
X880458Y596320D01*
X880068Y594360D01*
X880458Y592400D01*
X881568Y590738D01*
X883230Y589627D01*
X885190Y589238D01*
X886248Y589448D01*
X887499Y587107D01*
X883309Y582917D01*
X874977D01*
X874977Y582917D01*
X873797Y582682D01*
X872796Y582014D01*
X866635Y575853D01*
X852170D01*
X850990Y575619D01*
X849990Y574950D01*
X849990Y574950D01*
X836300Y561260D01*
X836093Y561346D01*
X834390Y561570D01*
X832687Y561346D01*
X831100Y560689D01*
X829737Y559643D01*
X828691Y558280D01*
X828034Y556693D01*
X827810Y554990D01*
X828034Y553287D01*
X828691Y551700D01*
X829737Y550337D01*
X831100Y549291D01*
X832687Y548634D01*
X834390Y548410D01*
X836093Y548634D01*
X837680Y549291D01*
X839043Y550337D01*
X840089Y551700D01*
X840746Y553287D01*
X840970Y554990D01*
X840746Y556693D01*
X840660Y556900D01*
X853447Y569687D01*
X863548D01*
X864520Y567340D01*
X863960Y566780D01*
X863291Y565779D01*
X863057Y564600D01*
X863057Y564599D01*
Y560774D01*
X862850Y560689D01*
X861487Y559643D01*
X860441Y558280D01*
X859784Y556693D01*
X859560Y554990D01*
X859784Y553287D01*
X860441Y551700D01*
X861487Y550337D01*
X862850Y549291D01*
X864437Y548634D01*
X866140Y548410D01*
X867843Y548634D01*
X869430Y549291D01*
X870793Y550337D01*
X871839Y551700D01*
X872496Y553287D01*
X872720Y554990D01*
X872496Y556693D01*
X871839Y558280D01*
X870793Y559643D01*
X869430Y560689D01*
X869223Y560774D01*
Y563322D01*
X878128Y572227D01*
X886460D01*
X886460Y572227D01*
X887640Y572462D01*
X888640Y573130D01*
X902610Y587100D01*
X902610Y587100D01*
X903279Y588100D01*
X903513Y589280D01*
X904774Y589592D01*
X906053Y589567D01*
X906968Y588198D01*
X907762Y587668D01*
Y497082D01*
X903500Y492821D01*
X901094Y494007D01*
X901264Y495300D01*
X900976Y497488D01*
X900132Y499527D01*
X898788Y501278D01*
X897037Y502622D01*
X894998Y503466D01*
X892810Y503754D01*
X890622Y503466D01*
X888583Y502622D01*
X886832Y501278D01*
X885488Y499527D01*
X884644Y497488D01*
X884356Y495300D01*
X884644Y493112D01*
X885488Y491073D01*
X886832Y489322D01*
X888583Y487978D01*
X889982Y487399D01*
Y484993D01*
X877682Y472693D01*
X877069Y471776D01*
X876854Y470694D01*
Y408414D01*
X875128Y406688D01*
X784860D01*
X783778Y406473D01*
X782860Y405860D01*
X773584Y396584D01*
X771785Y397276D01*
X771178Y397770D01*
Y450948D01*
X780952Y460722D01*
X797217D01*
X797748Y459928D01*
X799410Y458817D01*
X801370Y458428D01*
X803330Y458817D01*
X804992Y459928D01*
X806103Y461590D01*
X806492Y463550D01*
X806103Y465510D01*
X804992Y467172D01*
X803330Y468283D01*
X801370Y468672D01*
X799410Y468283D01*
X797748Y467172D01*
X797217Y466378D01*
X779780D01*
X778698Y466163D01*
X777780Y465550D01*
X766350Y454120D01*
X765737Y453202D01*
X765522Y452120D01*
Y398681D01*
X761916Y395076D01*
X759289Y396041D01*
X759112Y396930D01*
X758002Y398592D01*
X757208Y399123D01*
Y516521D01*
X757842Y517470D01*
X758232Y519430D01*
X758046Y520366D01*
X762730Y525050D01*
X763343Y525968D01*
X763558Y527050D01*
Y571599D01*
X801272Y609312D01*
X870049D01*
X871760Y607600D01*
X872678Y606987D01*
X873760Y606772D01*
X881038D01*
X881568Y605978D01*
X883230Y604868D01*
X885190Y604478D01*
X887150Y604868D01*
X888812Y605978D01*
X889922Y607640D01*
X890312Y609600D01*
X889922Y611560D01*
X888812Y613222D01*
X887150Y614333D01*
X885190Y614722D01*
X883230Y614333D01*
X881568Y613222D01*
X881038Y612428D01*
X874931D01*
X873220Y614140D01*
X872302Y614753D01*
X871220Y614968D01*
X800100D01*
X799018Y614753D01*
X798100Y614140D01*
X758730Y574770D01*
X758117Y573852D01*
X757902Y572770D01*
Y528222D01*
X754046Y524366D01*
X753110Y524552D01*
X751150Y524162D01*
X749488Y523052D01*
X748378Y521390D01*
X747988Y519430D01*
X748378Y517470D01*
X749488Y515808D01*
X751150Y514697D01*
X751552Y514618D01*
Y399123D01*
X750758Y398592D01*
X749648Y396930D01*
X749258Y394970D01*
X749648Y393010D01*
X750758Y391348D01*
X752167Y390406D01*
X752562Y389618D01*
X753023Y387611D01*
X752065Y386368D01*
X734703D01*
X734453Y388908D01*
X734750Y388968D01*
X736412Y390078D01*
X737523Y391740D01*
X737912Y393700D01*
X737523Y395660D01*
X736412Y397322D01*
X734750Y398433D01*
X732790Y398822D01*
X730830Y398433D01*
X729887Y397803D01*
X726870D01*
X725581Y399091D01*
Y528009D01*
X737449Y539876D01*
X738560Y540098D01*
X740222Y541208D01*
X741332Y542870D01*
X741722Y544830D01*
X741332Y546790D01*
X740222Y548452D01*
X738560Y549562D01*
X736600Y549952D01*
X734640Y549562D01*
X732978Y548452D01*
X731868Y546790D01*
X731646Y545679D01*
X721291Y535323D01*
X718923Y536548D01*
X718817Y537081D01*
X718204Y537999D01*
X715298Y540904D01*
Y577948D01*
X747094Y609744D01*
X748030Y609558D01*
X749990Y609948D01*
X751652Y611058D01*
X752763Y612720D01*
X753152Y614680D01*
X752763Y616640D01*
X751652Y618302D01*
X749990Y619412D01*
X748030Y619802D01*
X746070Y619412D01*
X744408Y618302D01*
X743298Y616640D01*
X742908Y614680D01*
X743094Y613744D01*
X710470Y581120D01*
X709857Y580202D01*
X709642Y579120D01*
Y539733D01*
X709857Y538650D01*
X710470Y537733D01*
X713376Y534827D01*
Y430530D01*
X627380D01*
X627380Y382270D01*
X565412D01*
X563853Y384810D01*
X564139Y386980D01*
X563760Y389858D01*
X562649Y392540D01*
X560882Y394842D01*
X558580Y396609D01*
X555898Y397720D01*
X553020Y398099D01*
X550142Y397720D01*
X547460Y396609D01*
X545158Y394842D01*
X543391Y392540D01*
X542280Y389858D01*
X541901Y386980D01*
X542187Y384810D01*
X540628Y382270D01*
X502920D01*
X500394Y980960D01*
X502925Y982980D01*
X1407160D01*
Y383540D01*
D02*
G37*
G36*
X1043410Y639501D02*
X1039167Y635258D01*
X1042223Y632203D01*
X1009642Y599622D01*
X1002752Y606512D01*
X1001577Y607687D01*
X1034158Y640268D01*
X1037372Y637054D01*
X1041614Y641297D01*
X1043410Y639501D01*
D02*
G37*
G36*
X1030838Y652073D02*
X1026595Y647831D01*
X1030158Y644268D01*
X997577Y611687D01*
X985702Y623562D01*
X1009551Y647412D01*
X1014730D01*
X1015812Y647627D01*
X1016730Y648240D01*
X1021458Y652968D01*
X1024799Y649627D01*
X1029042Y653869D01*
X1030838Y652073D01*
D02*
G37*
%LPC*%
G36*
X962730Y597574D02*
X958678Y593523D01*
X962022Y590178D01*
X966074Y594230D01*
X962730Y597574D01*
D02*
G37*
G36*
X973718Y598282D02*
X969666Y594230D01*
X973011Y590885D01*
X977063Y594937D01*
X973718Y598282D01*
D02*
G37*
G36*
X863600Y604562D02*
X861640Y604173D01*
X859978Y603062D01*
X858867Y601400D01*
X858478Y599440D01*
X858664Y598504D01*
X834489Y574328D01*
X824230D01*
X823148Y574113D01*
X822230Y573500D01*
X822230Y573500D01*
X768890Y520160D01*
X768277Y519242D01*
X768062Y518160D01*
Y480402D01*
X767268Y479872D01*
X766158Y478210D01*
X765768Y476250D01*
X766158Y474290D01*
X767268Y472628D01*
X768930Y471517D01*
X770890Y471128D01*
X772850Y471517D01*
X774512Y472628D01*
X775622Y474290D01*
X776012Y476250D01*
X775622Y478210D01*
X774512Y479872D01*
X773718Y480402D01*
Y516988D01*
X825402Y568672D01*
X835660D01*
X836742Y568887D01*
X837660Y569500D01*
X862664Y594504D01*
X863600Y594318D01*
X865560Y594707D01*
X867222Y595818D01*
X868333Y597480D01*
X868722Y599440D01*
X868333Y601400D01*
X867222Y603062D01*
X865560Y604173D01*
X863600Y604562D01*
D02*
G37*
G36*
X897890Y561570D02*
X896187Y561346D01*
X894600Y560689D01*
X893237Y559643D01*
X892191Y558280D01*
X891534Y556693D01*
X891310Y554990D01*
X891534Y553287D01*
X892191Y551700D01*
X893237Y550337D01*
X894600Y549291D01*
X896187Y548634D01*
X897890Y548410D01*
X899593Y548634D01*
X901180Y549291D01*
X902543Y550337D01*
X903589Y551700D01*
X904246Y553287D01*
X904470Y554990D01*
X904246Y556693D01*
X903589Y558280D01*
X902543Y559643D01*
X901180Y560689D01*
X899593Y561346D01*
X897890Y561570D01*
D02*
G37*
G36*
X967870Y592434D02*
X963819Y588382D01*
X967163Y585037D01*
X971215Y589089D01*
X967870Y592434D01*
D02*
G37*
G36*
X1065711Y596942D02*
X1063750Y596553D01*
X1062088Y595442D01*
X1061558Y594648D01*
X1054100D01*
X1053018Y594433D01*
X1052100Y593820D01*
X1043606Y585326D01*
X1042670Y585512D01*
X1040710Y585122D01*
X1039048Y584012D01*
X1037937Y582350D01*
X1037548Y580390D01*
X1037937Y578430D01*
X1039048Y576768D01*
X1040710Y575658D01*
X1042670Y575268D01*
X1044630Y575658D01*
X1046292Y576768D01*
X1047402Y578430D01*
X1047792Y580390D01*
X1047606Y581326D01*
X1055272Y588992D01*
X1061558D01*
X1062088Y588198D01*
X1063750Y587088D01*
X1065711Y586698D01*
X1067671Y587088D01*
X1069333Y588198D01*
X1070443Y589860D01*
X1070833Y591820D01*
X1070443Y593780D01*
X1069333Y595442D01*
X1067671Y596553D01*
X1065711Y596942D01*
D02*
G37*
G36*
X1356360Y635959D02*
X1353482Y635580D01*
X1350800Y634469D01*
X1348498Y632702D01*
X1346731Y630400D01*
X1345620Y627718D01*
X1345241Y624840D01*
X1345620Y621962D01*
X1346731Y619280D01*
X1348498Y616978D01*
X1350800Y615211D01*
X1353482Y614100D01*
X1356360Y613721D01*
X1359238Y614100D01*
X1361920Y615211D01*
X1364222Y616978D01*
X1365989Y619280D01*
X1367100Y621962D01*
X1367479Y624840D01*
X1367100Y627718D01*
X1365989Y630400D01*
X1364222Y632702D01*
X1361920Y634469D01*
X1359238Y635580D01*
X1356360Y635959D01*
D02*
G37*
G36*
X674370Y627610D02*
X672667Y627386D01*
X671080Y626729D01*
X669717Y625683D01*
X668671Y624320D01*
X668014Y622733D01*
X667790Y621030D01*
X668014Y619327D01*
X668671Y617740D01*
X669717Y616377D01*
X671080Y615331D01*
X672667Y614674D01*
X674370Y614450D01*
X676073Y614674D01*
X677660Y615331D01*
X679023Y616377D01*
X680069Y617740D01*
X680726Y619327D01*
X680950Y621030D01*
X680726Y622733D01*
X680069Y624320D01*
X679023Y625683D01*
X677660Y626729D01*
X676073Y627386D01*
X674370Y627610D01*
D02*
G37*
G36*
X921300Y636807D02*
X917248Y632755D01*
X920593Y629411D01*
X924644Y633462D01*
X921300Y636807D01*
D02*
G37*
G36*
X968577Y603422D02*
X964526Y599370D01*
X967870Y596026D01*
X971922Y600078D01*
X968577Y603422D01*
D02*
G37*
G36*
X1155700Y946091D02*
X1152757Y945704D01*
X1150014Y944568D01*
X1147659Y942761D01*
X1145852Y940406D01*
X1144716Y937663D01*
X1144329Y934720D01*
X1144716Y931777D01*
X1145852Y929034D01*
X1147659Y926679D01*
X1150014Y924872D01*
X1152757Y923736D01*
X1155700Y923349D01*
X1158643Y923736D01*
X1161386Y924872D01*
X1163741Y926679D01*
X1165548Y929034D01*
X1166684Y931777D01*
X1167071Y934720D01*
X1166684Y937663D01*
X1165548Y940406D01*
X1163741Y942761D01*
X1161386Y944568D01*
X1158643Y945704D01*
X1155700Y946091D01*
D02*
G37*
G36*
X553020Y624099D02*
X550142Y623720D01*
X547460Y622609D01*
X545158Y620842D01*
X543391Y618540D01*
X542280Y615858D01*
X541901Y612980D01*
X542280Y610102D01*
X543391Y607421D01*
X545158Y605118D01*
X547460Y603351D01*
X550142Y602240D01*
X553020Y601861D01*
X555898Y602240D01*
X558580Y603351D01*
X560882Y605118D01*
X562649Y607421D01*
X563760Y610102D01*
X564139Y612980D01*
X563760Y615858D01*
X562649Y618540D01*
X560882Y620842D01*
X558580Y622609D01*
X555898Y623720D01*
X553020Y624099D01*
D02*
G37*
G36*
X825882Y494030D02*
X817880D01*
Y486029D01*
X819053Y486183D01*
X821329Y487126D01*
X823284Y488626D01*
X824784Y490581D01*
X825727Y492857D01*
X825882Y494030D01*
D02*
G37*
G36*
X842010Y503754D02*
X839822Y503466D01*
X837783Y502622D01*
X836032Y501278D01*
X834688Y499527D01*
X833844Y497488D01*
X833556Y495300D01*
X833844Y493112D01*
X834688Y491073D01*
X836032Y489322D01*
X837783Y487978D01*
X839822Y487134D01*
X842010Y486846D01*
X844198Y487134D01*
X846237Y487978D01*
X847988Y489322D01*
X849332Y491073D01*
X850176Y493112D01*
X850464Y495300D01*
X850176Y497488D01*
X849332Y499527D01*
X847988Y501278D01*
X846237Y502622D01*
X844198Y503466D01*
X842010Y503754D01*
D02*
G37*
G36*
X867410D02*
X865222Y503466D01*
X863183Y502622D01*
X861432Y501278D01*
X860088Y499527D01*
X859244Y497488D01*
X858956Y495300D01*
X859244Y493112D01*
X860088Y491073D01*
X861432Y489322D01*
X863183Y487978D01*
X865222Y487134D01*
X867410Y486846D01*
X869598Y487134D01*
X871637Y487978D01*
X873388Y489322D01*
X874732Y491073D01*
X875576Y493112D01*
X875864Y495300D01*
X875576Y497488D01*
X874732Y499527D01*
X873388Y501278D01*
X871637Y502622D01*
X869598Y503466D01*
X867410Y503754D01*
D02*
G37*
G36*
X1356360Y409959D02*
X1353482Y409580D01*
X1350800Y408469D01*
X1348498Y406702D01*
X1346731Y404399D01*
X1345620Y401718D01*
X1345241Y398840D01*
X1345620Y395962D01*
X1346731Y393280D01*
X1348498Y390978D01*
X1350800Y389211D01*
X1353482Y388100D01*
X1356360Y387721D01*
X1359238Y388100D01*
X1361920Y389211D01*
X1364222Y390978D01*
X1365989Y393280D01*
X1367100Y395962D01*
X1367479Y398840D01*
X1367100Y401718D01*
X1365989Y404399D01*
X1364222Y406702D01*
X1361920Y408469D01*
X1359238Y409580D01*
X1356360Y409959D01*
D02*
G37*
G36*
X933450Y533442D02*
X931490Y533052D01*
X929828Y531942D01*
X928717Y530280D01*
X928328Y528320D01*
X928717Y526360D01*
X929828Y524698D01*
X930622Y524168D01*
Y478691D01*
X906916Y454986D01*
X906245Y455052D01*
X904583Y456162D01*
X902623Y456552D01*
X900662Y456162D01*
X899000Y455052D01*
X897890Y453390D01*
X897500Y451430D01*
X897890Y449469D01*
X899000Y447808D01*
X900662Y446697D01*
X902623Y446307D01*
X904583Y446697D01*
X906245Y447808D01*
X906775Y448601D01*
X907360D01*
X908442Y448817D01*
X909360Y449430D01*
X935450Y475520D01*
X936063Y476438D01*
X936278Y477520D01*
Y524168D01*
X937072Y524698D01*
X938183Y526360D01*
X938572Y528320D01*
X938183Y530280D01*
X937072Y531942D01*
X935410Y533052D01*
X933450Y533442D01*
D02*
G37*
G36*
X815340Y494030D02*
X807338D01*
X807493Y492857D01*
X808436Y490581D01*
X809936Y488626D01*
X811891Y487126D01*
X814167Y486183D01*
X815340Y486029D01*
Y494030D01*
D02*
G37*
G36*
X866140Y536170D02*
X864437Y535946D01*
X862850Y535289D01*
X861487Y534243D01*
X860441Y532880D01*
X859784Y531293D01*
X859560Y529590D01*
X859784Y527887D01*
X860441Y526300D01*
X861487Y524937D01*
X862850Y523891D01*
X864437Y523234D01*
X866140Y523010D01*
X867843Y523234D01*
X869430Y523891D01*
X870793Y524937D01*
X871839Y526300D01*
X872496Y527887D01*
X872720Y529590D01*
X872496Y531293D01*
X871839Y532880D01*
X870793Y534243D01*
X869430Y535289D01*
X867843Y535946D01*
X866140Y536170D01*
D02*
G37*
G36*
X897890D02*
X896187Y535946D01*
X894600Y535289D01*
X893237Y534243D01*
X892191Y532880D01*
X891534Y531293D01*
X891310Y529590D01*
X891534Y527887D01*
X892191Y526300D01*
X893237Y524937D01*
X894600Y523891D01*
X896187Y523234D01*
X897890Y523010D01*
X899593Y523234D01*
X901180Y523891D01*
X902543Y524937D01*
X903589Y526300D01*
X904246Y527887D01*
X904470Y529590D01*
X904246Y531293D01*
X903589Y532880D01*
X902543Y534243D01*
X901180Y535289D01*
X899593Y535946D01*
X897890Y536170D01*
D02*
G37*
G36*
X1108710Y682032D02*
X1106750Y681643D01*
X1105088Y680532D01*
X1103978Y678870D01*
X1103588Y676910D01*
X1103978Y674950D01*
X1105088Y673288D01*
X1106750Y672178D01*
X1108710Y671788D01*
X1109646Y671974D01*
X1247680Y533940D01*
X1248598Y533327D01*
X1249680Y533112D01*
X1265847D01*
X1266378Y532318D01*
X1268040Y531208D01*
X1270000Y530818D01*
X1271960Y531208D01*
X1273622Y532318D01*
X1274733Y533980D01*
X1275122Y535940D01*
X1274733Y537900D01*
X1273622Y539562D01*
X1271960Y540672D01*
X1270000Y541062D01*
X1268040Y540672D01*
X1266378Y539562D01*
X1265847Y538768D01*
X1250852D01*
X1113646Y675974D01*
X1113832Y676910D01*
X1113443Y678870D01*
X1112332Y680532D01*
X1110670Y681643D01*
X1108710Y682032D01*
D02*
G37*
G36*
X815340Y504571D02*
X814167Y504417D01*
X811891Y503474D01*
X809936Y501974D01*
X808436Y500019D01*
X807493Y497743D01*
X807338Y496570D01*
X815340D01*
Y504571D01*
D02*
G37*
G36*
X817880D02*
Y496570D01*
X825882D01*
X825727Y497743D01*
X824784Y500019D01*
X823284Y501974D01*
X821329Y503474D01*
X819053Y504417D01*
X817880Y504571D01*
D02*
G37*
G36*
X834390Y536170D02*
X832687Y535946D01*
X831100Y535289D01*
X829737Y534243D01*
X828691Y532880D01*
X828034Y531293D01*
X827810Y529590D01*
X828034Y527887D01*
X828691Y526300D01*
X829737Y524937D01*
X831100Y523891D01*
X832687Y523234D01*
X834390Y523010D01*
X836093Y523234D01*
X837680Y523891D01*
X839043Y524937D01*
X840089Y526300D01*
X840746Y527887D01*
X840970Y529590D01*
X840746Y531293D01*
X840089Y532880D01*
X839043Y534243D01*
X837680Y535289D01*
X836093Y535946D01*
X834390Y536170D01*
D02*
G37*
G36*
X916159Y641948D02*
X912107Y637896D01*
X915452Y634551D01*
X919504Y638603D01*
X916159Y641948D01*
D02*
G37*
G36*
X956740Y717191D02*
X953395Y713846D01*
X957447Y709794D01*
X960792Y713139D01*
X956740Y717191D01*
D02*
G37*
G36*
X1102432Y740643D02*
X1100729Y740418D01*
X1099142Y739761D01*
X1097779Y738715D01*
X1096734Y737353D01*
X1096076Y735766D01*
X1095852Y734062D01*
X1096076Y732359D01*
X1096734Y730772D01*
X1097779Y729409D01*
X1099142Y728364D01*
X1100729Y727706D01*
X1102432Y727482D01*
X1104135Y727706D01*
X1105723Y728364D01*
X1107085Y729409D01*
X1108131Y730772D01*
X1108788Y732359D01*
X1109013Y734062D01*
X1108788Y735766D01*
X1108131Y737353D01*
X1107085Y738715D01*
X1105723Y739761D01*
X1104135Y740418D01*
X1102432Y740643D01*
D02*
G37*
G36*
X721360Y745532D02*
X719400Y745143D01*
X717738Y744032D01*
X716628Y742370D01*
X716238Y740410D01*
X716628Y738450D01*
X717738Y736788D01*
X719400Y735677D01*
X721360Y735288D01*
X723320Y735677D01*
X724982Y736788D01*
X725512Y737582D01*
X750837D01*
X750918Y737180D01*
X752028Y735518D01*
X753690Y734408D01*
X755650Y734018D01*
X757610Y734408D01*
X759272Y735518D01*
X760383Y737180D01*
X760772Y739140D01*
X760383Y741100D01*
X759272Y742762D01*
X757610Y743873D01*
X755650Y744262D01*
X753690Y743873D01*
X752741Y743238D01*
X725512D01*
X724982Y744032D01*
X723320Y745143D01*
X721360Y745532D01*
D02*
G37*
G36*
X863510Y699244D02*
X861322Y698956D01*
X859283Y698111D01*
X857532Y696768D01*
X856188Y695017D01*
X855343Y692978D01*
X855055Y690790D01*
X855343Y688602D01*
X856188Y686563D01*
X857532Y684812D01*
X859283Y683468D01*
X861322Y682624D01*
X863510Y682335D01*
X865698Y682624D01*
X867737Y683468D01*
X869488Y684812D01*
X870831Y686563D01*
X871676Y688602D01*
X871964Y690790D01*
X871676Y692978D01*
X870831Y695017D01*
X869488Y696768D01*
X867737Y698111D01*
X865698Y698956D01*
X863510Y699244D01*
D02*
G37*
G36*
X1272540Y975360D02*
X1183640D01*
X1183640Y885190D01*
X1272540D01*
X1272540Y975360D01*
D02*
G37*
G36*
X721360Y974090D02*
X629920Y974090D01*
X629920Y885190D01*
X721360Y885190D01*
X721360Y974090D01*
D02*
G37*
G36*
X763270Y830810D02*
X761567Y830586D01*
X759980Y829929D01*
X758617Y828883D01*
X757571Y827520D01*
X756914Y825933D01*
X756690Y824230D01*
X756696Y824180D01*
X740958Y808442D01*
X739958Y806945D01*
X739607Y805180D01*
Y768350D01*
X739958Y766585D01*
X740958Y765088D01*
X763737Y742309D01*
Y733431D01*
X746038Y715732D01*
X745039Y714235D01*
X744687Y712470D01*
Y686441D01*
X713099Y654853D01*
X678180D01*
X676415Y654501D01*
X674918Y653502D01*
X674420Y653004D01*
X674370Y653010D01*
X672667Y652786D01*
X671080Y652129D01*
X669717Y651083D01*
X668671Y649720D01*
X668014Y648133D01*
X667790Y646430D01*
X668014Y644727D01*
X668671Y643140D01*
X669717Y641777D01*
X671080Y640731D01*
X672667Y640074D01*
X674370Y639850D01*
X676073Y640074D01*
X677660Y640731D01*
X679023Y641777D01*
X680069Y643140D01*
X680726Y644727D01*
X680845Y645627D01*
X715010D01*
X716775Y645978D01*
X718272Y646978D01*
X752562Y681268D01*
X753561Y682765D01*
X753913Y684530D01*
Y710559D01*
X771612Y728258D01*
X772611Y729755D01*
X772963Y731520D01*
Y744220D01*
X772611Y745985D01*
X771612Y747482D01*
X748833Y770261D01*
Y803269D01*
X763220Y817656D01*
X763270Y817650D01*
X764973Y817874D01*
X766560Y818531D01*
X767923Y819577D01*
X768969Y820940D01*
X769626Y822527D01*
X769850Y824230D01*
X769626Y825933D01*
X768969Y827520D01*
X767923Y828883D01*
X766560Y829929D01*
X764973Y830586D01*
X763270Y830810D01*
D02*
G37*
G36*
X949960Y840970D02*
X948257Y840746D01*
X946670Y840089D01*
X945307Y839043D01*
X944261Y837680D01*
X943604Y836093D01*
X943380Y834390D01*
X943604Y832687D01*
X944261Y831100D01*
X945307Y829737D01*
X946670Y828691D01*
X948257Y828034D01*
X949960Y827810D01*
X951663Y828034D01*
X953250Y828691D01*
X954613Y829737D01*
X955659Y831100D01*
X956316Y832687D01*
X956540Y834390D01*
X956316Y836093D01*
X955659Y837680D01*
X954613Y839043D01*
X953250Y840089D01*
X951663Y840746D01*
X949960Y840970D01*
D02*
G37*
G36*
X553020Y906509D02*
X550142Y906130D01*
X547460Y905019D01*
X545158Y903252D01*
X543391Y900950D01*
X542280Y898268D01*
X541901Y895390D01*
X542280Y892512D01*
X543391Y889830D01*
X545158Y887528D01*
X547460Y885761D01*
X550142Y884650D01*
X553020Y884271D01*
X555898Y884650D01*
X558580Y885761D01*
X560882Y887528D01*
X562649Y889830D01*
X563760Y892512D01*
X564139Y895390D01*
X563760Y898268D01*
X562649Y900950D01*
X560882Y903252D01*
X558580Y905019D01*
X555898Y906130D01*
X553020Y906509D01*
D02*
G37*
G36*
X1067925Y775150D02*
X1066222Y774925D01*
X1064635Y774268D01*
X1063273Y773222D01*
X1062227Y771859D01*
X1061570Y770272D01*
X1061345Y768569D01*
X1061570Y766866D01*
X1062227Y765279D01*
X1063273Y763916D01*
X1064635Y762870D01*
X1066222Y762213D01*
X1067925Y761989D01*
X1069629Y762213D01*
X1071216Y762870D01*
X1072579Y763916D01*
X1073624Y765279D01*
X1074282Y766866D01*
X1074506Y768569D01*
X1074282Y770272D01*
X1073624Y771859D01*
X1072579Y773222D01*
X1071216Y774268D01*
X1069629Y774925D01*
X1067925Y775150D01*
D02*
G37*
G36*
X949960Y815570D02*
X948257Y815346D01*
X946670Y814689D01*
X945307Y813643D01*
X944261Y812280D01*
X943604Y810693D01*
X943380Y808990D01*
X943604Y807287D01*
X944261Y805700D01*
X945307Y804337D01*
X946670Y803291D01*
X948257Y802634D01*
X949960Y802410D01*
X951663Y802634D01*
X953250Y803291D01*
X954613Y804337D01*
X955659Y805700D01*
X956316Y807287D01*
X956540Y808990D01*
X956316Y810693D01*
X955659Y812280D01*
X954613Y813643D01*
X953250Y814689D01*
X951663Y815346D01*
X949960Y815570D01*
D02*
G37*
G36*
X1225550Y819192D02*
X1223590Y818802D01*
X1221928Y817692D01*
X1221345Y816820D01*
X1220658Y816683D01*
X1219740Y816070D01*
X1095676Y692006D01*
X1094740Y692192D01*
X1092780Y691803D01*
X1091118Y690692D01*
X1090007Y689030D01*
X1089618Y687070D01*
X1090007Y685110D01*
X1091118Y683448D01*
X1092780Y682337D01*
X1094740Y681948D01*
X1096700Y682337D01*
X1098362Y683448D01*
X1099473Y685110D01*
X1099862Y687070D01*
X1099676Y688006D01*
X1222042Y810372D01*
X1223590Y809337D01*
X1225550Y808948D01*
X1227510Y809337D01*
X1229172Y810448D01*
X1230283Y812110D01*
X1230672Y814070D01*
X1230283Y816030D01*
X1229172Y817692D01*
X1227510Y818802D01*
X1225550Y819192D01*
D02*
G37*
G36*
X857250Y944922D02*
X855290Y944532D01*
X853628Y943422D01*
X852517Y941760D01*
X852128Y939800D01*
X852517Y937840D01*
X853628Y936178D01*
X855290Y935068D01*
X857250Y934678D01*
X859210Y935068D01*
X860872Y936178D01*
X861403Y936972D01*
X932638D01*
X961402Y908208D01*
X960991Y907001D01*
X960493Y905932D01*
X958004Y906107D01*
X957069Y908364D01*
X955065Y910975D01*
X952454Y912979D01*
X949413Y914238D01*
X947420Y914501D01*
Y902060D01*
Y889619D01*
X949413Y889882D01*
X952454Y891141D01*
X955065Y893145D01*
X957069Y895756D01*
X958004Y898013D01*
X960623Y898197D01*
X960683Y898182D01*
X961484Y896248D01*
X963331Y893841D01*
X965738Y891994D01*
X968542Y890833D01*
X971550Y890437D01*
X974558Y890833D01*
X977362Y891994D01*
X979769Y893841D01*
X981616Y896248D01*
X982777Y899052D01*
X983173Y902060D01*
X982777Y905068D01*
X981616Y907872D01*
X979769Y910279D01*
X977362Y912126D01*
X974558Y913287D01*
X971550Y913683D01*
X968542Y913287D01*
X965738Y912126D01*
X965594Y912016D01*
X935810Y941800D01*
X934892Y942413D01*
X933810Y942628D01*
X861403D01*
X860872Y943422D01*
X859210Y944532D01*
X857250Y944922D01*
D02*
G37*
G36*
X553020Y680509D02*
X550142Y680130D01*
X547460Y679019D01*
X545158Y677252D01*
X543391Y674950D01*
X542280Y672268D01*
X541901Y669390D01*
X542280Y666512D01*
X543391Y663830D01*
X545158Y661528D01*
X547460Y659761D01*
X550142Y658650D01*
X553020Y658271D01*
X555898Y658650D01*
X558580Y659761D01*
X560882Y661528D01*
X562649Y663830D01*
X563760Y666512D01*
X564139Y669390D01*
X563760Y672268D01*
X562649Y674950D01*
X560882Y677252D01*
X558580Y679019D01*
X555898Y680130D01*
X553020Y680509D01*
D02*
G37*
G36*
X944880Y914501D02*
X942887Y914238D01*
X939846Y912979D01*
X937235Y910975D01*
X935231Y908364D01*
X934296Y906107D01*
X931677Y905923D01*
X931617Y905938D01*
X930816Y907872D01*
X928969Y910279D01*
X926562Y912126D01*
X923758Y913287D01*
X920750Y913683D01*
X917742Y913287D01*
X914938Y912126D01*
X912531Y910279D01*
X910684Y907872D01*
X909523Y905068D01*
X909127Y902060D01*
X909523Y899052D01*
X910684Y896248D01*
X912531Y893841D01*
X914938Y891994D01*
X917742Y890833D01*
X920750Y890437D01*
X923758Y890833D01*
X926562Y891994D01*
X928969Y893841D01*
X930816Y896248D01*
X931617Y898182D01*
X931677Y898197D01*
X934296Y898013D01*
X935231Y895756D01*
X937235Y893145D01*
X939846Y891141D01*
X942887Y889882D01*
X944880Y889619D01*
Y902060D01*
Y914501D01*
D02*
G37*
G36*
X927148Y642655D02*
X923096Y638603D01*
X926441Y635258D01*
X930492Y639310D01*
X927148Y642655D01*
D02*
G37*
G36*
X1029700Y946091D02*
X1026757Y945704D01*
X1024014Y944568D01*
X1021659Y942761D01*
X1019852Y940406D01*
X1018716Y937663D01*
X1018329Y934720D01*
X1018716Y931777D01*
X1019852Y929034D01*
X1021659Y926679D01*
X1024014Y924872D01*
X1026757Y923736D01*
X1029700Y923349D01*
X1032643Y923736D01*
X1035386Y924872D01*
X1037741Y926679D01*
X1039548Y929034D01*
X1040684Y931777D01*
X1041071Y934720D01*
X1040684Y937663D01*
X1039548Y940406D01*
X1037741Y942761D01*
X1035386Y944568D01*
X1032643Y945704D01*
X1029700Y946091D01*
D02*
G37*
G36*
X922007Y647795D02*
X917955Y643744D01*
X921300Y640399D01*
X925352Y644451D01*
X922007Y647795D01*
D02*
G37*
G36*
X1355790Y691469D02*
X1352912Y691090D01*
X1350230Y689979D01*
X1347928Y688212D01*
X1346161Y685910D01*
X1345050Y683228D01*
X1344671Y680350D01*
X1345050Y677472D01*
X1346161Y674790D01*
X1347928Y672488D01*
X1350230Y670721D01*
X1352912Y669610D01*
X1355790Y669231D01*
X1358668Y669610D01*
X1361350Y670721D01*
X1363652Y672488D01*
X1365419Y674790D01*
X1366530Y677472D01*
X1366909Y680350D01*
X1366530Y683228D01*
X1365419Y685910D01*
X1363652Y688212D01*
X1361350Y689979D01*
X1358668Y691090D01*
X1355790Y691469D01*
D02*
G37*
G36*
Y917469D02*
X1352912Y917090D01*
X1350230Y915979D01*
X1347928Y914212D01*
X1346161Y911910D01*
X1345050Y909228D01*
X1344671Y906350D01*
X1345050Y903472D01*
X1346161Y900790D01*
X1347928Y898488D01*
X1350230Y896721D01*
X1352912Y895610D01*
X1355790Y895231D01*
X1358668Y895610D01*
X1361350Y896721D01*
X1363652Y898488D01*
X1365419Y900790D01*
X1366530Y903472D01*
X1366909Y906350D01*
X1366530Y909228D01*
X1365419Y911910D01*
X1363652Y914212D01*
X1361350Y915979D01*
X1358668Y917090D01*
X1355790Y917469D01*
D02*
G37*
G36*
X845549Y682268D02*
X843106Y681946D01*
X840830Y681003D01*
X839891Y680283D01*
X845549Y674625D01*
X851207Y680283D01*
X850269Y681003D01*
X847992Y681946D01*
X845549Y682268D01*
D02*
G37*
G36*
Y671033D02*
X839891Y665375D01*
X840830Y664655D01*
X843106Y663712D01*
X845549Y663391D01*
X847992Y663712D01*
X850269Y664655D01*
X851207Y665375D01*
X845549Y671033D01*
D02*
G37*
G36*
X838095Y678487D02*
X837375Y677549D01*
X836432Y675272D01*
X836111Y672829D01*
X836432Y670386D01*
X837375Y668110D01*
X838095Y667171D01*
X843753Y672829D01*
X838095Y678487D01*
D02*
G37*
G36*
X853003D02*
X847345Y672829D01*
X853003Y667171D01*
X853723Y668110D01*
X854666Y670386D01*
X854988Y672829D01*
X854666Y675272D01*
X853723Y677549D01*
X853003Y678487D01*
D02*
G37*
%LPD*%
D27*
X1029940Y652971D02*
D03*
X1039839Y662871D02*
D03*
X975878Y703208D02*
D03*
X985777Y713108D02*
D03*
X988578Y691778D02*
D03*
X998477Y701677D02*
D03*
X1002290Y677170D02*
D03*
X1012190Y687070D02*
D03*
X1042512Y640399D02*
D03*
X1052412Y650298D02*
D03*
X962588Y713139D02*
D03*
X972487Y723039D02*
D03*
X1017400Y665610D02*
D03*
X1027300Y675510D02*
D03*
D28*
X967870Y594230D02*
D03*
X977770Y584330D02*
D03*
X921300Y638603D02*
D03*
X911400Y648503D02*
D03*
D29*
X899431Y766081D02*
X910590Y777240D01*
X899431Y726711D02*
Y766081D01*
Y725441D02*
Y726711D01*
D31*
X894080Y793750D02*
Y857250D01*
Y793750D02*
X910590Y777240D01*
X859790Y891540D02*
X894080Y857250D01*
X727710Y383540D02*
X754380D01*
X716204Y395046D02*
X727710Y383540D01*
X716204Y395046D02*
Y535999D01*
X712470Y539733D02*
X716204Y535999D01*
X712470Y539733D02*
Y579120D01*
X748030Y614680D01*
X907360Y451430D02*
X933450Y477520D01*
X902623Y451430D02*
X907360D01*
X985777Y701297D02*
Y713108D01*
X975360Y690880D02*
X985777Y701297D01*
X975360Y680720D02*
Y690880D01*
X1008380Y702310D02*
X1012190Y698500D01*
X1008380Y702310D02*
Y708660D01*
X1026160Y500380D02*
X1104900Y579120D01*
X1149350D01*
X721360Y740410D02*
X754380D01*
X755650Y739140D01*
X1094740Y687070D02*
X1221740Y814070D01*
X1225550D01*
X857250Y939800D02*
X933810D01*
X971550Y902060D01*
X937260Y662940D02*
X939800D01*
X925838D02*
X937260D01*
X1012190Y687070D02*
Y698500D01*
Y674370D02*
Y687070D01*
X970280Y632460D02*
X1012190Y674370D01*
X1035050Y683260D02*
Y684702D01*
X1027300Y675510D02*
X1035050Y683260D01*
X1027300Y662810D02*
Y675510D01*
X1014730Y650240D02*
X1027300Y662810D01*
X1008380Y650240D02*
X1014730D01*
X999661Y720090D02*
X1002030Y717721D01*
Y705230D02*
Y717721D01*
X998477Y701677D02*
X1002030Y705230D01*
X998477Y687327D02*
Y701677D01*
X956945Y645795D02*
X998477Y687327D01*
X1019810Y698500D02*
X1026160Y704850D01*
X977770Y584330D02*
X985259Y591820D01*
X988060D01*
X999490Y603250D01*
X1052412Y638392D02*
Y650298D01*
X1008380Y594360D02*
X1052412Y638392D01*
X996315Y606425D02*
X1039839Y649949D01*
Y662871D01*
X980440Y622300D02*
X1008380Y650240D01*
X948690Y654050D02*
X975360Y680720D01*
X972487Y712137D02*
Y723039D01*
X939800Y679450D02*
X972487Y712137D01*
X939800Y662940D02*
Y679450D01*
X911400Y648503D02*
X925838Y662940D01*
X1026160Y704850D02*
X1042670D01*
X1090930Y656590D01*
Y629920D02*
Y656590D01*
X1070610Y609600D02*
X1090930Y629920D01*
X1070610Y604881D02*
Y609600D01*
X1108710Y676910D02*
X1249680Y535940D01*
X1270000D01*
X982804Y571711D02*
X983702Y570813D01*
X1052412Y650298D02*
X1059136Y657023D01*
X1064524D01*
X1065422Y656125D01*
X985777Y713108D02*
X991784Y719115D01*
Y726171D01*
X972487Y723039D02*
X979212Y729763D01*
Y733355D01*
X900186Y656125D02*
X907808Y648503D01*
X911400D01*
X1039839Y662871D02*
X1047462Y670493D01*
X753110Y519430D02*
X754380Y518160D01*
Y394970D02*
Y518160D01*
X933450Y477520D02*
Y528320D01*
X887730Y447040D02*
Y467360D01*
Y447040D02*
X892810Y441960D01*
X883706Y469027D02*
X910590Y495911D01*
X883706Y415504D02*
Y469027D01*
X910590Y495911D02*
Y591820D01*
X835660Y571500D02*
X863600Y599440D01*
X824230Y571500D02*
X835660D01*
X770890Y518160D02*
X824230Y571500D01*
X770890Y476250D02*
Y518160D01*
X916940Y496570D02*
Y511810D01*
X887730Y467360D02*
X916940Y496570D01*
X883706Y415504D02*
X890270Y408940D01*
X873760Y609600D02*
X885190D01*
X871220Y612140D02*
X873760Y609600D01*
X800100Y612140D02*
X871220D01*
X760730Y572770D02*
X800100Y612140D01*
X760730Y527050D02*
Y572770D01*
X753110Y519430D02*
X760730Y527050D01*
X982804Y571711D02*
Y579296D01*
X977770Y584330D02*
X982804Y579296D01*
X1054100Y591820D02*
X1065711D01*
X1042670Y580390D02*
X1054100Y591820D01*
X754380Y383540D02*
X768350Y397510D01*
Y452120D01*
X779780Y463550D01*
X801370D01*
X879682Y470694D02*
X892810Y483821D01*
Y495300D01*
X879682Y407242D02*
Y470694D01*
X764540Y383540D02*
X784860Y403860D01*
X876300D01*
X879682Y407242D01*
D32*
X674370Y646430D02*
X678180Y650240D01*
X937260Y662940D02*
X946150Y654050D01*
X932180Y668020D02*
X937260Y662940D01*
X946150Y654050D02*
X948690D01*
X932180Y668020D02*
Y675640D01*
X883920Y723900D02*
X932180Y675640D01*
X838200Y723900D02*
X883920D01*
X763270Y798830D02*
X838200Y723900D01*
X749300Y712470D02*
X768350Y731520D01*
Y744220D01*
X744220Y768350D02*
X768350Y744220D01*
X749300Y684530D02*
Y712470D01*
X744220Y805180D02*
X763270Y824230D01*
X744220Y768350D02*
Y805180D01*
X715010Y650240D02*
X749300Y684530D01*
X678180Y650240D02*
X715010D01*
X970280Y632460D02*
X980440Y622300D01*
X957580Y645160D02*
X970280Y632460D01*
X948690Y654050D02*
X956945Y645795D01*
X999490Y603250D02*
X1008380Y594360D01*
X996315Y606425D02*
X999490Y603250D01*
X1008380Y594360D02*
X1026160Y576580D01*
X980440Y622300D02*
X996315Y606425D01*
X1026160Y500380D02*
Y576580D01*
D33*
X885190Y594360D02*
X904240Y613410D01*
X913082D02*
X946150D01*
X895906Y596234D02*
X913082Y613410D01*
X895906Y591154D02*
Y596234D01*
X884586Y579834D02*
X895906Y591154D01*
X874977Y579834D02*
X884586D01*
X867913Y572770D02*
X874977Y579834D01*
X876850Y575310D02*
X886460D01*
X900430Y589280D01*
Y594360D01*
X906780Y600710D01*
X951230D01*
X904240Y613410D02*
Y628650D01*
X885190Y647700D02*
X904240Y628650D01*
X885190Y647700D02*
Y655320D01*
X894547Y664677D01*
X916940D01*
X951230Y600710D02*
X961390Y610870D01*
X834390Y554990D02*
X852170Y572770D01*
X867913D01*
X866140Y554990D02*
Y564600D01*
X876850Y575310D01*
D34*
X721478Y397392D02*
Y529708D01*
Y397392D02*
X725170Y393700D01*
X721478Y529708D02*
X736600Y544830D01*
X725170Y393700D02*
X732790D01*
D36*
X1067925Y768569D02*
D03*
X1102432Y734062D02*
D03*
D37*
X971550Y902060D02*
D03*
X946150D02*
D03*
X920750D02*
D03*
D38*
X1155700Y934720D02*
D03*
X1029700D02*
D03*
D39*
X842010Y495300D02*
D03*
X816610D02*
D03*
X867410D02*
D03*
X892810D02*
D03*
X863510Y690790D02*
D03*
X845549Y672829D02*
D03*
X881470Y708750D02*
D03*
X899431Y726711D02*
D03*
D40*
X1355790Y906350D02*
D03*
Y680350D02*
D03*
X1356360Y624840D02*
D03*
Y398840D02*
D03*
X553020Y669390D02*
D03*
Y895390D02*
D03*
Y386980D02*
D03*
Y612980D02*
D03*
D41*
X925830Y847090D02*
D03*
X908050Y825500D02*
D03*
X746760Y422910D02*
D03*
X998220Y588010D02*
D03*
X985520Y549910D02*
D03*
X1202690Y670560D02*
D03*
X1217930Y661670D02*
D03*
X1236980Y703580D02*
D03*
X1127760Y628650D02*
D03*
X1139190Y607060D02*
D03*
X969010Y391160D02*
D03*
X676910Y754380D02*
D03*
X690880Y746760D02*
D03*
X680720Y566420D02*
D03*
X628650Y552450D02*
D03*
X698500Y549910D02*
D03*
X902623Y451430D02*
D03*
X822960Y659130D02*
D03*
X802640Y528320D02*
D03*
X1098550Y595630D02*
D03*
X1108710Y586740D02*
D03*
X1137920Y561340D02*
D03*
X1008380Y708660D02*
D03*
X707390Y836930D02*
D03*
X726440Y849630D02*
D03*
X848360Y855980D02*
D03*
X901700Y796290D02*
D03*
X943610Y853440D02*
D03*
X848360Y797560D02*
D03*
Y811530D02*
D03*
X1003300Y843280D02*
D03*
X1010920Y831850D02*
D03*
X1022350Y822960D02*
D03*
X885190Y775970D02*
D03*
X904240Y411480D02*
D03*
X1149350Y579120D02*
D03*
X885190Y594360D02*
D03*
X946150Y613410D02*
D03*
X961390Y610870D02*
D03*
X916940Y664677D02*
D03*
X932180Y648970D02*
D03*
X935990Y688340D02*
D03*
X943610Y695960D02*
D03*
X1033780Y632460D02*
D03*
X1021080Y643890D02*
D03*
X1008380Y657860D02*
D03*
X952500Y704850D02*
D03*
X967740Y693420D02*
D03*
X982980Y681990D02*
D03*
X991870Y666750D02*
D03*
X775970Y619760D02*
D03*
X1221740Y713740D02*
D03*
X1203960Y775970D02*
D03*
X1122680Y792480D02*
D03*
X1112520Y760730D02*
D03*
X1127760Y741680D02*
D03*
X902970Y924560D02*
D03*
X915670Y951230D02*
D03*
X617220Y872490D02*
D03*
X829310Y720090D02*
D03*
X814070D02*
D03*
X782320Y558800D02*
D03*
X826770Y604520D02*
D03*
X763270Y598170D02*
D03*
X709930Y533400D02*
D03*
X706120Y440690D02*
D03*
X882650Y386080D02*
D03*
X975360Y464820D02*
D03*
X974090Y427990D02*
D03*
X1085850Y458470D02*
D03*
X1116330Y467360D02*
D03*
X1027430Y459740D02*
D03*
X1056640D02*
D03*
X995680Y482600D02*
D03*
X1003300Y502920D02*
D03*
X1017270Y527050D02*
D03*
X600710Y590550D02*
D03*
X619760Y591820D02*
D03*
X609600Y840740D02*
D03*
X635000Y842010D02*
D03*
X975360Y610870D02*
D03*
X1083310Y694690D02*
D03*
X1085850Y709930D02*
D03*
X1035050Y754380D02*
D03*
X1022350D02*
D03*
X1290320Y457200D02*
D03*
X1275080Y453390D02*
D03*
X1291590Y737870D02*
D03*
X1267460Y736600D02*
D03*
X1084580Y858520D02*
D03*
X1052830Y855980D02*
D03*
X1041400Y863600D02*
D03*
X1033780Y872490D02*
D03*
X1093470Y864870D02*
D03*
X721360Y740410D02*
D03*
X1225550Y814070D02*
D03*
X857250Y939800D02*
D03*
X859790Y891540D02*
D03*
X755650Y739140D02*
D03*
X999661Y720090D02*
D03*
X1035050Y684702D02*
D03*
X1019810Y698500D02*
D03*
X1026160Y500380D02*
D03*
X1270000Y535940D02*
D03*
X910590Y777240D02*
D03*
X1108710Y676910D02*
D03*
X1094740Y687070D02*
D03*
X900186Y656125D02*
D03*
X979212Y733355D02*
D03*
X991784Y726171D02*
D03*
X1065422Y656125D02*
D03*
X983702Y570813D02*
D03*
X1047462Y670493D02*
D03*
X753110Y519430D02*
D03*
X736600Y544830D02*
D03*
X732790Y393700D02*
D03*
X754380Y394970D02*
D03*
X764540Y383540D02*
D03*
X933450Y528320D02*
D03*
X916940Y511810D02*
D03*
X910590Y591820D02*
D03*
X885190Y609600D02*
D03*
X863600Y599440D02*
D03*
X770890Y476250D02*
D03*
X892810Y441960D02*
D03*
X890270Y408940D02*
D03*
X1065711Y591820D02*
D03*
X1042670Y580390D02*
D03*
X1070610Y604881D02*
D03*
X801370Y463550D02*
D03*
X748030Y614680D02*
D03*
M02*
