G04 Layer_Color=65535*
%FSLAX44Y44*%
%MOMM*%
G71*
G01*
G75*
%ADD42C,0.1000*%
%ADD43C,0.2000*%
%ADD44C,0.2540*%
D42*
X935990Y795020D02*
X963930D01*
X935990D02*
Y848360D01*
X963930D01*
Y795020D02*
Y848360D01*
X805155Y892645D02*
X805905Y891895D01*
Y889583D02*
Y891895D01*
X805342Y889020D02*
X805905Y889583D01*
X804530Y889020D02*
X805342D01*
X804530D02*
X805092Y889583D01*
X805905D01*
X804155Y891332D02*
X805905Y889583D01*
X804155Y891332D02*
Y891645D01*
X804311Y891489D01*
X805905D01*
X804530Y890114D02*
X805905Y891489D01*
X804530Y889020D02*
Y890114D01*
X804155Y889395D02*
X804530Y889020D01*
X804155Y889395D02*
Y891645D01*
X805905Y889895D01*
Y887645D02*
Y889895D01*
X803155Y890395D02*
X805905Y887645D01*
X803155Y890395D02*
Y890645D01*
X805905Y893395D01*
Y889583D02*
Y893395D01*
Y887645D02*
Y889583D01*
X820420Y515620D02*
X848360D01*
X820420D02*
Y568960D01*
X848360D01*
Y515620D02*
Y568960D01*
X852170Y515620D02*
X880110D01*
X852170D02*
Y568960D01*
X880110D01*
Y515620D02*
Y568960D01*
X794105Y606305D02*
X794855Y607055D01*
X791793Y606305D02*
X794105D01*
X791230Y606867D02*
X791793Y606305D01*
X791230Y606867D02*
Y607680D01*
X791793Y607118D01*
Y606305D02*
Y607118D01*
Y606305D02*
X793542Y608055D01*
X793855D01*
X793699Y607899D02*
X793855Y608055D01*
X793699Y606305D02*
Y607899D01*
X792324Y607680D02*
X793699Y606305D01*
X791230Y607680D02*
X792324D01*
X791230D02*
X791605Y608055D01*
X793855D01*
X792105Y606305D02*
X793855Y608055D01*
X789855Y606305D02*
X792105D01*
X789855D02*
X792605Y609055D01*
X792855D01*
X795605Y606305D01*
X791793D02*
X795605D01*
X789855D02*
X791793D01*
X750455Y586610D02*
X751205Y587360D01*
X748142Y586610D02*
X750455D01*
X747580Y587173D02*
X748142Y586610D01*
X747580Y587173D02*
Y587985D01*
X748142Y587422D01*
Y586610D02*
Y587422D01*
Y586610D02*
X749893Y588360D01*
X750205D01*
X750049Y588204D02*
X750205Y588360D01*
X750049Y586610D02*
Y588204D01*
X748674Y587985D02*
X750049Y586610D01*
X747580Y587985D02*
X748674D01*
X747580D02*
X747955Y588360D01*
X750205D01*
X748455Y586610D02*
X750205Y588360D01*
X746205Y586610D02*
X748455D01*
X746205D02*
X748955Y589360D01*
X749205D01*
X751955Y586610D01*
X748142D02*
X751955D01*
X746205D02*
X748142D01*
X946195Y463665D02*
X946945Y462915D01*
X946195Y463665D02*
Y465978D01*
X946758Y466540D01*
X947570D01*
X947008Y465978D02*
X947570Y466540D01*
X946195Y465978D02*
X947008D01*
X946195D02*
X947945Y464227D01*
Y463915D02*
Y464227D01*
X947789Y464071D02*
X947945Y463915D01*
X946195Y464071D02*
X947789D01*
X946195D02*
X947570Y465446D01*
Y466540D01*
X947945Y466165D01*
Y463915D02*
Y466165D01*
X946195Y465665D02*
X947945Y463915D01*
X946195Y465665D02*
Y467915D01*
X948945Y465165D01*
Y464915D02*
Y465165D01*
X946195Y462165D02*
X948945Y464915D01*
X946195Y462165D02*
Y465978D01*
Y467915D01*
X977175Y505105D02*
X977925Y504355D01*
X977175Y505105D02*
Y507417D01*
X977738Y507980D01*
X978550D01*
X977988Y507417D02*
X978550Y507980D01*
X977175Y507417D02*
X977988D01*
X977175D02*
X978925Y505667D01*
Y505355D02*
Y505667D01*
X978769Y505511D02*
X978925Y505355D01*
X977175Y505511D02*
X978769D01*
X977175D02*
X978550Y506886D01*
Y507980D01*
X978925Y507605D01*
Y505355D02*
Y507605D01*
X977175Y507105D02*
X978925Y505355D01*
X977175Y507105D02*
Y509355D01*
X979925Y506605D01*
Y506355D02*
Y506605D01*
X977175Y503605D02*
X979925Y506355D01*
X977175Y503605D02*
Y507417D01*
Y509355D01*
X944625Y426835D02*
X945375Y426085D01*
X944625Y426835D02*
Y429147D01*
X945188Y429710D01*
X946000D01*
X945437Y429147D02*
X946000Y429710D01*
X944625Y429147D02*
X945437D01*
X944625D02*
X946375Y427397D01*
Y427085D02*
Y427397D01*
X946219Y427241D02*
X946375Y427085D01*
X944625Y427241D02*
X946219D01*
X944625D02*
X946000Y428616D01*
Y429710D01*
X946375Y429335D01*
Y427085D02*
Y429335D01*
X944625Y428835D02*
X946375Y427085D01*
X944625Y428835D02*
Y431085D01*
X947375Y428335D01*
Y428085D02*
Y428335D01*
X944625Y425335D02*
X947375Y428085D01*
X944625Y425335D02*
Y429147D01*
Y431085D01*
X944925Y389205D02*
X945675Y388455D01*
X944925Y389205D02*
Y391517D01*
X945488Y392080D01*
X946300D01*
X945738Y391517D02*
X946300Y392080D01*
X944925Y391517D02*
X945738D01*
X944925D02*
X946675Y389767D01*
Y389455D02*
Y389767D01*
X946519Y389611D02*
X946675Y389455D01*
X944925Y389611D02*
X946519D01*
X944925D02*
X946300Y390986D01*
Y392080D01*
X946675Y391705D01*
Y389455D02*
Y391705D01*
X944925Y391205D02*
X946675Y389455D01*
X944925Y391205D02*
Y393455D01*
X947675Y390705D01*
Y390455D02*
Y390705D01*
X944925Y387705D02*
X947675Y390455D01*
X944925Y387705D02*
Y391517D01*
Y393455D01*
X783475Y526295D02*
X784225Y527045D01*
X781162Y526295D02*
X783475D01*
X780600Y526857D02*
X781162Y526295D01*
X780600Y526857D02*
Y527670D01*
X781162Y527108D01*
Y526295D02*
Y527108D01*
Y526295D02*
X782913Y528045D01*
X783225D01*
X783069Y527889D02*
X783225Y528045D01*
X783069Y526295D02*
Y527889D01*
X781694Y527670D02*
X783069Y526295D01*
X780600Y527670D02*
X781694D01*
X780600D02*
X780975Y528045D01*
X783225D01*
X781475Y526295D02*
X783225Y528045D01*
X779225Y526295D02*
X781475D01*
X779225D02*
X781975Y529045D01*
X782225D01*
X784975Y526295D01*
X781162D02*
X784975D01*
X779225D02*
X781162D01*
X859765Y773860D02*
X860515Y773110D01*
X859765Y773860D02*
Y776172D01*
X860328Y776735D01*
X861140D01*
X860577Y776172D02*
X861140Y776735D01*
X859765Y776172D02*
X860577D01*
X859765D02*
X861515Y774423D01*
Y774110D02*
Y774423D01*
X861359Y774266D02*
X861515Y774110D01*
X859765Y774266D02*
X861359D01*
X859765D02*
X861140Y775641D01*
Y776735D01*
X861515Y776360D01*
Y774110D02*
Y776360D01*
X859765Y775860D02*
X861515Y774110D01*
X859765Y775860D02*
Y778110D01*
X862515Y775360D01*
Y775110D02*
Y775360D01*
X859765Y772360D02*
X862515Y775110D01*
X859765Y772360D02*
Y776172D01*
Y778110D01*
X749300Y784860D02*
X777240D01*
X749300D02*
Y838200D01*
X777240D01*
Y784860D02*
Y838200D01*
X805805Y940905D02*
X806555Y940155D01*
Y937842D02*
Y940155D01*
X805993Y937280D02*
X806555Y937842D01*
X805180Y937280D02*
X805993D01*
X805180D02*
X805742Y937842D01*
X806555D01*
X804805Y939593D02*
X806555Y937842D01*
X804805Y939593D02*
Y939905D01*
X804961Y939749D01*
X806555D01*
X805180Y938374D02*
X806555Y939749D01*
X805180Y937280D02*
Y938374D01*
X804805Y937655D02*
X805180Y937280D01*
X804805Y937655D02*
Y939905D01*
X806555Y938155D01*
Y935905D02*
Y938155D01*
X803805Y938655D02*
X806555Y935905D01*
X803805Y938655D02*
Y938905D01*
X806555Y941655D01*
Y937842D02*
Y941655D01*
Y935905D02*
Y937842D01*
X883920Y515620D02*
X911860D01*
X883920D02*
Y568960D01*
X911860D01*
Y515620D02*
Y568960D01*
X736485Y441705D02*
X737235Y442455D01*
X734173Y441705D02*
X736485D01*
X733610Y442267D02*
X734173Y441705D01*
X733610Y442267D02*
Y443080D01*
X734173Y442518D01*
Y441705D02*
Y442518D01*
Y441705D02*
X735922Y443455D01*
X736235D01*
X736079Y443299D02*
X736235Y443455D01*
X736079Y441705D02*
Y443299D01*
X734704Y443080D02*
X736079Y441705D01*
X733610Y443080D02*
X734704D01*
X733610D02*
X733985Y443455D01*
X736235D01*
X734485Y441705D02*
X736235Y443455D01*
X732235Y441705D02*
X734485D01*
X732235D02*
X734985Y444455D01*
X735235D01*
X737985Y441705D01*
X734173D02*
X737985D01*
X732235D02*
X734173D01*
X660400Y660400D02*
X688340D01*
Y607060D02*
Y660400D01*
X660400Y607060D02*
X688340D01*
X660400D02*
Y660400D01*
X737565Y486265D02*
X738315Y487015D01*
X740628D01*
X741190Y486452D01*
Y485640D02*
Y486452D01*
X740628Y486203D02*
X741190Y485640D01*
X740628Y486203D02*
Y487015D01*
X738877Y485265D02*
X740628Y487015D01*
X738565Y485265D02*
X738877D01*
X738565D02*
X738721Y485421D01*
Y487015D01*
X740096Y485640D01*
X741190D01*
X740815Y485265D02*
X741190Y485640D01*
X738565Y485265D02*
X740815D01*
X738565D02*
X740315Y487015D01*
X742565D01*
X739815Y484265D02*
X742565Y487015D01*
X739565Y484265D02*
X739815D01*
X736815Y487015D02*
X739565Y484265D01*
X736815Y487015D02*
X740628D01*
X742565D01*
X1097445Y407025D02*
X1098195Y407775D01*
X1100508D01*
X1101070Y407212D01*
Y406400D02*
Y407212D01*
X1100508Y406963D02*
X1101070Y406400D01*
X1100508Y406963D02*
Y407775D01*
X1098757Y406025D02*
X1100508Y407775D01*
X1098445Y406025D02*
X1098757D01*
X1098445D02*
X1098601Y406181D01*
Y407775D01*
X1099976Y406400D01*
X1101070D01*
X1100695Y406025D02*
X1101070Y406400D01*
X1098445Y406025D02*
X1100695D01*
X1098445D02*
X1100195Y407775D01*
X1102445D01*
X1099695Y405025D02*
X1102445Y407775D01*
X1099445Y405025D02*
X1099695D01*
X1096695Y407775D02*
X1099445Y405025D01*
X1096695Y407775D02*
X1100508D01*
X1102445D01*
X1069551Y406153D02*
X1070302Y406903D01*
X1072614D01*
X1073176Y406341D01*
Y405528D02*
Y406341D01*
X1072614Y406091D02*
X1073176Y405528D01*
X1072614Y406091D02*
Y406903D01*
X1070864Y405153D02*
X1072614Y406903D01*
X1070552Y405153D02*
X1070864D01*
X1070552D02*
X1070708Y405310D01*
Y406903D01*
X1072083Y405528D01*
X1073176D01*
X1072801Y405153D02*
X1073176Y405528D01*
X1070552Y405153D02*
X1072801D01*
X1070552D02*
X1072301Y406903D01*
X1074551D01*
X1071801Y404153D02*
X1074551Y406903D01*
X1071552Y404153D02*
X1071801D01*
X1068801Y406903D02*
X1071552Y404153D01*
X1068801Y406903D02*
X1072614D01*
X1074551D01*
X1039072Y406153D02*
X1039821Y406903D01*
X1042134D01*
X1042696Y406341D01*
Y405528D02*
Y406341D01*
X1042134Y406091D02*
X1042696Y405528D01*
X1042134Y406091D02*
Y406903D01*
X1040384Y405153D02*
X1042134Y406903D01*
X1040071Y405153D02*
X1040384D01*
X1040071D02*
X1040228Y405310D01*
Y406903D01*
X1041603Y405528D01*
X1042696D01*
X1042321Y405153D02*
X1042696Y405528D01*
X1040071Y405153D02*
X1042321D01*
X1040071D02*
X1041822Y406903D01*
X1044071D01*
X1041321Y404153D02*
X1044071Y406903D01*
X1041071Y404153D02*
X1041321D01*
X1038321Y406903D02*
X1041071Y404153D01*
X1038321Y406903D02*
X1042134D01*
X1044071D01*
X1009862Y406153D02*
X1010611Y406903D01*
X1012924D01*
X1013486Y406341D01*
Y405528D02*
Y406341D01*
X1012924Y406091D02*
X1013486Y405528D01*
X1012924Y406091D02*
Y406903D01*
X1011174Y405153D02*
X1012924Y406903D01*
X1010862Y405153D02*
X1011174D01*
X1010862D02*
X1011018Y405310D01*
Y406903D01*
X1012393Y405528D01*
X1013486D01*
X1013111Y405153D02*
X1013486Y405528D01*
X1010862Y405153D02*
X1013111D01*
X1010862D02*
X1012611Y406903D01*
X1014861D01*
X1012111Y404153D02*
X1014861Y406903D01*
X1011861Y404153D02*
X1012111D01*
X1009111Y406903D02*
X1011861Y404153D01*
X1009111Y406903D02*
X1012924D01*
X1014861D01*
D43*
X818530Y882770D02*
Y898770D01*
X790530D02*
X818530D01*
X790530Y882770D02*
Y898770D01*
Y882770D02*
X818530D01*
X784980Y593680D02*
X800980D01*
Y621680D01*
X784980D02*
X800980D01*
X784980Y593680D02*
Y621680D01*
X741330Y573985D02*
X757330D01*
Y601985D01*
X741330D02*
X757330D01*
X741330Y573985D02*
Y601985D01*
X933570Y456790D02*
Y472790D01*
Y456790D02*
X961570D01*
Y472790D01*
X933570D02*
X961570D01*
X964550Y498230D02*
Y514230D01*
Y498230D02*
X992550D01*
Y514230D01*
X964550D02*
X992550D01*
X932000Y419960D02*
Y435960D01*
Y419960D02*
X960000D01*
Y435960D01*
X932000D02*
X960000D01*
X932300Y382330D02*
Y398330D01*
Y382330D02*
X960300D01*
Y398330D01*
X932300D02*
X960300D01*
X774350Y513670D02*
X790350D01*
Y541670D01*
X774350D02*
X790350D01*
X774350Y513670D02*
Y541670D01*
X847140Y766985D02*
Y782985D01*
Y766985D02*
X875140D01*
Y782985D01*
X847140D02*
X875140D01*
X819180Y931030D02*
Y947030D01*
X791180D02*
X819180D01*
X791180Y931030D02*
Y947030D01*
Y931030D02*
X819180D01*
X727360Y429080D02*
X743360D01*
Y457080D01*
X727360D02*
X743360D01*
X727360Y429080D02*
Y457080D01*
X731440Y499640D02*
X747440D01*
X731440Y471640D02*
Y499640D01*
Y471640D02*
X747440D01*
Y499640D01*
X1091320Y420400D02*
X1107320D01*
X1091320Y392400D02*
Y420400D01*
Y392400D02*
X1107320D01*
Y420400D01*
X1063426Y419528D02*
X1079426D01*
X1063426Y391528D02*
Y419528D01*
Y391528D02*
X1079426D01*
Y419528D01*
X1032946D02*
X1048947D01*
X1032946Y391528D02*
Y419528D01*
Y391528D02*
X1048947D01*
Y419528D01*
X1003736Y419528D02*
X1019736D01*
X1003736Y391528D02*
Y419528D01*
Y391528D02*
X1019736D01*
Y419528D01*
X863337Y743669D02*
X868050Y738956D01*
X865694Y741312D01*
X858625Y734244D01*
X870406Y736600D02*
X868050Y724819D01*
X875118Y731888D02*
X863337Y729531D01*
X913130Y872327D02*
Y862330D01*
X919794D01*
X923127Y872327D02*
Y862330D01*
X928125D01*
X929791Y863996D01*
Y870661D01*
X928125Y872327D01*
X923127D01*
X938122D02*
X934790D01*
X933124Y870661D01*
Y863996D01*
X934790Y862330D01*
X938122D01*
X939788Y863996D01*
Y870661D01*
X938122Y872327D01*
X943120Y860664D02*
X949785D01*
X958115Y872327D02*
X954783D01*
X953117Y870661D01*
Y863996D01*
X954783Y862330D01*
X958115D01*
X959782Y863996D01*
Y870661D01*
X958115Y872327D01*
X963114Y862330D02*
Y872327D01*
X969778Y862330D01*
Y872327D01*
X933893Y572678D02*
Y575034D01*
X931537Y577391D01*
X929181D01*
X924468Y572678D01*
Y570322D01*
X926824Y567966D01*
X929181D01*
X930359Y564431D02*
X932715Y562075D01*
X931537Y563253D01*
X938606Y570322D01*
X936249D01*
X940962Y553828D02*
X936249Y558541D01*
X945675D01*
X946853Y559719D01*
X946853Y562075D01*
X944496Y564431D01*
X942140D01*
X856072Y626553D02*
X853716D01*
X851359Y624197D01*
Y621841D01*
X856072Y617128D01*
X858428D01*
X860784Y619484D01*
Y621841D01*
X864319Y623019D02*
X866675Y625375D01*
X865497Y624197D01*
X858428Y631266D01*
Y628909D01*
X864319Y634800D02*
Y637156D01*
X866675Y639513D01*
X869031Y639513D01*
X870209Y638335D01*
Y635978D01*
X869031Y634800D01*
X870209Y635978D01*
X872566Y635978D01*
X873744Y634800D01*
X873744Y632444D01*
X871388Y630088D01*
X869031D01*
X1135939Y649285D02*
X1134273Y647618D01*
Y644286D01*
X1135939Y642620D01*
X1142604D01*
X1144270Y644286D01*
Y647618D01*
X1142604Y649285D01*
X1144270Y652617D02*
Y655949D01*
Y654283D01*
X1134273D01*
X1135939Y652617D01*
X1144270Y665946D02*
X1134273D01*
X1139272Y660947D01*
Y667612D01*
X814385Y861771D02*
X812718Y863437D01*
X809386D01*
X807720Y861771D01*
Y855106D01*
X809386Y853440D01*
X812718D01*
X814385Y855106D01*
X817717Y853440D02*
X821049D01*
X819383D01*
Y863437D01*
X817717Y861771D01*
X832712Y863437D02*
X826047D01*
Y858438D01*
X829380Y860105D01*
X831046D01*
X832712Y858438D01*
Y855106D01*
X831046Y853440D01*
X827714D01*
X826047Y855106D01*
X908609Y796605D02*
X906943Y794938D01*
Y791606D01*
X908609Y789940D01*
X915274D01*
X916940Y791606D01*
Y794938D01*
X915274Y796605D01*
X916940Y799937D02*
Y803269D01*
Y801603D01*
X906943D01*
X908609Y799937D01*
X906943Y814932D02*
X908609Y811600D01*
X911942Y808267D01*
X915274D01*
X916940Y809934D01*
Y813266D01*
X915274Y814932D01*
X913608D01*
X911942Y813266D01*
Y808267D01*
X795334Y826211D02*
X793668Y827877D01*
X790336D01*
X788670Y826211D01*
Y819546D01*
X790336Y817880D01*
X793668D01*
X795334Y819546D01*
X798667Y817880D02*
X801999D01*
X800333D01*
Y827877D01*
X798667Y826211D01*
X806997Y827877D02*
X813662D01*
Y826211D01*
X806997Y819546D01*
Y817880D01*
X831291Y638495D02*
X832957Y640162D01*
Y643494D01*
X831291Y645160D01*
X824626D01*
X822960Y643494D01*
Y640162D01*
X824626Y638495D01*
X822960Y635163D02*
Y631831D01*
Y633497D01*
X832957D01*
X831291Y635163D01*
X824626Y626833D02*
X822960Y625166D01*
Y621834D01*
X824626Y620168D01*
X831291D01*
X832957Y621834D01*
Y625166D01*
X831291Y626833D01*
X829624D01*
X827958Y625166D01*
Y620168D01*
X919630Y479260D02*
Y489257D01*
X924628D01*
X926294Y487591D01*
Y484258D01*
X924628Y482592D01*
X919630D01*
X929627Y479260D02*
X932959D01*
X931293D01*
Y489257D01*
X929627Y487591D01*
X937957Y477594D02*
X944622D01*
X947954Y489257D02*
X954619D01*
Y487591D01*
X947954Y480926D01*
Y479260D01*
X715973Y478020D02*
X725970D01*
Y483018D01*
X724304Y484684D01*
X722638D01*
X720972Y483018D01*
Y478020D01*
Y483018D01*
X719305Y484684D01*
X717639D01*
X715973Y483018D01*
Y478020D01*
X725970Y488017D02*
X715973D01*
X719305Y491349D01*
X715973Y494681D01*
X725970D01*
X727636Y498014D02*
Y504678D01*
X725970Y508010D02*
X715973D01*
X719305Y511343D01*
X715973Y514675D01*
X725970D01*
X715973Y523005D02*
Y519673D01*
X717639Y518007D01*
X724304D01*
X725970Y519673D01*
Y523005D01*
X724304Y524672D01*
X717639D01*
X715973Y523005D01*
Y528004D02*
X725970D01*
Y533002D01*
X724304Y534668D01*
X717639D01*
X715973Y533002D01*
Y528004D01*
Y544665D02*
Y538001D01*
X725970D01*
Y544665D01*
X720972Y538001D02*
Y541333D01*
X919540Y404330D02*
Y414327D01*
X924538D01*
X926205Y412661D01*
Y409328D01*
X924538Y407662D01*
X919540D01*
X929537Y404330D02*
X932869D01*
X931203D01*
Y414327D01*
X929537Y412661D01*
X937867Y402664D02*
X944532D01*
X954529Y404330D02*
X947864D01*
X954529Y410994D01*
Y412661D01*
X952863Y414327D01*
X949530D01*
X947864Y412661D01*
X919330Y441160D02*
Y451157D01*
X924328D01*
X925994Y449491D01*
Y446158D01*
X924328Y444492D01*
X919330D01*
X929327Y441160D02*
X932659D01*
X930993D01*
Y451157D01*
X929327Y449491D01*
X937657Y439494D02*
X944322D01*
X947654Y449491D02*
X949320Y451157D01*
X952653D01*
X954319Y449491D01*
Y447825D01*
X952653Y446158D01*
X950986D01*
X952653D01*
X954319Y444492D01*
Y442826D01*
X952653Y441160D01*
X949320D01*
X947654Y442826D01*
X942340Y520700D02*
Y530697D01*
X947338D01*
X949005Y529031D01*
Y525698D01*
X947338Y524032D01*
X942340D01*
X952337Y520700D02*
X955669D01*
X954003D01*
Y530697D01*
X952337Y529031D01*
X960667Y519034D02*
X967332D01*
X977329Y530697D02*
X973997Y529031D01*
X970664Y525698D01*
Y522366D01*
X972330Y520700D01*
X975663D01*
X977329Y522366D01*
Y524032D01*
X975663Y525698D01*
X970664D01*
X735330Y557530D02*
X725333D01*
Y562528D01*
X726999Y564194D01*
X730332D01*
X731998Y562528D01*
Y557530D01*
X735330Y574191D02*
Y567527D01*
X728665Y574191D01*
X726999D01*
X725333Y572525D01*
Y569193D01*
X726999Y567527D01*
X736996Y577524D02*
Y584188D01*
X725333Y587520D02*
Y594185D01*
X726999D01*
X733664Y587520D01*
X735330D01*
X768350Y496070D02*
X758353D01*
Y501068D01*
X760019Y502734D01*
X763352D01*
X765018Y501068D01*
Y496070D01*
X760019Y506067D02*
X758353Y507733D01*
Y511065D01*
X760019Y512731D01*
X766684D01*
X768350Y511065D01*
Y507733D01*
X766684Y506067D01*
X760019D01*
X770016Y516064D02*
Y522728D01*
X760019Y526060D02*
X758353Y527727D01*
Y531059D01*
X760019Y532725D01*
X766684D01*
X768350Y531059D01*
Y527727D01*
X766684Y526060D01*
X760019D01*
X778510Y574660D02*
X768513D01*
Y579658D01*
X770179Y581325D01*
X773512D01*
X775178Y579658D01*
Y574660D01*
X770179Y584657D02*
X768513Y586323D01*
Y589655D01*
X770179Y591321D01*
X771845D01*
X773512Y589655D01*
Y587989D01*
Y589655D01*
X775178Y591321D01*
X776844D01*
X778510Y589655D01*
Y586323D01*
X776844Y584657D01*
X780176Y594654D02*
Y601318D01*
X768513Y611315D02*
X770179Y607983D01*
X773512Y604650D01*
X776844D01*
X778510Y606316D01*
Y609649D01*
X776844Y611315D01*
X775178D01*
X773512Y609649D01*
Y604650D01*
X816690Y789455D02*
Y799452D01*
X820022Y796120D01*
X823354Y799452D01*
Y789455D01*
X833351Y797786D02*
X831685Y799452D01*
X828353D01*
X826687Y797786D01*
Y791121D01*
X828353Y789455D01*
X831685D01*
X833351Y791121D01*
X836684Y799452D02*
Y791121D01*
X838350Y789455D01*
X841682D01*
X843348Y791121D01*
Y799452D01*
X846680Y787789D02*
X853345D01*
X856677Y789455D02*
Y799452D01*
X861675D01*
X863342Y797786D01*
Y794453D01*
X861675Y792787D01*
X856677D01*
X866674Y799452D02*
Y789455D01*
X870006Y792787D01*
X873338Y789455D01*
Y799452D01*
X876671Y789455D02*
Y799452D01*
X881669D01*
X883335Y797786D01*
Y794453D01*
X881669Y792787D01*
X876671D01*
X880003D02*
X883335Y789455D01*
X710093Y401320D02*
X720090D01*
Y406318D01*
X718424Y407985D01*
X716758D01*
X715092Y406318D01*
Y401320D01*
Y406318D01*
X713426Y407985D01*
X711759D01*
X710093Y406318D01*
Y401320D01*
X720090Y411317D02*
X710093D01*
X713426Y414649D01*
X710093Y417981D01*
X720090D01*
X721756Y421314D02*
Y427978D01*
X720090Y431310D02*
X710093D01*
Y436309D01*
X711759Y437975D01*
X715092D01*
X716758Y436309D01*
Y431310D01*
X710093Y441307D02*
X720090D01*
X716758Y444639D01*
X720090Y447972D01*
X710093D01*
X720090Y451304D02*
X710093D01*
Y456302D01*
X711759Y457968D01*
X715092D01*
X716758Y456302D01*
Y451304D01*
Y454636D02*
X720090Y457968D01*
X781050Y965037D02*
Y955040D01*
X786048D01*
X787714Y956706D01*
Y963371D01*
X786048Y965037D01*
X781050D01*
X797711Y963371D02*
X796045Y965037D01*
X792713D01*
X791047Y963371D01*
Y956706D01*
X792713Y955040D01*
X796045D01*
X797711Y956706D01*
X801044Y965037D02*
Y955040D01*
X806042D01*
X807708Y956706D01*
Y963371D01*
X806042Y965037D01*
X801044D01*
X817705Y963371D02*
X816039Y965037D01*
X812707D01*
X811040Y963371D01*
Y956706D01*
X812707Y955040D01*
X816039D01*
X817705Y956706D01*
X821037Y953374D02*
X827702D01*
X831034Y955040D02*
Y965037D01*
X836032D01*
X837698Y963371D01*
Y960038D01*
X836032Y958372D01*
X831034D01*
X841031Y965037D02*
Y955040D01*
X844363Y958372D01*
X847695Y955040D01*
Y965037D01*
X851028Y955040D02*
Y965037D01*
X856026D01*
X857692Y963371D01*
Y960038D01*
X856026Y958372D01*
X851028D01*
X854360D02*
X857692Y955040D01*
X781900Y917092D02*
Y908761D01*
X783566Y907095D01*
X786898D01*
X788565Y908761D01*
Y917092D01*
X791897Y907095D02*
Y913760D01*
X795229Y917092D01*
X798561Y913760D01*
Y907095D01*
Y912094D01*
X791897D01*
X801893Y907095D02*
Y917092D01*
X806892D01*
X808558Y915426D01*
Y912094D01*
X806892Y910427D01*
X801893D01*
X805226D02*
X808558Y907095D01*
X811890Y917092D02*
X818555D01*
X815223D01*
Y907095D01*
X821887Y905429D02*
X828552D01*
X831884Y907095D02*
Y917092D01*
X836882D01*
X838548Y915426D01*
Y912094D01*
X836882Y910427D01*
X831884D01*
X841881Y917092D02*
Y907095D01*
X845213Y910427D01*
X848545Y907095D01*
Y917092D01*
X851877Y907095D02*
Y917092D01*
X856876D01*
X858542Y915426D01*
Y912094D01*
X856876Y910427D01*
X851877D01*
X855210D02*
X858542Y907095D01*
X1009650Y375920D02*
X1012982D01*
X1011316D01*
Y385917D01*
X1009650Y384251D01*
X1044255Y375920D02*
X1037590D01*
X1044255Y382584D01*
Y384251D01*
X1042588Y385917D01*
X1039256D01*
X1037590Y384251D01*
X1068070D02*
X1069736Y385917D01*
X1073068D01*
X1074734Y384251D01*
Y382584D01*
X1073068Y380918D01*
X1071402D01*
X1073068D01*
X1074734Y379252D01*
Y377586D01*
X1073068Y375920D01*
X1069736D01*
X1068070Y377586D01*
X1099738Y377190D02*
Y387187D01*
X1094740Y382188D01*
X1101404D01*
X888045Y582371D02*
X886378Y584037D01*
X883046D01*
X881380Y582371D01*
Y575706D01*
X883046Y574040D01*
X886378D01*
X888045Y575706D01*
X896375Y584037D02*
X893043D01*
X891377Y582371D01*
Y575706D01*
X893043Y574040D01*
X896375D01*
X898041Y575706D01*
Y582371D01*
X896375Y584037D01*
X901374Y574040D02*
Y584037D01*
X908038Y574040D01*
Y584037D01*
X918035D02*
X911370D01*
Y579038D01*
X914703D01*
X911370D01*
Y574040D01*
X853440D02*
Y584037D01*
X858438D01*
X860105Y582371D01*
Y579038D01*
X858438Y577372D01*
X853440D01*
X856772D02*
X860105Y574040D01*
X863437Y584037D02*
X870101Y574040D01*
Y584037D02*
X863437Y574040D01*
X822960Y584037D02*
X829624D01*
X826292D01*
Y574040D01*
X832957Y584037D02*
X839621Y574040D01*
Y584037D02*
X832957Y574040D01*
X735330Y844550D02*
Y854547D01*
X738662Y851215D01*
X741994Y854547D01*
Y844550D01*
X751991Y852881D02*
X750325Y854547D01*
X746993D01*
X745327Y852881D01*
Y846216D01*
X746993Y844550D01*
X750325D01*
X751991Y846216D01*
X755324Y854547D02*
Y846216D01*
X756990Y844550D01*
X760322D01*
X761988Y846216D01*
Y854547D01*
X765320Y842884D02*
X771985D01*
X780315Y854547D02*
X776983D01*
X775317Y852881D01*
Y846216D01*
X776983Y844550D01*
X780315D01*
X781982Y846216D01*
Y852881D01*
X780315Y854547D01*
X785314Y844550D02*
Y854547D01*
X791978Y844550D01*
Y854547D01*
X646430Y675477D02*
Y665480D01*
X651428D01*
X653094Y667146D01*
Y668812D01*
X651428Y670478D01*
X646430D01*
X651428D01*
X653094Y672144D01*
Y673811D01*
X651428Y675477D01*
X646430D01*
X656427Y665480D02*
Y675477D01*
X659759Y672144D01*
X663091Y675477D01*
Y665480D01*
X666424Y663814D02*
X673088D01*
X681419Y675477D02*
X678086D01*
X676420Y673811D01*
Y667146D01*
X678086Y665480D01*
X681419D01*
X683085Y667146D01*
Y673811D01*
X681419Y675477D01*
X686417Y665480D02*
Y675477D01*
X693082Y665480D01*
Y675477D01*
X1183937Y594015D02*
Y604012D01*
X1188935D01*
X1190601Y602345D01*
Y599013D01*
X1188935Y597347D01*
X1183937D01*
X1187269D02*
X1190601Y594015D01*
X1193934D02*
X1197266D01*
X1195600D01*
Y604012D01*
X1193934Y602345D01*
X707390Y628650D02*
Y638647D01*
X712388D01*
X714054Y636981D01*
Y633648D01*
X712388Y631982D01*
X707390D01*
X710722D02*
X714054Y628650D01*
X717387Y636981D02*
X719053Y638647D01*
X722385D01*
X724051Y636981D01*
Y635314D01*
X722385Y633648D01*
X720719D01*
X722385D01*
X724051Y631982D01*
Y630316D01*
X722385Y628650D01*
X719053D01*
X717387Y630316D01*
X1158917Y684325D02*
Y694322D01*
X1162249Y690989D01*
X1165581Y694322D01*
Y684325D01*
X1175578Y692655D02*
X1173912Y694322D01*
X1170580D01*
X1168914Y692655D01*
Y685991D01*
X1170580Y684325D01*
X1173912D01*
X1175578Y685991D01*
X1178910Y694322D02*
Y685991D01*
X1180576Y684325D01*
X1183909D01*
X1185575Y685991D01*
Y694322D01*
X1188907Y682659D02*
X1195572D01*
X1198904Y684325D02*
Y694322D01*
X1203902D01*
X1205568Y692655D01*
Y689323D01*
X1203902Y687657D01*
X1198904D01*
X1202236D02*
X1205568Y684325D01*
X1215565Y694322D02*
X1208901D01*
Y684325D01*
X1215565D01*
X1208901Y689323D02*
X1212233D01*
X1225562Y692655D02*
X1223896Y694322D01*
X1220564D01*
X1218897Y692655D01*
Y690989D01*
X1220564Y689323D01*
X1223896D01*
X1225562Y687657D01*
Y685991D01*
X1223896Y684325D01*
X1220564D01*
X1218897Y685991D01*
X1235559Y694322D02*
X1228894D01*
Y684325D01*
X1235559D01*
X1228894Y689323D02*
X1232226D01*
X1238891Y694322D02*
X1245555D01*
X1242223D01*
Y684325D01*
X722630Y726277D02*
Y716280D01*
X727628D01*
X729295Y717946D01*
Y719612D01*
X727628Y721278D01*
X722630D01*
X727628D01*
X729295Y722944D01*
Y724611D01*
X727628Y726277D01*
X722630D01*
X732627Y716280D02*
Y726277D01*
X735959Y722944D01*
X739291Y726277D01*
Y716280D01*
X742624Y714614D02*
X749288D01*
X752620Y716280D02*
Y726277D01*
X757619D01*
X759285Y724611D01*
Y721278D01*
X757619Y719612D01*
X752620D01*
X755953D02*
X759285Y716280D01*
X769282Y726277D02*
X762617D01*
Y716280D01*
X769282D01*
X762617Y721278D02*
X765949D01*
X779278Y724611D02*
X777612Y726277D01*
X774280D01*
X772614Y724611D01*
Y722944D01*
X774280Y721278D01*
X777612D01*
X779278Y719612D01*
Y717946D01*
X777612Y716280D01*
X774280D01*
X772614Y717946D01*
X789275Y726277D02*
X782611D01*
Y716280D01*
X789275D01*
X782611Y721278D02*
X785943D01*
X792607Y726277D02*
X799272D01*
X795940D01*
Y716280D01*
X1082355Y846531D02*
X1080688Y848197D01*
X1077356D01*
X1075690Y846531D01*
Y839866D01*
X1077356Y838200D01*
X1080688D01*
X1082355Y839866D01*
Y843198D01*
X1079022D01*
X1085687Y838200D02*
Y848197D01*
X1092351Y838200D01*
Y848197D01*
X1095684D02*
Y838200D01*
X1100682D01*
X1102348Y839866D01*
Y846531D01*
X1100682Y848197D01*
X1095684D01*
X1131570Y841136D02*
X1133236Y839470D01*
X1136568D01*
X1138234Y841136D01*
Y847801D01*
X1136568Y849467D01*
X1133236D01*
X1131570Y847801D01*
Y846134D01*
X1133236Y844468D01*
X1138234D01*
X1141567Y849467D02*
Y842802D01*
X1144899Y839470D01*
X1148231Y842802D01*
Y849467D01*
X642934Y809701D02*
X641268Y811367D01*
X637936D01*
X636270Y809701D01*
Y808035D01*
X637936Y806368D01*
X641268D01*
X642934Y804702D01*
Y803036D01*
X641268Y801370D01*
X637936D01*
X636270Y803036D01*
X651265Y801370D02*
X647933D01*
X646267Y803036D01*
Y806368D01*
X647933Y808035D01*
X651265D01*
X652931Y806368D01*
Y804702D01*
X646267D01*
X656264Y801370D02*
Y808035D01*
X661262D01*
X662928Y806368D01*
Y801370D01*
X633730Y763107D02*
Y753110D01*
X638728D01*
X640395Y754776D01*
Y756442D01*
X638728Y758108D01*
X633730D01*
X638728D01*
X640395Y759774D01*
Y761441D01*
X638728Y763107D01*
X633730D01*
X643727Y759774D02*
Y754776D01*
X645393Y753110D01*
X650391D01*
Y759774D01*
X653724D02*
X660388D01*
X653724Y753110D01*
X660388D01*
X663720Y759774D02*
X670385D01*
X663720Y753110D01*
X670385D01*
X644204Y857961D02*
X642538Y859627D01*
X639206D01*
X637540Y857961D01*
Y851296D01*
X639206Y849630D01*
X642538D01*
X644204Y851296D01*
Y854628D01*
X640872D01*
X647537Y849630D02*
Y859627D01*
X654201Y849630D01*
Y859627D01*
X657534D02*
Y849630D01*
X662532D01*
X664198Y851296D01*
Y857961D01*
X662532Y859627D01*
X657534D01*
X636270Y482437D02*
Y472440D01*
X641268D01*
X642934Y474106D01*
Y475772D01*
X641268Y477438D01*
X636270D01*
X641268D01*
X642934Y479104D01*
Y480771D01*
X641268Y482437D01*
X636270D01*
X646267Y479104D02*
Y474106D01*
X647933Y472440D01*
X652931D01*
Y479104D01*
X656264D02*
X662928D01*
X656264Y472440D01*
X662928D01*
X666260Y479104D02*
X672925D01*
X666260Y472440D01*
X672925D01*
X645474Y529031D02*
X643808Y530697D01*
X640476D01*
X638810Y529031D01*
Y527365D01*
X640476Y525698D01*
X643808D01*
X645474Y524032D01*
Y522366D01*
X643808Y520700D01*
X640476D01*
X638810Y522366D01*
X653805Y520700D02*
X650473D01*
X648807Y522366D01*
Y525698D01*
X650473Y527365D01*
X653805D01*
X655471Y525698D01*
Y524032D01*
X648807D01*
X658804Y520700D02*
Y527365D01*
X663802D01*
X665468Y525698D01*
Y520700D01*
X641665Y576021D02*
X639998Y577687D01*
X636666D01*
X635000Y576021D01*
Y569356D01*
X636666Y567690D01*
X639998D01*
X641665Y569356D01*
Y572688D01*
X638332D01*
X644997Y567690D02*
Y577687D01*
X651661Y567690D01*
Y577687D01*
X654994D02*
Y567690D01*
X659992D01*
X661658Y569356D01*
Y576021D01*
X659992Y577687D01*
X654994D01*
X640395Y436717D02*
X633730D01*
Y431718D01*
X637062Y433385D01*
X638728D01*
X640395Y431718D01*
Y428386D01*
X638728Y426720D01*
X635396D01*
X633730Y428386D01*
X643727Y436717D02*
Y430052D01*
X647059Y426720D01*
X650391Y430052D01*
Y436717D01*
X639124Y713577D02*
X632460D01*
Y708578D01*
X635792Y710245D01*
X637458D01*
X639124Y708578D01*
Y705246D01*
X637458Y703580D01*
X634126D01*
X632460Y705246D01*
X642457Y713577D02*
Y706912D01*
X645789Y703580D01*
X649121Y706912D01*
Y713577D01*
X1261424Y591657D02*
X1254760D01*
Y586658D01*
X1258092Y588325D01*
X1259758D01*
X1261424Y586658D01*
Y583326D01*
X1259758Y581660D01*
X1256426D01*
X1254760Y583326D01*
X1264757Y591657D02*
Y584992D01*
X1268089Y581660D01*
X1271421Y584992D01*
Y591657D01*
X1223010Y543397D02*
Y533400D01*
X1228008D01*
X1229675Y535066D01*
Y536732D01*
X1228008Y538398D01*
X1223010D01*
X1228008D01*
X1229675Y540065D01*
Y541731D01*
X1228008Y543397D01*
X1223010D01*
X1233007Y540065D02*
Y535066D01*
X1234673Y533400D01*
X1239671D01*
Y540065D01*
X1243004D02*
X1249668D01*
X1243004Y533400D01*
X1249668D01*
X1253000Y540065D02*
X1259665D01*
X1253000Y533400D01*
X1259665D01*
X1251264Y493471D02*
X1249598Y495137D01*
X1246266D01*
X1244600Y493471D01*
Y491805D01*
X1246266Y490138D01*
X1249598D01*
X1251264Y488472D01*
Y486806D01*
X1249598Y485140D01*
X1246266D01*
X1244600Y486806D01*
X1259595Y485140D02*
X1256263D01*
X1254597Y486806D01*
Y490138D01*
X1256263Y491805D01*
X1259595D01*
X1261261Y490138D01*
Y488472D01*
X1254597D01*
X1264594Y485140D02*
Y491805D01*
X1269592D01*
X1271258Y490138D01*
Y485140D01*
X1251264Y438861D02*
X1249598Y440527D01*
X1246266D01*
X1244600Y438861D01*
Y432196D01*
X1246266Y430530D01*
X1249598D01*
X1251264Y432196D01*
Y435528D01*
X1247932D01*
X1254597Y430530D02*
Y440527D01*
X1261261Y430530D01*
Y440527D01*
X1264594D02*
Y430530D01*
X1269592D01*
X1271258Y432196D01*
Y438861D01*
X1269592Y440527D01*
X1264594D01*
X519430Y944717D02*
Y934720D01*
X524428D01*
X526095Y936386D01*
Y938052D01*
X524428Y939718D01*
X519430D01*
X524428D01*
X526095Y941385D01*
Y943051D01*
X524428Y944717D01*
X519430D01*
X531093Y941385D02*
X534425D01*
X536091Y939718D01*
Y934720D01*
X531093D01*
X529427Y936386D01*
X531093Y938052D01*
X536091D01*
X546088Y941385D02*
X541090D01*
X539424Y939718D01*
Y936386D01*
X541090Y934720D01*
X546088D01*
X549420D02*
Y944717D01*
Y938052D02*
X554419Y941385D01*
X549420Y938052D02*
X554419Y934720D01*
X569414D02*
Y944717D01*
X574412D01*
X576078Y943051D01*
Y939718D01*
X574412Y938052D01*
X569414D01*
X572746D02*
X576078Y934720D01*
X579411D02*
X582743D01*
X581077D01*
Y941385D01*
X579411D01*
X591074Y931388D02*
X592740D01*
X594406Y933054D01*
Y941385D01*
X589408D01*
X587741Y939718D01*
Y936386D01*
X589408Y934720D01*
X594406D01*
X597738Y944717D02*
Y934720D01*
Y939718D01*
X599404Y941385D01*
X602737D01*
X604403Y939718D01*
Y934720D01*
X609401Y943051D02*
Y941385D01*
X607735D01*
X611067D01*
X609401D01*
Y936386D01*
X611067Y934720D01*
X521015Y356707D02*
X514350D01*
Y351708D01*
X517682D01*
X514350D01*
Y346710D01*
X524347Y353374D02*
Y346710D01*
Y350042D01*
X526013Y351708D01*
X527679Y353374D01*
X529345D01*
X536010Y346710D02*
X539342D01*
X541008Y348376D01*
Y351708D01*
X539342Y353374D01*
X536010D01*
X534344Y351708D01*
Y348376D01*
X536010Y346710D01*
X544340D02*
Y353374D01*
X549339D01*
X551005Y351708D01*
Y346710D01*
X556003Y355041D02*
Y353374D01*
X554337D01*
X557669D01*
X556003D01*
Y348376D01*
X557669Y346710D01*
X572664D02*
Y356707D01*
X577663D01*
X579329Y355041D01*
Y351708D01*
X577663Y350042D01*
X572664D01*
X575997D02*
X579329Y346710D01*
X582661D02*
X585994D01*
X584328D01*
Y353374D01*
X582661D01*
X594324Y343378D02*
X595990D01*
X597657Y345044D01*
Y353374D01*
X592658D01*
X590992Y351708D01*
Y348376D01*
X592658Y346710D01*
X597657D01*
X600989Y356707D02*
Y346710D01*
Y351708D01*
X602655Y353374D01*
X605987D01*
X607653Y351708D01*
Y346710D01*
X612652Y355041D02*
Y353374D01*
X610985D01*
X614318D01*
X612652D01*
Y348376D01*
X614318Y346710D01*
X1310954Y364327D02*
X1304290D01*
Y359328D01*
X1307622D01*
X1304290D01*
Y354330D01*
X1314287Y360994D02*
Y354330D01*
Y357662D01*
X1315953Y359328D01*
X1317619Y360994D01*
X1319285D01*
X1325950Y354330D02*
X1329282D01*
X1330948Y355996D01*
Y359328D01*
X1329282Y360994D01*
X1325950D01*
X1324284Y359328D01*
Y355996D01*
X1325950Y354330D01*
X1334280D02*
Y360994D01*
X1339279D01*
X1340945Y359328D01*
Y354330D01*
X1345943Y362661D02*
Y360994D01*
X1344277D01*
X1347609D01*
X1345943D01*
Y355996D01*
X1347609Y354330D01*
X1362605Y364327D02*
Y354330D01*
X1369269D01*
X1377600D02*
X1374267D01*
X1372601Y355996D01*
Y359328D01*
X1374267Y360994D01*
X1377600D01*
X1379266Y359328D01*
Y357662D01*
X1372601D01*
X1384264Y354330D02*
Y362661D01*
Y359328D01*
X1382598D01*
X1385930D01*
X1384264D01*
Y362661D01*
X1385930Y364327D01*
X1392595Y362661D02*
Y360994D01*
X1390929D01*
X1394261D01*
X1392595D01*
Y355996D01*
X1394261Y354330D01*
X1313180Y945987D02*
Y935990D01*
X1318178D01*
X1319845Y937656D01*
Y939322D01*
X1318178Y940988D01*
X1313180D01*
X1318178D01*
X1319845Y942654D01*
Y944321D01*
X1318178Y945987D01*
X1313180D01*
X1324843Y942654D02*
X1328175D01*
X1329841Y940988D01*
Y935990D01*
X1324843D01*
X1323177Y937656D01*
X1324843Y939322D01*
X1329841D01*
X1339838Y942654D02*
X1334840D01*
X1333174Y940988D01*
Y937656D01*
X1334840Y935990D01*
X1339838D01*
X1343170D02*
Y945987D01*
Y939322D02*
X1348169Y942654D01*
X1343170Y939322D02*
X1348169Y935990D01*
X1363164Y945987D02*
Y935990D01*
X1369828D01*
X1378159D02*
X1374827D01*
X1373161Y937656D01*
Y940988D01*
X1374827Y942654D01*
X1378159D01*
X1379825Y940988D01*
Y939322D01*
X1373161D01*
X1384824Y935990D02*
Y944321D01*
Y940988D01*
X1383158D01*
X1386490D01*
X1384824D01*
Y944321D01*
X1386490Y945987D01*
X1393154Y944321D02*
Y942654D01*
X1391488D01*
X1394820D01*
X1393154D01*
Y937656D01*
X1394820Y935990D01*
X1266505Y871057D02*
X1259840D01*
Y866058D01*
X1263172Y867725D01*
X1264838D01*
X1266505Y866058D01*
Y862726D01*
X1264838Y861060D01*
X1261506D01*
X1259840Y862726D01*
X1269837Y871057D02*
Y864392D01*
X1273169Y861060D01*
X1276501Y864392D01*
Y871057D01*
X1252534Y722071D02*
X1250868Y723737D01*
X1247536D01*
X1245870Y722071D01*
Y715406D01*
X1247536Y713740D01*
X1250868D01*
X1252534Y715406D01*
Y718738D01*
X1249202D01*
X1255867Y713740D02*
Y723737D01*
X1262531Y713740D01*
Y723737D01*
X1265864D02*
Y713740D01*
X1270862D01*
X1272528Y715406D01*
Y722071D01*
X1270862Y723737D01*
X1265864D01*
X1255074Y771601D02*
X1253408Y773267D01*
X1250076D01*
X1248410Y771601D01*
Y769934D01*
X1250076Y768268D01*
X1253408D01*
X1255074Y766602D01*
Y764936D01*
X1253408Y763270D01*
X1250076D01*
X1248410Y764936D01*
X1263405Y763270D02*
X1260073D01*
X1258407Y764936D01*
Y768268D01*
X1260073Y769934D01*
X1263405D01*
X1265071Y768268D01*
Y766602D01*
X1258407D01*
X1268404Y763270D02*
Y769934D01*
X1273402D01*
X1275068Y768268D01*
Y763270D01*
X1235710Y824067D02*
Y814070D01*
X1240708D01*
X1242374Y815736D01*
Y817402D01*
X1240708Y819068D01*
X1235710D01*
X1240708D01*
X1242374Y820734D01*
Y822401D01*
X1240708Y824067D01*
X1235710D01*
X1245707Y820734D02*
Y815736D01*
X1247373Y814070D01*
X1252371D01*
Y820734D01*
X1255704D02*
X1262368D01*
X1255704Y814070D01*
X1262368D01*
X1265700Y820734D02*
X1272365D01*
X1265700Y814070D01*
X1272365D01*
X807009Y542604D02*
X805343Y540938D01*
Y537606D01*
X807009Y535940D01*
X813674D01*
X815340Y537606D01*
Y540938D01*
X813674Y542604D01*
X810342D01*
Y539272D01*
X815340Y545937D02*
X805343D01*
X815340Y552601D01*
X805343D01*
Y555934D02*
X815340D01*
Y560932D01*
X813674Y562598D01*
X807009D01*
X805343Y560932D01*
Y555934D01*
X819593Y704758D02*
Y707114D01*
X817237Y709471D01*
X814881D01*
X810168Y704758D01*
Y702402D01*
X812524Y700046D01*
X814881D01*
X817237Y702402D01*
X814881Y704758D01*
X816059Y696511D02*
X823128Y703580D01*
X820771Y691799D01*
X827840Y698867D01*
X830196Y696511D02*
X823128Y689442D01*
X826662Y685908D01*
X829018Y685908D01*
X833731Y690621D01*
X833731Y692977D01*
X830196Y696511D01*
X835660Y716280D02*
X842729Y723349D01*
X846263Y719814D01*
Y717458D01*
X843907Y715102D01*
X841551D01*
X838016Y718636D01*
X840372Y716280D02*
Y711568D01*
X849798Y716280D02*
X847441Y704499D01*
X854510Y711568D02*
X842729Y709211D01*
X884271Y755466D02*
X879559Y760179D01*
X876024Y756644D01*
X879559Y755466D01*
X880737Y754288D01*
Y751932D01*
X878381Y749576D01*
X876024D01*
X873668Y751932D01*
Y754288D01*
X886628Y753110D02*
X881915Y748398D01*
Y743685D01*
X886628D01*
X891340Y748398D01*
D44*
X853310Y382090D02*
Y384630D01*
X845690Y380820D02*
X853310D01*
X793620D02*
X853310D01*
X793620D02*
Y435430D01*
X853310D01*
Y380820D02*
Y435430D01*
X839340Y380820D02*
X853310Y394790D01*
X1143100Y857820D02*
X1167230D01*
Y923860D01*
X1168500Y945450D02*
Y982280D01*
X1165960D02*
X1168500D01*
X1018640D02*
X1165960D01*
X1018640Y950530D02*
Y982280D01*
Y857820D02*
Y918780D01*
Y857820D02*
X1036420D01*
X799210Y480050D02*
X910710D01*
Y510300D01*
X910210Y510800D02*
X910710Y510300D01*
X799210Y510800D02*
X910210D01*
X799210Y480050D02*
Y510800D01*
X1280160Y667550D02*
X1344930D01*
X1369060Y668820D02*
X1405890D01*
Y919010D01*
X1369060D02*
X1405890D01*
X1280160D02*
X1342390D01*
X1280160Y885990D02*
Y919010D01*
Y667550D02*
Y703110D01*
X1280730Y386040D02*
X1345500D01*
X1369630Y387310D02*
X1406460D01*
Y637500D01*
X1369630D02*
X1406460D01*
X1280730D02*
X1342960D01*
X1280730Y604480D02*
Y637500D01*
Y386040D02*
Y421600D01*
X563880Y908190D02*
X628650D01*
X502920Y906920D02*
X539750D01*
X502920Y656730D02*
Y906920D01*
Y656730D02*
X539750D01*
X566420D02*
X628650D01*
Y689750D01*
Y872630D02*
Y908190D01*
X563880Y625780D02*
X628650D01*
X502920Y624510D02*
X539750D01*
X502920Y374320D02*
Y624510D01*
Y374320D02*
X539750D01*
X566420D02*
X628650D01*
Y407340D01*
Y590220D02*
Y625780D01*
X844029Y649742D02*
X922871Y728585D01*
X901481Y749975D02*
X922871Y728585D01*
X900774Y749975D02*
X901481D01*
X822285Y671486D02*
X900774Y749975D01*
X822285Y671486D02*
X844029Y649742D01*
X1159827Y725805D02*
Y729615D01*
X1157288Y727075D02*
X1159827Y729615D01*
X1157288Y724535D02*
Y727075D01*
Y724535D02*
X1158558Y725805D01*
X1163637D01*
X1159827Y729615D02*
X1163637Y725805D01*
X1156018D02*
X1159827Y729615D01*
X1156018Y725805D02*
X1157288Y724535D01*
X1167448D01*
X1159827Y732155D02*
X1167448Y724535D01*
X1152207D02*
X1159827Y732155D01*
X1152207Y724535D02*
X1167448D01*
X726440Y807720D02*
Y811530D01*
Y807720D02*
X728980Y810260D01*
Y812800D01*
X727710Y811530D02*
X728980Y812800D01*
X722630Y811530D02*
X727710D01*
X722630D02*
X726440Y807720D01*
X730250Y811530D01*
X728980Y812800D02*
X730250Y811530D01*
X718820Y812800D02*
X728980D01*
X718820D02*
X726440Y805180D01*
X734060Y812800D01*
X718820D02*
X734060D01*
X704850Y737870D02*
Y741680D01*
Y737870D02*
X707390Y740410D01*
Y742950D01*
X706120Y741680D02*
X707390Y742950D01*
X701040Y741680D02*
X706120D01*
X701040D02*
X704850Y737870D01*
X708660Y741680D01*
X707390Y742950D02*
X708660Y741680D01*
X697230Y742950D02*
X707390D01*
X697230D02*
X704850Y735330D01*
X712470Y742950D01*
X697230D02*
X712470D01*
X1139190Y786130D02*
Y789940D01*
X1136650Y787400D02*
X1139190Y789940D01*
X1136650Y784860D02*
Y787400D01*
Y784860D02*
X1137920Y786130D01*
X1143000D01*
X1139190Y789940D02*
X1143000Y786130D01*
X1135380D02*
X1139190Y789940D01*
X1135380Y786130D02*
X1136650Y784860D01*
X1146810D01*
X1139190Y792480D02*
X1146810Y784860D01*
X1131570D02*
X1139190Y792480D01*
X1131570Y784860D02*
X1146810D01*
X811530Y515620D02*
Y529590D01*
Y515620D02*
X816610Y520700D01*
X811530Y515620D02*
X816610Y520700D01*
X806450D02*
X811530Y515620D01*
M02*
