G04 Layer_Color=8388736*
%FSLAX44Y44*%
%MOMM*%
G71*
G01*
G75*
%ADD45R,0.4500X0.7747*%
%ADD46R,0.7747X0.4500*%
%ADD47R,0.7000X1.0000*%
%ADD48R,1.2000X0.8000*%
%ADD49R,1.7000X0.9000*%
%ADD50R,0.9000X1.7000*%
G04:AMPARAMS|DCode=51|XSize=0.5mm|YSize=2mm|CornerRadius=0mm|HoleSize=0mm|Usage=FLASHONLY|Rotation=315.000|XOffset=0mm|YOffset=0mm|HoleType=Round|Shape=Round|*
%AMOVALD51*
21,1,1.5000,0.5000,0.0000,0.0000,45.0*
1,1,0.5000,-0.5303,-0.5303*
1,1,0.5000,0.5303,0.5303*
%
%ADD51OVALD51*%

G04:AMPARAMS|DCode=52|XSize=0.5mm|YSize=2mm|CornerRadius=0mm|HoleSize=0mm|Usage=FLASHONLY|Rotation=225.000|XOffset=0mm|YOffset=0mm|HoleType=Round|Shape=Round|*
%AMOVALD52*
21,1,1.5000,0.5000,0.0000,0.0000,315.0*
1,1,0.5000,-0.5303,0.5303*
1,1,0.5000,0.5303,-0.5303*
%
%ADD52OVALD52*%

%ADD53C,0.0762*%
%ADD54R,1.1000X0.9000*%
%ADD55R,0.9000X1.1000*%
%ADD56R,1.6000X4.7000*%
%ADD57R,4.7000X1.6000*%
%ADD58R,1.0000X0.7000*%
%ADD59R,1.7500X1.6000*%
G04:AMPARAMS|DCode=60|XSize=2.6mm|YSize=0.96mm|CornerRadius=0mm|HoleSize=0mm|Usage=FLASHONLY|Rotation=135.000|XOffset=0mm|YOffset=0mm|HoleType=Round|Shape=Rectangle|*
%AMROTATEDRECTD60*
4,1,4,1.2587,-0.5798,0.5798,-1.2587,-1.2587,0.5798,-0.5798,1.2587,1.2587,-0.5798,0.0*
%
%ADD60ROTATEDRECTD60*%

%ADD61R,1.4000X1.0500*%
%ADD62R,1.4700X0.9620*%
%ADD63R,2.7400X2.8700*%
G04:AMPARAMS|DCode=64|XSize=1.1mm|YSize=0.9mm|CornerRadius=0mm|HoleSize=0mm|Usage=FLASHONLY|Rotation=135.000|XOffset=0mm|YOffset=0mm|HoleType=Round|Shape=Rectangle|*
%AMROTATEDRECTD64*
4,1,4,0.7071,-0.0707,0.0707,-0.7071,-0.7071,0.0707,-0.0707,0.7071,0.7071,-0.0707,0.0*
%
%ADD64ROTATEDRECTD64*%

G04:AMPARAMS|DCode=65|XSize=1.1mm|YSize=0.9mm|CornerRadius=0mm|HoleSize=0mm|Usage=FLASHONLY|Rotation=225.000|XOffset=0mm|YOffset=0mm|HoleType=Round|Shape=Rectangle|*
%AMROTATEDRECTD65*
4,1,4,0.0707,0.7071,0.7071,0.0707,-0.0707,-0.7071,-0.7071,-0.0707,0.0707,0.7071,0.0*
%
%ADD65ROTATEDRECTD65*%

%ADD66C,8.5000*%
%ADD67C,2.0000*%
%ADD68C,1.2000*%
%ADD69C,2.2000*%
%ADD70C,2.1500*%
%ADD71C,2.1532*%
%ADD72C,1.5716*%
%ADD73C,2.1000*%
%ADD74C,0.9000*%
D45*
X1099820Y455951D02*
D03*
X1071880D02*
D03*
X1041400Y455231D02*
D03*
X1012236Y454850D02*
D03*
X792479Y557368D02*
D03*
X782319Y477357D02*
D03*
X749301Y536638D02*
D03*
D46*
X896049Y464820D02*
D03*
X927798Y505460D02*
D03*
X894629Y427190D02*
D03*
X895987Y390360D02*
D03*
D47*
X812000Y890740D02*
D03*
X797000D02*
D03*
X940100Y464820D02*
D03*
X955100D02*
D03*
X971080Y506260D02*
D03*
X986080D02*
D03*
X938530Y427990D02*
D03*
X953530D02*
D03*
X938830Y390360D02*
D03*
X953830D02*
D03*
X853670Y775015D02*
D03*
X868670D02*
D03*
X812650Y939000D02*
D03*
X797650D02*
D03*
D48*
X873540Y824890D02*
D03*
Y834390D02*
D03*
Y843890D02*
D03*
X846040D02*
D03*
Y824890D02*
D03*
D49*
X781050Y383670D02*
D03*
Y395670D02*
D03*
Y407670D02*
D03*
Y419670D02*
D03*
Y431670D02*
D03*
X866050D02*
D03*
Y419670D02*
D03*
Y407670D02*
D03*
Y395670D02*
D03*
Y383670D02*
D03*
D50*
X793550Y448170D02*
D03*
X805550D02*
D03*
X817550D02*
D03*
X829550D02*
D03*
X841550D02*
D03*
X853550D02*
D03*
D51*
X1079180Y665778D02*
D03*
X1075645Y669313D02*
D03*
X1072109Y672849D02*
D03*
X1068574Y676385D02*
D03*
X1065038Y679920D02*
D03*
X1061503Y683456D02*
D03*
X1057967Y686991D02*
D03*
X1054432Y690527D02*
D03*
X1050896Y694062D02*
D03*
X1047361Y697598D02*
D03*
X1043825Y701133D02*
D03*
X1040290Y704669D02*
D03*
X1036754Y708204D02*
D03*
X1033219Y711740D02*
D03*
X1029683Y715275D02*
D03*
X1026147Y718811D02*
D03*
X1022612Y722346D02*
D03*
X1019076Y725882D02*
D03*
X1015541Y729417D02*
D03*
X1012005Y732953D02*
D03*
X1008470Y736488D02*
D03*
X1004934Y740024D02*
D03*
X1001399Y743560D02*
D03*
X997863Y747095D02*
D03*
X994328Y750631D02*
D03*
X887554Y643858D02*
D03*
X891090Y640322D02*
D03*
X894625Y636786D02*
D03*
X898161Y633251D02*
D03*
X901697Y629715D02*
D03*
X905232Y626180D02*
D03*
X908768Y622644D02*
D03*
X912303Y619109D02*
D03*
X915839Y615573D02*
D03*
X919374Y612038D02*
D03*
X922910Y608502D02*
D03*
X926445Y604967D02*
D03*
X929981Y601431D02*
D03*
X933516Y597896D02*
D03*
X937052Y594360D02*
D03*
X940587Y590825D02*
D03*
X944123Y587289D02*
D03*
X947659Y583754D02*
D03*
X951194Y580218D02*
D03*
X954730Y576682D02*
D03*
X958265Y573147D02*
D03*
X961801Y569611D02*
D03*
X965336Y566076D02*
D03*
X968872Y562540D02*
D03*
X972407Y559005D02*
D03*
D52*
Y750631D02*
D03*
X968872Y747095D02*
D03*
X965336Y743560D02*
D03*
X961801Y740024D02*
D03*
X958265Y736488D02*
D03*
X954730Y732953D02*
D03*
X951194Y729417D02*
D03*
X947659Y725882D02*
D03*
X944123Y722346D02*
D03*
X940587Y718811D02*
D03*
X937052Y715275D02*
D03*
X933516Y711740D02*
D03*
X929981Y708204D02*
D03*
X926445Y704669D02*
D03*
X922910Y701133D02*
D03*
X919374Y697598D02*
D03*
X915839Y694062D02*
D03*
X912303Y690527D02*
D03*
X908768Y686991D02*
D03*
X905232Y683456D02*
D03*
X901697Y679920D02*
D03*
X898161Y676385D02*
D03*
X894625Y672849D02*
D03*
X891090Y669313D02*
D03*
X887554Y665778D02*
D03*
X994328Y559005D02*
D03*
X997863Y562540D02*
D03*
X1001399Y566076D02*
D03*
X1004934Y569611D02*
D03*
X1008470Y573147D02*
D03*
X1012005Y576682D02*
D03*
X1015541Y580218D02*
D03*
X1019076Y583754D02*
D03*
X1022612Y587289D02*
D03*
X1026147Y590825D02*
D03*
X1029683Y594360D02*
D03*
X1033219Y597896D02*
D03*
X1036754Y601431D02*
D03*
X1040290Y604967D02*
D03*
X1043825Y608502D02*
D03*
X1047361Y612038D02*
D03*
X1050896Y615573D02*
D03*
X1054432Y619109D02*
D03*
X1057967Y622644D02*
D03*
X1061503Y626180D02*
D03*
X1065038Y629715D02*
D03*
X1068574Y633251D02*
D03*
X1072109Y636786D02*
D03*
X1075645Y640322D02*
D03*
X1079180Y643858D02*
D03*
D53*
X1099820Y458470D02*
D03*
Y453220D02*
D03*
X1071880Y458470D02*
D03*
Y453220D02*
D03*
X1041400Y457751D02*
D03*
Y452501D02*
D03*
X1012236Y457370D02*
D03*
Y452120D02*
D03*
X792480Y554848D02*
D03*
Y560098D02*
D03*
X782320Y474838D02*
D03*
Y480088D02*
D03*
X749300Y534119D02*
D03*
Y539369D02*
D03*
X893529Y464820D02*
D03*
X898779D02*
D03*
X925279Y505460D02*
D03*
X930529D02*
D03*
X892109Y427190D02*
D03*
X897359D02*
D03*
X893468Y390360D02*
D03*
X898718D02*
D03*
D54*
X734860Y406870D02*
D03*
Y420870D02*
D03*
X1099397Y431398D02*
D03*
Y445398D02*
D03*
X1071926Y429008D02*
D03*
Y443008D02*
D03*
X1041447Y429628D02*
D03*
Y443628D02*
D03*
X1012236Y429628D02*
D03*
Y443628D02*
D03*
X810260Y602630D02*
D03*
Y588630D02*
D03*
X769620Y563260D02*
D03*
Y549260D02*
D03*
X731520Y615330D02*
D03*
Y601330D02*
D03*
X792480Y570200D02*
D03*
Y584200D02*
D03*
X782320Y490190D02*
D03*
Y504190D02*
D03*
X749300Y550505D02*
D03*
Y564505D02*
D03*
X739940Y509120D02*
D03*
Y523120D02*
D03*
X812800Y626110D02*
D03*
Y640110D02*
D03*
X760730Y421020D02*
D03*
Y407020D02*
D03*
X825500Y810880D02*
D03*
Y824880D02*
D03*
X927100Y809290D02*
D03*
Y795290D02*
D03*
X1140460Y619110D02*
D03*
Y633110D02*
D03*
D55*
X823660Y774215D02*
D03*
X837660D02*
D03*
X842010Y891540D02*
D03*
X828010D02*
D03*
X842660Y939800D02*
D03*
X828660D02*
D03*
X1000140Y524510D02*
D03*
X986140D02*
D03*
X979820Y447040D02*
D03*
X965820D02*
D03*
X979820Y408940D02*
D03*
X965820D02*
D03*
X941070Y505460D02*
D03*
X955070D02*
D03*
X908520Y427190D02*
D03*
X922520D02*
D03*
X979820Y485140D02*
D03*
X965820D02*
D03*
X908820Y390360D02*
D03*
X922820D02*
D03*
X910090Y465290D02*
D03*
X924090D02*
D03*
X733410Y633730D02*
D03*
X747410D02*
D03*
X1159157Y597825D02*
D03*
X1173157D02*
D03*
X812770Y843280D02*
D03*
X826770D02*
D03*
D56*
X1117700Y883220D02*
D03*
X1067700D02*
D03*
D57*
X1304290Y868350D02*
D03*
Y818350D02*
D03*
Y768350D02*
D03*
Y718350D02*
D03*
X1304860Y586840D02*
D03*
Y536840D02*
D03*
Y486840D02*
D03*
Y436840D02*
D03*
X604520Y707390D02*
D03*
Y757390D02*
D03*
Y807390D02*
D03*
Y857390D02*
D03*
Y424980D02*
D03*
Y474980D02*
D03*
Y524980D02*
D03*
Y574980D02*
D03*
D58*
X792950Y600210D02*
D03*
Y615210D02*
D03*
X749300Y580515D02*
D03*
Y595515D02*
D03*
X782320Y520200D02*
D03*
Y535200D02*
D03*
X735330Y435610D02*
D03*
Y450610D02*
D03*
X739470Y493110D02*
D03*
Y478110D02*
D03*
X1099350Y413870D02*
D03*
Y398870D02*
D03*
X1071457Y412998D02*
D03*
Y397998D02*
D03*
X1040976Y412998D02*
D03*
Y397998D02*
D03*
X1011767Y412998D02*
D03*
Y397998D02*
D03*
D59*
X1240577Y666685D02*
D03*
X1161077D02*
D03*
X1240577Y620685D02*
D03*
X1161077D02*
D03*
X713360Y652640D02*
D03*
X792860D02*
D03*
X713360Y698640D02*
D03*
X792860D02*
D03*
D60*
X1090022Y585469D02*
D03*
X1117599Y557892D02*
D03*
X1081042Y576489D02*
D03*
X1108619Y548912D02*
D03*
X1072061Y567509D02*
D03*
X1099639Y539931D02*
D03*
X1063081Y558528D02*
D03*
X1090658Y530951D02*
D03*
X1054101Y549548D02*
D03*
X1081678Y521971D02*
D03*
D61*
X1159827Y744855D02*
D03*
Y712355D02*
D03*
X726440Y792480D02*
D03*
Y824980D02*
D03*
X704850Y722630D02*
D03*
Y755130D02*
D03*
X1139190Y805180D02*
D03*
Y772680D02*
D03*
D62*
X982980Y861045D02*
D03*
X985520Y773445D02*
D03*
D63*
X982980Y837550D02*
D03*
X985520Y796940D02*
D03*
D64*
X848490Y636400D02*
D03*
X858390Y646300D02*
D03*
D65*
X961130Y541281D02*
D03*
X951230Y551180D02*
D03*
X1041614Y740999D02*
D03*
X1051514Y731100D02*
D03*
X1072168Y710445D02*
D03*
X1062269Y720344D02*
D03*
D66*
X675000Y380000D02*
D03*
X1201420D02*
D03*
X1228090Y930000D02*
D03*
X675000D02*
D03*
D67*
X949960Y808990D02*
D03*
Y834390D02*
D03*
X834390Y529590D02*
D03*
Y554990D02*
D03*
X866140Y529590D02*
D03*
Y554990D02*
D03*
X763270Y798830D02*
D03*
Y824230D02*
D03*
X897890Y529590D02*
D03*
Y554990D02*
D03*
X674370Y646430D02*
D03*
Y621030D02*
D03*
D68*
X1067925Y768569D02*
D03*
X1102432Y734062D02*
D03*
D69*
X971550Y902060D02*
D03*
X946150D02*
D03*
X920750D02*
D03*
D70*
X1155700Y934720D02*
D03*
D71*
X1029700D02*
D03*
D72*
X842010Y495300D02*
D03*
X816610D02*
D03*
X867410D02*
D03*
X892810D02*
D03*
X863510Y690790D02*
D03*
X845549Y672829D02*
D03*
X881470Y708750D02*
D03*
X899431Y726711D02*
D03*
D73*
X1355790Y906350D02*
D03*
Y680350D02*
D03*
X1356360Y624840D02*
D03*
Y398840D02*
D03*
X553020Y669390D02*
D03*
Y895390D02*
D03*
Y386980D02*
D03*
Y612980D02*
D03*
D74*
X925830Y847090D02*
D03*
X908050Y825500D02*
D03*
X746760Y422910D02*
D03*
X998220Y588010D02*
D03*
X985520Y549910D02*
D03*
X1202690Y670560D02*
D03*
X1217930Y661670D02*
D03*
X1236980Y703580D02*
D03*
X1127760Y628650D02*
D03*
X1139190Y607060D02*
D03*
X969010Y391160D02*
D03*
X676910Y754380D02*
D03*
X690880Y746760D02*
D03*
X680720Y566420D02*
D03*
X628650Y552450D02*
D03*
X698500Y549910D02*
D03*
X902623Y451430D02*
D03*
X822960Y659130D02*
D03*
X802640Y528320D02*
D03*
X1098550Y595630D02*
D03*
X1108710Y586740D02*
D03*
X1137920Y561340D02*
D03*
X1008380Y708660D02*
D03*
X707390Y836930D02*
D03*
X726440Y849630D02*
D03*
X848360Y855980D02*
D03*
X901700Y796290D02*
D03*
X943610Y853440D02*
D03*
X848360Y797560D02*
D03*
Y811530D02*
D03*
X1003300Y843280D02*
D03*
X1010920Y831850D02*
D03*
X1022350Y822960D02*
D03*
X885190Y775970D02*
D03*
X904240Y411480D02*
D03*
X1149350Y579120D02*
D03*
X885190Y594360D02*
D03*
X946150Y613410D02*
D03*
X961390Y610870D02*
D03*
X916940Y664677D02*
D03*
X932180Y648970D02*
D03*
X935990Y688340D02*
D03*
X943610Y695960D02*
D03*
X1033780Y632460D02*
D03*
X1021080Y643890D02*
D03*
X1008380Y657860D02*
D03*
X952500Y704850D02*
D03*
X967740Y693420D02*
D03*
X982980Y681990D02*
D03*
X991870Y666750D02*
D03*
X775970Y619760D02*
D03*
X1221740Y713740D02*
D03*
X1203960Y775970D02*
D03*
X1122680Y792480D02*
D03*
X1112520Y760730D02*
D03*
X1127760Y741680D02*
D03*
X902970Y924560D02*
D03*
X915670Y951230D02*
D03*
X617220Y872490D02*
D03*
X829310Y720090D02*
D03*
X814070D02*
D03*
X782320Y558800D02*
D03*
X826770Y604520D02*
D03*
X763270Y598170D02*
D03*
X709930Y533400D02*
D03*
X706120Y440690D02*
D03*
X882650Y386080D02*
D03*
X975360Y464820D02*
D03*
X974090Y427990D02*
D03*
X1085850Y458470D02*
D03*
X1116330Y467360D02*
D03*
X1027430Y459740D02*
D03*
X1056640D02*
D03*
X995680Y482600D02*
D03*
X1003300Y502920D02*
D03*
X1017270Y527050D02*
D03*
X600710Y590550D02*
D03*
X619760Y591820D02*
D03*
X609600Y840740D02*
D03*
X635000Y842010D02*
D03*
X975360Y610870D02*
D03*
X1083310Y694690D02*
D03*
X1085850Y709930D02*
D03*
X1035050Y754380D02*
D03*
X1022350D02*
D03*
X1290320Y457200D02*
D03*
X1275080Y453390D02*
D03*
X1291590Y737870D02*
D03*
X1267460Y736600D02*
D03*
X1084580Y858520D02*
D03*
X1052830Y855980D02*
D03*
X1041400Y863600D02*
D03*
X1033780Y872490D02*
D03*
X1093470Y864870D02*
D03*
X721360Y740410D02*
D03*
X1225550Y814070D02*
D03*
X857250Y939800D02*
D03*
X859790Y891540D02*
D03*
X755650Y739140D02*
D03*
X999661Y720090D02*
D03*
X1035050Y684702D02*
D03*
X1019810Y698500D02*
D03*
X1026160Y500380D02*
D03*
X1270000Y535940D02*
D03*
X910590Y777240D02*
D03*
X1108710Y676910D02*
D03*
X1094740Y687070D02*
D03*
X900186Y656125D02*
D03*
X979212Y733355D02*
D03*
X991784Y726171D02*
D03*
X1065422Y656125D02*
D03*
X983702Y570813D02*
D03*
X1047462Y670493D02*
D03*
X753110Y519430D02*
D03*
X736600Y544830D02*
D03*
X732790Y393700D02*
D03*
X754380Y394970D02*
D03*
X764540Y383540D02*
D03*
X933450Y528320D02*
D03*
X916940Y511810D02*
D03*
X910590Y591820D02*
D03*
X885190Y609600D02*
D03*
X863600Y599440D02*
D03*
X770890Y476250D02*
D03*
X892810Y441960D02*
D03*
X890270Y408940D02*
D03*
X1065711Y591820D02*
D03*
X1042670Y580390D02*
D03*
X1070610Y604881D02*
D03*
X801370Y463550D02*
D03*
X748030Y614680D02*
D03*
M02*
